<svg width="510" height="265" viewBox="0 0 510 265" fill="none" xmlns="http://www.w3.org/2000/svg">
<path d="M141.147 28.3449C140.978 31.5569 136.799 35.8349 138.094 38.7799C140.476 44.2019 139.108 50.6849 136.017 55.7359C132.926 60.7879 128.319 64.6969 123.792 68.5149C124.023 60.6219 123.332 52.7029 121.738 44.9689C121.239 42.5469 120.425 39.8449 118.21 38.7459C115.344 37.3249 111.701 39.3799 108.764 38.1119C105.633 36.7589 104.999 32.4809 102.36 30.3209C99.9731 28.3679 96.4591 28.5749 93.5351 29.5579C90.6111 30.5409 87.9121 32.1829 84.9021 32.8539C81.8921 33.5259 78.2611 32.9249 76.5941 30.3299C75.5651 28.7279 76.3071 29.7069 75.3241 28.0759C75.3241 28.0759 69.4521 28.2769 67.4361 21.4479C67.4361 21.4479 64.6761 13.8609 70.7781 10.5049C70.7781 10.5049 72.1671 -3.20813 85.9661 2.96187C89.9281 4.73287 94.6191 -0.981134 98.4881 0.984866C101.707 2.62087 102.666 7.09388 105.884 8.73188C109.578 10.6119 113.882 7.82088 118.023 7.64188C123.333 7.41288 128.273 12.3839 128.011 17.6919C128.011 17.6919 128.662 14.9529 133.148 16.1599C137.635 17.3679 141.477 22.0879 141.147 28.3449Z" fill="#263238"/>
<path d="M135.303 50.4269C135.34 48.8799 135.144 47.2949 134.459 45.9069C133.882 44.7379 131.717 42.0769 129.328 41.9179L129.68 27.7849C129.737 24.8679 127.554 22.3929 124.653 22.0859L96.939 19.1549C87.39 18.1449 78.937 25.2979 78.333 34.8819C77.662 45.5289 77.263 58.5549 78.524 66.4989C81.061 82.4729 93.305 84.5059 93.305 84.5059L93.006 95.6649C92.536 107.557 101.435 114.715 110.618 114.715C119.915 114.715 128.277 106.79 128.008 95.0169L128.903 59.0489C130.409 58.9329 131.907 58.1969 132.95 57.0769C134.587 55.3179 135.245 52.8309 135.303 50.4269Z" fill="#D7AB9C"/>
<path d="M84.5271 43.5489C84.4891 44.6309 85.3731 45.5549 86.5021 45.6159C87.6291 45.6759 88.576 44.8509 88.614 43.7689C88.6521 42.6869 87.7681 41.7609 86.6411 41.7009C85.5121 41.6399 84.5651 42.4669 84.5271 43.5489Z" fill="#263238"/>
<path d="M81.157 41.657C81.411 41.924 82.963 40.775 85.168 40.781C87.37 40.755 88.988 41.889 89.227 41.619C89.344 41.5 89.086 41.017 88.381 40.504C87.688 39.993 86.505 39.497 85.132 39.502C83.759 39.51 82.604 40.015 81.94 40.533C81.262 41.054 81.032 41.537 81.157 41.657Z" fill="#263238"/>
<path d="M105.807 43.96C105.769 45.042 106.653 45.966 107.782 46.027C108.909 46.087 109.856 45.262 109.894 44.18C109.932 43.098 109.048 42.1721 107.92 42.1121C106.792 42.0511 105.845 42.879 105.807 43.96Z" fill="#263238"/>
<path d="M102.827 42.0681C103.082 42.3351 104.635 41.1871 106.838 41.1931C109.04 41.1671 110.658 42.3011 110.897 42.0311C111.014 41.9121 110.758 41.4301 110.051 40.9171C109.358 40.4061 108.175 39.9101 106.802 39.9151C105.429 39.9231 104.274 40.4281 103.609 40.9461C102.934 41.4661 102.703 41.9491 102.827 42.0681Z" fill="#263238"/>
<path d="M94.8271 58.4181C94.8371 58.2931 93.467 58.0561 91.246 57.7721C90.683 57.7141 90.1501 57.6021 90.0551 57.2181C89.9221 56.8111 90.158 56.2041 90.431 55.5491C90.96 54.1871 91.5141 52.7591 92.0961 51.2631C94.4081 45.1601 96.0811 40.1411 95.8351 40.0501C95.5881 39.9591 93.514 44.8321 91.203 50.9351C90.647 52.4401 90.114 53.8741 89.608 55.2471C89.395 55.8871 89.0291 56.6121 89.3161 57.4561C89.4681 57.8771 89.881 58.1821 90.242 58.2791C90.603 58.3891 90.92 58.3951 91.198 58.4121C93.432 58.5331 94.8181 58.5431 94.8271 58.4181Z" fill="#263238"/>
<path d="M93.304 84.5049C93.304 84.5049 104.051 85.1979 114.698 78.7979C114.698 78.7979 109.163 90.8168 93.175 89.3228L93.304 84.5049Z" fill="#B38E82"/>
<path d="M101.836 38.2088C102.053 38.8078 104.255 38.5238 106.841 38.8358C109.434 39.0958 111.52 39.8528 111.863 39.3148C112.016 39.0578 111.653 38.4938 110.809 37.9128C109.973 37.3338 108.639 36.7828 107.087 36.6098C105.534 36.4398 104.113 36.6868 103.171 37.0698C102.22 37.4528 101.742 37.9238 101.836 38.2088Z" fill="#263238"/>
<path d="M80.8001 36.5269C81.1881 37.0279 82.7071 36.5079 84.5331 36.4839C86.3581 36.3949 87.9061 36.8199 88.2621 36.2969C88.4181 36.0429 88.1751 35.5409 87.4991 35.0669C86.8341 34.5949 85.7201 34.2089 84.4641 34.2459C83.2101 34.2859 82.1221 34.7399 81.4871 35.2529C80.8411 35.7669 80.6291 36.2829 80.8001 36.5269Z" fill="#263238"/>
<path d="M95.308 70.892C95.266 70.844 95.4621 70.577 95.9091 70.298C96.3511 70.019 97.063 69.767 97.873 69.762C98.684 69.76 99.3971 70.005 99.8421 70.28C100.292 70.555 100.489 70.82 100.448 70.869C100.361 70.993 99.34 70.256 97.875 70.283C96.41 70.27 95.396 71.015 95.308 70.892Z" fill="#B38E82"/>
<path d="M127.866 54.6779C127.848 54.5879 128.525 54.5139 129.379 53.9399C130.214 53.3929 131.223 52.2069 131.23 50.6519C131.257 49.1009 130.392 47.8189 129.576 47.2469C128.749 46.6289 128.05 46.7329 128.05 46.6559C128.003 46.5949 128.788 46.3309 129.78 46.9399C130.742 47.4909 131.782 48.9009 131.752 50.6599C131.745 51.5269 131.441 52.3379 131.015 52.9439C130.589 53.5559 130.059 53.986 129.573 54.253C128.585 54.794 127.86 54.7289 127.866 54.6779Z" fill="#B38E82"/>
<path d="M75.324 15.343C72.743 22.244 78.873 27.251 83.65 28.365C90.328 29.923 97.436 25.707 102.002 27.501C105.409 28.84 108.63 31.475 112.252 30.943C114.012 30.684 115.75 29.672 117.467 30.138C119.655 30.733 120.545 33.399 120.494 35.667C120.431 38.467 119.487 41.244 119.841 44.022C120.195 46.8 122.676 49.673 125.379 48.938C128.008 48.223 129.697 45.638 129.921 42.923C130.238 39.078 129.538 34.493 129.726 30.639C129.892 27.238 129.901 23.497 127.737 20.869C125.564 18.23 121.872 17.527 118.486 17.062C104.196 15.101 89.742 14.34 75.326 14.791" fill="#263238"/>
<path d="M66.911 16.8169C66.911 16.8169 66.8 16.5809 66.769 16.0959C66.737 15.6179 66.786 14.8719 67.189 14.0309C67.588 13.2079 68.346 12.2479 69.599 11.7389C70.219 11.4859 70.964 11.4099 71.704 11.5019C72.447 11.5789 73.202 11.7739 73.989 11.8189C74.773 11.8759 75.585 11.6839 76.348 11.2929C77.117 10.9089 77.823 10.3249 78.54 9.7059C79.257 9.0839 79.986 8.4039 80.829 7.7959C81.675 7.1979 82.678 6.7029 83.772 6.5099C85.966 6.0779 88.33 6.6179 90.458 7.6469C92.603 8.7049 94.483 10.2959 96.383 11.8759C98.285 13.4439 100.159 15.0159 102.289 15.8619C103.347 16.2759 104.464 16.4829 105.538 16.3569C106.615 16.2359 107.63 15.8389 108.579 15.3699C110.463 14.4159 112.239 13.2729 114.143 12.8059C116.018 12.3039 117.884 12.2519 119.498 12.6369C121.12 13.0029 122.452 13.8149 123.388 14.7289C124.331 15.6489 124.908 16.6499 125.238 17.5079C125.558 18.3739 125.647 19.0949 125.646 19.5759C125.664 19.8169 125.628 20.0009 125.624 20.1229C125.612 20.2459 125.602 20.3079 125.593 20.3069C125.511 20.3189 125.725 19.2609 125.05 17.5819C124.701 16.7599 124.116 15.8069 123.188 14.9389C122.262 14.0749 120.981 13.3249 119.417 12.9949C117.862 12.6479 116.065 12.7179 114.257 13.2209C112.422 13.6889 110.722 14.8029 108.791 15.7979C107.823 16.2829 106.757 16.7119 105.592 16.8489C104.425 16.9909 103.217 16.7689 102.102 16.3349C99.856 15.4469 97.956 13.8439 96.048 12.2739C94.147 10.6909 92.294 9.1249 90.232 8.1019C88.18 7.1019 85.917 6.58391 83.861 6.97791C81.767 7.32191 80.26 8.79291 78.82 10.0299C78.088 10.6479 77.353 11.2459 76.526 11.6489C75.709 12.0579 74.804 12.2579 73.963 12.1839C73.126 12.1229 72.376 11.9139 71.663 11.8289C70.951 11.7299 70.283 11.7879 69.701 12.0089C68.528 12.4539 67.776 13.3439 67.368 14.1199C66.955 14.9119 66.873 15.6239 66.871 16.0909C66.871 16.5649 66.944 16.8109 66.911 16.8169Z" fill="#455A64"/>
<path d="M74.6421 27.9349C74.6421 27.9349 74.4101 28.0509 73.9431 27.9819C73.4921 27.9099 72.7971 27.5979 72.3241 26.8189C71.8521 26.0449 71.7391 24.8989 71.9461 23.6769C72.1381 22.4469 72.6501 21.0779 73.5791 19.8029C74.5031 18.5339 75.8941 17.3799 77.6481 16.7439C79.3851 16.1019 81.4781 15.9569 83.4821 16.5969C85.4881 17.2299 87.2991 18.4859 89.0941 19.7809C90.8901 21.0639 92.7591 22.4479 94.9771 23.0799C97.1901 23.7319 99.5201 23.3989 101.584 22.7159C103.667 22.0229 105.543 21.0019 107.309 19.9869C109.078 18.9759 110.77 17.9989 112.456 17.2789C114.14 16.5639 115.807 16.0749 117.385 16.0039C120.545 15.8499 123.015 17.0699 124.235 18.3069C124.871 18.9179 125.194 19.5309 125.413 19.9289C125.586 20.3549 125.667 20.5789 125.651 20.5849C125.585 20.6269 125.347 19.6309 124.096 18.4529C122.873 17.2989 120.458 16.1759 117.407 16.3709C115.895 16.4609 114.27 16.9569 112.628 17.6749C110.98 18.3979 109.313 19.3779 107.548 20.4029C105.787 21.4299 103.882 22.4819 101.745 23.1999C99.6291 23.9089 97.1831 24.2709 94.8361 23.5809C92.4931 22.9099 90.5881 21.4799 88.7961 20.1939C87.0071 18.8929 85.2451 17.6679 83.3391 17.0539C81.4431 16.4349 79.4591 16.5549 77.7951 17.1489C76.1181 17.7379 74.7821 18.8169 73.8741 20.0219C72.9641 21.2319 72.4451 22.5409 72.2321 23.7249C72.0051 24.9069 72.0881 25.9849 72.4991 26.7169C72.9081 27.4499 73.5431 27.7779 73.9631 27.8779C74.3981 27.9769 74.6401 27.9069 74.6421 27.9349Z" fill="#455A64"/>
<path d="M135.88 54.587C135.84 54.554 136.247 54.112 136.769 53.184C137.288 52.266 137.88 50.797 137.965 48.906C138.001 47.966 137.917 46.923 137.587 45.869C137.275 44.811 136.692 43.769 135.983 42.728C135.284 41.68 134.454 40.629 133.723 39.428C133.009 38.24 132.35 36.823 132.416 35.264C132.442 33.698 133.171 32.353 133.749 31.12C134.353 29.885 134.861 28.665 134.87 27.435C134.93 24.955 133.515 22.869 131.918 21.945C130.294 20.98 128.661 20.959 127.634 21.104C126.583 21.259 126.048 21.551 126.028 21.501C126.02 21.485 126.149 21.41 126.406 21.282C126.669 21.172 127.062 21.007 127.6 20.905C128.649 20.695 130.355 20.648 132.104 21.628C133.831 22.574 135.385 24.771 135.35 27.446C135.352 28.786 134.808 30.102 134.21 31.341C133.629 32.587 132.954 33.872 132.937 35.281C132.874 36.69 133.472 38.009 134.161 39.168C134.863 40.336 135.682 41.391 136.383 42.465C137.092 43.529 137.691 44.627 138.001 45.75C138.329 46.863 138.394 47.954 138.333 48.929C138.196 50.892 137.528 52.383 136.944 53.291C136.658 53.753 136.389 54.082 136.196 54.29C136.001 54.495 135.893 54.599 135.88 54.587Z" fill="#455A64"/>
<path d="M97.4329 41.1958C97.4329 41.1868 97.4359 41.1778 97.4429 41.1688L97.4549 41.1558L97.4629 41.1488L97.4669 41.1458L97.4689 41.1438L97.4699 41.1428V41.2488C97.4569 41.2578 97.4399 41.2658 97.4209 41.2738L97.4059 41.2798L97.3979 41.2828L97.3939 41.2838L97.3929 41.1038L97.396 41.1028L97.4309 41.0908V41.2978C97.1509 41.3898 96.5039 41.4548 95.7509 41.4548C94.7389 41.4548 93.9189 41.3378 93.9189 41.1948C93.9189 41.0508 94.7389 40.9348 95.7509 40.9348C96.5039 40.9348 97.1499 40.9988 97.4309 41.0918V41.2988L97.396 41.2868L97.3939 41.2858L97.3929 41.1058L97.3979 41.1068L97.4059 41.1098L97.4209 41.1158C97.4399 41.1238 97.4559 41.1328 97.4689 41.1408L97.4699 41.2468L97.4689 41.2458L97.4669 41.2438L97.4629 41.2408L97.4549 41.2338L97.4429 41.2208C97.4359 41.2138 97.4329 41.2048 97.4329 41.1958Z" fill="#263238"/>
<path d="M129.784 43.4599C129.774 43.6029 126.954 43.5189 123.486 43.2699C120.017 43.0219 117.214 42.7039 117.225 42.5609C117.235 42.4179 120.055 42.5029 123.524 42.7509C126.991 42.9989 129.794 43.3169 129.784 43.4599Z" fill="#263238"/>
<path d="M104.017 57.8629C104.072 57.8519 104.25 58.4709 104.091 59.4799C103.943 60.4709 103.367 61.8589 102.14 62.8679C100.909 63.8719 99.4339 64.162 98.4329 64.111C97.4129 64.067 96.8409 63.7709 96.8629 63.7189C96.8839 63.6359 97.4779 63.7949 98.4289 63.7429C99.3689 63.6989 100.697 63.3719 101.81 62.4649C102.919 61.5539 103.502 60.317 103.731 59.404C103.971 58.48 103.931 57.8669 104.017 57.8629Z" fill="#263238"/>
<path d="M64.3811 129.661C64.3901 129.661 64.3991 129.769 64.4081 129.981C64.4151 130.221 64.4231 130.531 64.4341 130.921C64.4461 131.782 64.4621 132.992 64.4831 134.534C64.5011 137.707 64.5261 142.238 64.5571 147.823C64.5921 159.047 64.2121 174.552 63.3421 191.652C62.4121 208.737 61.5701 224.201 60.9591 235.435C60.6801 241.012 60.4531 245.536 60.2941 248.705C60.2151 250.245 60.1531 251.453 60.1091 252.313C60.0841 252.702 60.0631 253.011 60.0481 253.251C60.0311 253.462 60.0181 253.57 60.0091 253.57C60.0001 253.57 59.9951 253.461 59.9941 253.249C59.9961 253.009 60.0001 252.699 60.0031 252.309C60.0241 251.449 60.0531 250.239 60.0901 248.697C60.1781 245.56 60.3411 241.023 60.5891 235.418C61.0621 224.206 61.9661 208.729 62.8201 191.628C63.6891 174.533 64.1271 159.041 64.1871 147.824C64.2251 142.24 64.2571 137.709 64.2781 134.536C64.2991 132.994 64.3151 131.784 64.3271 130.923C64.3381 130.533 64.3461 130.223 64.3531 129.983C64.3631 129.77 64.3721 129.661 64.3811 129.661Z" fill="#263238"/>
<path d="M160.98 112.434C155.599 106.225 145.088 105.313 140.43 108.683C135.772 112.053 133.18 117.781 132.712 123.511C132.245 129.241 133.705 134.983 135.894 140.299C139.401 148.82 144.592 155.714 152.343 164.493L172.32 190.721L133.769 228.359L149.744 253.568L182.513 227.168L209.613 198.443" fill="#08A8B1"/>
<path d="M21.6032 193.276C21.5772 193.228 22.3242 192.744 23.6782 192.274C25.0252 191.802 27.0032 191.416 29.1962 191.531C31.3892 191.654 33.3142 192.251 34.6022 192.866C35.8972 193.479 36.5882 194.041 36.5562 194.087C36.5102 194.162 35.7562 193.717 34.4572 193.205C33.1622 192.69 31.2902 192.171 29.1682 192.051C27.0462 191.94 25.1292 192.254 23.7862 192.626C22.4392 192.994 21.6402 193.356 21.6032 193.276Z" fill="#263238"/>
<path d="M166.185 118.327L166.166 118.364C152.709 100.527 138.23 101.996 130.849 101.785V93.9529C125.398 93.9529 117.952 98.8649 114.099 102.379L110.296 107.605C108.281 101.818 103.697 97.2379 97.8521 95.3989C94.3251 94.2889 91.4771 93.9539 91.4771 93.9539V100.96C73.4031 101.464 63.7321 106.406 51.6551 120.388C51.0301 121.112 49.8021 122.339 48.3951 123.728L12.6481 165.699C5.3471 173.777 -1.3029 184.899 0.219101 195.681C1.9341 207.833 9.0201 215.839 22.5871 225.006L60.1881 249.378L60.0081 253.568H149.742C149.742 253.568 210.592 208.68 212.083 192.051C213.263 178.914 192.304 151.07 166.185 118.327ZM61.7261 213.639L35.4131 194.004L63.8351 164.598L61.7261 213.639ZM147.879 215.199L147.173 200.664L150.939 162.498C158.437 171.1 172.32 188.163 172.32 190.721L147.879 215.199Z" fill="#08A8B1"/>
<path d="M130.849 101.785C130.879 101.805 130.635 102.228 130.169 102.976C129.696 103.719 129.003 104.79 128.096 106.08C126.291 108.661 123.634 112.143 120.224 115.557C119.375 116.42 118.509 117.226 117.67 117.998L117.251 118.384L117.243 117.813C117.217 115.872 116.729 114.073 116.028 112.59C115.327 111.1 114.418 109.927 113.561 109.058C112.705 108.184 111.91 107.568 111.267 107.438C110.615 107.31 110.315 107.662 110.295 107.604C110.27 107.625 110.541 107.183 111.296 107.262C112.027 107.352 112.89 107.968 113.791 108.82C114.703 109.68 115.675 110.868 116.428 112.396C117.181 113.917 117.712 115.78 117.752 117.806L117.325 117.621C118.154 116.849 119.01 116.047 119.853 115.19C123.236 111.802 125.919 108.382 127.795 105.864C128.679 104.66 129.419 103.652 129.999 102.862C130.519 102.149 130.819 101.765 130.849 101.785Z" fill="#263238"/>
<path d="M91.4781 100.959C91.5071 100.938 91.7861 101.269 92.2661 101.885C92.8011 102.594 93.4671 103.476 94.2571 104.522C95.9191 106.762 98.1861 109.876 100.664 113.335C101.217 114.11 101.758 114.868 102.279 115.597L101.829 115.663C102.414 113.966 103.016 112.352 103.849 111.038C104.661 109.713 105.726 108.743 106.742 108.193C107.758 107.629 108.703 107.463 109.334 107.466C109.971 107.468 110.303 107.585 110.298 107.605C110.292 107.647 109.952 107.594 109.343 107.647C108.738 107.7 107.855 107.908 106.91 108.483C105.962 109.049 104.989 109.984 104.232 111.273C103.457 112.551 102.887 114.13 102.313 115.83L102.154 116.301L101.863 115.896C101.34 115.168 100.796 114.411 100.241 113.638C97.7631 110.179 95.5441 107.031 93.9581 104.736C93.2221 103.652 92.6011 102.738 92.1021 102.003C91.6721 101.35 91.4491 100.98 91.4781 100.959Z" fill="#263238"/>
<g opacity="0.1">
<path d="M110.296 107.604C113.298 110.668 114.765 115.628 114.206 119.881C114.014 121.34 113.846 123.283 115.215 123.825C116.164 124.201 117.187 123.549 117.982 122.909C123.8 118.228 128.635 112.331 132.085 105.708C132.37 105.161 132.653 104.575 132.605 103.96C132.558 103.346 132.045 102.724 131.432 102.791C131 102.838 130.674 103.189 130.39 103.517C126.233 108.314 121.631 113.303 117.474 118.1C117.632 115.316 116.813 112.743 115.162 110.71C113.513 108.677 111.709 106.637 110.296 107.604Z" fill="black"/>
</g>
<path d="M148.659 251.897C148.647 251.905 148.541 251.761 148.347 251.478C148.133 251.156 147.857 250.739 147.512 250.219C146.77 249.067 145.736 247.459 144.446 245.455C141.829 241.318 138.181 235.552 133.934 228.838L133.829 228.672L133.968 228.533C136.873 225.636 140.045 222.473 143.347 219.18C151.303 211.306 158.502 204.181 163.757 198.979C166.358 196.439 168.476 194.372 169.984 192.9C170.7 192.216 171.27 191.672 171.696 191.266C172.091 190.896 172.305 190.709 172.318 190.721C172.331 190.734 172.142 190.946 171.77 191.34C171.362 191.764 170.815 192.331 170.127 193.043C168.647 194.543 166.569 196.651 164.017 199.239C158.79 204.468 151.628 211.631 143.715 219.547C140.405 222.833 137.227 225.989 134.315 228.879L134.35 228.575C138.533 235.329 142.126 241.13 144.703 245.292C145.942 247.328 146.936 248.961 147.649 250.132C147.966 250.67 148.22 251.1 148.417 251.433C148.589 251.731 148.672 251.89 148.659 251.897Z" fill="#263238"/>
<path d="M137.63 111.926C137.636 111.932 137.587 111.999 137.484 112.122C137.359 112.267 137.207 112.444 137.02 112.661C136.59 113.115 136.017 113.835 135.301 114.776C133.936 116.679 132.139 119.721 131.476 123.904C130.792 128.063 131.452 133.226 133.7 138.339C134.817 140.886 136.232 143.496 138.1 145.867C140.036 148.23 142.034 150.686 144.045 153.229C152.108 163.395 159.048 172.867 164.138 179.669C166.658 183.047 168.706 185.793 170.154 187.734C170.84 188.662 171.383 189.396 171.781 189.933C171.947 190.167 172.083 190.357 172.194 190.513C172.285 190.646 172.328 190.716 172.32 190.722C172.313 190.727 172.256 190.668 172.151 190.546C172.029 190.399 171.88 190.218 171.697 189.998C171.28 189.475 170.711 188.761 169.992 187.858C168.525 185.989 166.418 183.272 163.843 179.892C158.677 173.145 151.691 163.71 143.637 153.554C141.628 151.013 139.635 148.558 137.702 146.188C135.791 143.75 134.381 141.121 133.258 138.529C131.004 133.338 130.368 128.073 131.112 123.846C131.834 119.594 133.712 116.537 135.137 114.657C135.885 113.726 136.486 113.024 136.942 112.591C137.145 112.388 137.31 112.222 137.445 112.086C137.561 111.973 137.623 111.919 137.63 111.926Z" fill="#263238"/>
<path d="M171.361 124.841C171.378 124.888 170.811 125.074 169.871 125.573C168.936 126.076 167.648 126.944 166.32 128.306C164.983 129.659 163.633 131.494 162.318 133.649C160.986 135.795 159.656 138.265 157.853 140.612C156.077 142.98 153.802 144.815 151.468 145.893C149.142 147.002 146.823 147.451 144.893 147.535C142.954 147.626 141.39 147.372 140.346 147.11C139.819 146.993 139.424 146.848 139.157 146.754C138.89 146.659 138.753 146.6 138.759 146.583C138.779 146.441 141.055 147.418 144.872 147.167C146.759 147.039 149.012 146.562 151.261 145.46C153.523 144.383 155.698 142.613 157.442 140.293C159.21 137.993 160.55 135.541 161.912 133.394C163.26 131.236 164.665 129.389 166.061 128.044C167.449 126.688 168.801 125.846 169.78 125.391C170.273 125.168 170.664 125.015 170.939 124.94C171.21 124.858 171.355 124.824 171.361 124.841Z" fill="#FAFAFA"/>
<path d="M147.513 212.77C147.51 212.778 147.43 212.766 147.276 212.735C147.093 212.694 146.871 212.643 146.599 212.582C146.305 212.5 145.932 212.445 145.492 212.379C145.055 212.296 144.544 212.251 143.967 212.211C141.668 212.022 138.289 212.309 134.316 213.451C132.331 214.022 130.193 214.783 127.972 215.771C125.752 216.754 123.451 217.989 120.962 219.158C118.473 220.319 115.804 221.481 112.878 222.219C111.419 222.588 109.898 222.852 108.338 222.94C106.779 223.012 105.181 222.914 103.608 222.595C100.455 221.95 97.5892 220.599 95.0202 219.057C92.4402 217.514 90.1282 215.773 87.9202 214.148C83.5452 210.865 79.3702 208.131 75.3972 206.966C73.4302 206.355 71.5652 206.109 69.9332 206.071C68.2972 206.05 66.8932 206.263 65.7812 206.558C63.5432 207.152 62.4962 207.97 62.4612 207.894C62.4562 207.886 62.5212 207.839 62.6532 207.754C62.8132 207.655 63.0082 207.534 63.2462 207.386C63.7872 207.101 64.5992 206.679 65.7272 206.363C66.8472 206.034 68.2722 205.787 69.9362 205.78C71.5962 205.791 73.4962 206.015 75.5032 206.613C79.5622 207.755 83.8102 210.497 88.2052 213.761C90.4232 215.378 92.7282 217.1 95.2822 218.619C97.8252 220.138 100.642 221.457 103.712 222.085C105.243 222.394 106.792 222.49 108.312 222.423C109.833 222.339 111.32 222.085 112.754 221.725C115.628 221.008 118.276 219.869 120.759 218.725C123.242 217.573 125.548 216.354 127.8 215.377C130.046 214.398 132.209 213.651 134.218 213.098C138.239 211.991 141.665 211.757 143.985 212.011C146.314 212.244 147.513 212.77 147.513 212.77Z" fill="#FAFAFA"/>
<path d="M48.6642 203.891C48.6822 203.889 48.7102 204.007 48.7472 204.235C48.7822 204.463 48.8382 204.799 48.8641 205.237C48.9321 206.109 48.9652 207.391 48.7032 208.95C48.4532 210.502 47.8382 212.342 46.6242 214.066C45.4302 215.819 43.5412 217.246 41.4962 218.462C39.4442 219.69 37.4262 220.715 35.7752 221.914C34.1242 223.109 32.7612 224.375 31.9132 225.647C31.0452 226.913 30.7722 228.16 30.7602 229.011C30.7542 229.868 30.8902 230.34 30.8362 230.351C30.8192 230.355 30.7782 230.242 30.7162 230.018C30.6432 229.796 30.5902 229.456 30.5582 229.014C30.5052 228.133 30.7372 226.794 31.6052 225.447C32.4512 224.092 33.8272 222.766 35.4942 221.527C37.1692 220.279 39.2012 219.231 41.2292 218.017C43.2572 216.809 45.0722 215.452 46.2362 213.787C47.4222 212.148 48.0532 210.39 48.3432 208.884C48.6442 207.373 48.6692 206.112 48.6632 205.247C48.6552 204.377 48.6192 203.895 48.6642 203.891Z" fill="#FAFAFA"/>
<path d="M199.57 162.498C199.606 162.634 197.109 162.648 193.638 164.352C191.92 165.198 190.003 166.515 188.308 168.396C187.468 169.34 186.688 170.424 186.05 171.638C185.392 172.842 184.937 174.215 184.293 175.571C183.671 176.934 182.777 178.187 181.657 179.087C180.553 180.004 179.31 180.64 178.081 181.072C175.608 181.944 173.218 182.013 171.28 181.917C169.329 181.814 167.774 181.551 166.704 181.372C165.634 181.185 165.047 181.057 165.052 181.023C165.057 180.987 165.656 181.047 166.733 181.172C167.81 181.289 169.367 181.495 171.295 181.549C173.213 181.597 175.542 181.487 177.92 180.62C180.288 179.792 182.676 178.062 183.824 175.347C184.451 174.03 184.913 172.646 185.6 171.399C186.266 170.146 187.079 169.035 187.953 168.073C189.717 166.156 191.704 164.84 193.479 164.02C195.256 163.188 196.811 162.811 197.886 162.64C198.423 162.541 198.847 162.516 199.133 162.498C199.418 162.481 199.569 162.48 199.57 162.498Z" fill="#FAFAFA"/>
<path d="M149.873 170.939C149.875 170.948 149.797 170.971 149.644 171.007C149.46 171.047 149.235 171.095 148.961 171.155C148.36 171.287 147.468 171.447 146.314 171.629C144.007 171.982 140.635 172.382 136.447 172.327C132.276 172.252 127.243 171.728 121.997 169.88C119.371 168.975 116.756 167.658 114.139 166.192C111.512 164.748 108.816 163.191 105.841 162.142C104.356 161.621 102.838 161.256 101.319 161.117C99.8 161.034 98.286 161.051 96.831 161.341C93.911 161.855 91.237 162.995 88.797 164.234C83.944 166.807 79.858 169.668 76.176 171.656C72.525 173.699 69.288 174.859 66.976 175.245C65.832 175.518 64.915 175.507 64.301 175.542C64.02 175.552 63.791 175.56 63.602 175.566C63.445 175.569 63.364 175.566 63.364 175.557C63.364 175.548 63.444 175.533 63.601 175.513C63.788 175.492 64.016 175.467 64.295 175.437C64.904 175.368 65.809 175.347 66.936 175.046C69.213 174.602 72.39 173.406 75.997 171.333C79.636 169.316 83.69 166.428 88.575 163.808C91.034 162.545 93.746 161.374 96.743 160.838C98.235 160.538 99.799 160.515 101.366 160.601C102.934 160.742 104.497 161.118 106.013 161.65C109.051 162.723 111.765 164.297 114.385 165.745C116.998 167.216 119.567 168.52 122.156 169.427C127.328 171.278 132.31 171.837 136.453 171.958C140.612 172.059 143.975 171.718 146.284 171.427C147.439 171.277 148.335 171.149 148.941 171.051C149.219 171.012 149.446 170.98 149.633 170.954C149.791 170.935 149.872 170.93 149.873 170.939Z" fill="#FAFAFA"/>
<path d="M52.1191 176.719C52.0461 176.714 52.3601 176.143 52.0671 175.178C51.7801 174.232 50.6641 173.084 48.9231 172.608C48.0561 172.349 47.0641 172.201 45.9971 171.956C44.9411 171.714 43.7591 171.326 42.7941 170.484C41.8251 169.663 41.1001 168.523 40.5761 167.282C40.0491 166.033 39.7381 164.675 39.4271 163.309C39.1181 161.941 38.7961 160.624 38.2871 159.425C37.7821 158.225 37.1381 157.137 36.4141 156.186C34.9701 154.271 33.1941 152.948 31.5871 152.118C29.9751 151.273 28.5311 150.893 27.5321 150.696C26.5311 150.493 25.9601 150.453 25.9641 150.402C25.9651 150.384 26.1081 150.381 26.3801 150.391C26.6511 150.405 27.0551 150.409 27.5661 150.497C28.5891 150.635 30.0781 150.966 31.7531 151.79C33.4231 152.599 35.2801 153.932 36.7941 155.894C37.5531 156.869 38.2281 157.99 38.7571 159.228C39.2921 160.468 39.6261 161.826 39.9351 163.194C40.2461 164.562 40.5491 165.889 41.0471 167.086C41.5431 168.279 42.2211 169.355 43.1081 170.121C43.9841 170.903 45.0671 171.281 46.1001 171.537C47.1371 171.795 48.1401 171.966 49.0321 172.257C50.8521 172.804 52.0131 174.077 52.2621 175.121C52.3961 175.641 52.3471 176.065 52.2781 176.331C52.2001 176.596 52.1331 176.725 52.1191 176.719Z" fill="#FAFAFA"/>
<path d="M131.098 125.429C131.064 125.503 130.148 124.736 128.159 124.237C127.168 124.016 125.903 123.917 124.478 124.184C123.049 124.421 121.483 124.997 119.814 125.752C118.142 126.509 116.38 127.486 114.458 128.498C112.535 129.497 110.43 130.55 108.031 131.165C105.635 131.794 102.985 131.846 100.34 131.417C97.6932 130.965 95.0522 130.048 92.5012 128.824C87.3932 126.334 83.1452 122.992 79.0412 120.395C74.9692 117.748 70.9872 115.822 67.3932 115.065C63.8152 114.232 60.7852 114.486 58.8032 114.964C56.8112 115.455 55.7992 116.018 55.7742 115.956C55.7742 115.956 56.7502 115.325 58.7542 114.767C60.7452 114.221 63.8282 113.906 67.4712 114.705C71.1302 115.427 75.1932 117.351 79.2992 119.99C83.4392 122.58 87.6912 125.902 92.7272 128.355C95.2452 129.562 97.8392 130.465 100.426 130.914C103.011 131.34 105.584 131.298 107.915 130.7C110.253 130.116 112.338 129.094 114.261 128.115C116.183 127.123 117.966 126.159 119.665 125.416C121.36 124.675 122.961 124.112 124.432 123.896C125.898 123.65 127.202 123.782 128.209 124.04C129.223 124.302 129.937 124.699 130.415 124.957C130.874 125.252 131.108 125.414 131.098 125.429Z" fill="#FAFAFA"/>
<path d="M125.454 252.391C126.465 252.897 125.344 252.34 128.236 253.776L144.278 253.745L147.513 251.11L135.82 231.881C134.395 232.503 128.108 233.486 126.085 234.201C124.335 234.82 122.488 235.12 120.631 235.118C118.67 235.115 116.146 235.018 114.46 234.611C114.321 234.562 114.147 234.521 114.026 234.467C113.735 234.337 113.447 234.297 113.165 234.293C111.43 234.139 110.056 235.949 111.027 237.382C112.022 238.85 116.734 240.719 122.775 240.548C122.871 240.549 122.96 240.56 123.056 240.56C128.363 240.553 123.496 245.002 120.351 247.637C119.242 248.566 118.614 249.995 118.832 251.425C118.916 251.975 119.121 252.466 119.54 252.729C120.882 253.568 125.454 252.391 125.454 252.391Z" fill="#D7AB9C"/>
<path d="M60.163 249.997C60.154 249.996 60.15 249.901 60.151 249.714C60.155 249.497 60.161 249.225 60.167 248.885C60.194 248.118 60.232 247.053 60.28 245.7C60.398 242.895 60.566 238.904 60.773 233.989C61.187 224.067 61.755 210.425 62.384 195.355C62.973 180.262 63.425 166.597 63.666 156.705C63.77 151.787 63.854 147.795 63.913 144.989C63.942 143.636 63.965 142.57 63.981 141.803C63.994 141.463 64.004 141.191 64.012 140.974C64.022 140.787 64.031 140.692 64.04 140.692C64.049 140.692 64.057 140.788 64.065 140.974C64.071 141.19 64.077 141.463 64.086 141.803C64.093 142.57 64.103 143.636 64.116 144.99C64.143 147.758 64.098 151.763 64.035 156.712C63.888 166.61 63.494 180.28 62.905 195.375C62.32 210.465 61.664 224.123 61.142 234.007C60.866 238.919 60.641 242.907 60.484 245.71C60.394 247.061 60.324 248.125 60.273 248.89C60.245 249.229 60.223 249.501 60.205 249.716C60.185 249.902 60.172 249.997 60.163 249.997Z" fill="#263238"/>
<path d="M103.691 251.897C103.682 251.898 103.666 251.772 103.643 251.526C103.621 251.254 103.592 250.893 103.554 250.434C103.486 249.443 103.388 248.032 103.264 246.23C103.14 244.404 102.989 242.17 102.907 239.572C102.824 236.974 102.643 234.018 102.621 230.745C102.57 227.473 102.484 223.889 102.531 220.041C102.546 218.117 102.532 216.127 102.573 214.078C102.619 212.029 102.666 209.92 102.715 207.757C102.967 199.108 103.415 189.604 104.111 179.645C105.515 159.719 107.295 141.729 108.435 128.697C108.997 122.202 109.453 116.937 109.771 113.262C109.927 111.463 110.049 110.055 110.135 109.065C110.18 108.607 110.216 108.246 110.243 107.974C110.27 107.729 110.289 107.603 110.298 107.604C110.307 107.605 110.306 107.731 110.297 107.978C110.283 108.25 110.264 108.612 110.241 109.072C110.178 110.064 110.089 111.474 109.974 113.276C109.741 116.927 109.332 122.206 108.803 128.727C107.757 141.77 106.035 159.765 104.632 179.68C103.937 189.634 103.474 199.13 103.196 207.771C103.14 209.931 103.085 212.038 103.032 214.086C102.983 216.133 102.988 218.122 102.964 220.044C102.899 223.889 102.964 227.469 102.991 230.739C102.99 234.009 103.145 236.964 103.2 239.561C103.254 242.159 103.376 244.393 103.468 246.219C103.551 248.023 103.615 249.435 103.66 250.427C103.676 250.887 103.688 251.25 103.697 251.522C103.701 251.77 103.7 251.897 103.691 251.897Z" fill="#263238"/>
<path d="M111.05 153.382C111.001 153.332 111.566 153.094 112.182 153.632C112.459 153.887 112.74 154.328 112.672 154.894C112.613 155.472 112.062 155.954 111.461 156.042C110.863 156.154 110.186 155.877 109.942 155.35C109.694 154.837 109.816 154.328 109.995 153.997C110.403 153.288 111.013 153.33 110.984 153.393C111.011 153.47 110.553 153.572 110.328 154.155C110.223 154.431 110.187 154.817 110.365 155.123C110.53 155.432 110.944 155.599 111.375 155.528C111.805 155.455 112.143 155.163 112.199 154.817C112.268 154.47 112.109 154.116 111.92 153.889C111.515 153.411 111.049 153.464 111.05 153.382Z" fill="#263238"/>
<path d="M108.245 198.266C108.197 198.216 108.761 197.978 109.377 198.516C109.654 198.771 109.935 199.212 109.867 199.778C109.808 200.356 109.257 200.838 108.656 200.926C108.058 201.038 107.381 200.762 107.137 200.234C106.888 199.721 107.011 199.212 107.19 198.881C107.598 198.172 108.208 198.214 108.179 198.277C108.206 198.354 107.748 198.456 107.523 199.039C107.418 199.315 107.382 199.701 107.56 200.007C107.724 200.316 108.139 200.483 108.57 200.412C109 200.339 109.338 200.047 109.394 199.701C109.463 199.354 109.304 199 109.115 198.773C108.711 198.295 108.245 198.348 108.245 198.266Z" fill="#263238"/>
<path d="M179.975 229.123C179.97 229.154 179.49 229.11 178.631 228.954C177.778 228.775 176.546 228.452 175.109 227.825C172.257 226.6 168.522 223.981 166.106 219.782C164.879 217.7 164.254 215.481 163.615 213.547C162.989 211.6 162.28 209.907 161.399 208.652C160.54 207.383 159.582 206.568 158.862 206.11C158.135 205.656 157.675 205.505 157.691 205.46C157.697 205.443 157.815 205.469 158.036 205.535C158.257 205.603 158.575 205.729 158.964 205.936C159.737 206.352 160.773 207.157 161.699 208.44C162.648 209.707 163.416 211.446 164.069 213.394C164.739 215.339 165.366 217.506 166.556 219.522C168.904 223.603 172.499 226.202 175.261 227.491C178.056 228.797 180.002 229.013 179.975 229.123Z" fill="#FAFAFA"/>
<path d="M496.805 164.391L461.521 122.783L461.44 122.868C460.047 121.493 458.833 120.28 458.214 119.564C445.987 105.408 436.278 100.605 417.576 100.302L381.217 101.091C374.457 101.644 359.117 98.7528 344.926 117.562L344.908 117.525C319.067 149.919 298.332 177.466 299.498 190.463C300.974 206.914 363.717 253.82 363.717 253.82L449.951 253.744L449.773 247.178L486.973 223.066C500.396 213.996 507.405 206.076 509.102 194.053C510.607 183.387 504.028 172.384 496.805 164.391ZM338.838 189.148C338.838 186.617 352.442 170.666 359.86 162.156L363.716 198.985L363.017 213.365L338.838 189.148ZM448.252 211.82L446.165 163.302L474.284 192.394L448.252 211.82Z" fill="#9F79CF"/>
<path d="M417.944 232.58L354.196 264.081C352.503 264.918 350.452 264.223 349.615 262.53L329.011 220.835C328.174 219.142 328.869 217.091 330.562 216.254L394.31 184.753C396.003 183.916 398.054 184.611 398.891 186.304L419.495 227.999C420.331 229.692 419.637 231.743 417.944 232.58Z" fill="#E0E0E0"/>
<path d="M373.949 220.469C375.807 219.33 378.238 219.913 379.376 221.771C380.514 223.629 379.932 226.059 378.074 227.197C376.216 228.336 373.787 227.753 372.648 225.895C371.509 224.037 372.091 221.607 373.949 220.469Z" fill="white"/>
<path d="M445.625 128.739C445.634 128.739 445.643 128.846 445.652 129.056C445.659 129.294 445.667 129.6 445.678 129.986C445.69 130.838 445.706 132.036 445.727 133.561C445.749 136.701 445.78 141.183 445.818 146.707C445.877 157.805 446.311 173.131 447.171 190.044C448.016 206.963 448.91 222.275 449.377 233.367C449.623 238.912 449.783 243.402 449.87 246.505C449.906 248.03 449.935 249.226 449.956 250.079C449.96 250.464 449.963 250.771 449.965 251.009C449.964 251.219 449.959 251.326 449.95 251.326C449.941 251.326 449.928 251.219 449.911 251.01C449.895 250.773 449.875 250.467 449.85 250.082C449.806 249.231 449.745 248.035 449.667 246.513C449.51 243.378 449.285 238.902 449.008 233.385C448.403 222.271 447.57 206.972 446.649 190.069C445.789 173.152 445.413 157.812 445.448 146.708C445.479 141.184 445.504 136.701 445.522 133.561C445.543 132.036 445.559 130.839 445.571 129.986C445.582 129.601 445.59 129.294 445.597 129.056C445.607 128.846 445.616 128.739 445.625 128.739Z" fill="#263238"/>
<path d="M355.83 106.983C360.432 103.64 365.779 104.651 370.387 107.985C374.996 111.319 377.56 116.986 378.022 122.655C378.484 128.324 377.039 134.004 374.874 139.264C371.404 147.695 366.268 154.515 358.601 163.2L338.837 189.148L376.977 226.385L361.172 251.325L329.227 225.622C318.324 216.409 309.042 206.987 302.226 197.247" fill="#9F79CF"/>
<path d="M302.228 197.246C302.228 197.246 302.313 197.343 302.465 197.544C302.625 197.759 302.846 198.057 303.134 198.445C303.722 199.241 304.599 200.416 305.793 201.904C308.161 204.894 311.81 209.129 316.826 214.102C319.334 216.587 322.183 219.255 325.362 222.056C328.517 224.884 332.12 227.703 335.923 230.756C343.529 236.861 352.068 243.714 361.32 251.14L360.972 251.198C365.878 243.445 371.206 235.027 376.761 226.248L376.798 226.567C370.443 220.365 363.861 213.941 357.12 207.363C350.8 201.191 344.62 195.155 338.657 189.331L338.495 189.173L338.632 188.993C345.608 179.846 352.246 171.143 358.412 163.058L358.417 163.051L358.423 163.045C362.287 158.674 365.884 154.36 368.866 149.932C371.863 145.517 374.143 140.943 375.736 136.442C377.326 131.946 378.121 127.459 377.89 123.32C377.68 119.183 376.389 115.463 374.518 112.576C372.645 109.667 370.132 107.705 367.737 106.499C365.337 105.269 362.996 104.898 361.147 105.039C359.288 105.202 357.939 105.782 357.095 106.238C356.243 106.694 355.845 107.009 355.828 106.984C355.828 106.984 355.925 106.904 356.128 106.763C356.334 106.627 356.624 106.394 357.058 106.171C357.896 105.69 359.25 105.079 361.134 104.89C363.008 104.722 365.393 105.077 367.834 106.303C370.266 107.501 372.835 109.478 374.754 112.421C376.671 115.34 377.998 119.106 378.23 123.301C378.482 127.494 377.693 132.035 376.106 136.571C374.517 141.11 372.233 145.726 369.228 150.175C366.239 154.636 362.639 158.973 358.777 163.357L358.788 163.344C352.632 171.437 346.005 180.148 339.04 189.304L339.015 188.966C344.98 194.788 351.162 200.821 357.484 206.992C364.222 213.573 370.801 219.999 377.154 226.204L377.302 226.349L377.191 226.524C371.625 235.296 366.287 243.707 361.371 251.454L361.229 251.678L361.023 251.512C351.788 244.063 343.264 237.187 335.672 231.064C331.881 228 328.284 225.165 325.134 222.316C321.962 219.497 319.122 216.811 316.624 214.307C311.628 209.297 308.006 205.024 305.673 202.001C304.496 200.496 303.638 199.305 303.07 198.494C302.795 198.096 302.584 197.791 302.431 197.571C302.291 197.358 302.228 197.246 302.228 197.246Z" fill="#263238"/>
<path d="M487.948 191.675C487.911 191.753 487.174 191.429 485.946 191.058C484.72 190.692 482.973 190.329 481.03 190.425C479.087 190.53 477.387 191.073 476.207 191.567C475.026 192.066 474.328 192.468 474.283 192.395C474.251 192.347 474.882 191.831 476.053 191.232C477.219 190.64 478.975 190.014 481.002 189.905C483.029 189.805 484.839 190.244 486.062 190.709C487.291 191.18 487.974 191.624 487.948 191.675Z" fill="#263238"/>
<path d="M384.803 250.16C383.802 250.66 380.725 252.189 377.864 253.609C374.423 255.317 370.301 254.856 367.322 252.43L362.979 248.893L374.976 230.022C376.386 230.637 382.177 231.457 384.179 232.163C385.91 232.775 387.737 233.073 389.574 233.07C391.514 233.067 394.011 232.971 395.679 232.568C395.816 232.519 395.989 232.479 396.109 232.426C396.397 232.297 396.682 232.258 396.96 232.254C398.677 232.102 400.036 233.893 399.075 235.31C398.091 236.762 393.429 238.612 387.452 238.442C387.357 238.443 387.27 238.454 387.174 238.454C381.923 238.447 386.739 242.849 389.85 245.455C390.947 246.374 391.568 247.788 391.352 249.202C391.269 249.746 391.066 250.232 390.651 250.492C389.326 251.324 384.803 250.16 384.803 250.16Z" fill="#D2A697"/>
<path d="M400.86 117.68C391.662 117.68 383.39 109.84 383.469 98.1618L381.814 31.6467L382.001 31.6767C381.944 28.7917 384.105 26.3417 386.974 26.0387L414.392 23.1387C423.839 22.1397 432.202 29.2168 432.799 38.6978C433.463 49.2318 433.858 62.1177 432.61 69.9777C430.1 85.7817 417.987 87.7927 417.987 87.7927L418.283 98.8327C418.749 110.598 409.945 117.68 400.86 117.68Z" fill="#D2A697"/>
<path d="M426.672 47.2729C426.71 48.3429 425.835 49.2578 424.718 49.3178C423.603 49.3778 422.667 48.5608 422.629 47.4908C422.591 46.4208 423.466 45.5048 424.581 45.4448C425.697 45.3838 426.634 46.2029 426.672 47.2729Z" fill="#263238"/>
<path d="M430.005 45.4008C429.754 45.6648 428.218 44.5288 426.037 44.5348C423.858 44.5088 422.258 45.6308 422.021 45.3638C421.905 45.2458 422.161 44.7688 422.858 44.2608C423.544 43.7558 424.714 43.2638 426.073 43.2698C427.432 43.2778 428.574 43.7778 429.231 44.2898C429.901 44.8038 430.128 45.2828 430.005 45.4008Z" fill="#263238"/>
<path d="M405.618 47.6798C405.656 48.7498 404.781 49.6648 403.664 49.7248C402.549 49.7848 401.613 48.9678 401.575 47.8978C401.537 46.8278 402.412 45.9118 403.528 45.8518C404.644 45.7908 405.581 46.6088 405.618 47.6798Z" fill="#263238"/>
<path d="M408.566 45.8078C408.314 46.0718 406.777 44.9358 404.597 44.9418C402.419 44.9158 400.818 46.0388 400.581 45.7708C400.465 45.6528 400.718 45.1758 401.418 44.6678C402.104 44.1618 403.274 43.6708 404.632 43.6768C405.991 43.6848 407.133 44.1848 407.791 44.6958C408.46 45.2118 408.689 45.6898 408.566 45.8078Z" fill="#263238"/>
<path d="M416.481 61.9828C416.471 61.8588 417.827 61.6248 420.024 61.3438C420.581 61.2858 421.108 61.1758 421.202 60.7958C421.333 60.3928 421.1 59.7928 420.83 59.1448C420.306 57.7968 419.758 56.3848 419.183 54.9038C416.896 48.8658 415.24 43.9008 415.484 43.8108C415.728 43.7208 417.78 48.5418 420.067 54.5798C420.617 56.0688 421.144 57.4878 421.645 58.8458C421.856 59.4788 422.218 60.1968 421.934 61.0318C421.784 61.4478 421.375 61.7498 421.018 61.8458C420.661 61.9548 420.348 61.9608 420.072 61.9768C417.861 62.0968 416.49 62.1068 416.481 61.9828Z" fill="#263238"/>
<path d="M417.988 87.7918C417.988 87.7918 407.356 88.4768 396.822 82.1458C396.822 82.1458 402.298 94.0368 418.116 92.5578L417.988 87.7918Z" fill="#A3877D"/>
<path d="M409.547 41.9888C409.332 42.5818 407.154 42.3008 404.596 42.6088C402.031 42.8658 399.967 43.6148 399.628 43.0828C399.477 42.8278 399.836 42.2708 400.671 41.6958C401.498 41.1228 402.817 40.5778 404.354 40.4068C405.89 40.2388 407.297 40.4828 408.228 40.8618C409.167 41.2418 409.64 41.7078 409.547 41.9888Z" fill="#263238"/>
<path d="M429.203 39.0888C428.819 39.5838 427.317 39.0698 425.51 39.0458C423.704 38.9578 422.173 39.3788 421.821 38.8608C421.667 38.6088 421.907 38.1128 422.576 37.6438C423.234 37.1768 424.336 36.7948 425.578 36.8318C426.819 36.8708 427.895 37.3198 428.523 37.8278C429.162 38.3368 429.372 38.8468 429.203 39.0888Z" fill="#263238"/>
<path d="M382.006 46.7608C384.691 46.2788 386.842 47.1068 387.598 49.7278C388.736 53.6748 387.96 55.6278 388.154 58.3488C389.484 57.9498 390.813 57.5508 392.143 57.1508C391.151 48.0398 393.414 41.2968 392.422 32.1848C397.979 33.9828 405.619 30.5508 407.992 24.7878C412.641 28.3128 419.398 28.7878 424.495 25.9478C425.964 28.7348 429.323 29.6758 431.285 29.1238C434.318 28.2718 437.462 24.0088 438.331 20.9808C439.896 15.5298 439.132 7.71084 434.713 4.15684C430.294 0.602839 421.43 1.45583 417.988 5.96183C416.629 7.74083 416.47 11.0338 414.277 11.4838C412.333 11.8828 410.561 10.4408 408.782 9.56083C403.23 6.81683 395.566 10.4618 394.193 16.5008C389.552 13.7338 383.935 11.9258 378.742 13.4178C373.549 14.9098 369.414 20.6598 371.179 25.7668C371.917 27.9008 373.558 29.7428 373.739 31.9938C374.088 36.3448 368.875 40.2838 370.539 44.3188C371.47 46.5768 374.201 47.5788 375.433 49.6868C376.813 52.0478 375.958 55.0198 376.07 57.7518C376.258 62.3128 378.588 69.0628 382.964 70.3588" fill="#263238"/>
<path d="M382.403 46.7078C380.777 46.8638 380.002 47.9328 379.383 49.1198C378.764 50.3058 378.564 51.6718 378.567 53.0108C378.571 55.0898 379.091 57.2528 380.475 58.8048C381.858 60.3568 384.231 61.1258 386.112 60.2408" fill="#D2A697"/>
<path d="M385.133 56.8057C385.154 56.8557 384.544 57.0787 383.615 56.7447C383.162 56.5787 382.65 56.2577 382.246 55.7437C381.842 55.2307 381.567 54.5407 381.514 53.7967C381.456 53.0537 381.617 52.3327 381.924 51.7627C382.227 51.1907 382.647 50.7707 383.044 50.4997C383.857 49.9527 384.497 49.9907 384.492 50.0467C384.513 50.1297 383.936 50.2297 383.267 50.7927C382.601 51.3307 381.912 52.4337 382.034 53.7567C382.11 55.0847 382.977 56.0587 383.761 56.4057C384.543 56.7877 385.132 56.7177 385.133 56.8057Z" fill="#A3877D"/>
<path d="M409.537 69.7089C411.488 71.0809 415.317 70.3539 416.737 68.3259C413.692 66.6659 410.873 64.5899 408.384 62.1729C408.384 62.1729 405.544 66.9009 409.537 69.7089Z" fill="#FAFAFA"/>
<path d="M416.006 74.3239C415.918 74.4469 414.914 73.7109 413.465 73.7239C412.016 73.6979 411.006 74.4249 410.919 74.3009C410.878 74.2529 411.073 73.9889 411.518 73.7169C411.958 73.4439 412.665 73.2009 413.467 73.2029C414.269 73.2079 414.973 73.4569 415.411 73.7339C415.854 74.0109 416.047 74.2759 416.006 74.3239Z" fill="#602C1A"/>
<path d="M426.66 138.359C431.085 132.194 435.929 123.19 438.15 118.954C442.281 111.073 441.586 110.672 440.595 110.322C437.93 109.381 432.807 123.897 432.119 120.094C431.433 116.291 440.427 103.121 437.603 102.252C433.926 101.122 428.837 116.423 428.311 117.684C427.801 118.909 425.965 118.181 426.5 117.07C427.268 115.473 434.927 98.483 431.324 97.338C429.327 96.703 428.606 100.442 428.606 100.442C428.606 100.442 422.599 116.897 420.915 116.299C419.205 115.692 422.411 105.904 423.721 102.685C425.016 99.505 424.047 97.557 422.177 98.116C420.902 98.498 416.656 108.254 415.433 111.469C414.21 114.683 411.01 123.566 409.067 117.815C409.036 117.724 408.998 117.645 408.966 117.555C407.207 111.84 403.958 108.02 402.266 107.554C400.615 107.1 399.356 108.962 400.052 110.539C400.146 110.801 400.275 111.059 400.489 111.29C400.578 111.386 400.671 111.537 400.762 111.651C401.679 113.101 402.572 115.435 403.198 117.271C403.791 119.01 404.096 120.835 404.073 122.672C404.046 124.794 405.123 130.997 404.994 132.53" fill="#FFAD9D"/>
<path d="M404.02 130.32L379.832 178.289C379.832 178.289 366.153 138.714 358.775 122.973C355.957 116.961 350.326 112.815 344.911 110.055V109.947C344.533 109.791 344.157 109.648 343.78 109.497C337.736 106.607 332.234 105.433 331.595 105.303C306.071 97.9989 282.029 100.549 254.198 110.283C254.198 110.283 239.749 114.17 232.746 133.019C226.437 150.002 219.374 175.994 218.163 180.614C209.488 209.795 221.874 226.048 239.099 224.046C246.201 222.928 252.241 217.089 254.913 214.767L264.023 206.204L264.223 212.835L254.035 253.778L358.775 253.56L339.876 205.065L344.068 182.835L351.257 199.92C355.831 210.791 366.363 217.963 378.154 218.236C390.168 218.514 401.184 211.58 406.128 200.626L430.626 138.965L404.02 130.32Z" fill="#407BFF"/>
<path d="M277.865 190.116C277.893 190.138 277.557 190.617 276.924 191.464C276.287 192.308 275.344 193.514 274.134 194.966C271.726 197.881 268.25 201.786 264.218 205.912C260.184 210.039 256.347 213.592 253.472 216.049C252.039 217.282 250.85 218.247 250.011 218.89C249.172 219.535 248.699 219.877 248.676 219.849C248.654 219.821 249.085 219.425 249.882 218.733C250.68 218.043 251.83 217.037 253.228 215.772C256.034 213.25 259.819 209.665 263.845 205.547C267.868 201.43 271.378 197.574 273.853 194.726C275.097 193.307 276.081 192.14 276.765 191.336C277.446 190.53 277.837 190.094 277.865 190.116Z" fill="#263238"/>
<path d="M340.168 203.512C340.15 203.508 340.171 203.316 340.227 202.952C340.298 202.532 340.387 202.007 340.495 201.365C340.764 199.92 341.131 197.951 341.579 195.549C342.502 190.641 343.761 183.858 344.767 176.31C345.016 174.422 345.245 172.577 345.444 170.793C345.658 169.002 345.82 167.303 345.73 165.664C345.583 162.388 344.966 159.469 344.442 157.036C343.902 154.602 343.404 152.641 343.131 151.267C342.991 150.581 342.908 150.042 342.869 149.674C342.841 149.304 342.836 149.111 342.854 149.11C342.872 149.109 342.913 149.299 342.973 149.659C343.045 150.018 343.158 150.546 343.328 151.222C343.66 152.576 344.212 154.52 344.8 156.953C345.371 159.385 346.032 162.312 346.209 165.642C346.314 167.306 346.157 169.071 345.95 170.848C345.758 172.637 345.532 174.486 345.282 176.378C344.274 183.943 342.956 190.728 341.939 195.619C341.425 198.008 341.003 199.966 340.693 201.404C340.546 202.038 340.425 202.557 340.329 202.972C340.241 203.329 340.186 203.515 340.168 203.512Z" fill="#263238"/>
<path d="M377.67 190.013C377.529 189.987 377.901 187.355 378.501 184.137C379.102 180.917 379.703 178.329 379.845 178.355C379.986 178.381 379.614 181.012 379.013 184.232C378.413 187.451 377.811 190.039 377.67 190.013Z" fill="#263238"/>
<path d="M381.363 191.432C381.22 191.448 380.752 188.428 380.318 184.686C379.884 180.943 379.648 177.896 379.791 177.88C379.934 177.863 380.402 180.883 380.836 184.626C381.27 188.368 381.506 191.416 381.363 191.432Z" fill="#263238"/>
<path d="M304.102 253.558C303.958 253.558 303.842 237.481 303.842 217.654C303.842 197.82 303.959 181.747 304.102 181.747C304.246 181.747 304.362 197.82 304.362 217.654C304.363 237.482 304.246 253.558 304.102 253.558Z" fill="#263238"/>
<g opacity="0.2">
<path d="M343.405 152.005C348.308 161.416 352.584 170.781 352.971 181.386C353.272 189.639 349.968 196.516 353.378 204.038C353.215 204.171 350.3 197.689 349.014 194.646C346.366 188.383 344.033 182.797 344.033 182.797C344.033 182.797 345.854 168.661 346.004 166.253C346.156 163.847 343.405 152.005 343.405 152.005Z" fill="black"/>
</g>
<g opacity="0.2">
<path d="M221.874 199.818C221.878 204.536 218.938 188.958 221.686 185.123C223.607 182.441 226.916 181.153 230.113 180.34C233.311 179.527 236.663 179.02 239.504 177.343C243.171 175.178 245.487 171.375 248.07 167.989C250.652 164.603 254.061 150.234 258.309 149.931V170.903C248.316 177.193 237.744 183.515 226.692 188.636C226.692 188.636 221.867 192.433 221.874 199.818Z" fill="black"/>
</g>
<g opacity="0.2">
<path d="M264.023 206.203C270.868 202.357 275.87 197.241 283.609 195.875C291.062 194.559 298.728 195.917 306.276 195.361C305.86 191.546 305.443 187.731 305.027 183.915L283.448 183.673L264.023 206.203Z" fill="black"/>
</g>
<path d="M258.309 149.673C258.453 149.673 258.569 154.347 258.569 160.111C258.569 165.877 258.452 170.55 258.309 170.55C258.165 170.55 258.049 165.877 258.049 160.111C258.048 154.347 258.165 149.673 258.309 149.673Z" fill="#263238"/>
<path d="M221.848 199.704C221.788 199.708 221.67 199.001 221.735 197.848C221.797 196.699 222.095 195.107 222.792 193.481C223.495 191.857 224.447 190.547 225.24 189.713C226.033 188.874 226.628 188.475 226.667 188.521C226.792 188.635 224.611 190.514 223.271 193.688C221.884 196.84 222.017 199.716 221.848 199.704Z" fill="#263238"/>
<path d="M226.159 188.84C226.175 188.875 226.735 188.668 227.735 188.264C228.737 187.863 230.168 187.242 231.92 186.44C235.425 184.837 240.187 182.445 245.254 179.479C250.32 176.507 254.72 173.529 257.816 171.264C259.365 170.132 260.598 169.191 261.431 168.517C262.266 167.846 262.716 167.461 262.692 167.431C262.668 167.401 262.171 167.728 261.296 168.346C260.334 169.019 259.084 169.894 257.579 170.947C254.43 173.126 250.009 176.041 244.961 179.004C239.911 181.96 235.196 184.398 231.744 186.088C230.084 186.89 228.705 187.556 227.644 188.068C226.673 188.531 226.143 188.805 226.159 188.84Z" fill="#263238"/>
<path d="M357.56 60.093C355.845 57.842 353.113 56.1319 352.595 53.3499C351.907 49.6579 355.555 46.1979 354.919 42.4969C354.483 39.9649 352.148 38.1909 349.774 37.2079C347.4 36.2249 344.805 35.7529 342.592 34.4489C339.934 32.8839 338.054 30.2309 336.864 27.3849C336.533 26.5929 336.258 25.781 336.01 24.961C335.74 23.197 335.419 21.4119 334.8 19.7659C334.717 19.3249 334.632 18.8839 334.551 18.4429L334.66 19.4119C334.321 18.5819 333.907 17.7879 333.363 17.0629C331.535 14.6249 327.872 13.2669 325.354 14.9819L326.549 14.174C323.601 6.83995 316.553 1.31595 308.726 0.207947C307.226 -0.00505336 305.709 -0.0500521 304.202 0.0529479C298.815 -0.224052 291.023 1.34894 287.734 3.43394C283.534 6.09594 279.231 9.75195 277.128 14.2579C275.992 16.691 275.227 19.494 273.086 21.114C270.226 23.277 266.21 22.4389 262.647 22.8409C256.762 23.5049 251.665 28.018 249.646 33.586C247.627 39.153 248.483 45.5369 251.282 50.756C251.901 51.91 252.632 53.2369 252.143 54.4519C251.764 55.3929 250.777 55.91 249.897 56.416C247.576 57.75 245.447 59.627 244.449 62.111C243.451 64.595 243.832 67.748 245.85 69.507C247.486 70.934 249.914 71.146 251.958 70.382C251.376 71.895 251.025 73.483 251.021 75.106C251.012 78.636 252.799 82.267 255.929 83.899C259.059 85.531 263.443 84.669 265.286 81.657C265.257 86.072 267.811 90.41 271.685 92.5269C275.559 94.6439 280.589 94.4489 284.289 92.0399C285.773 91.0739 287.294 89.7169 289.043 89.9969C290.754 90.27 291.779 91.97 292.981 93.218C296.184 96.544 301.64 96.933 305.85 95.0359C310.06 93.1379 313.161 89.3709 315.394 85.3289C316.937 87.643 319.858 88.9539 322.612 88.5689C325.366 88.1839 327.816 86.121 328.664 83.473C332.372 88.219 339.739 89.606 344.919 86.533C348.444 84.442 350.637 80.4709 350.929 76.4049C354.223 75.8879 357.239 73.705 358.67 70.683C360.266 67.309 359.822 63.061 357.56 60.093ZM257.001 63.1849C257.003 63.1649 257.008 63.1459 257.011 63.1259C257.011 63.1259 257.052 63.1079 257.116 63.0809C257.079 63.1169 257.039 63.1499 257.001 63.1849Z" fill="#263238"/>
<path d="M320.436 88.32C320.436 88.32 333.24 86.194 335.893 69.489C337.212 61.181 336.795 47.559 336.093 36.425C335.462 26.403 326.622 18.922 316.636 19.979L287.654 23.044C284.62 23.365 282.337 25.954 282.397 29.004L285.443 101.585C283.332 102.037 278.541 103.082 276.195 103.761C276.195 103.761 298.616 153.866 304.103 153.285C309.59 152.704 331.533 105.29 331.533 105.29C331.533 105.29 326.865 103.8 319.914 102.442C319.797 94.767 320.436 88.32 320.436 88.32Z" fill="#FFAD9D"/>
<path d="M329.615 45.4901C329.655 46.6211 328.73 47.588 327.549 47.652C326.37 47.715 325.381 46.852 325.341 45.72C325.301 44.589 326.226 43.621 327.405 43.557C328.585 43.493 329.575 44.3581 329.615 45.4901Z" fill="#263238"/>
<path d="M333.138 43.5111C332.872 43.7901 331.249 42.5891 328.944 42.5951C326.641 42.5681 324.949 43.7541 324.699 43.4721C324.576 43.3471 324.847 42.8431 325.583 42.3071C326.308 41.7731 327.545 41.2531 328.981 41.2591C330.417 41.2671 331.625 41.7961 332.319 42.3371C333.029 42.8811 333.269 43.3861 333.138 43.5111Z" fill="#263238"/>
<path d="M307.361 45.9199C307.401 47.0509 306.476 48.0179 305.295 48.0809C304.116 48.1439 303.127 47.2809 303.087 46.1489C303.047 45.0179 303.972 44.0489 305.151 43.9859C306.331 43.9229 307.321 44.7889 307.361 45.9199Z" fill="#263238"/>
<path d="M310.477 43.941C310.211 44.22 308.586 43.019 306.282 43.026C303.979 42.999 302.287 44.185 302.037 43.902C301.914 43.777 302.182 43.273 302.922 42.737C303.647 42.203 304.884 41.684 306.32 41.689C307.756 41.697 308.964 42.226 309.659 42.767C310.365 43.311 310.607 43.816 310.477 43.941Z" fill="#263238"/>
<path d="M318.843 61.0389C318.832 60.9079 320.265 60.6599 322.588 60.3629C323.177 60.3019 323.734 60.1849 323.833 59.7839C323.972 59.3579 323.725 58.7239 323.44 58.0389C322.887 56.6139 322.307 55.1209 321.699 53.5559C319.281 47.1739 317.531 41.9249 317.789 41.8299C318.047 41.7349 320.216 46.8309 322.633 53.2139C323.215 54.7879 323.771 56.2879 324.301 57.7239C324.524 58.3929 324.907 59.1519 324.606 60.0339C324.448 60.4739 324.015 60.7929 323.638 60.8949C323.261 61.0099 322.93 61.0159 322.638 61.0339C320.302 61.1589 318.852 61.1699 318.843 61.0389Z" fill="#263238"/>
<path d="M320.436 88.32C320.436 88.32 309.198 89.0451 298.063 82.3521C298.063 82.3521 303.491 93.828 320.211 92.264L320.436 88.32Z" fill="#ED9482"/>
<path d="M312.351 64.6461C312.88 64.3241 313.43 63.9941 314.045 63.9181C314.66 63.8421 315.361 64.0911 315.615 64.6561C315.701 64.8471 315.734 65.0641 315.856 65.2341C316.189 65.6941 316.901 65.5301 317.446 65.6891C318.303 65.9381 318.658 67.0661 318.331 67.8961C318.004 68.7261 317.2 69.2751 316.376 69.6161C315.25 70.0811 314.003 70.2521 312.793 70.1071C311.949 70.0061 311.061 69.7091 310.578 69.0101C310 68.1751 310.188 66.9931 310.754 66.1501C311.32 65.3081 312.193 64.7291 313.042 64.1731" fill="#ED9482"/>
<path d="M312.058 62.6341C312.433 62.6121 312.438 65.1151 314.58 66.8911C316.718 68.6731 319.386 68.3921 319.405 68.7421C319.44 68.8991 318.811 69.2281 317.685 69.2591C316.58 69.2971 314.968 68.9421 313.657 67.8561C312.35 66.7671 311.788 65.3141 311.703 64.2871C311.608 63.2391 311.887 62.6191 312.058 62.6341Z" fill="#263238"/>
<path d="M311.513 39.9049C311.286 40.5319 308.984 40.2349 306.279 40.5609C303.567 40.8329 301.386 41.6249 301.027 41.0619C300.867 40.7929 301.247 40.2029 302.129 39.5959C303.003 38.9899 304.398 38.4139 306.022 38.2329C307.646 38.0559 309.133 38.3129 310.117 38.7139C311.111 39.1149 311.611 39.6069 311.513 39.9049Z" fill="#263238"/>
<path d="M332.29 38.3011C331.884 38.8241 330.296 38.2811 328.386 38.2561C326.477 38.1631 324.859 38.6081 324.487 38.0601C324.324 37.7941 324.578 37.2701 325.285 36.7741C325.981 36.2801 327.146 35.8761 328.458 35.9161C329.77 35.9581 330.907 36.4321 331.571 36.9691C332.248 37.5071 332.469 38.0461 332.29 38.3011Z" fill="#263238"/>
<path d="M326.319 17.5001C325.077 23.4011 321.37 28.7421 316.276 31.9691C311.182 35.1961 304.769 36.2671 298.904 34.8701C298.025 42.1961 293.001 48.8821 286.209 51.7641C290.82 60.0691 292.736 69.8421 291.603 79.2731C291.117 83.3201 289.939 87.5491 286.904 90.2701C282.267 94.4261 274.44 93.4181 269.98 89.0741C265.707 84.9131 264.196 78.3841 265.405 72.5431C266.613 66.7021 270.279 61.5601 274.892 57.7771C271.034 57.1161 267.668 54.1381 266.54 50.3901C265.412 46.6421 266.577 42.3011 269.43 39.6211C270.748 38.3831 272.401 37.4601 273.392 35.9491C274.328 34.5221 274.55 32.7591 275.121 31.1511C276.615 26.9421 280.379 24.0261 283.958 21.3531C286.989 19.0901 290.312 16.7251 294.094 16.7351C296.112 16.7401 298.117 17.4371 300.116 17.1671C302.866 16.7951 305.01 14.7111 307.289 13.1281C310.5 10.8971 314.474 9.52406 318.337 10.1301C322.2 10.7351 325.813 13.6241 326.543 17.4661" fill="#263238"/>
<path d="M324.831 19.1509C324.24 22.3759 325.873 25.6859 328.249 27.9459C330.625 30.2059 333.666 31.6109 336.646 32.9769C335.474 29.8339 334.279 26.6499 332.323 23.9259C330.366 21.2019 327.522 18.9459 324.205 18.4419" fill="#263238"/>
<path d="M251.349 57.6669C251.349 57.6669 251.188 57.3189 251.26 56.6199C251.325 55.9349 251.729 54.8969 252.758 54.0379C253.777 53.1529 255.454 52.7119 257.317 52.7919C259.189 52.8189 261.265 53.4119 263.554 53.2739C265.818 53.1409 268.234 51.7929 269.636 49.5099C270.359 48.3799 270.695 47.0139 270.774 45.5809C270.869 44.1459 270.742 42.6459 270.822 41.0849C270.884 39.5369 271.267 37.8629 272.283 36.5179C273.27 35.1589 274.726 34.1859 276.284 33.5119C279.432 32.0889 283.024 32.0639 286.466 31.4209C288.193 31.0989 289.873 30.5989 291.32 29.7209C292.774 28.8529 293.945 27.6169 294.935 26.2999C296.886 23.6179 298.193 20.6239 299.984 18.0769C301.736 15.4899 304.118 13.5589 306.592 12.3249C309.071 11.0789 311.654 10.5069 314.006 10.4669C316.363 10.4329 318.481 10.8769 320.226 11.5269C321.983 12.1589 323.371 12.9989 324.435 13.7569C326.553 15.3129 327.382 16.5319 327.382 16.5319C327.375 16.5379 327.307 16.4779 327.182 16.3549C327.036 16.2099 326.855 16.0289 326.631 15.8059C326.134 15.3379 325.387 14.6569 324.319 13.9229C322.219 12.4819 318.666 10.7289 314.016 10.8349C311.717 10.8969 309.199 11.4779 306.788 12.7109C304.38 13.9349 302.079 15.8179 300.38 18.3509C298.631 20.8529 297.338 23.8479 295.347 26.6029C294.334 27.9569 293.117 29.2509 291.589 30.1649C290.068 31.0899 288.322 31.6049 286.564 31.9329C283.048 32.5829 279.522 32.6089 276.489 33.9799C274.984 34.6259 273.605 35.5509 272.685 36.8129C271.739 38.0619 271.372 39.6019 271.303 41.1109C271.217 42.6259 271.337 44.1319 271.232 45.6099C271.146 47.0809 270.777 48.5499 270.005 49.7349C268.51 52.1319 265.96 53.5209 263.58 53.6389C261.195 53.7539 259.138 53.1299 257.308 53.0809C255.486 52.9769 253.877 53.3759 252.888 54.1939C251.882 54.9939 251.462 55.9749 251.366 56.6329C251.261 57.3049 251.385 57.6639 251.349 57.6669Z" fill="#FAFAFA"/>
<path d="M276.194 134.859L277.248 161.501L279.935 186.999L308.26 185.791L306.223 135.433L276.194 134.859Z" fill="#263238"/>
<path d="M272.032 134.766L273.089 161.501L275.776 186.999L304.102 185.791L302.062 135.353L272.032 134.766Z" fill="#455A64"/>
<path d="M269.376 190.116C276.964 189.973 287.077 188.468 291.799 187.714C300.586 186.31 300.491 185.513 300.179 184.509C299.339 181.811 284.642 186.389 287.278 183.563C289.915 180.738 305.849 180.065 304.855 177.284C303.561 173.661 288.255 178.738 286.93 179.071C285.644 179.395 285.128 177.488 286.339 177.252C288.079 176.912 306.274 172.884 305.036 169.312C304.35 167.331 300.923 168.991 300.923 168.991C300.923 168.991 284.144 174.022 283.616 172.315C283.08 170.582 292.84 167.294 296.204 166.419C299.527 165.555 300.508 163.612 298.941 162.448C297.873 161.655 287.514 164.089 284.207 165.033C280.9 165.976 271.868 168.726 275.314 163.728C275.368 163.649 275.409 163.571 275.462 163.492C278.989 158.663 280.106 153.774 279.467 152.14C278.844 150.546 276.598 150.65 275.75 152.151C275.596 152.383 275.467 152.64 275.41 152.95C275.386 153.079 275.321 153.244 275.284 153.385C274.671 154.987 273.335 157.099 272.238 158.699C271.199 160.214 269.919 161.551 268.434 162.631C266.718 163.879 262.391 168.453 261.086 169.266" fill="#FFAD9D"/>
<path d="M262.879 167.752L277.865 190.116L253.174 215.299L254.01 174.455L262.879 167.752Z" fill="#407BFF"/>
<path d="M263.43 253.745L246.448 204.409L254.313 157.064C256.603 144.3 257.881 133.039 254.452 126.632C245.285 109.506 234.217 107.971 219.093 104.04C215.974 103.229 192.245 102.43 189.635 103.07C169.047 105.378 155.861 116.293 148.664 134.031L140.818 165.622L130.052 198.661C128.005 202.697 124.641 205.485 120.56 206.385L78.9961 220.557L79.3421 228.689L78.9961 239.658L134.288 229.28C145.377 227.199 156.644 223.111 159.818 212.414L165.773 194.802C168.685 202.259 171.848 209.095 171.848 209.095L167.808 253.527L263.43 253.745Z" fill="#455A64"/>
<path d="M249.19 166.088L233.389 218.914C230.941 227.099 224.553 233.513 216.378 235.996L150.62 253.522L141.907 230.817L201.346 208.722L215.935 155.814C215.935 155.814 219.303 126.242 246.052 127.761" fill="#455A64"/>
<path d="M246.052 127.76C246.052 127.76 245.781 127.771 245.254 127.768C244.727 127.788 243.941 127.705 242.914 127.793C240.869 127.864 237.783 128.155 234.126 129.589C232.307 130.306 230.356 131.319 228.454 132.764C226.55 134.203 224.706 136.064 223.046 138.309C219.759 142.81 217.169 148.856 216.113 155.833L216.11 155.851L216.107 155.86C212.067 170.573 207.118 188.6 201.576 208.784L201.544 208.901L201.429 208.944C183.19 215.731 163.112 223.202 141.998 231.059L142.15 230.722C142.639 231.998 143.169 233.376 143.699 234.759C146.152 241.154 148.572 247.46 150.861 253.427L150.553 253.27C170.763 247.894 189.824 242.824 207.05 238.242C209.203 237.67 211.328 237.106 213.422 236.549C214.466 236.265 215.516 236.009 216.534 235.707C217.54 235.387 218.522 235.012 219.473 234.583C223.273 232.855 226.501 230.232 228.904 227.157C230.105 225.617 231.103 223.966 231.895 222.26C232.7 220.556 233.233 218.789 233.75 217.038C234.799 213.55 235.805 210.207 236.764 207.021C240.608 194.289 243.697 184.055 245.83 176.989C246.902 173.475 247.733 170.752 248.3 168.891C248.584 167.979 248.801 167.28 248.952 166.795C249.101 166.324 249.19 166.087 249.19 166.087C249.19 166.087 249.133 166.334 249 166.809C248.86 167.297 248.658 168 248.394 168.918C247.847 170.785 247.045 173.517 246.011 177.042C243.914 184.119 240.876 194.368 237.097 207.119C236.148 210.308 235.153 213.654 234.115 217.146C233.607 218.887 233.067 220.695 232.254 222.426C231.454 224.161 230.444 225.841 229.227 227.409C226.792 230.54 223.517 233.214 219.654 234.98C218.688 235.418 217.689 235.803 216.66 236.131C215.632 236.437 214.59 236.694 213.544 236.98C211.45 237.54 209.326 238.108 207.174 238.684C189.95 243.283 170.892 248.373 150.685 253.769L150.46 253.829L150.377 253.612C148.087 247.645 145.666 241.34 143.212 234.945C142.681 233.562 142.152 232.183 141.663 230.908L141.569 230.662L141.816 230.57C162.935 222.728 183.019 215.27 201.262 208.496L201.115 208.656C206.701 188.484 211.69 170.468 215.762 155.764L215.757 155.791C216.85 148.733 219.478 142.676 222.818 138.141C224.504 135.882 226.377 134.013 228.308 132.572C230.238 131.125 232.214 130.115 234.053 129.406C237.751 127.989 240.855 127.729 242.908 127.691C243.939 127.619 244.726 127.719 245.254 127.716C245.783 127.738 246.052 127.76 246.052 127.76Z" fill="#263238"/>
<path d="M204.62 196.846C204.62 196.882 204.342 196.901 203.834 196.905C203.326 196.926 202.59 196.842 201.699 196.66C199.922 196.285 197.532 195.248 195.459 193.369C193.376 191.505 192.037 189.294 191.4 187.594C191.223 187.174 191.102 186.781 191.013 186.43C190.911 186.084 190.836 185.783 190.807 185.529C190.729 185.027 190.703 184.75 190.738 184.744C190.835 184.725 191.015 185.831 191.739 187.452C192.445 189.073 193.789 191.177 195.805 192.981C197.812 194.799 200.081 195.846 201.785 196.302C203.5 196.756 204.624 196.74 204.62 196.846Z" fill="#263238"/>
<path d="M165.575 156.662C165.608 156.676 165.407 157.229 165.018 158.217C164.636 159.208 164.052 160.629 163.388 162.404C162.091 165.939 160.263 170.945 160.071 176.709C159.992 179.58 160.394 182.313 161.16 184.68C161.904 187.056 162.915 189.077 163.868 190.705C164.83 192.33 165.731 193.572 166.366 194.419C167 195.268 167.373 195.723 167.34 195.751C167.327 195.763 167.218 195.662 167.025 195.46C166.83 195.258 166.55 194.954 166.208 194.546C165.521 193.733 164.567 192.515 163.553 190.896C162.549 189.274 161.487 187.24 160.703 184.826C159.897 182.422 159.469 179.621 159.551 176.695C159.749 170.814 161.658 165.783 163.045 162.27C163.755 160.505 164.392 159.104 164.831 158.137C165.279 157.174 165.543 156.648 165.575 156.662Z" fill="#263238"/>
<path d="M207.131 215.763C206.976 215.815 206.451 213.659 204.709 211.671C202.998 209.655 200.943 208.819 201.018 208.673C201.04 208.615 201.583 208.74 202.38 209.151C203.175 209.558 204.203 210.29 205.104 211.331C206.001 212.374 206.574 213.498 206.859 214.345C207.148 215.194 207.191 215.75 207.131 215.763Z" fill="#263238"/>
<path d="M143.119 233.978C143.119 233.978 124.308 235.655 124.573 247.874L147.997 246.69L143.119 233.978Z" fill="#FFC9BF"/>
<path d="M173.446 29.2089C171.723 37.5249 170.083 45.8569 168.523 54.2049C166.546 64.7899 164.72 75.8458 167.711 86.1898C169.352 91.8649 172.37 97.0278 175.358 102.124C177.039 104.99 178.88 108.01 181.859 109.482C185.908 111.482 191.036 109.901 194.257 106.736C197.477 103.57 199.126 99.1478 200.236 94.7708C202.404 86.2278 202.88 77.3559 203.218 68.5489C203.559 59.6609 203.75 50.5989 201.27 42.0579C198.79 33.5159 193.201 25.4339 184.955 22.0999" fill="#263238"/>
<path d="M174.799 22.5257C177.141 20.6957 180.06 19.6147 183.029 19.4767C185.427 14.6147 191.119 12.3917 196.441 11.3567C204.279 9.83172 203.428 9.61672 210.735 12.8347C218.042 16.0527 228.4 25.1587 229.717 33.0347C230.941 40.3547 233.106 46.2097 236.284 52.9177C238.249 57.0647 242.185 59.9547 244.497 63.9187C247.009 68.2267 247.371 73.7207 245.446 78.3207C243.56 82.8257 239.574 86.8037 239.95 91.6737C240.168 94.4957 240.066 96.5237 241.182 99.1247C244.975 107.967 243.204 119.753 235.046 124.853C226.888 129.952 215.123 128.174 208.837 120.891C203.378 114.566 202.319 105.545 202.862 97.2067C203.405 88.8697 205.297 80.5817 204.752 72.2447" fill="#263238"/>
<path d="M184.139 253.514L184.027 250.637L141.62 246.165L123.04 192.754L43.4702 190.957L67.5422 253.514C106.885 253.819 145.76 253.826 184.139 253.514Z" fill="#263238"/>
<path d="M87.6223 223.096C88.7682 225.088 91.3122 225.775 93.3052 224.629C95.2972 223.483 95.9842 220.939 94.8382 218.946C93.6922 216.953 91.1482 216.267 89.1552 217.413C87.1622 218.559 86.4753 221.103 87.6223 223.096Z" fill="white"/>
<path d="M203.452 124.702C212.991 124.702 221.571 116.57 221.295 104.49L223.012 35.5038C223.071 32.5118 220.83 29.9708 217.854 29.6568L189.417 26.6488C179.619 25.6128 170.945 32.9518 170.326 42.7858C169.638 53.7108 169.228 67.0758 170.523 75.2278C173.126 91.6188 185.689 93.7048 185.689 93.7048L185.382 105.155C184.899 117.357 194.03 124.702 203.452 124.702Z" fill="#FFC9BF"/>
<path d="M176.682 51.6788C176.643 52.7888 177.55 53.7378 178.709 53.7998C179.865 53.8618 180.837 53.0148 180.876 51.9048C180.915 50.7948 180.008 49.8448 178.851 49.7828C177.693 49.7198 176.722 50.5688 176.682 51.6788Z" fill="#263238"/>
<path d="M173.225 49.7379C173.486 50.0119 175.078 48.8339 177.34 48.8399C179.6 48.8139 181.26 49.9769 181.505 49.6999C181.626 49.5779 181.36 49.0829 180.637 48.5559C179.926 48.0319 178.712 47.5219 177.303 47.5279C175.894 47.5359 174.709 48.0549 174.027 48.5849C173.333 49.1189 173.097 49.6149 173.225 49.7379Z" fill="#263238"/>
<path d="M198.518 52.1007C198.479 53.2107 199.386 54.1597 200.545 54.2217C201.702 54.2837 202.673 53.4367 202.712 52.3267C202.751 51.2167 201.844 50.2667 200.687 50.2047C199.528 50.1417 198.557 50.9907 198.518 52.1007Z" fill="#263238"/>
<path d="M195.46 50.1597C195.721 50.4337 197.316 49.2557 199.576 49.2617C201.835 49.2357 203.496 50.3987 203.741 50.1217C203.861 49.9997 203.599 49.5047 202.873 48.9787C202.162 48.4547 200.948 47.9447 199.539 47.9507C198.13 47.9587 196.945 48.4777 196.263 49.0077C195.57 49.5407 195.333 50.0367 195.46 50.1597Z" fill="#263238"/>
<path d="M187.251 66.9359C187.261 66.8069 185.855 66.5649 183.577 66.2729C183 66.2129 182.453 66.0989 182.355 65.7039C182.219 65.2869 182.461 64.6639 182.741 63.9919C183.284 62.5939 183.852 61.1289 184.449 59.5939C186.821 53.3319 188.538 48.1819 188.285 48.0889C188.032 47.9959 185.904 52.9959 183.532 59.2579C182.961 60.8019 182.415 62.2739 181.895 63.6829C181.676 64.3389 181.3 65.0839 181.595 65.9499C181.75 66.3819 182.175 66.6949 182.545 66.7949C182.915 66.9079 183.24 66.9139 183.526 66.9309C185.82 67.0539 187.243 67.0639 187.251 66.9359Z" fill="#263238"/>
<path d="M185.689 93.7039C185.689 93.7039 196.716 94.4149 207.641 87.8479C207.641 87.8479 202.315 99.1079 185.91 97.5739L185.689 93.7039Z" fill="#A07A6E"/>
<path d="M188.208 72.3867C189.022 71.3107 190.447 70.7208 191.862 70.8728C192.844 70.9778 193.836 71.4517 194.432 72.2507C195.029 73.0497 195.153 74.1848 194.611 74.9468C194 75.8048 192.725 76.0028 191.645 75.6968C190.565 75.3898 189.636 74.6787 188.754 73.9707C188.51 73.7747 188.261 73.5707 188.108 73.3017C187.956 73.0337 187.923 72.6828 188.111 72.4598" fill="#A07A6E"/>
<path d="M193.908 68.4997C193.54 68.4787 193.536 70.9338 191.434 72.6768C189.336 74.4258 186.719 74.1498 186.7 74.4928C186.666 74.6468 187.283 74.9697 188.387 74.9997C189.471 75.0367 191.053 74.6888 192.339 73.6228C193.621 72.5538 194.172 71.1278 194.256 70.1208C194.35 69.0938 194.076 68.4857 193.908 68.4997Z" fill="#263238"/>
<path d="M194.443 46.1988C194.666 46.8138 196.925 46.5218 199.578 46.8418C202.239 47.1088 204.379 47.8848 204.731 47.3338C204.888 47.0698 204.515 46.4918 203.65 45.8958C202.792 45.3008 201.424 44.7358 199.831 44.5588C198.238 44.3848 196.779 44.6378 195.812 45.0308C194.837 45.4238 194.347 45.9068 194.443 46.1988Z" fill="#263238"/>
<path d="M174.057 43.1908C174.455 43.7048 176.013 43.1708 177.887 43.1468C179.76 43.0558 181.347 43.4918 181.713 42.9548C181.873 42.6938 181.623 42.1788 180.93 41.6928C180.247 41.2078 179.104 40.8118 177.816 40.8508C176.529 40.8918 175.413 41.3578 174.761 41.8838C174.099 42.4108 173.881 42.9398 174.057 43.1908Z" fill="#263238"/>
<path d="M170.664 40.0598C176.829 36.4798 182.846 33.1658 186.699 27.1668C188.832 33.1778 192.993 36.1498 198.51 39.3518C204.027 42.5538 210.202 44.4118 216.313 46.2428C213.22 49.2418 212.811 54.0938 213.524 58.3428C214.237 62.5918 215.866 66.6858 216.131 70.9858C216.486 76.7288 214.386 82.3588 214.253 88.1118C214.071 95.9958 217.557 103.445 220.966 110.557L235.773 101.931L233.641 63.4748L233.819 36.2638L210.736 14.8118L181.489 18.0098L170.664 40.0598Z" fill="#263238"/>
<path d="M167.371 120.903C174.882 128.502 174.087 142.032 182.342 148.814C187.404 152.973 194.794 153.367 200.999 151.266C207.204 149.164 212.435 144.916 217.221 140.442C222.007 135.968 226.539 131.149 231.991 127.516C237.287 123.986 246.34 121.814 247.62 115.579C248.558 111.013 243.767 105.527 242.863 100.953C241.429 93.6958 249.28 88.0828 250.591 80.8038C253.21 66.2608 245.532 49.1808 237.536 36.7538C229.54 24.3268 225.043 10.4258 204.766 9.24977C186.613 8.43877 174.248 17.1478 168.216 29.7428C165.191 36.0588 164.479 43.1998 163.891 50.1788C162.519 66.4808 161.762 83.7527 169.294 98.2747C170.854 101.283 172.715 105.094 170.613 107.753C168.69 110.187 164.337 110.084 163.124 112.939C161.866 115.9 165.109 118.614 167.371 120.903ZM189.965 24.2878C192.395 24.1858 199.599 24.2858 207.641 34.9968C212.451 41.4028 212.447 51.7918 212.338 60.8418C212.257 67.5718 212.338 84.5998 212.338 84.5998C212.338 84.5998 213.406 106.104 206.095 108.011C197.129 110.35 189.267 108.74 182.557 102.349C175.848 95.9578 171.998 86.9888 170.473 77.8488C168.948 68.7088 168.079 59.3908 169.278 50.2018C169.987 44.7648 171.744 38.8368 174.776 34.2678C180.849 25.1138 189.965 24.2878 189.965 24.2878Z" fill="#E8505B"/>
<g opacity="0.3">
<path d="M246.052 108.543C240.042 111.808 235.906 116.655 231.017 121.438C226.128 126.221 220.684 130.848 214.063 132.562C207.442 134.277 199.394 132.236 196.084 126.252C214.854 129.442 236.642 114.454 243.053 96.5269C243.053 96.5269 242.347 99.0798 242.952 101.284C243.557 103.488 246.052 108.543 246.052 108.543Z" fill="black"/>
</g>
<g opacity="0.3">
<path d="M171.424 103.601C172.64 108.329 176.139 112.852 180.492 115.062C181.483 115.565 182.543 115.986 183.355 116.745C184.166 117.504 184.676 118.728 184.227 119.745C183.722 120.889 182.204 121.279 181.005 120.924C179.806 120.57 178.858 119.671 177.959 118.803C174.692 115.646 171.318 112.452 170.398 108.002C170.398 108.002 171.37 106.826 171.484 105.774C171.595 104.746 171.424 103.601 171.424 103.601Z" fill="black"/>
</g>
<path d="M241.563 100.077C241.579 100.086 241.482 100.286 241.282 100.661C241.075 101.031 240.798 101.595 240.369 102.277C239.552 103.667 238.261 105.617 236.494 107.899C234.719 110.172 232.459 112.778 229.644 115.365C226.825 117.934 223.457 120.529 219.446 122.435C217.417 123.347 215.375 124.019 213.378 124.605C211.381 125.187 209.415 125.619 207.525 125.91C203.747 126.528 200.273 126.535 197.396 126.287C194.517 126.005 192.226 125.481 190.685 125.003C189.904 124.797 189.324 124.552 188.923 124.418C188.525 124.272 188.319 124.187 188.325 124.17C188.341 124.123 189.186 124.406 190.74 124.808C192.289 125.223 194.573 125.688 197.428 125.92C200.281 126.118 203.715 126.074 207.45 125.436C209.318 125.135 211.261 124.699 213.238 124.115C215.21 123.53 217.249 122.852 219.229 121.963C223.168 120.092 226.511 117.539 229.323 115.011C232.131 112.466 234.406 109.902 236.207 107.671C238 105.431 239.332 103.522 240.199 102.17C240.652 101.506 240.957 100.961 241.193 100.609C241.42 100.252 241.548 100.069 241.563 100.077Z" fill="#263238"/>
<path d="M195.536 118.623C195.543 118.653 195.123 118.783 194.344 118.934C193.566 119.087 192.42 119.227 190.997 119.235C188.17 119.268 184.141 118.575 180.378 116.319C176.615 114.061 174.107 110.832 172.804 108.323C172.141 107.064 171.725 105.987 171.494 105.229C171.26 104.471 171.178 104.04 171.207 104.031C171.307 103.996 171.738 105.709 173.127 108.145C174.49 110.567 176.982 113.674 180.646 115.873C184.31 118.069 188.224 118.805 191.002 118.867C193.805 118.944 195.521 118.518 195.536 118.623Z" fill="#263238"/>
<path d="M191.637 143.407C191.634 143.389 191.836 143.338 192.22 143.257C192.603 143.168 193.176 143.084 193.902 142.91C195.36 142.603 197.453 142.072 199.973 141.217C205.024 139.544 211.683 136.255 218.243 131.451C224.809 126.649 230.147 121.532 233.993 117.839C235.871 116.015 237.407 114.521 238.528 113.433C239.035 112.949 239.447 112.557 239.773 112.246C240.062 111.979 240.219 111.844 240.232 111.857C240.245 111.87 240.112 112.029 239.847 112.32C239.54 112.648 239.15 113.064 238.671 113.576C237.641 114.658 236.139 116.212 234.25 118.102C230.467 121.865 225.154 127.042 218.549 131.873C211.95 136.707 205.204 139.974 200.089 141.568C197.536 142.383 195.417 142.863 193.941 143.11C193.207 143.254 192.626 143.306 192.237 143.362C191.846 143.409 191.64 143.425 191.637 143.407Z" fill="#263238"/>
</svg>
