<?xml version="1.0" encoding="UTF-8"?>
<svg xmlns="http://www.w3.org/2000/svg" xmlns:xlink="http://www.w3.org/1999/xlink" width="500pt" height="500pt" viewBox="0 0 500 500" version="1.1">
<g id="surface1">
<path style=" stroke:none;fill-rule:nonzero;fill:#C7EDE6;fill-opacity:1;" d="M 436.074219 283.550781 C 441.75 272.773438 445 260.523438 445 247.5 C 445 214.394531 424.203125 186.214844 394.996094 175.109375 C 394.996094 175.074219 395 175.039063 395 175 C 395 117.011719 347.988281 70 290 70 C 241.078125 70 200.09375 103.503906 188.433594 148.785156 C 181.054688 146.359375 173.191406 145 165 145 C 126.539063 145 94.886719 173.964844 90.550781 211.261719 C 64.53125 216.765625 45 239.84375 45 267.5 C 45 299.253906 70.746094 325 102.5 325 C 103.386719 325 104.261719 324.941406 105.128906 324.890625 C 105.109375 325.765625 105 326.621094 105 327.5 C 105 384.109375 150.890625 430 207.5 430 C 239.683594 430 268.375 415.140625 287.171875 391.929688 C 298.058594 403.054688 313.199219 410 330 410 C 353.25 410 373.371094 396.75 383.328125 377.410156 C 388.589844 379.085938 394.183594 380 400 380 C 430.375 380 455 355.375 455 325 C 455 308.445313 447.648438 293.636719 436.074219 283.550781 Z "/>
<path style=" stroke:none;fill-rule:nonzero;fill:#FDFCEF;fill-opacity:1;" d="M 399.375 257.5 C 399.375 257.5 417.574219 257.5 430 257.5 C 442.425781 257.5 452.5 247.425781 452.5 235 C 452.5 223.335938 443.589844 213.855469 432.226563 212.726563 C 432.335938 211.820313 432.5 210.933594 432.5 210 C 432.5 197.574219 422.425781 187.5 410 187.5 C 402.808594 187.5 396.484375 190.929688 392.363281 196.179688 C 391.664063 183 380.855469 172.5 367.5 172.5 C 353.695313 172.5 342.5 183.695313 342.5 197.5 C 342.5 199.730469 342.886719 201.851563 343.433594 203.910156 C 340.226563 200.023438 335.429688 197.5 330 197.5 C 321.09375 197.5 313.828125 204.175781 312.726563 212.773438 C 311.820313 212.664063 310.933594 212.5 310 212.5 C 297.574219 212.5 287.5 222.574219 287.5 235 C 287.5 247.425781 297.574219 257.5 310 257.5 C 322.425781 257.5 357.5 257.5 357.5 257.5 L 384.375 257.5 L 384.375 260 L 399.375 260 Z "/>
<path style=" stroke:none;fill-rule:nonzero;fill:#472B29;fill-opacity:1;" d="M 367.5 170 C 352.335938 170 340 182.335938 340 197.5 C 340 197.578125 340 197.65625 340 197.734375 C 336.988281 195.960938 333.550781 195 330 195 C 320.84375 195 312.945313 201.304688 310.710938 210.023438 C 310.476563 210.011719 310.238281 210 310 210 C 296.214844 210 285 221.214844 285 235 C 285 248.785156 296.214844 260 310 260 L 384.375 260 C 385.753906 260 386.875 258.878906 386.875 257.5 C 386.875 256.121094 385.753906 255 384.375 255 L 310 255 C 298.96875 255 290 246.03125 290 235 C 290 223.96875 298.96875 215 310 215 C 310.585938 215 311.148438 215.085938 311.714844 215.160156 L 312.421875 215.253906 C 312.523438 215.269531 312.625 215.273438 312.730469 215.273438 C 313.960938 215.273438 315.039063 214.351563 315.203125 213.089844 C 316.160156 205.625 322.519531 200 330 200 C 334.425781 200 338.613281 202.003906 341.503906 205.5 C 341.996094 206.089844 342.710938 206.410156 343.433594 206.410156 C 343.824219 206.410156 344.214844 206.320313 344.574219 206.128906 C 345.621094 205.59375 346.144531 204.398438 345.84375 203.265625 C 345.269531 201.089844 345 199.261719 345 197.5 C 345 185.09375 355.09375 175 367.5 175 C 379.40625 175 389.234375 184.359375 389.871094 196.316406 C 389.925781 197.355469 390.621094 198.25 391.613281 198.566406 C 391.863281 198.644531 392.121094 198.683594 392.375 198.683594 C 393.125 198.683594 393.855469 198.339844 394.335938 197.726563 C 398.191406 192.816406 403.894531 190 410 190 C 421.03125 190 430 198.96875 430 210 C 430 210.585938 429.914063 211.148438 429.839844 211.714844 L 429.746094 212.421875 C 429.664063 213.089844 429.855469 213.761719 430.273438 214.285156 C 430.695313 214.808594 431.308594 215.144531 431.976563 215.210938 C 442.253906 216.234375 450 224.746094 450 235 C 450 246.03125 441.03125 255 430 255 L 399.375 255 C 397.996094 255 396.875 256.121094 396.875 257.5 C 396.875 258.878906 397.996094 260 399.375 260 L 430 260 C 443.785156 260 455 248.785156 455 235 C 455 223.015625 446.554688 212.933594 434.984375 210.613281 C 434.996094 210.410156 435 210.203125 435 210 C 435 196.214844 423.785156 185 410 185 C 404.121094 185 398.535156 187.078125 394.085938 190.820313 C 391.09375 178.800781 380.273438 170 367.5 170 Z "/>
<path style=" stroke:none;fill-rule:nonzero;fill:#472B29;fill-opacity:1;" d="M 360 205 C 352.984375 205 346.953125 209.996094 345.433594 216.703125 C 343.601563 215.59375 341.503906 215 339.375 215 C 333.363281 215 328.386719 219.484375 327.609375 225.339844 C 326.59375 225.109375 325.628906 225 324.691406 225 C 317.046875 225 310.636719 231 310.101563 238.660156 C 310.050781 239.351563 310.570313 239.949219 311.253906 240 C 311.285156 240 311.316406 240 311.34375 240 C 311.996094 240 312.546875 239.496094 312.589844 238.839844 C 313.035156 232.484375 318.34375 227.5 324.683594 227.5 C 325.828125 227.5 327.035156 227.710938 328.375 228.136719 C 328.484375 228.171875 328.601563 228.183594 328.710938 228.183594 C 328.984375 228.183594 329.261719 228.085938 329.488281 227.914063 C 329.808594 227.683594 330 227.273438 330 226.875 C 330 221.703125 334.203125 217.5 339.375 217.5 C 341.609375 217.5 343.800781 218.339844 345.53125 219.863281 C 345.765625 220.070313 346.058594 220.179688 346.355469 220.179688 C 346.515625 220.179688 346.671875 220.148438 346.820313 220.085938 C 347.261719 219.910156 347.558594 219.5 347.59375 219.023438 C 348.113281 212.558594 353.558594 207.5 360 207.5 C 361.039063 207.5 362.125 207.671875 363.410156 208.035156 C 363.523438 208.070313 363.644531 208.085938 363.761719 208.085938 C 364.304688 208.085938 364.796875 207.71875 364.953125 207.175781 C 365.144531 206.511719 364.761719 205.820313 364.09375 205.628906 C 362.585938 205.199219 361.28125 205 360 205 Z "/>
<path style=" stroke:none;fill-rule:nonzero;fill:#472B29;fill-opacity:1;" d="M 429.414063 212.5 C 422.785156 212.5 416.875 216.984375 415.046875 223.410156 C 414.855469 224.074219 415.238281 224.765625 415.90625 224.953125 C 416.023438 224.984375 416.140625 225 416.25 225 C 416.796875 225 417.296875 224.640625 417.449219 224.089844 C 418.976563 218.738281 423.894531 215 429.414063 215 C 430 215 430.566406 215.070313 431.125 215.144531 C 431.183594 215.15625 431.238281 215.160156 431.300781 215.160156 C 431.90625 215.160156 432.445313 214.699219 432.53125 214.074219 C 432.625 213.390625 432.144531 212.761719 431.460938 212.671875 C 430.789063 212.578125 430.109375 212.5 429.414063 212.5 Z "/>
<path style=" stroke:none;fill-rule:nonzero;fill:#FFFFFF;fill-opacity:1;" d="M 77.023438 255 L 27.5 255 C 26.121094 255 25 253.878906 25 252.5 C 25 251.121094 26.121094 250 27.5 250 L 77.023438 250 C 78.40625 250 79.523438 251.121094 79.523438 252.5 C 79.523438 253.878906 78.410156 255 77.023438 255 Z "/>
<path style=" stroke:none;fill-rule:nonzero;fill:#FFFFFF;fill-opacity:1;" d="M 92.5 255 L 87.5 255 C 86.121094 255 85 253.878906 85 252.5 C 85 251.121094 86.121094 250 87.5 250 L 92.5 250 C 93.878906 250 95 251.121094 95 252.5 C 95 253.878906 93.886719 255 92.5 255 Z "/>
<path style=" stroke:none;fill-rule:nonzero;fill:#FFFFFF;fill-opacity:1;" d="M 117.453125 265 L 72.5 265 C 71.121094 265 70 263.878906 70 262.5 C 70 261.121094 71.121094 260 72.5 260 L 117.453125 260 C 118.835938 260 119.953125 261.121094 119.953125 262.5 C 119.953125 263.878906 118.835938 265 117.453125 265 Z "/>
<path style=" stroke:none;fill-rule:nonzero;fill:#FFFFFF;fill-opacity:1;" d="M 62.5 265 L 57.5 265 C 56.121094 265 55 263.878906 55 262.5 C 55 261.121094 56.121094 260 57.5 260 L 62.5 260 C 63.878906 260 65 261.121094 65 262.5 C 65 263.878906 63.886719 265 62.5 265 Z "/>
<path style=" stroke:none;fill-rule:nonzero;fill:#FFFFFF;fill-opacity:1;" d="M 47.5 265 L 37.5 265 C 36.121094 265 35 263.878906 35 262.5 C 35 261.121094 36.121094 260 37.5 260 L 47.5 260 C 48.878906 260 50 261.121094 50 262.5 C 50 263.878906 48.886719 265 47.5 265 Z "/>
<path style=" stroke:none;fill-rule:nonzero;fill:#FFFFFF;fill-opacity:1;" d="M 77.5 275 L 67.5 275 C 66.121094 275 65 273.878906 65 272.5 C 65 271.121094 66.121094 270 67.5 270 L 77.5 270 C 78.878906 270 80 271.121094 80 272.5 C 80 273.878906 78.878906 275 77.5 275 Z "/>
<path style=" stroke:none;fill-rule:nonzero;fill:#FFFFFF;fill-opacity:1;" d="M 92.5 230 C 91.613281 230 88.386719 230 87.5 230 C 86.121094 230 85 231.121094 85 232.5 C 85 233.878906 86.121094 235 87.5 235 C 88.386719 235 91.613281 235 92.5 235 C 93.878906 235 95 233.878906 95 232.5 C 95 231.121094 93.878906 230 92.5 230 Z "/>
<path style=" stroke:none;fill-rule:nonzero;fill:#FFFFFF;fill-opacity:1;" d="M 92.5 240 C 91.613281 240 68.386719 240 67.5 240 C 66.121094 240 65 241.121094 65 242.5 C 65 243.878906 66.121094 245 67.5 245 C 68.386719 245 91.613281 245 92.5 245 C 93.878906 245 95 243.878906 95 242.5 C 95 241.121094 93.878906 240 92.5 240 Z "/>
<path style=" stroke:none;fill-rule:nonzero;fill:#FFFFFF;fill-opacity:1;" d="M 117.5 250 C 116.613281 250 103.386719 250 102.5 250 C 101.121094 250 100 251.121094 100 252.5 C 100 253.878906 101.121094 255 102.5 255 C 103.386719 255 116.613281 255 117.5 255 C 118.878906 255 120 253.878906 120 252.5 C 120 251.121094 118.878906 250 117.5 250 Z "/>
<path style=" stroke:none;fill-rule:nonzero;fill:#FFFFFF;fill-opacity:1;" d="M 362.5 120 L 312.5 120 C 311.121094 120 310 118.878906 310 117.5 C 310 116.121094 311.121094 115 312.5 115 L 362.5 115 C 363.878906 115 365 116.121094 365 117.5 C 365 118.878906 363.878906 120 362.5 120 Z "/>
<path style=" stroke:none;fill-rule:nonzero;fill:#FFFFFF;fill-opacity:1;" d="M 382.5 120 L 372.5 120 C 371.121094 120 370 118.878906 370 117.5 C 370 116.121094 371.121094 115 372.5 115 L 382.5 115 C 383.878906 115 385 116.121094 385 117.5 C 385 118.878906 383.878906 120 382.5 120 Z "/>
<path style=" stroke:none;fill-rule:nonzero;fill:#FFFFFF;fill-opacity:1;" d="M 407.5 130 L 357.5 130 C 356.121094 130 355 128.878906 355 127.5 C 355 126.121094 356.121094 125 357.5 125 L 407.5 125 C 408.878906 125 410 126.121094 410 127.5 C 410 128.878906 408.886719 130 407.5 130 Z "/>
<path style=" stroke:none;fill-rule:nonzero;fill:#FFFFFF;fill-opacity:1;" d="M 347.5 130 L 342.5 130 C 341.121094 130 340 128.878906 340 127.5 C 340 126.121094 341.121094 125 342.5 125 L 347.5 125 C 348.878906 125 350 126.121094 350 127.5 C 350 128.878906 348.878906 130 347.5 130 Z "/>
<path style=" stroke:none;fill-rule:nonzero;fill:#FFFFFF;fill-opacity:1;" d="M 331.875 130 L 322.5 130 C 321.121094 130 320 128.878906 320 127.5 C 320 126.121094 321.121094 125 322.5 125 L 331.875 125 C 333.253906 125 334.375 126.121094 334.375 127.5 C 334.375 128.878906 333.253906 130 331.875 130 Z "/>
<path style=" stroke:none;fill-rule:nonzero;fill:#FFFFFF;fill-opacity:1;" d="M 377.5 110 L 352.5 110 C 351.121094 110 350 108.878906 350 107.5 C 350 106.121094 351.121094 105 352.5 105 L 377.5 105 C 378.878906 105 380 106.121094 380 107.5 C 380 108.878906 378.886719 110 377.5 110 Z "/>
<path style=" stroke:none;fill-rule:nonzero;fill:#FFFFFF;fill-opacity:1;" d="M 362.5 140 L 352.5 140 C 351.121094 140 350 138.878906 350 137.5 C 350 136.121094 351.121094 135 352.5 135 L 362.5 135 C 363.878906 135 365 136.121094 365 137.5 C 365 138.878906 363.878906 140 362.5 140 Z "/>
<path style=" stroke:none;fill-rule:nonzero;fill:#D6D3C5;fill-opacity:1;" d="M 153.398438 346.5 C 145.183594 346.5 138.503906 339.976563 138.503906 331.953125 L 138.503906 213.125 C 138.503906 205.105469 145.191406 198.578125 153.398438 198.578125 L 210.679688 198.578125 L 216.40625 178.289063 C 218.378906 172.503906 224.058594 168.5 230.488281 168.5 L 268.941406 168.5 C 275.375 168.5 281.054688 172.503906 283.074219 178.460938 L 288.753906 198.574219 L 346.601563 198.574219 C 354.816406 198.574219 361.496094 205.101563 361.496094 213.121094 L 361.496094 331.949219 C 361.496094 339.96875 354.808594 346.496094 346.601563 346.496094 L 153.398438 346.496094 Z "/>
<path style=" stroke:none;fill-rule:nonzero;fill:#472B29;fill-opacity:1;" d="M 268.941406 172 C 273.820313 172 278.125 174.984375 279.714844 179.441406 L 284.664063 196.976563 L 286.105469 202.074219 L 346.605469 202.074219 C 352.890625 202.074219 358.003906 207.03125 358.003906 213.125 L 358.003906 331.949219 C 358.003906 338.039063 352.890625 343 346.605469 343 L 153.398438 343 C 147.113281 343 142 338.046875 142 331.949219 L 142 213.125 C 142 207.035156 147.113281 202.074219 153.398438 202.074219 L 213.324219 202.074219 L 214.765625 196.976563 L 219.714844 179.441406 C 221.304688 174.980469 225.609375 172 230.488281 172 L 268.941406 172 M 268.941406 165 L 230.488281 165 C 222.570313 165 215.539063 169.96875 213.035156 177.339844 L 208.03125 195.074219 L 153.398438 195.074219 C 143.238281 195.074219 135 203.15625 135 213.125 L 135 331.949219 C 135 341.921875 143.238281 350 153.398438 350 L 346.601563 350 C 356.761719 350 365 341.921875 365 331.949219 L 365 213.125 C 365 203.15625 356.761719 195.074219 346.601563 195.074219 L 291.398438 195.074219 L 286.394531 177.339844 C 283.890625 169.96875 276.859375 165 268.941406 165 Z "/>
<path style=" stroke:none;fill-rule:nonzero;fill:#BE7841;fill-opacity:1;" d="M 141.875 232.5 L 357.808594 232.5 L 357.808594 325 L 141.875 325 Z "/>
<path style=" stroke:none;fill-rule:nonzero;fill:#28262D;fill-opacity:1;" d="M 305.199219 209.601563 L 332.800781 209.601563 L 332.800781 223.398438 L 305.199219 223.398438 Z "/>
<path style=" stroke:none;fill-rule:nonzero;fill:#D6D3C5;fill-opacity:1;" d="M 163.5 178.5 L 191.5 178.5 L 191.5 196.5 L 163.5 196.5 Z "/>
<path style=" stroke:none;fill-rule:nonzero;fill:#472B29;fill-opacity:1;" d="M 188 182 L 188 193 L 167 193 L 167 182 L 188 182 M 195 175 L 160 175 L 160 200 L 195 200 Z "/>
<path style=" stroke:none;fill-rule:nonzero;fill:#472B29;fill-opacity:1;" d="M 242.5 200 L 207.5 200 C 206.121094 200 205 198.878906 205 197.5 C 205 196.121094 206.121094 195 207.5 195 L 242.5 195 C 243.878906 195 245 196.121094 245 197.5 C 245 198.878906 243.878906 200 242.5 200 Z "/>
<path style=" stroke:none;fill-rule:nonzero;fill:#472B29;fill-opacity:1;" d="M 307.5 235 L 142.5 235 C 141.121094 235 140 233.878906 140 232.5 C 140 231.121094 141.121094 230 142.5 230 L 307.5 230 C 308.878906 230 310 231.121094 310 232.5 C 310 233.878906 308.878906 235 307.5 235 Z "/>
<path style=" stroke:none;fill-rule:nonzero;fill:#472B29;fill-opacity:1;" d="M 337.5 325 L 142.5 325 C 141.121094 325 140 323.878906 140 322.5 C 140 321.121094 141.121094 320 142.5 320 L 337.5 320 C 338.878906 320 340 321.121094 340 322.5 C 340 323.878906 338.878906 325 337.5 325 Z "/>
<path style=" stroke:none;fill-rule:nonzero;fill:#472B29;fill-opacity:1;" d="M 277.5 200 L 257.5 200 C 256.121094 200 255 198.878906 255 197.5 C 255 196.121094 256.121094 195 257.5 195 L 277.5 195 C 278.878906 195 280 196.121094 280 197.5 C 280 198.878906 278.878906 200 277.5 200 Z "/>
<path style=" stroke:none;fill-rule:nonzero;fill:#472B29;fill-opacity:1;" d="M 342.5 235 L 327.5 235 C 326.121094 235 325 233.878906 325 232.5 C 325 231.121094 326.121094 230 327.5 230 L 342.5 230 C 343.878906 230 345 231.121094 345 232.5 C 345 233.878906 343.878906 235 342.5 235 Z "/>
<path style=" stroke:none;fill-rule:nonzero;fill:#BEBACB;fill-opacity:1;" d="M 297.101563 275.898438 C 297.101563 303.183594 274.984375 325.300781 247.699219 325.300781 C 220.417969 325.300781 198.300781 303.183594 198.300781 275.898438 C 198.300781 248.617188 220.417969 226.5 247.699219 226.5 C 274.984375 226.5 297.101563 248.617188 297.101563 275.898438 Z "/>
<path style=" stroke:none;fill-rule:nonzero;fill:#472B29;fill-opacity:1;" d="M 247.699219 230 C 273.011719 230 293.601563 250.589844 293.601563 275.898438 C 293.601563 301.210938 273.011719 321.800781 247.699219 321.800781 C 222.390625 321.800781 201.800781 301.210938 201.800781 275.898438 C 201.800781 250.589844 222.390625 230 247.699219 230 M 247.699219 223 C 218.484375 223 194.800781 246.683594 194.800781 275.898438 C 194.800781 305.113281 218.484375 328.800781 247.699219 328.800781 C 276.914063 328.800781 300.601563 305.113281 300.601563 275.898438 C 300.601563 246.683594 276.914063 223 247.699219 223 Z "/>
<path style=" stroke:none;fill-rule:nonzero;fill:#28262D;fill-opacity:1;" d="M 247.699219 302.300781 C 233.140625 302.300781 221.300781 290.460938 221.300781 275.898438 C 221.300781 261.34375 233.140625 249.503906 247.699219 249.503906 C 262.253906 249.503906 274.09375 261.34375 274.09375 275.898438 C 274.09375 290.460938 262.253906 302.300781 247.699219 302.300781 Z "/>
<path style=" stroke:none;fill-rule:nonzero;fill:#472B29;fill-opacity:1;" d="M 247.699219 253 C 260.324219 253 270.601563 263.273438 270.601563 275.898438 C 270.601563 288.523438 260.324219 298.800781 247.699219 298.800781 C 235.074219 298.800781 224.800781 288.523438 224.800781 275.898438 C 224.800781 263.273438 235.074219 253 247.699219 253 M 247.699219 246 C 231.183594 246 217.800781 259.386719 217.800781 275.898438 C 217.800781 292.414063 231.183594 305.800781 247.699219 305.800781 C 264.214844 305.800781 277.601563 292.414063 277.601563 275.898438 C 277.601563 259.386719 264.214844 246 247.699219 246 Z "/>
<path style=" stroke:none;fill-rule:nonzero;fill:#FDFCEF;fill-opacity:1;" d="M 172.5 372.5 C 172.5 372.5 180.335938 372.5 190 372.5 C 199.664063 372.5 207.5 364.664063 207.5 355 C 207.5 346.09375 200.824219 338.828125 192.226563 337.726563 C 192.363281 336.828125 192.5 335.933594 192.5 335 C 192.5 325.335938 184.664063 317.5 175 317.5 C 169.839844 317.5 165.25 319.773438 162.050781 323.324219 C 160.128906 314.285156 152.113281 307.5 142.5 307.5 C 131.453125 307.5 122.5 316.453125 122.5 327.5 C 122.5 328.453125 122.648438 329.371094 122.78125 330.289063 C 120.640625 328.570313 117.960938 327.5 115 327.5 C 108.859375 327.5 103.773438 331.933594 102.726563 337.773438 C 101.828125 337.636719 100.933594 337.5 100 337.5 C 90.335938 337.5 82.5 345.335938 82.5 355 C 82.5 364.664063 90.335938 372.5 100 372.5 C 109.664063 372.5 137.5 372.5 137.5 372.5 L 137.5 375 L 172.5 375 Z "/>
<path style=" stroke:none;fill-rule:nonzero;fill:#472B29;fill-opacity:1;" d="M 181.25 350 C 180.558594 350 180 349.441406 180 348.75 C 180 342.636719 184.976563 337.660156 191.089844 337.660156 C 191.261719 337.703125 194.773438 337.65625 197.308594 338.339844 C 197.976563 338.519531 198.371094 339.203125 198.191406 339.871094 C 198.011719 340.539063 197.324219 340.933594 196.660156 340.75 C 194.441406 340.148438 191.160156 340.148438 191.09375 340.160156 C 186.355469 340.160156 182.5 344.015625 182.5 348.75 C 182.5 349.441406 181.941406 350 181.25 350 Z "/>
<path style=" stroke:none;fill-rule:nonzero;fill:#472B29;fill-opacity:1;" d="M 150 372.5 C 150 373.878906 148.878906 375 147.5 375 C 146.121094 375 145 373.878906 145 372.5 C 145 371.121094 146.121094 370 147.5 370 C 148.878906 370 150 371.121094 150 372.5 Z "/>
<path style=" stroke:none;fill-rule:nonzero;fill:#472B29;fill-opacity:1;" d="M 190 375 L 172.5 375 C 171.121094 375 170 373.878906 170 372.5 C 170 371.121094 171.121094 370 172.5 370 L 190 370 C 198.269531 370 205 363.269531 205 355 C 205 347.519531 199.375 341.160156 191.910156 340.203125 C 191.238281 340.113281 190.636719 339.765625 190.230469 339.226563 C 189.824219 338.683594 189.65625 338.003906 189.761719 337.339844 C 189.875 336.570313 190 335.800781 190 335 C 190 326.730469 183.269531 320 175 320 C 170.75 320 166.808594 321.773438 163.90625 325 C 163.28125 325.695313 162.300781 325.988281 161.40625 325.738281 C 160.496094 325.496094 159.800781 324.765625 159.605469 323.84375 C 157.898438 315.824219 150.703125 310 142.5 310 C 132.851563 310 125 317.851563 125 327.5 C 125 328.214844 125.105469 328.898438 125.203125 329.589844 C 125.351563 330.605469 124.890625 331.78125 123.996094 332.289063 C 123.101563 332.800781 122.015625 332.878906 121.214844 332.238281 C 119.390625 330.773438 117.246094 330 115 330 C 110.171875 330 106.039063 333.453125 105.183594 338.21875 C 104.945313 339.554688 103.703125 340.449219 102.339844 340.246094 C 101.570313 340.125 100.800781 340 100 340 C 91.730469 340 85 346.730469 85 355 C 85 363.269531 91.730469 370 100 370 L 137.5 370 C 138.878906 370 140 371.121094 140 372.5 C 140 373.878906 138.878906 375 137.5 375 L 100 375 C 88.96875 375 80 366.03125 80 355 C 80 343.96875 88.96875 335 100 335 C 100.296875 335 100.578125 335.011719 100.871094 335.03125 C 102.941406 329.101563 108.554688 325 115 325 C 116.746094 325 118.445313 325.304688 120.054688 325.898438 C 120.878906 314.234375 130.628906 305 142.5 305 C 151.65625 305 159.828125 310.636719 163.265625 318.871094 C 166.664063 316.378906 170.773438 315 175 315 C 186.03125 315 195 323.96875 195 335 C 195 335.238281 194.996094 335.476563 194.980469 335.710938 C 203.695313 337.949219 210 345.84375 210 355 C 210 366.03125 201.03125 375 190 375 Z "/>
<path style=" stroke:none;fill-rule:nonzero;fill:#472B29;fill-opacity:1;" d="M 162.5 370 C 161.703125 370 158.296875 370 157.5 370 C 156.121094 370 155 371.121094 155 372.5 C 155 373.878906 156.121094 375 157.5 375 C 158.296875 375 161.703125 375 162.5 375 C 163.878906 375 165 373.878906 165 372.5 C 165 371.121094 163.878906 370 162.5 370 Z "/>
</g>
</svg>
