<?xml version="1.0" encoding="UTF-8"?>
<svg xmlns="http://www.w3.org/2000/svg" xmlns:xlink="http://www.w3.org/1999/xlink" width="50pt" height="50pt" viewBox="0 0 50 50" version="1.1">
<g id="surface1">
<path style=" stroke:none;fill-rule:nonzero;fill:#78A0CF;fill-opacity:1;" d="M 7.5 14.5 C 7.5 15.050781 7.050781 15.5 6.5 15.5 C 5.949219 15.5 5.5 15.050781 5.5 14.5 C 5.5 13.949219 5.949219 13.5 6.5 13.5 C 7.050781 13.5 7.5 13.949219 7.5 14.5 Z "/>
<path style=" stroke:none;fill-rule:nonzero;fill:#F1BC19;fill-opacity:1;" d="M 39 6.5 C 39 6.777344 38.777344 7 38.5 7 C 38.222656 7 38 6.777344 38 6.5 C 38 6.222656 38.222656 6 38.5 6 C 38.777344 6 39 6.222656 39 6.5 Z "/>
<path style=" stroke:none;fill-rule:nonzero;fill:#CEE1F4;fill-opacity:1;" d="M 43.5 25 C 43.5 35.21875 35.21875 43.5 25 43.5 C 14.78125 43.5 6.5 35.21875 6.5 25 C 6.5 14.78125 14.78125 6.5 25 6.5 C 35.21875 6.5 43.5 14.78125 43.5 25 Z "/>
<path style=" stroke:none;fill-rule:nonzero;fill:#F1BC19;fill-opacity:1;" d="M 43.5 7.5 C 43.5 8.605469 42.605469 9.5 41.5 9.5 C 40.394531 9.5 39.5 8.605469 39.5 7.5 C 39.5 6.394531 40.394531 5.5 41.5 5.5 C 42.605469 5.5 43.5 6.394531 43.5 7.5 Z "/>
<path style=" stroke:none;fill-rule:nonzero;fill:#78A0CF;fill-opacity:1;" d="M 44.5 12 C 44.5 12.550781 44.050781 13 43.5 13 C 42.949219 13 42.5 12.550781 42.5 12 C 42.5 11.449219 42.949219 11 43.5 11 C 44.050781 11 44.5 11.449219 44.5 12 Z "/>
<path style=" stroke:none;fill-rule:nonzero;fill:#FBCD59;fill-opacity:1;" d="M 41.5 38 C 41.5 38.550781 41.050781 39 40.5 39 C 39.949219 39 39.5 38.550781 39.5 38 C 39.5 37.449219 39.949219 37 40.5 37 C 41.050781 37 41.5 37.449219 41.5 38 Z "/>
<path style=" stroke:none;fill-rule:nonzero;fill:#FBCD59;fill-opacity:1;" d="M 9.5 31.5 C 9.5 32.605469 8.605469 33.5 7.5 33.5 C 6.394531 33.5 5.5 32.605469 5.5 31.5 C 5.5 30.394531 6.394531 29.5 7.5 29.5 C 8.605469 29.5 9.5 30.394531 9.5 31.5 Z "/>
<path style=" stroke:none;fill-rule:nonzero;fill:#78A0CF;fill-opacity:1;" d="M 13.5 43.5 C 13.5 44.050781 13.050781 44.5 12.5 44.5 C 11.949219 44.5 11.5 44.050781 11.5 43.5 C 11.5 42.949219 11.949219 42.5 12.5 42.5 C 13.050781 42.5 13.5 42.949219 13.5 43.5 Z "/>
<path style=" stroke:none;fill-rule:nonzero;fill:#FFFFFF;fill-opacity:1;" d="M 10.5 26.75 C 10.5 27.441406 9.941406 28 9.25 28 C 8.558594 28 8 27.441406 8 26.75 C 8 26.058594 8.558594 25.5 9.25 25.5 C 9.941406 25.5 10.5 26.058594 10.5 26.75 Z "/>
<path style=" stroke:none;fill-rule:nonzero;fill:#F1BC19;fill-opacity:1;" d="M 11 33.5 C 11 33.777344 10.777344 34 10.5 34 C 10.222656 34 10 33.777344 10 33.5 C 10 33.222656 10.222656 33 10.5 33 C 10.777344 33 11 33.222656 11 33.5 Z "/>
<path style=" stroke:none;fill-rule:nonzero;fill:#FFFFFF;fill-opacity:1;" d="M 40.5 17 C 40.5 17.277344 40.277344 17.5 40 17.5 C 39.722656 17.5 39.5 17.277344 39.5 17 C 39.5 16.722656 39.722656 16.5 40 16.5 C 40.277344 16.5 40.5 16.722656 40.5 17 Z "/>
<path style=" stroke:none;fill-rule:nonzero;fill:#78A0CF;fill-opacity:1;" d="M 36.980469 25 C 36.980469 31.617188 31.617188 36.980469 25 36.980469 C 18.382813 36.980469 13.019531 31.617188 13.019531 25 C 13.019531 18.382813 18.382813 13.019531 25 13.019531 C 31.617188 13.019531 36.980469 18.382813 36.980469 25 Z "/>
<path style=" stroke:none;fill-rule:nonzero;fill:#FDFCEE;fill-opacity:1;" d="M 34.75 25 C 34.75 30.386719 30.386719 34.75 25 34.75 C 19.613281 34.75 15.25 30.386719 15.25 25 C 15.25 19.613281 19.613281 15.25 25 15.25 C 30.386719 15.25 34.75 19.613281 34.75 25 Z "/>
<path style=" stroke:none;fill-rule:nonzero;fill:#472B29;fill-opacity:1;" d="M 25 13.199219 C 31.507813 13.199219 36.800781 18.492188 36.800781 25 C 36.800781 31.507813 31.507813 36.800781 25 36.800781 C 18.492188 36.800781 13.199219 31.507813 13.199219 25 C 13.199219 18.492188 18.492188 13.199219 25 13.199219 M 25 12.5 C 18.097656 12.5 12.5 18.097656 12.5 25 C 12.5 31.902344 18.097656 37.5 25 37.5 C 31.902344 37.5 37.5 31.902344 37.5 25 C 37.5 18.097656 31.902344 12.5 25 12.5 Z "/>
<path style=" stroke:none;fill-rule:nonzero;fill:#472B29;fill-opacity:1;" d="M 34.863281 23.476563 C 34.839844 23.339844 34.714844 23.246094 34.578125 23.269531 C 34.441406 23.289063 34.347656 23.417969 34.367188 23.554688 C 34.832031 26.539063 33.84375 29.59375 31.71875 31.71875 C 28.011719 35.421875 21.984375 35.421875 18.28125 31.71875 C 14.578125 28.011719 14.578125 21.988281 18.28125 18.28125 C 21.984375 14.578125 28.011719 14.578125 31.71875 18.28125 C 32.105469 18.671875 32.464844 19.101563 32.808594 19.601563 C 32.886719 19.714844 33.042969 19.746094 33.15625 19.664063 C 33.269531 19.589844 33.296875 19.429688 33.21875 19.316406 C 32.855469 18.792969 32.480469 18.339844 32.070313 17.929688 C 28.171875 14.03125 21.828125 14.03125 17.929688 17.929688 C 14.03125 21.828125 14.03125 28.171875 17.929688 32.070313 C 21.828125 35.96875 28.171875 35.96875 32.070313 32.070313 C 34.308594 29.832031 35.351563 26.621094 34.863281 23.476563 Z "/>
<path style=" stroke:none;fill-rule:nonzero;fill:#472B29;fill-opacity:1;" d="M 33.765625 21.398438 C 33.820313 21.527344 33.964844 21.589844 34.09375 21.535156 C 34.21875 21.484375 34.28125 21.339844 34.230469 21.210938 C 34.074219 20.828125 33.925781 20.511719 33.765625 20.222656 C 33.699219 20.101563 33.550781 20.054688 33.429688 20.121094 C 33.40625 20.132813 33.386719 20.148438 33.371094 20.164063 C 33.292969 20.242188 33.273438 20.363281 33.328125 20.460938 C 33.476563 20.734375 33.617188 21.035156 33.765625 21.398438 Z "/>
<path style=" stroke:none;fill-rule:nonzero;fill:#EAB436;fill-opacity:1;" d="M 19 24.5625 C 18.757813 24.5625 18.5625 24.757813 18.5625 25 C 18.5625 25.242188 18.757813 25.4375 19 25.4375 L 29.945313 25.4375 L 28.191406 27.191406 C 28.109375 27.273438 28.0625 27.382813 28.0625 27.5 C 28.0625 27.617188 28.109375 27.726563 28.191406 27.808594 C 28.355469 27.976563 28.644531 27.976563 28.808594 27.808594 L 31.308594 25.308594 C 31.480469 25.140625 31.480469 24.863281 31.308594 24.691406 L 28.808594 22.191406 C 28.644531 22.027344 28.355469 22.027344 28.191406 22.191406 C 28.109375 22.273438 28.0625 22.382813 28.0625 22.5 C 28.0625 22.617188 28.109375 22.726563 28.191406 22.808594 L 29.945313 24.5625 Z "/>
<path style=" stroke:none;fill-rule:nonzero;fill:#472B29;fill-opacity:1;" d="M 28.5 22.25 C 28.566406 22.25 28.628906 22.277344 28.675781 22.324219 L 31.175781 24.824219 C 31.222656 24.871094 31.25 24.933594 31.25 25 C 31.25 25.066406 31.222656 25.128906 31.175781 25.175781 L 28.675781 27.675781 C 28.628906 27.722656 28.566406 27.75 28.5 27.75 C 28.433594 27.75 28.371094 27.722656 28.324219 27.675781 C 28.226563 27.578125 28.226563 27.421875 28.324219 27.324219 L 29.96875 25.675781 L 30.398438 25.25 L 19 25.25 C 18.863281 25.25 18.75 25.136719 18.75 25 C 18.75 24.863281 18.863281 24.75 19 24.75 L 30.398438 24.75 L 29.96875 24.324219 L 28.324219 22.675781 C 28.226563 22.578125 28.226563 22.421875 28.324219 22.324219 C 28.371094 22.277344 28.433594 22.25 28.5 22.25 M 28.5 22 C 28.371094 22 28.242188 22.050781 28.148438 22.148438 C 27.949219 22.34375 27.949219 22.65625 28.148438 22.851563 L 29.792969 24.5 L 19 24.5 C 18.722656 24.5 18.5 24.722656 18.5 25 C 18.5 25.277344 18.722656 25.5 19 25.5 L 29.792969 25.5 L 28.148438 27.148438 C 27.949219 27.34375 27.949219 27.65625 28.148438 27.851563 C 28.242188 27.949219 28.371094 28 28.5 28 C 28.628906 28 28.757813 27.949219 28.851563 27.851563 L 31.351563 25.351563 C 31.550781 25.15625 31.550781 24.84375 31.351563 24.648438 L 28.851563 22.148438 C 28.757813 22.050781 28.628906 22 28.5 22 Z "/>
</g>
</svg>
