<svg width="1250" height="1266" viewBox="0 0 1250 1266" fill="none" xmlns="http://www.w3.org/2000/svg">
<path d="M1250 634.649C1250 973.558 970.178 1266 625 1266C279.822 1266 0 973.558 0 634.649C0 295.74 279.822 0 625 0C970.178 0 1250 295.74 1250 634.649Z" fill="#E5EFF0" fill-opacity="0.5"/>
<path d="M1168.93 636.206C1168.93 948.45 925.407 1201.57 625 1201.57C324.593 1201.57 81.0645 948.45 81.0645 636.206C81.0645 323.963 324.593 70.8394 625 70.8394C925.407 70.8394 1168.93 323.963 1168.93 636.206Z" fill="#57B0B2"/>
<ellipse cx="625.501" cy="626.861" rx="438.351" ry="427.27" fill="#139A9D"/>
<path fill-rule="evenodd" clip-rule="evenodd" d="M297.656 636.5C297.656 455.437 444.437 308.656 625.5 308.656C806.563 308.656 953.344 455.437 953.344 636.5C953.344 817.563 806.563 964.344 625.5 964.344C444.437 964.344 297.656 817.563 297.656 636.5ZM902.906 636.5C902.906 483.293 778.707 359.094 625.5 359.094C472.293 359.094 348.094 483.293 348.094 636.5C348.094 789.707 472.293 913.906 625.5 913.906C778.707 913.906 902.906 789.707 902.906 636.5Z" fill="white"/>
<path d="M625.5 712.156C749.919 712.156 852.469 786.738 852.469 863.469C852.469 877.397 841.178 888.688 827.25 888.688C814.317 888.688 803.658 878.952 802.201 866.41L802.031 863.469C802.031 818.691 724.898 762.594 625.5 762.594C526.102 762.594 448.969 818.691 448.969 863.469C448.969 877.397 437.678 888.688 423.75 888.688C409.822 888.688 398.531 877.397 398.531 863.469C398.531 786.738 501.081 712.156 625.5 712.156Z" fill="white"/>
<path fill-rule="evenodd" clip-rule="evenodd" d="M499.406 560.844C499.406 491.204 555.86 434.75 625.5 434.75C695.14 434.75 751.594 491.204 751.594 560.844C751.594 630.483 695.14 686.938 625.5 686.938C555.86 686.938 499.406 630.483 499.406 560.844ZM701.156 560.844C701.156 519.06 667.284 485.188 625.5 485.188C583.716 485.188 549.844 519.06 549.844 560.844C549.844 602.628 583.716 636.5 625.5 636.5C667.284 636.5 701.156 602.628 701.156 560.844Z" fill="white"/>
</svg>
