<svg width="293" height="514" viewBox="0 0 293 514" fill="none" xmlns="http://www.w3.org/2000/svg">
<path opacity="0.1" d="M292.234 343.359C282.956 448.106 110.396 490.555 25.209 408.301C7.81281 391.503 3.65047 350.994 8.15652 329.628C26.3247 243.508 83.9893 234.709 40.937 180.233C-2.11527 125.759 -6.11386 26.8655 112.744 27.6373C231.602 28.4091 154.981 173.907 236.857 214.602C274.305 233.215 297.066 288.807 292.234 343.359Z" fill="#32324C"/>
<path opacity="0.1" d="M247.184 191.055C240.024 193.019 232.036 191.145 227.193 186.653C219.459 179.477 207.117 164.984 210.792 148.119C216.04 124.026 255.905 143.259 259.041 170.34C260.609 183.879 254.093 189.16 247.184 191.055Z" fill="#32324C"/>
<path opacity="0.1" d="M204.731 127.695C200.959 126.754 198.445 124.026 198.323 120.989C198.127 116.137 199.08 107.142 207.628 101.084C219.84 92.4319 228.26 110.116 218.26 122.051C213.259 128.019 208.37 128.602 204.731 127.695Z" fill="#32324C"/>
<path opacity="0.1" d="M8.91406 245.428C4.98206 245.025 1.86525 242.692 1.02487 239.722C-0.315795 234.978 -1.50709 225.999 5.46794 218.855C15.4302 208.651 27.8957 224.874 20.8846 238C17.3791 244.562 12.7093 245.815 8.91406 245.428Z" fill="#32324C"/>
<path d="M265.434 156.481C265.434 156.481 224.374 170.128 210.802 166.644C197.229 163.161 182.072 146.481 167.09 125.929C167.09 125.929 174.531 118.04 184.395 114.471C184.395 114.471 203.217 141.839 211.575 146.906C219.935 151.973 263.32 147.718 263.32 147.718C263.32 147.718 265.831 151.871 265.434 156.481Z" fill="#08A8B1"/>
<path d="M262.882 147.005C262.882 147.005 265.841 140.549 269.49 138.854C273.141 137.159 283.598 131.067 285.652 133.164C287.704 135.26 286.757 144.757 277.276 152.238C271.236 157.003 265.432 156.482 265.432 156.482L262.882 147.005Z" fill="#FFAF82"/>
<path d="M285.98 139.254L270.327 152.406C269.739 152.903 268.718 153.001 268.044 152.629L259.132 147.727C258.857 147.573 258.68 147.365 258.613 147.136L258.597 147.062L258.229 145.51L260.703 144.718L284.647 137.04L285.945 136.628L286.336 138.267L286.366 138.381C286.373 138.395 286.374 138.406 286.368 138.421C286.406 138.708 286.276 139.008 285.98 139.254Z" fill="#151A31"/>
<path d="M284.645 137.04L260.701 144.718L274.631 133.013C275.218 132.52 276.24 132.417 276.91 132.788L284.645 137.04Z" fill="#162D47"/>
<path d="M267.669 151.055L258.755 146.15C258.082 145.781 258.015 145.08 258.601 144.587L274.256 131.436C274.842 130.943 275.863 130.843 276.535 131.213L285.449 136.118C286.122 136.487 286.191 137.188 285.603 137.681L269.948 150.832C269.361 151.326 268.341 151.425 267.669 151.055Z" fill="#162D47"/>
<g opacity="0.2">
<path d="M268.91 148.617L262.003 144.817C261.332 144.447 261.262 143.747 261.849 143.254L274.024 133.025C274.611 132.532 275.632 132.432 276.303 132.802L283.21 136.603C283.883 136.973 283.95 137.672 283.364 138.164L271.188 148.394C270.602 148.886 269.583 148.986 268.91 148.617Z" fill="white"/>
</g>
<path d="M286.372 138.417L286.364 138.42C286.371 138.405 286.369 138.394 286.363 138.38L286.372 138.417Z" fill="#162D47"/>
<path d="M269.411 135.504C269.411 135.504 271.519 135.947 271.639 137.785C271.759 139.624 269.821 138.794 268.571 138.324C267.321 137.855 266.155 138.198 265.969 138.395C265.379 139.022 265.699 134.766 269.411 135.504Z" fill="#FFAF82"/>
<path d="M278.391 145.929C278.391 145.929 282.015 140.625 284.73 137.764C286.537 135.86 287.253 138.799 285.981 140.754C284.708 142.709 282.194 146.698 278.391 145.929Z" fill="#FFAF82"/>
<path d="M149.783 302.161C162.658 341.124 172.111 358.007 188.662 383.123C188.662 383.123 156.504 399.875 120.075 440.821L126.423 454.976C126.423 454.976 215.632 406.493 219.171 384.676C222.868 361.877 186.747 274.253 186.747 274.253L149.783 302.161Z" fill="#050705"/>
<path d="M108.788 496.016L87.408 452.703C86.3955 450.653 87.4907 448.384 89.8019 447.359C90.1282 447.214 90.4769 447.092 90.848 447.002L120.243 439.807C120.243 439.807 122.177 441.283 124.17 443.571C125.353 444.928 127.338 445.762 129.41 445.635C129.559 445.625 129.714 445.609 129.868 445.592C135.849 444.863 140.711 450.628 135.921 453.478C135.302 453.847 134.694 454.189 134.099 454.505C133.954 454.583 133.802 454.662 133.659 454.735C132.599 455.284 131.602 455.752 130.722 456.139C130.704 456.15 130.684 456.155 130.666 456.166C128.417 457.143 126.895 457.599 126.895 457.599C126.265 458.458 125.639 459.294 125.02 460.109C124.716 460.52 124.407 460.921 124.108 461.319C123.46 462.18 122.829 463.016 122.23 463.834C121.944 464.214 121.674 464.588 121.408 464.961C120.762 465.857 120.16 466.731 119.619 467.586C119.371 467.973 119.134 468.354 118.915 468.741C117.074 471.898 116.173 474.782 117.024 477.589C118.533 482.539 121.671 490.416 114.858 496.834C114.718 496.97 114.563 497.087 114.403 497.194C112.583 498.396 109.695 497.857 108.788 496.016Z" fill="#02C6CB"/>
<path d="M108.788 496.014L87.408 452.701C86.3955 450.651 87.4907 448.382 89.8019 447.357L114.4 497.193C112.585 498.392 109.697 497.856 108.788 496.014Z" fill="#08A8B1"/>
<path d="M124.105 461.322C122.934 461.11 121.311 460.438 119.261 458.702C118.908 458.408 118.546 458.081 118.17 457.72L119.404 456.9C119.777 457.256 120.128 457.573 120.464 457.855C122.831 459.848 124.328 460.126 125.019 460.112C124.713 460.523 124.404 460.924 124.105 461.322Z" fill="white"/>
<path d="M119.448 458.652C118.519 458.945 117.468 458.579 117.101 457.838C116.735 457.096 117.193 456.257 118.123 455.966C119.053 455.674 120.103 456.039 120.47 456.781C120.837 457.522 120.378 458.36 119.448 458.652Z" fill="white"/>
<path d="M121.408 464.963C120.387 464.635 119.113 463.979 117.604 462.733C117.175 462.389 116.741 462.002 116.283 461.562L117.521 460.742C117.948 461.15 118.351 461.512 118.731 461.824C120.268 463.093 121.431 463.628 122.231 463.837C121.945 464.216 121.674 464.591 121.408 464.963Z" fill="white"/>
<path d="M117.67 462.713C116.74 463.006 115.689 462.64 115.323 461.899C114.956 461.157 115.414 460.319 116.344 460.027C117.274 459.735 118.325 460.1 118.691 460.842C119.058 461.583 118.599 462.423 117.67 462.713Z" fill="white"/>
<path d="M118.915 468.738C117.92 468.403 116.697 467.75 115.256 466.568C114.824 466.221 114.377 465.829 113.915 465.38L115.155 464.563C115.584 464.975 115.991 465.335 116.378 465.65C117.757 466.784 118.839 467.331 119.621 467.583C119.371 467.969 119.134 468.353 118.915 468.738Z" fill="white"/>
<path d="M115.317 466.551C114.387 466.843 113.336 466.478 112.97 465.736C112.603 464.995 113.061 464.157 113.991 463.865C114.921 463.572 115.971 463.938 116.338 464.679C116.705 465.421 116.246 466.259 115.317 466.551Z" fill="white"/>
<path d="M130.721 456.14C129.778 454.147 128.542 452.367 128.542 452.367L131.273 451.536C132.407 452.545 133.158 453.707 133.661 454.735C132.599 455.284 131.602 455.753 130.721 456.14Z" fill="white"/>
<path d="M104.151 269.742C104.151 269.742 94.6536 312.893 120.075 383.289C120.075 383.289 116.57 402.563 118.644 422.207C120.077 435.777 126.943 472.814 126.943 472.814L146.689 471.714C146.689 471.714 144.081 432.394 148.734 383.063L149.785 309.829C149.785 309.829 178.918 294.32 187.562 272.33C187.562 272.33 128.711 265.69 104.151 269.742Z" fill="#050705"/>
<path d="M162.458 492.376C161.944 500.577 129.786 497.752 124.645 495.292C122.66 494.34 121.827 492.508 121.672 490.289C121.42 486.749 122.882 482.221 124.147 478.674C126.203 472.895 125.921 473.002 127.35 469.054C127.35 469.054 126.979 462.632 137.518 460.179C148.054 457.723 151.917 473.717 153.716 476.792C155.361 479.61 161.765 483.464 162.429 490.399C162.489 491.03 162.498 491.691 162.458 492.376Z" fill="#02C6CB"/>
<path d="M131.795 474.247L130.952 473.217C131.343 473.014 140.642 468.26 148.733 471.089L148.114 472.215C140.778 469.648 131.882 474.199 131.795 474.247Z" fill="white"/>
<path d="M132.711 481.386L131.868 480.356C132.259 480.153 141.558 475.399 149.649 478.228L149.03 479.354C141.694 476.788 132.8 481.338 132.711 481.386Z" fill="white"/>
<path d="M132.253 477.814L131.411 476.784C131.802 476.581 141.1 471.825 149.192 474.656L148.572 475.782C141.234 473.214 132.343 477.766 132.253 477.814Z" fill="white"/>
<path d="M133.014 473.922C133.014 474.686 132.236 475.307 131.28 475.307C130.321 475.307 129.543 474.686 129.543 473.922C129.543 473.157 130.321 472.539 131.28 472.539C132.239 472.537 133.014 473.157 133.014 473.922Z" fill="white"/>
<path d="M133.109 477.306C133.109 478.071 132.332 478.689 131.375 478.689C130.416 478.689 129.638 478.069 129.638 477.306C129.638 476.543 130.416 475.923 131.375 475.923C132.332 475.921 133.109 476.541 133.109 477.306Z" fill="white"/>
<path d="M134.027 480.686C134.027 481.451 133.249 482.07 132.292 482.07C131.333 482.07 130.558 481.449 130.558 480.686C130.558 479.922 131.333 479.302 132.292 479.302C133.249 479.303 134.027 479.922 134.027 480.686Z" fill="white"/>
<path d="M151.075 478.69C151.075 479.454 150.297 480.075 149.339 480.075C148.38 480.075 147.604 479.454 147.604 478.69C147.604 477.925 148.382 477.306 149.339 477.306C150.297 477.306 151.075 477.927 151.075 478.69Z" fill="white"/>
<path d="M150.618 474.999C150.618 475.764 149.843 476.383 148.884 476.383C147.925 476.383 147.147 475.762 147.147 474.999C147.147 474.237 147.925 473.616 148.884 473.616C149.84 473.614 150.618 474.235 150.618 474.999Z" fill="white"/>
<path d="M150.159 471.305C150.159 472.07 149.381 472.69 148.425 472.69C147.466 472.69 146.688 472.07 146.688 471.305C146.688 470.541 147.466 469.922 148.425 469.922C149.381 469.922 150.159 470.541 150.159 471.305Z" fill="white"/>
<path d="M162.457 492.378C161.943 500.579 129.785 497.754 124.644 495.294C122.659 494.342 121.826 492.51 121.671 490.291C125.051 491.829 131.006 493.743 139.897 493.87C150.805 494.025 158.673 492.265 162.428 490.401C162.488 491.032 162.497 491.693 162.457 492.378Z" fill="#08A8B1"/>
<path d="M142.065 462.714C142.065 462.714 137.174 462.304 133.019 464.149L133.491 466.746C133.491 466.746 139.318 465.379 143.176 465.584C143.176 465.584 143.098 463.876 142.065 462.714Z" fill="white"/>
<path opacity="0.1" d="M140.867 514C192.708 514 234.734 507.624 234.734 499.758C234.734 491.893 192.708 485.517 140.867 485.517C89.0257 485.517 47 491.893 47 499.758C47 507.624 89.0257 514 140.867 514Z" fill="#32324C"/>
<path d="M123.713 90.7315C123.713 90.7315 81.9145 88.0449 63.0204 111.763C44.1263 135.48 60.2152 236.271 81.7267 245.185C103.238 254.1 134.928 249.706 142.846 232.133C150.764 214.561 146.186 123.065 123.713 90.7315Z" fill="#162D47"/>
<path d="M122.207 103.276C122.207 103.276 84.0648 105.048 73.2814 124.059C62.498 143.07 69.2876 218.899 87.6598 230.51C106.032 242.12 125.326 235.33 138.644 213.363C140.458 172.799 136.764 135.155 122.207 103.276Z" fill="#151A31"/>
<path d="M130.9 76.4548C130.9 76.4548 108.303 76.6519 98.0356 86.002C87.7679 95.3536 97.6692 114.238 108.854 116.623C120.04 119.007 154.915 114.743 158.522 108.75C162.128 102.756 159.731 76.8074 130.9 76.4548Z" fill="#02C6CB"/>
<path d="M96.1697 272.923C130.144 293.973 163.358 291.862 196.839 271.394L178.741 104.979L158.881 102.32L157.288 102.106L152.77 101.504L125.008 97.7847L120.332 99.3828L114.442 101.4L113.033 101.883L86.7842 110.867L106.336 225.22L96.1697 272.923Z" fill="#02C6CB"/>
<path d="M132.932 116.808C113.05 116.808 108.372 99.3025 108.328 99.1255C108.228 98.7329 108.465 98.3341 108.857 98.2341C109.248 98.1371 109.649 98.3711 109.749 98.7637C109.923 99.4442 114.217 115.341 132.926 115.341C133.031 115.339 133.132 115.319 133.242 115.339C133.643 115.339 133.971 115.662 133.974 116.066C133.978 116.471 133.653 116.802 133.248 116.806C133.143 116.806 133.035 116.808 132.932 116.808Z" fill="#08A8B1"/>
<path d="M151.602 113.995C151.203 113.995 150.876 113.675 150.869 113.276C150.861 112.871 151.183 112.537 151.586 112.53C151.848 112.522 157.626 112.268 159.092 104.448C159.166 104.049 159.552 103.789 159.948 103.863C160.347 103.937 160.608 104.32 160.534 104.719C158.839 113.758 151.688 113.995 151.616 113.997C151.611 113.995 151.606 113.995 151.602 113.995Z" fill="#08A8B1"/>
<path d="M129.214 224.954C129.214 224.954 129.102 240.544 125.568 254.864C125.568 254.864 162.513 260.857 183.416 249.489C183.416 249.489 185.646 235.825 182.985 220.406L129.214 224.954Z" fill="#08A8B1"/>
<path d="M137.228 187.076C137.208 187.076 137.186 187.076 137.166 187.073C136.772 187.039 136.481 186.693 136.515 186.299C138.093 168.014 131.077 121.901 131.006 121.438C130.946 121.047 131.214 120.682 131.605 120.622C131.992 120.563 132.361 120.83 132.421 121.221C132.492 121.686 139.534 167.969 137.942 186.422C137.909 186.794 137.596 187.076 137.228 187.076Z" fill="white"/>
<path d="M161.397 183.409C161.377 183.409 161.355 183.408 161.335 183.405C160.941 183.372 160.65 183.025 160.684 182.631C162.262 164.35 155.013 117.873 154.94 117.407C154.878 117.016 155.144 116.649 155.535 116.588C155.925 116.525 156.293 116.793 156.354 117.184C156.428 117.653 163.703 164.3 162.111 182.754C162.077 183.127 161.765 183.409 161.397 183.409Z" fill="white"/>
<path d="M96.77 106.693C96.77 106.693 125.652 178.614 105.215 218.669C102.062 222.879 102.628 233.888 103.384 238.423C103.384 238.423 129.901 218.806 124.418 171.165C118.936 123.525 108.305 103.501 108.305 103.501C108.305 103.501 102.961 98.2462 96.77 106.693Z" fill="#162D47"/>
<path d="M166.216 103.302C166.216 103.302 184.293 146.69 190.478 212.889C190.478 212.889 202.864 154.909 178.601 107.135C178.601 107.135 174.455 98.7082 166.216 103.302Z" fill="#162D47"/>
<path d="M92.1761 256.586C92.1761 256.586 97.3323 258.916 100.673 262.172C104.014 265.428 107.374 268.972 109.395 271.018C111.828 273.479 108.767 274.68 105.931 273.283C101.631 271.166 100.407 268.978 100.407 268.978C100.407 268.978 110.633 284.473 111.548 289.377C112.382 293.854 106.317 285.592 100.921 279.037C100.921 279.037 108.197 295.715 106.462 298.277C104.184 301.64 95.4278 281.408 95.4278 281.408C95.4278 281.408 99.6664 297.287 97.6972 297.529C95.5017 297.798 89.177 282.074 89.177 282.074C89.177 282.074 91.123 293.24 89.762 292.935C87.0677 292.33 78.1919 269.898 81.4081 259.348C81.4081 259.348 89.6481 255.676 92.1761 256.586Z" fill="#FFAF82"/>
<path d="M81.8145 186.497C81.8145 186.497 90.4686 177.178 98.9888 150.784C98.9888 150.784 101.386 113.995 86.7843 110.867C86.7843 110.867 66.406 141.922 59.738 180.157C59.738 180.157 58.1845 226.302 80.8076 259.687C80.8076 259.687 87.6512 260.08 92.1776 256.586C92.1776 256.586 80.1209 207.08 81.8145 186.497Z" fill="#02C6CB"/>
<path d="M167.906 16.8132C167.906 16.8132 174.719 21.3058 172.279 33.5103C169.837 45.7148 165.119 47.0173 165.119 47.0173C165.119 47.0173 157.969 19.9925 167.906 16.8132Z" fill="#162D47"/>
<path d="M141.344 74.8257L140.011 90.2249L139.401 97.2825C130.316 103.584 116.144 94.097 116.144 94.097L115.621 69.8958C119.816 67.2493 130.016 71.1691 136.328 73.129C139.303 74.0528 141.344 74.8257 141.344 74.8257Z" fill="#FFAF82"/>
<path d="M141.345 74.8258L140.011 90.225C129.65 87.4953 121.351 72.772 121.351 72.772L136.327 73.1292C139.303 74.0529 141.345 74.8258 141.345 74.8258Z" fill="#F88968"/>
<path d="M170.846 34.9295C170.846 35.3853 170.846 35.8518 170.838 36.3198C170.838 36.3999 170.834 36.483 170.834 36.5631C170.826 37.0142 170.818 37.4653 170.801 37.9287C170.658 42.7092 170.175 47.9854 169.536 53.2694C169.4 54.3794 169.256 55.4864 169.105 56.5842C168.972 57.5341 168.844 58.4856 168.709 59.4232C168.421 61.3801 168.125 63.3138 167.822 65.1829C167.614 66.4854 167.406 67.7587 167.191 68.9934C167.038 69.8633 166.832 70.707 166.572 71.5169C165.753 74.0695 164.4 76.342 162.674 78.2342C158.492 82.8191 152.07 85.1794 145.512 83.8538C140.148 82.7714 134.225 81.4412 128.698 79.9C128.422 79.8277 128.159 79.7569 127.883 79.6799C123.454 78.4251 119.304 77.0395 115.933 75.5383C115.494 74.9117 115.07 74.2728 114.667 73.6246C111.137 67.9819 109.032 61.651 107.782 55.0969C107.286 52.4765 106.92 49.8253 106.66 47.1648C106.64 46.9493 106.595 46.7491 106.552 46.5459C106.556 44.0979 106.584 41.6576 106.627 39.3051C106.951 21.9398 121.577 8.28039 138.927 9.1672C152.646 9.87389 165.71 15.1902 169.009 22.2601C170.323 25.0637 170.838 29.5732 170.846 34.9295Z" fill="#FFAF82"/>
<path d="M163.269 61.5374C163.269 61.5374 163.197 62.0748 162.945 62.8877C162.55 64.1579 161.71 66.0931 159.992 67.682C158.375 69.177 155.978 70.3579 152.444 70.3748C149.31 70.3887 147.042 69.4449 145.407 68.1008C143.105 66.2163 142.05 63.5466 141.573 61.6714C141.244 60.372 141.191 59.4543 141.191 59.4543C150.638 63.4065 163.269 61.5374 163.269 61.5374Z" fill="#920E08"/>
<path d="M159.992 67.6819C158.375 69.1769 155.978 70.3578 152.444 70.3747C149.31 70.3886 147.042 69.4448 145.407 68.1007C147.059 66.8782 149.867 65.6312 153.511 65.8375C156.609 66.013 158.36 66.9275 159.992 67.6819Z" fill="#F85C66"/>
<path d="M163.269 61.5373C163.269 61.5373 163.197 62.0747 162.945 62.8876C154.3 65.8052 145.077 62.9877 141.573 61.6728C141.244 60.3734 141.191 59.4558 141.191 59.4558C150.638 63.4065 163.269 61.5373 163.269 61.5373Z" fill="white"/>
<path d="M114.668 73.6262C111.137 67.982 109.034 61.6511 107.784 55.0955C109.732 55.1201 112.275 55.7097 115.585 57.2432C115.585 57.2432 116.334 66.9043 114.668 73.6262Z" fill="#162D47"/>
<path d="M146.051 45.1034C146.051 47.148 145.141 48.8062 144.017 48.8062C142.893 48.8062 141.983 47.1495 141.983 45.1034C141.983 43.0588 142.893 41.4006 144.017 41.4006C145.141 41.4022 146.051 43.0603 146.051 45.1034Z" fill="#162D47"/>
<path d="M167.073 45.1049C167.073 47.1495 166.161 48.8061 165.039 48.8061C163.915 48.8061 163.005 47.1495 163.005 45.1049C163.005 43.0602 163.915 41.4021 165.039 41.4021C166.163 41.4021 167.073 43.0602 167.073 45.1049Z" fill="#162D47"/>
<path d="M106.598 40.9851C106.598 40.9851 113.118 36.7388 118.61 44.3183H122.882C122.882 44.3183 122.637 35.5441 124.713 30.7836C126.788 26.0231 134.965 26.1463 136.186 20.5313C136.186 20.5313 156.203 30.1678 167.717 24.0247C193.746 10.1374 139.045 -7.67282 119.018 3.53402C104.137 11.8602 103.495 26.0462 106.598 40.9851Z" fill="#162D47"/>
<path d="M135.789 38.9589C135.789 38.9589 137.746 34.9374 141.504 33.9305C144.984 32.999 147.47 33.8966 148.714 34.5756C149.258 34.8727 149.492 35.5286 149.276 36.1075C149.021 36.7942 148.237 37.1159 147.572 36.8065C145.467 35.8273 140.831 34.5648 135.789 38.9589Z" fill="#162D47"/>
<path d="M170.846 34.93C170.846 35.3857 170.846 35.8522 170.839 36.3202C170.839 36.4003 170.834 36.4834 170.834 36.5635C167.056 34.7498 163.804 35.7044 162.14 36.4757C161.967 36.5558 161.789 36.5958 161.609 36.5958C161.105 36.5958 160.622 36.2879 160.438 35.7768C160.223 35.1979 160.454 34.542 160.997 34.2479C162.243 33.5689 164.728 32.6698 168.206 33.6013C169.22 33.8707 170.104 34.3588 170.846 34.93Z" fill="#162D47"/>
<path d="M118.612 44.3186C118.612 44.3186 112.072 36.3958 106.6 40.9853C100.569 46.043 105.188 63.1943 117.445 62.8063L118.612 44.3186Z" fill="#FFAF82"/>
<path d="M117.746 59.0847C117.205 59.0847 116.739 58.6798 116.676 58.1302C115.678 49.4545 110.533 48.1196 110.313 48.0673C109.737 47.9287 109.376 47.3514 109.51 46.774C109.644 46.1967 110.212 45.8349 110.791 45.9642C111.07 46.0258 117.636 47.6054 118.819 57.8854C118.887 58.4766 118.462 59.0124 117.87 59.0801C117.829 59.0832 117.787 59.0847 117.746 59.0847Z" fill="#F88968"/>
<path d="M110.861 53.5902C110.607 53.5902 110.352 53.5009 110.147 53.3192C109.702 52.9235 109.66 52.243 110.056 51.7965C110.145 51.6965 112.279 49.3516 115.817 50.1307C116.399 50.2585 116.767 50.8343 116.639 51.4163C116.512 51.9967 115.936 52.3647 115.354 52.2369C113.029 51.7257 111.682 53.213 111.67 53.2268C111.455 53.4686 111.158 53.5902 110.861 53.5902Z" fill="#F88968"/>
<path d="M152.086 75.2768C147.817 75.2768 145.303 72.9058 145.167 72.7765C144.739 72.3624 144.728 71.6788 145.143 71.2508C145.555 70.8227 146.236 70.812 146.664 71.2215C146.816 71.3647 150.108 74.3808 155.597 72.5025C156.157 72.31 156.773 72.6102 156.965 73.1737C157.159 73.7372 156.857 74.35 156.294 74.544C154.75 75.0721 153.342 75.2768 152.086 75.2768Z" fill="#F88968"/>
<path d="M143.015 53.8363C138.201 53.8363 134.284 49.9195 134.284 45.1051C134.284 40.2908 138.201 36.374 143.015 36.374C147.83 36.374 151.746 40.2908 151.746 45.1051C151.746 49.9195 147.83 53.8363 143.015 53.8363ZM143.015 37.8105C138.994 37.8105 135.722 41.0822 135.722 45.1036C135.722 49.1251 138.994 52.3968 143.015 52.3968C147.037 52.3968 150.308 49.1251 150.308 45.1036C150.308 41.0822 147.037 37.8105 143.015 37.8105Z" fill="#162D47"/>
<path d="M165.755 53.8363C160.94 53.8363 157.023 49.9195 157.023 45.1051C157.023 40.2908 160.94 36.374 165.755 36.374C170.569 36.374 174.486 40.2908 174.486 45.1051C174.486 49.9195 170.569 53.8363 165.755 53.8363ZM165.755 37.8105C161.733 37.8105 158.461 41.0822 158.461 45.1036C158.461 49.1251 161.733 52.3968 165.755 52.3968C169.776 52.3968 173.048 49.1251 173.048 45.1036C173.048 41.0822 169.776 37.8105 165.755 37.8105Z" fill="#162D47"/>
<path d="M118.924 40.921L118.813 42.3547L135.277 43.6313L135.388 42.1975L118.924 40.921Z" fill="#162D47"/>
<path d="M151.348 44.4525L150.515 43.2809C151.903 42.2909 155.317 41.0207 158.285 43.2963L157.411 44.4371C154.552 42.2478 151.477 44.3617 151.348 44.4525Z" fill="#162D47"/>
<path d="M156.446 57.0046C156.121 57.0046 155.799 56.8583 155.588 56.5796C155.227 56.1054 155.317 55.4295 155.792 55.0677L158.666 52.8722L156.175 52.2271C155.761 52.1194 155.448 51.776 155.381 51.3542L154.281 44.4891C154.187 43.9009 154.588 43.3482 155.176 43.2543C155.762 43.1557 156.318 43.5607 156.412 44.1488L157.399 50.318L161.354 51.3434C161.753 51.4481 162.058 51.7699 162.141 52.1748C162.223 52.5797 162.065 52.9954 161.738 53.2448L157.1 56.7844C156.905 56.9322 156.674 57.0046 156.446 57.0046Z" fill="#F88968"/>
</svg>
