<svg width="501" height="501" viewBox="0 0 501 501" fill="none" xmlns="http://www.w3.org/2000/svg">
<path d="M98.9764 461.686L56.4257 461.942C56.4257 461.942 -5.22101 389.059 0.734953 234.984C6.69117 80.9085 104.387 5.69272 176.486 0.600766C264.442 -5.61122 264.848 52.0265 361.532 62.234C406.732 67.006 443.647 76.0365 479.861 154.93C506.833 213.687 515.91 357.669 451.398 461.686L98.9764 461.686Z" fill="#DAF2F1"/>
<path d="M31.6243 166.013C38.7247 165.583 55.3692 164.849 69.8329 166.267C75.8167 166.853 80.9998 161.519 80.8847 154.795C80.8375 152.043 79.9651 148.838 77.694 145.202C68.9499 131.204 53.6426 144.488 53.7688 151.578C53.7688 151.578 50.7124 140.891 41.3315 142.727C31.9505 144.562 35.2217 160.1 35.2217 160.1C35.2217 160.1 32.1984 159.374 30.0965 160.969C28.0297 162.538 29.131 166.164 31.6243 166.013Z" fill="white"/>
<path d="M185.456 75.5813C174.614 74.9408 137.461 73.1864 112.054 77.4033C108.759 77.9503 106.66 73.5283 108.939 70.8084C110.273 69.2176 112.547 67.922 116.373 67.6222C116.373 67.6222 115.055 41.0672 132.971 39.308C153.52 37.2905 153.768 63.3798 153.768 63.3798C153.768 63.3798 163.108 53.4532 169.844 66.0384C169.844 66.0384 181.485 58.5055 187.357 72.4187C187.997 73.9359 186.953 75.6698 185.456 75.5813Z" fill="white"/>
<path d="M441.461 117.52C432.487 116.99 401.733 115.538 380.702 119.029C377.974 119.481 376.237 115.821 378.124 113.569C379.228 112.253 381.111 111.18 384.277 110.932C384.277 110.932 385.037 93.6253 399.923 93.4857C413.022 93.3629 415.232 107.42 415.232 107.42C415.232 107.42 422.962 99.2038 428.538 109.621C428.538 109.621 438.174 103.386 443.035 114.902C443.564 116.158 442.7 117.593 441.461 117.52Z" fill="white"/>
<path d="M377.212 461.942C377.261 460.971 377.599 459.992 378.301 459.154C379.833 457.326 382.447 455.837 386.843 455.493C386.843 455.493 385.329 424.978 405.917 422.956C429.529 420.638 429.815 450.617 429.815 450.617C429.815 450.617 440.547 439.211 448.287 453.672C448.287 453.672 461.664 445.017 468.412 461.004C468.542 461.313 468.611 461.63 468.628 461.942H377.212Z" fill="#7FC6A6"/>
<path d="M312.03 461.942C312.079 460.971 312.417 459.992 313.119 459.154C314.651 457.326 317.265 455.837 321.661 455.493C321.661 455.493 320.147 424.978 340.735 422.956C364.347 420.638 364.633 450.617 364.633 450.617C364.633 450.617 375.365 439.211 383.106 453.672C383.106 453.672 396.482 445.017 403.23 461.004C403.36 461.313 403.429 461.63 403.446 461.942H312.03Z" fill="#7FC6A6"/>
<path d="M125.31 461.942C125.26 460.955 124.917 459.961 124.203 459.11C122.647 457.253 119.993 455.741 115.527 455.391C115.527 455.391 117.968 430.587 98.2088 422.652C73.5143 412.736 69.7506 441.634 69.7506 441.634C69.7506 441.634 53.5146 436.199 50.6811 453.814C50.6811 453.814 36.6298 444.917 32.6757 460.99C32.5934 461.325 32.4734 461.626 32.4566 461.942L125.31 461.942Z" fill="#7FC6A6"/>
<path d="M112.093 461.942C112.143 460.955 112.487 459.961 113.2 459.11C114.756 457.253 117.411 455.741 121.876 455.391C121.876 455.391 120.338 424.396 141.25 422.343C165.233 419.989 165.524 450.439 165.524 450.439C165.524 450.439 176.424 438.853 184.287 453.542C184.287 453.542 197.874 444.751 204.727 460.989C204.86 461.303 204.93 461.625 204.946 461.942L112.093 461.942Z" fill="#7FC6A6"/>
<path d="M479.622 461.333H18.4142V463.183H479.622V461.333Z" fill="#4C222E"/>
<path d="M323.273 108.192C323.925 108.148 324.485 108.713 324.566 109.439L325.072 113.954C325.088 114.096 325.183 114.21 325.308 114.239C325.491 114.282 325.664 114.126 325.666 113.915L325.714 107.195C325.72 106.425 326.275 105.923 326.949 106.079C327.622 106.235 328.168 106.993 328.163 107.763L328.114 114.616C328.112 114.775 328.212 114.913 328.351 114.945L328.45 114.968C328.611 115.005 328.768 114.889 328.802 114.709L330.179 107.266C330.312 106.55 330.91 106.036 331.557 106.138C332.266 106.25 332.732 107.005 332.59 107.777L331.203 115.266C331.17 115.447 331.274 115.623 331.435 115.66L331.747 115.733C331.894 115.767 332.04 115.674 332.089 115.516L334.174 108.804C334.388 108.113 335.041 107.691 335.671 107.886C336.361 108.1 336.736 108.917 336.504 109.661C336.504 109.661 333.816 120.087 333.514 121.755L336.789 120.233C337.355 119.817 338.116 119.993 338.487 120.627C338.859 121.261 338.702 122.112 338.135 122.529L329.282 130.85C328.913 131.122 325.569 131.887 324.906 131.541C321.641 131.442 319.556 133.87 319.931 129.184C320.307 124.497 321.821 117.78 321.821 117.78C322.348 115.351 322.475 112.836 322.197 110.356L322.127 109.733C322.04 108.952 322.559 108.241 323.273 108.192Z" fill="#FE9F73"/>
<path d="M377.662 211.685C377.662 211.685 366.206 221.036 354.168 213.865C343.17 207.314 324.935 199.974 316.04 186.68C308.85 175.936 315.86 140.229 317.96 131.409L332.505 136.066C332.505 136.066 332.686 170.609 332.331 174.472C332.196 175.941 341.522 180.685 348.604 184.577C358.227 189.866 366.268 192.947 369.99 192.458L377.662 211.685Z" fill="#4C222E"/>
<path d="M318.31 131.522L318.945 127.858C318.945 127.858 329.73 129.964 330.728 130.525C330.678 130.744 330.426 135.401 330.426 135.401L318.31 131.522Z" fill="white"/>
<path d="M326.421 175.695C326.284 175.786 326.24 175.985 326.322 176.138C326.404 176.291 326.581 176.341 326.718 176.25C328.228 175.239 331.712 175.179 332.407 175.177C335.238 178.386 356.684 188.957 357.607 189.41C357.752 189.482 357.923 189.408 357.987 189.244C358.052 189.08 357.985 188.89 357.839 188.818C357.612 188.706 335.084 177.604 332.749 174.64L332.665 174.533L332.536 174.531C332.361 174.528 328.234 174.481 326.421 175.695Z" fill="black"/>
<path d="M317.811 131.132C317.754 131.171 317.708 131.232 317.685 131.309C317.636 131.479 317.718 131.662 317.87 131.717C321.287 132.963 330.645 135.833 332.207 136.311C331.806 148.115 331.993 174.47 332.284 175.019C332.365 175.173 332.542 175.224 332.68 175.133L332.68 175.133C332.801 175.052 332.85 174.889 332.804 174.747C332.634 173.694 332.345 148.772 332.793 136.08L332.802 135.822L332.581 135.755C332.472 135.722 321.75 132.452 318.049 131.102C317.967 131.072 317.88 131.086 317.811 131.132Z" fill="black"/>
<path d="M317.447 174.038C323.56 181.631 323.145 189.292 322.196 193.82C319.871 191.64 317.776 189.275 316.04 186.681C313.709 183.198 312.872 177.093 312.874 170.131C314.357 170.87 315.896 172.112 317.447 174.038Z" fill="#FEC786"/>
<path d="M380.798 160.491C380.798 160.491 384.9 162.861 382.849 172.127L381.298 171.232L381.821 166.309L380.798 160.491Z" fill="black"/>
<path d="M366.425 166.24V179.82C366.425 179.82 366.255 184.41 369.821 184.984L369.155 191.108C368.908 193.385 370.116 195.564 372.057 196.257C373.005 196.595 374.138 196.842 375.423 196.842C379.497 196.842 381.704 193.4 382.044 191.678C382.383 189.957 381.365 181.733 381.365 181.733L381.489 177.691L381.025 162.032L366.425 166.24Z" fill="#FE9F73"/>
<path d="M376.262 173.03C376.305 173.03 376.347 173.012 376.38 172.976C376.448 172.903 376.45 172.782 376.385 172.706C376.362 172.679 374.027 169.988 371.893 171.925C371.82 171.991 371.808 172.111 371.867 172.194C371.926 172.276 372.033 172.289 372.106 172.222C373.997 170.507 376.054 172.87 376.14 172.971C376.173 173.01 376.218 173.03 376.262 173.03Z" fill="black"/>
<path d="M369.264 171.882C369.312 171.882 369.359 171.86 369.392 171.816C369.454 171.737 369.446 171.616 369.375 171.547C369.307 171.48 367.687 169.919 366.664 170.909C366.592 170.978 366.584 171.098 366.645 171.178C366.706 171.259 366.813 171.268 366.885 171.199C367.687 170.424 369.138 171.822 369.153 171.836C369.185 171.867 369.224 171.882 369.264 171.882Z" fill="black"/>
<path d="M372.829 173.803C372.829 174.12 373.057 174.377 373.338 174.377C373.62 174.377 373.848 174.12 373.848 173.803C373.848 173.486 373.62 173.229 373.338 173.229C373.057 173.229 372.829 173.486 372.829 173.803Z" fill="black"/>
<path d="M367.415 173.229C367.415 173.546 367.643 173.803 367.925 173.803C368.206 173.803 368.434 173.546 368.434 173.229C368.434 172.913 368.206 172.656 367.925 172.656C367.643 172.656 367.415 172.913 367.415 173.229Z" fill="black"/>
<path d="M381.827 177.444C383.514 177.444 384.883 175.903 384.883 174.002C384.883 172.1 383.514 170.559 381.827 170.559C380.139 170.559 378.771 172.1 378.771 174.002C378.771 175.903 380.139 177.444 381.827 177.444Z" fill="#FE9F73"/>
<path d="M382.053 176.112C382.688 176.112 383.112 175.574 383.251 175.037C383.416 174.401 383.227 173.784 382.769 173.464C382.092 172.99 381.479 173.294 381.164 173.527C381.296 173.136 381.503 172.851 381.781 172.679C382.383 172.306 383.13 172.578 383.138 172.581C383.182 172.598 383.23 172.57 383.245 172.52C383.26 172.47 383.236 172.416 383.191 172.399C383.158 172.387 382.369 172.098 381.701 172.511C381.315 172.749 381.053 173.171 380.921 173.765L380.847 174.099L381.063 173.856C381.094 173.822 381.821 173.026 382.679 173.626C383.155 173.959 383.197 174.565 383.088 174.983C382.975 175.417 382.637 175.92 382.053 175.92C382.053 175.92 382.042 175.92 382.036 175.92C381.989 175.92 381.952 175.962 381.951 176.014C381.95 176.067 381.988 176.11 382.035 176.111C382.041 176.112 382.047 176.112 382.053 176.112Z" fill="#F07162"/>
<path d="M365.834 177.66C365.834 177.66 364.724 186.856 370.144 187.183C377.9 187.65 378.651 182.663 379.112 178.583L379.19 170.161L378.941 167.717C378.393 168.416 378.058 169.292 377.984 170.221C377.823 172.24 377.426 177.681 376.979 177.922C376.347 178.262 367.041 176.774 365.834 177.66Z" fill="black"/>
<path d="M371.032 177.673C371.068 177.673 371.101 177.648 371.113 177.608C371.128 177.558 371.104 177.504 371.059 177.487L369.357 176.853L369.895 172.341C369.901 172.289 369.869 172.241 369.822 172.234C369.775 172.226 369.733 172.264 369.727 172.316L369.17 176.985L371.006 177.669C371.015 177.672 371.024 177.673 371.032 177.673Z" fill="#F07162"/>
<path d="M372.351 179.536C372.298 179.525 368.989 179.438 368.989 179.438C368.989 179.438 369.405 180.979 370.635 181.015C371.864 181.052 372.351 179.536 372.351 179.536Z" fill="#FBFDFC"/>
<path d="M368.793 191.122L369.33 187.655C369.33 187.655 378.484 187.388 382.113 186.396L382.611 191.24C382.611 191.24 374.486 195.429 368.793 191.122Z" fill="white"/>
<path d="M378.957 167.874L380.491 166.309L382.079 170.581C382.079 170.581 380.116 170.945 380.082 173.23C380.048 175.515 381.149 179.082 377.615 184.209C374.08 189.336 377.899 176.556 377.933 176.112C377.968 175.667 378.957 167.874 378.957 167.874Z" fill="black"/>
<path d="M380.798 160.491C379.161 158.673 373.485 157.635 369.434 160.368L369.434 160.363C364.822 162.889 366.271 168.031 366.424 168.184L366.484 168.133C366.46 168.251 366.439 168.37 366.424 168.489C366.424 168.489 366.618 168.143 367.032 167.663L368.846 166.107C369.861 165.467 371.225 164.915 372.989 164.786C374.74 164.658 376.269 164.767 377.524 165.199C377.856 166.365 378.126 168.677 377.736 173.229C377.142 180.173 379.851 171.75 380.836 168.524C381.048 169.127 381.202 169.805 381.279 170.581C381.279 170.581 384.078 164.134 380.798 160.491Z" fill="black"/>
<path d="M366.425 170.054C366.425 170.054 366.304 167.267 366.424 166.656C366.544 166.045 372.086 164.292 375.12 164.759C378.155 165.225 372.273 168.966 372.204 168.966C372.136 168.966 366.425 170.054 366.425 170.054Z" fill="#FE9F73"/>
<path d="M376.944 165.473L379.877 162.418L377.115 166.886L376.944 165.473Z" fill="#FE9F73"/>
<path d="M376.944 159.46C376.944 159.46 376.348 152.874 379.621 154.305C382.895 155.737 383.458 158.772 380.491 160.776C377.524 162.781 376.944 159.46 376.944 159.46Z" fill="black"/>
<path d="M386.227 456.405L400.999 456.632L401.211 441.035L386.497 438.977L386.227 456.405Z" fill="#FE9F73"/>
<path d="M371.049 459.213H401.211V452.418C401.211 452.418 399.017 449.157 395.677 450.822C395.677 450.822 390.732 454.831 386.278 450.04L375.11 455.408C375.11 455.408 371.049 456.903 371.049 459.213Z" fill="#4C222E"/>
<path d="M401.21 461.591H370.156C369.926 461.591 369.739 461.382 369.739 461.125V459.679C369.739 459.422 369.926 459.213 370.156 459.213H401.211V461.591H401.21Z" fill="#FEC786"/>
<path d="M352.792 456.405L367.563 456.632L367.775 441.035L353.061 438.977L352.792 456.405Z" fill="#FE9F73"/>
<path d="M337.614 459.213H367.775V452.418C367.775 452.418 365.581 449.157 362.241 450.822C362.241 450.822 357.296 454.831 352.842 450.04L341.675 455.408C341.675 455.408 337.614 456.903 337.614 459.213Z" fill="#4C222E"/>
<path d="M367.775 461.591H336.72C336.49 461.591 336.304 461.382 336.304 461.125V459.679C336.304 459.422 336.49 459.213 336.72 459.213H367.775V461.591Z" fill="#FEC786"/>
<path d="M378.896 280.393C378.896 280.393 376.936 383.85 370.191 443.559C370.191 443.559 361.205 446.724 349.907 440.809L349.427 288.324L347.796 265.479L378.896 280.393Z" fill="#EF3A4C"/>
<path d="M402.61 281.393C402.61 281.393 406.56 383.381 402.141 443.477C402.141 443.477 393.747 449.398 382.235 444.273L368.314 297.745L362.404 258.539L402.61 281.393Z" fill="#FF424D"/>
<path d="M390.743 446.584C397.093 446.584 402.205 443.829 402.278 443.789L402.418 443.712L402.446 443.54C406.23 420.618 403.815 307.654 403.79 306.515C403.786 306.326 403.648 306.176 403.479 306.176H403.471C403.3 306.181 403.164 306.34 403.168 306.533C403.193 307.667 405.593 419.985 401.863 443.237C400.603 443.879 391.108 448.404 382.363 443.956C382.208 443.876 382.022 443.953 381.951 444.129C381.88 444.304 381.949 444.511 382.105 444.59C385.011 446.067 387.994 446.584 390.743 446.584Z" fill="black"/>
<path d="M363.722 444.685C365.77 444.685 367.965 444.461 370.257 443.899C370.425 443.859 370.531 443.673 370.494 443.485C370.457 443.297 370.289 443.181 370.124 443.219C359.805 445.746 351.459 441.308 350.217 440.598L349.738 302.453C349.738 302.262 349.599 302.106 349.427 302.106H349.427C349.255 302.107 349.116 302.264 349.117 302.456L349.597 441.014L349.756 441.113C349.827 441.158 355.604 444.685 363.722 444.685Z" fill="black"/>
<path d="M406.421 238.173L407.001 288.676C407.001 288.676 372.042 299.824 349.427 286.532C349.427 286.532 353.382 197.761 354.094 193.851C354.933 189.244 377.489 188.868 386.903 189.997C386.903 189.997 401.489 189.588 409.29 194.409L406.421 238.173Z" fill="white"/>
<path d="M407.001 224.682V305.751C407.001 305.751 388.389 309.797 379.359 305.751C379.359 305.751 379.413 192.902 383.099 189.461C383.554 189.474 392.83 189.674 399.455 190.604C406.08 191.534 407.001 224.682 407.001 224.682Z" fill="#4C222E"/>
<path d="M368.141 189.461C368.141 189.461 366.274 290.702 364.432 305.751C364.432 305.751 356.917 306.33 347.334 302.468C347.334 302.468 350.567 194.032 353.04 191.213C355.512 188.393 368.141 189.461 368.141 189.461Z" fill="#4C222E"/>
<path d="M389.217 310.818C385.575 311.36 387.163 308.621 387.163 308.621C385.181 308.687 384.874 307.923 384.963 307.276C385.027 306.802 385.307 306.399 385.686 306.176C386.89 305.468 390.572 303.318 392.945 302.126C393.958 300.621 391.471 298.992 389.884 298.561C389.067 298.338 388.118 297.453 390.252 296.828C391.996 296.318 395.987 296.887 395.987 296.887L401.452 288.325L410.263 298.981C410.263 298.981 403.137 307.891 402.072 309.241C401.006 310.592 396.083 313.794 393.946 314.127C390.067 314.731 391.188 313.066 391.188 313.066C387.106 313.271 389.217 310.818 389.217 310.818Z" fill="#FE9F73"/>
<path d="M390.986 307.334C391.044 307.27 391.062 307.169 391.023 307.083C390.975 306.976 390.859 306.932 390.764 306.986C389.423 307.735 387.137 308.404 387.114 308.411C387.011 308.441 386.949 308.559 386.976 308.675C387.002 308.791 387.108 308.861 387.212 308.831C387.307 308.803 389.56 308.143 390.937 307.373C390.955 307.363 390.972 307.35 390.986 307.334Z" fill="#F07162"/>
<path d="M392.703 309.292C392.768 309.22 392.781 309.105 392.728 309.016C392.668 308.917 392.548 308.891 392.459 308.958C390.947 310.097 389.187 310.603 389.17 310.608C389.066 310.637 389.004 310.755 389.03 310.871C389.056 310.987 389.161 311.057 389.264 311.028C389.339 311.007 391.105 310.5 392.675 309.317C392.685 309.31 392.694 309.301 392.703 309.292Z" fill="#F07162"/>
<path d="M394.354 311.862C394.417 311.792 394.431 311.679 394.382 311.592C394.325 311.491 394.205 311.46 394.115 311.524C392.784 312.465 391.165 312.85 391.148 312.853C391.043 312.878 390.976 312.992 390.998 313.11C391.02 313.227 391.122 313.302 391.227 313.277C391.296 313.261 392.931 312.873 394.321 311.89C394.333 311.882 394.344 311.872 394.354 311.862Z" fill="#F07162"/>
<path d="M393.746 190.227C393.746 190.227 408.941 188.673 416.522 202.74C423.449 215.592 436.671 233.648 438.329 251.427C439.67 265.797 415.581 294.444 409.29 301.292L398.152 287.996C398.152 287.996 415.88 256.513 417.26 252.629C418.514 249.098 392.577 210.789 392.577 210.789L393.746 190.227Z" fill="#4C222E"/>
<path d="M381.91 189.601C381.91 189.601 370.215 189.292 368.254 189.704C368.254 189.704 369.734 195.047 370.047 195.068C371.7 195.176 380.238 196.835 377.875 197.002C377.875 197.002 380.459 195.3 380.574 194.72C380.69 194.139 381.91 189.601 381.91 189.601Z" fill="white"/>
<path d="M409.021 300.971L406.628 303.962C406.628 303.962 397.705 295.348 397.06 294.213C397.214 294.041 399.744 289.896 399.744 289.896L409.021 300.971Z" fill="white"/>
<path d="M430.793 228.308C430.851 228.308 430.91 228.29 430.962 228.252C431.106 228.148 431.147 227.932 431.054 227.77L414.332 198.815C405.782 188.578 395.313 189.936 395.209 189.951C395.039 189.975 394.918 190.149 394.94 190.34C394.961 190.53 395.121 190.663 395.287 190.641C395.39 190.627 405.538 189.324 413.859 199.268L430.532 228.148C430.591 228.252 430.691 228.308 430.793 228.308Z" fill="black"/>
<path d="M423.32 255.154C423.492 255.154 423.632 254.999 423.632 254.806C423.632 254.614 423.492 254.458 423.32 254.458C421.428 254.458 418.18 252.359 417.537 251.931C416.505 247.217 401.91 224.191 401.282 223.202C401.183 223.046 400.989 223.008 400.848 223.12C400.708 223.232 400.675 223.449 400.775 223.606C400.93 223.849 416.261 248.034 416.956 252.215L416.981 252.367L417.098 252.449C417.258 252.559 421.047 255.154 423.32 255.154Z" fill="black"/>
<path d="M407.001 249.859C407.173 249.859 407.312 249.703 407.312 249.511V233.048C407.312 232.856 407.173 232.7 407.001 232.7C406.829 232.7 406.69 232.856 406.69 233.048V249.511C406.69 249.703 406.829 249.859 407.001 249.859Z" fill="black"/>
<path d="M409.29 301.64C409.362 301.64 409.435 301.612 409.494 301.554C409.623 301.428 409.637 301.208 409.524 301.063C406.983 297.8 399.755 289.362 398.547 287.954C404.741 277.299 417.57 252.841 417.572 252.153C417.573 251.961 417.434 251.805 417.262 251.804H417.261C417.111 251.804 416.985 251.924 416.956 252.084C416.594 253.162 404.567 276.36 397.891 287.806L397.756 288.038L397.928 288.237C398.011 288.335 406.302 297.986 409.055 301.521C409.117 301.599 409.203 301.64 409.29 301.64Z" fill="black"/>
<path d="M379.359 306.099H379.359C379.531 306.098 379.67 305.942 379.67 305.75C379.516 233.903 381.272 208.933 381.289 208.69C381.303 208.498 381.176 208.33 381.005 208.315C380.837 208.303 380.683 208.442 380.67 208.633C380.652 208.877 378.894 233.865 379.047 305.751C379.048 305.943 379.188 306.099 379.359 306.099Z" fill="black"/>
<path d="M347.334 302.817H347.341C347.513 302.812 347.649 302.653 347.645 302.461C347.038 271.003 351.977 202.975 352.027 202.291C352.041 202.1 351.914 201.931 351.743 201.916C351.561 201.903 351.421 202.043 351.408 202.234C351.357 202.918 346.416 270.982 347.023 302.476C347.027 302.666 347.165 302.817 347.334 302.817Z" fill="black"/>
<path d="M430.793 262.234C428.892 251.441 433.055 244.622 436.165 241.026C437.237 244.477 438.006 247.957 438.329 251.427C438.764 256.085 436.525 262.242 433.089 268.671C432.083 267.071 431.276 264.972 430.793 262.234Z" fill="#FEC786"/>
<path d="M406.042 199.014C405.978 199.014 405.914 198.981 405.873 198.919C403.833 195.875 400.501 194.637 400.467 194.625C400.356 194.585 400.295 194.451 400.332 194.327C400.367 194.203 400.487 194.135 400.597 194.175C400.739 194.226 404.089 195.468 406.211 198.635C406.281 198.74 406.262 198.888 406.168 198.967C406.13 198.999 406.086 199.014 406.042 199.014Z" fill="#21111D"/>
<path d="M405.644 201.202C405.58 201.202 405.516 201.17 405.475 201.108C403.435 198.063 400.103 196.826 400.069 196.814C399.958 196.773 399.898 196.64 399.934 196.516C399.97 196.392 400.089 196.324 400.199 196.364C400.341 196.415 403.691 197.657 405.813 200.824C405.883 200.929 405.864 201.077 405.77 201.156C405.733 201.187 405.688 201.202 405.644 201.202Z" fill="#21111D"/>
<path d="M397.06 445.746C397.23 445.746 397.369 445.593 397.371 445.402L397.917 404.488C397.919 404.296 397.782 404.138 397.61 404.135H397.606C397.436 404.135 397.297 404.287 397.295 404.479L396.749 445.393C396.747 445.585 396.884 445.743 397.056 445.746H397.06Z" fill="black"/>
<path d="M363.347 444.688C363.51 444.688 363.647 444.546 363.657 444.36L365.705 404.503C365.714 404.311 365.583 404.147 365.412 404.136C365.24 404.116 365.094 404.271 365.083 404.463L363.035 444.32C363.026 444.512 363.157 444.677 363.328 444.688C363.335 444.688 363.341 444.688 363.347 444.688Z" fill="black"/>
<path d="M250.802 185.616C250.802 185.616 269.811 184.397 273.812 193.142C277.812 201.886 261.366 220.316 251.249 219.918C241.132 219.521 250.802 185.616 250.802 185.616Z" fill="#FE9F73"/>
<path d="M152.832 457.078C152.832 457.078 203.266 441.492 217.617 407.706C231.968 373.92 178.245 358.108 179.001 358.268C179.757 358.429 120.93 363.458 115.426 372.813C109.921 382.167 86.1034 420.956 92.9085 422.404C99.7138 423.851 152.832 457.078 152.832 457.078Z" fill="#ED7163"/>
<path d="M246.46 146.386C246.459 146.306 246.457 146.227 246.453 146.149C246.353 143.485 244.487 141.323 242.112 141.119C242.042 141.112 241.972 141.107 241.901 141.103C241.877 141.102 241.855 141.098 241.831 141.098L136.851 139.048C136.828 139.047 136.805 139.05 136.781 139.05C136.71 139.051 136.639 139.054 136.569 139.058C134.19 139.17 132.257 141.258 132.075 143.916C132.068 143.994 132.063 144.073 132.06 144.152C132.059 144.179 132.056 144.204 132.055 144.231L128.249 388.612C128.209 391.154 130.018 393.248 132.286 393.293L238.474 395.366C240.743 395.41 242.616 393.388 242.655 390.845L246.462 146.464C246.462 146.438 246.46 146.412 246.46 146.386Z" fill="#C5F4FF"/>
<path d="M165.34 172.07C165.728 172.044 166.062 172.38 166.111 172.813L166.412 175.503C166.422 175.587 166.478 175.655 166.552 175.673C166.662 175.698 166.765 175.605 166.766 175.48L166.795 171.475C166.798 171.017 167.129 170.717 167.531 170.81C167.932 170.903 168.257 171.355 168.254 171.814L168.225 175.897C168.224 175.992 168.283 176.074 168.366 176.093L168.425 176.107C168.521 176.129 168.615 176.06 168.635 175.953L169.456 171.518C169.535 171.091 169.891 170.785 170.277 170.846C170.699 170.912 170.977 171.362 170.892 171.822L170.066 176.285C170.046 176.393 170.108 176.498 170.204 176.52L170.39 176.563C170.478 176.583 170.565 176.528 170.594 176.434L171.836 172.434C171.964 172.023 172.353 171.771 172.728 171.888C173.139 172.015 173.363 172.502 173.225 172.945C173.225 172.945 171.623 179.158 171.443 180.152L173.395 179.245C173.732 178.997 174.185 179.102 174.407 179.48C174.628 179.857 174.534 180.364 174.197 180.613L168.921 185.571C168.702 185.733 166.709 186.189 166.314 185.983C164.368 185.924 163.126 187.371 163.35 184.578C163.573 181.786 164.475 177.783 164.475 177.783C164.789 176.336 164.865 174.837 164.699 173.359L164.658 172.988C164.605 172.522 164.914 172.099 165.34 172.07Z" fill="#FE9F73"/>
<path d="M197.749 233.738C197.749 233.738 190.922 239.31 183.749 235.037C177.196 231.134 166.33 226.76 161.03 218.839C156.746 212.436 160.922 191.16 162.174 185.904L170.841 188.679C170.841 188.679 170.949 209.263 170.737 211.565C170.657 212.44 176.214 215.267 180.434 217.586C186.169 220.738 190.96 222.574 193.178 222.282L197.749 233.738Z" fill="#4C222E"/>
<path d="M162.383 185.971L162.761 183.788C162.761 183.788 169.188 185.043 169.782 185.377C169.753 185.508 169.602 188.282 169.602 188.282L162.383 185.971Z" fill="white"/>
<path d="M167.216 212.293C167.135 212.347 167.108 212.466 167.157 212.557C167.205 212.648 167.311 212.678 167.393 212.623C168.292 212.021 170.368 211.986 170.783 211.984C172.469 213.897 185.249 220.195 185.798 220.465C185.885 220.508 185.987 220.464 186.025 220.366C186.063 220.269 186.024 220.155 185.937 220.113C185.802 220.046 172.378 213.431 170.987 211.664L170.936 211.6L170.86 211.599C170.756 211.597 168.296 211.569 167.216 212.293Z" fill="black"/>
<path d="M162.086 185.738C162.051 185.761 162.024 185.798 162.01 185.844C161.981 185.945 162.03 186.054 162.121 186.087C164.156 186.829 169.733 188.54 170.664 188.825C170.425 195.859 170.536 211.562 170.709 211.89C170.758 211.981 170.863 212.011 170.945 211.957L170.946 211.957C171.018 211.909 171.047 211.812 171.02 211.727C170.918 211.099 170.746 196.249 171.013 188.686L171.019 188.533L170.886 188.493C170.822 188.473 164.433 186.524 162.227 185.72C162.178 185.702 162.127 185.711 162.086 185.738Z" fill="black"/>
<path d="M161.868 211.305C165.511 215.829 165.264 220.394 164.698 223.092C163.313 221.794 162.064 220.384 161.03 218.838C159.641 216.763 159.142 213.125 159.144 208.977C160.027 209.417 160.944 210.157 161.868 211.305Z" fill="#FEC786"/>
<path d="M199.618 203.233C199.618 203.233 202.062 204.645 200.84 210.167L199.915 209.633L200.227 206.7L199.618 203.233Z" fill="black"/>
<path d="M191.053 206.659V214.75C191.053 214.75 190.952 217.486 193.076 217.828L192.679 221.477C192.532 222.834 193.252 224.132 194.408 224.545C194.974 224.746 195.649 224.894 196.415 224.894C198.842 224.894 200.157 222.842 200.36 221.816C200.562 220.791 199.955 215.89 199.955 215.89L200.029 213.482L199.753 204.151L191.053 206.659Z" fill="#FE9F73"/>
<path d="M196.915 210.704C196.94 210.704 196.965 210.694 196.985 210.673C197.025 210.629 197.027 210.557 196.988 210.512C196.974 210.495 195.583 208.892 194.311 210.046C194.268 210.085 194.261 210.157 194.296 210.206C194.331 210.255 194.395 210.263 194.438 210.223C195.565 209.2 196.791 210.609 196.842 210.669C196.862 210.692 196.888 210.704 196.915 210.704Z" fill="black"/>
<path d="M192.745 210.021C192.773 210.021 192.801 210.007 192.821 209.981C192.858 209.934 192.853 209.862 192.811 209.82C192.771 209.781 191.806 208.851 191.195 209.44C191.153 209.481 191.148 209.553 191.184 209.601C191.221 209.649 191.284 209.654 191.327 209.613C191.805 209.152 192.67 209.985 192.679 209.993C192.698 210.012 192.721 210.021 192.745 210.021Z" fill="black"/>
<path d="M194.869 211.165C194.869 211.354 195.005 211.507 195.173 211.507C195.34 211.507 195.476 211.354 195.476 211.165C195.476 210.976 195.34 210.823 195.173 210.823C195.005 210.823 194.869 210.976 194.869 211.165Z" fill="black"/>
<path d="M191.643 210.823C191.643 211.012 191.779 211.165 191.947 211.165C192.114 211.165 192.25 211.012 192.25 210.823C192.25 210.635 192.114 210.481 191.947 210.481C191.779 210.481 191.643 210.635 191.643 210.823Z" fill="black"/>
<path d="M200.231 213.336C201.236 213.336 202.051 212.417 202.051 211.284C202.051 210.151 201.236 209.232 200.231 209.232C199.225 209.232 198.41 210.151 198.41 211.284C198.41 212.417 199.225 213.336 200.231 213.336Z" fill="#FE9F73"/>
<path d="M200.365 212.541C200.744 212.541 200.996 212.221 201.079 211.9C201.178 211.522 201.065 211.154 200.792 210.963C200.389 210.681 200.023 210.862 199.836 211.001C199.914 210.768 200.038 210.598 200.203 210.496C200.562 210.273 201.007 210.435 201.012 210.437C201.038 210.447 201.067 210.431 201.076 210.401C201.084 210.371 201.07 210.338 201.044 210.329C201.024 210.321 200.553 210.149 200.155 210.395C199.925 210.537 199.769 210.789 199.691 211.142L199.647 211.341L199.776 211.197C199.794 211.176 200.227 210.702 200.739 211.06C201.022 211.258 201.047 211.619 200.982 211.868C200.915 212.127 200.713 212.427 200.366 212.427C200.366 212.427 200.359 212.426 200.355 212.427C200.328 212.427 200.305 212.452 200.305 212.483C200.304 212.514 200.327 212.54 200.355 212.541C200.358 212.541 200.362 212.541 200.365 212.541Z" fill="#F07162"/>
<path d="M190.701 213.463C190.701 213.463 190.039 218.943 193.269 219.138C197.891 219.416 198.338 216.445 198.613 214.013L198.659 208.995L198.511 207.539C198.184 207.955 197.985 208.477 197.941 209.03C197.845 210.234 197.609 213.476 197.342 213.619C196.965 213.822 191.42 212.935 190.701 213.463Z" fill="black"/>
<path d="M193.799 213.471C193.82 213.471 193.84 213.456 193.847 213.432C193.855 213.402 193.841 213.37 193.814 213.36L192.801 212.983L193.121 210.294C193.125 210.263 193.105 210.234 193.078 210.23C193.049 210.225 193.024 210.248 193.021 210.279L192.689 213.061L193.783 213.469C193.788 213.471 193.793 213.471 193.799 213.471Z" fill="#F07162"/>
<path d="M194.584 214.581C194.553 214.575 192.581 214.522 192.581 214.522C192.581 214.522 192.829 215.441 193.561 215.463C194.294 215.484 194.584 214.581 194.584 214.581Z" fill="#FBFDFC"/>
<path d="M192.464 221.485L192.784 219.419C192.784 219.419 198.239 219.26 200.401 218.668L200.698 221.555C200.698 221.555 195.857 224.051 192.464 221.485Z" fill="white"/>
<path d="M198.521 207.632L199.435 206.7L200.381 209.245C200.381 209.245 199.211 209.462 199.191 210.823C199.17 212.185 199.827 214.311 197.721 217.366C195.614 220.421 197.89 212.806 197.911 212.541C197.931 212.276 198.521 207.632 198.521 207.632Z" fill="black"/>
<path d="M199.618 203.233C198.642 202.149 195.26 201.531 192.846 203.16L192.846 203.157C190.098 204.662 190.961 207.726 191.052 207.817L191.088 207.786C191.074 207.857 191.061 207.928 191.052 207.999C191.052 207.999 191.168 207.792 191.414 207.506L192.495 206.58C193.101 206.198 193.913 205.869 194.964 205.792C196.008 205.716 196.919 205.781 197.667 206.038C197.864 206.733 198.025 208.111 197.793 210.823C197.439 214.961 199.053 209.942 199.64 208.02C199.766 208.379 199.858 208.783 199.904 209.245C199.904 209.245 201.572 205.404 199.618 203.233Z" fill="black"/>
<path d="M191.053 208.932C191.053 208.932 190.981 207.271 191.052 206.907C191.124 206.543 194.426 205.498 196.234 205.776C198.043 206.054 194.538 208.283 194.497 208.283C194.456 208.283 191.053 208.932 191.053 208.932Z" fill="#FE9F73"/>
<path d="M197.321 206.201L199.069 204.381L197.423 207.043L197.321 206.201Z" fill="#FE9F73"/>
<path d="M197.321 202.618C197.321 202.618 196.966 198.694 198.916 199.547C200.867 200.4 201.203 202.209 199.435 203.403C197.667 204.598 197.321 202.618 197.321 202.618Z" fill="black"/>
<path d="M202.853 379.56L211.655 379.695L211.781 370.401L203.013 369.175L202.853 379.56Z" fill="#FE9F73"/>
<path d="M193.809 381.233H211.781V377.184C211.781 377.184 210.474 375.241 208.483 376.233C208.483 376.233 205.536 378.622 202.882 375.767L196.228 378.966C196.228 378.966 193.809 379.856 193.809 381.233Z" fill="#4C222E"/>
<path d="M211.781 382.65H193.276C193.139 382.65 193.028 382.526 193.028 382.372V381.51C193.028 381.357 193.139 381.233 193.276 381.233H211.781V382.65Z" fill="#FEC786"/>
<path d="M182.929 379.56L191.732 379.695L191.858 370.401L183.09 369.175L182.929 379.56Z" fill="#FE9F73"/>
<path d="M173.885 381.233H191.857V377.184C191.857 377.184 190.55 375.241 188.56 376.233C188.56 376.233 185.613 378.622 182.959 375.767L176.305 378.966C176.305 378.966 173.885 379.856 173.885 381.233Z" fill="#4C222E"/>
<path d="M191.857 382.65H173.353C173.216 382.65 173.105 382.526 173.105 382.372V381.51C173.105 381.357 173.216 381.233 173.353 381.233H191.857V382.65Z" fill="#FEC786"/>
<path d="M198.484 274.679C198.484 274.679 197.316 336.327 193.297 371.905C193.297 371.905 187.942 373.792 181.21 370.267L180.925 279.406L179.953 265.793L198.484 274.679Z" fill="#EF3A4C"/>
<path d="M212.615 275.275C212.615 275.275 214.969 336.047 212.335 371.856C212.335 371.856 207.333 375.384 200.473 372.331L192.179 285.019L188.657 261.657L212.615 275.275Z" fill="#FF424D"/>
<path d="M205.544 373.708C209.327 373.708 212.373 372.066 212.417 372.042L212.5 371.996L212.517 371.894C214.771 358.234 213.333 290.923 213.318 290.244C213.315 290.132 213.233 290.042 213.133 290.042H213.128C213.026 290.045 212.945 290.14 212.947 290.255C212.962 290.931 214.392 357.857 212.17 371.713C211.419 372.096 205.761 374.792 200.55 372.141C200.458 372.094 200.347 372.14 200.305 372.244C200.262 372.349 200.304 372.472 200.397 372.519C202.128 373.4 203.905 373.708 205.544 373.708Z" fill="black"/>
<path d="M189.442 372.576C190.663 372.576 191.971 372.442 193.336 372.108C193.436 372.084 193.5 371.973 193.478 371.861C193.456 371.749 193.355 371.68 193.257 371.703C187.108 373.209 182.136 370.564 181.395 370.141L181.11 287.824C181.11 287.71 181.027 287.618 180.925 287.618H180.924C180.822 287.618 180.739 287.711 180.739 287.826L181.026 370.388L181.12 370.448C181.163 370.474 184.605 372.576 189.442 372.576Z" fill="black"/>
<path d="M214.886 249.521L215.231 279.615C215.231 279.615 194.4 286.257 180.925 278.337C180.925 278.337 183.282 225.441 183.706 223.111C184.205 220.366 197.646 220.142 203.256 220.815C203.256 220.815 211.947 220.571 216.595 223.444L214.886 249.521Z" fill="white"/>
<path d="M215.231 241.482V289.789C215.231 289.789 204.141 292.2 198.76 289.789C198.76 289.789 198.792 222.546 200.989 220.495C201.26 220.503 206.787 220.622 210.735 221.176C214.682 221.731 215.231 241.482 215.231 241.482Z" fill="#4C222E"/>
<path d="M192.076 220.496C192.076 220.496 190.963 280.822 189.865 289.789C189.865 289.789 185.387 290.134 179.677 287.833C179.677 287.833 181.603 223.219 183.077 221.539C184.551 219.86 192.076 220.496 192.076 220.496Z" fill="#4C222E"/>
<path d="M204.634 292.809C202.464 293.132 203.41 291.499 203.41 291.499C202.23 291.539 202.047 291.084 202.099 290.698C202.138 290.415 202.305 290.175 202.53 290.043C203.248 289.62 205.441 288.34 206.856 287.629C207.459 286.732 205.977 285.762 205.032 285.505C204.545 285.372 203.98 284.845 205.251 284.473C206.29 284.168 208.668 284.508 208.668 284.508L211.925 279.406L217.175 285.755C217.175 285.755 212.929 291.065 212.294 291.869C211.659 292.674 208.726 294.582 207.452 294.781C205.141 295.141 205.809 294.148 205.809 294.148C203.376 294.27 204.634 292.809 204.634 292.809Z" fill="#FE9F73"/>
<path d="M205.688 290.732C205.723 290.694 205.734 290.634 205.711 290.583C205.682 290.519 205.613 290.493 205.556 290.525C204.757 290.971 203.395 291.37 203.381 291.374C203.32 291.392 203.283 291.463 203.299 291.532C203.315 291.601 203.378 291.642 203.44 291.624C203.496 291.607 204.839 291.214 205.659 290.756C205.67 290.75 205.68 290.742 205.688 290.732Z" fill="#F07162"/>
<path d="M206.711 291.899C206.75 291.857 206.758 291.788 206.726 291.735C206.69 291.676 206.619 291.66 206.566 291.7C205.665 292.379 204.616 292.68 204.606 292.683C204.544 292.701 204.507 292.771 204.522 292.84C204.538 292.909 204.601 292.951 204.662 292.934C204.707 292.921 205.759 292.619 206.695 291.914C206.701 291.91 206.706 291.905 206.711 291.899Z" fill="#F07162"/>
<path d="M207.695 293.43C207.733 293.389 207.741 293.322 207.712 293.27C207.678 293.209 207.606 293.191 207.552 293.229C206.759 293.79 205.795 294.019 205.785 294.022C205.722 294.036 205.682 294.104 205.695 294.174C205.709 294.244 205.77 294.289 205.832 294.274C205.873 294.265 206.847 294.033 207.676 293.448C207.683 293.443 207.689 293.437 207.695 293.43Z" fill="#F07162"/>
<path d="M207.333 220.951C207.333 220.951 216.387 220.026 220.905 228.408C225.032 236.066 232.911 246.825 233.899 257.419C234.698 265.981 220.344 283.051 216.595 287.132L209.958 279.209C209.958 279.209 220.522 260.449 221.344 258.135C222.091 256.031 206.637 233.204 206.637 233.204L207.333 220.951Z" fill="#4C222E"/>
<path d="M200.28 220.578C200.28 220.578 193.312 220.394 192.143 220.64C192.143 220.64 193.025 223.824 193.211 223.836C194.197 223.9 199.284 224.889 197.876 224.989C197.876 224.989 199.416 223.974 199.484 223.629C199.553 223.283 200.28 220.578 200.28 220.578Z" fill="white"/>
<path d="M216.435 286.941L215.009 288.723C215.009 288.723 209.692 283.59 209.308 282.914C209.399 282.812 210.907 280.342 210.907 280.342L216.435 286.941Z" fill="white"/>
<path d="M229.408 243.643C229.443 243.643 229.478 243.633 229.509 243.61C229.595 243.548 229.619 243.42 229.564 243.323L219.6 226.07C214.505 219.97 208.267 220.779 208.205 220.788C208.103 220.802 208.031 220.906 208.044 221.02C208.057 221.133 208.152 221.212 208.251 221.2C208.312 221.191 214.359 220.415 219.317 226.34L229.252 243.549C229.288 243.61 229.348 243.643 229.408 243.643Z" fill="black"/>
<path d="M224.955 259.64C225.058 259.64 225.141 259.547 225.141 259.433C225.141 259.318 225.058 259.225 224.955 259.225C223.828 259.225 221.892 257.974 221.509 257.719C220.895 254.91 212.198 241.19 211.823 240.6C211.764 240.507 211.649 240.485 211.565 240.552C211.481 240.618 211.462 240.747 211.521 240.841C211.613 240.986 220.749 255.397 221.163 257.889L221.178 257.979L221.248 258.027C221.343 258.094 223.601 259.64 224.955 259.64Z" fill="black"/>
<path d="M215.231 256.485C215.334 256.485 215.417 256.392 215.417 256.277V246.467C215.417 246.353 215.334 246.26 215.231 246.26C215.129 246.26 215.046 246.353 215.046 246.467V256.277C215.046 256.392 215.129 256.485 215.231 256.485Z" fill="black"/>
<path d="M216.595 287.34C216.638 287.34 216.682 287.323 216.717 287.288C216.794 287.213 216.802 287.082 216.735 286.996C215.22 285.052 210.913 280.023 210.194 279.185C213.885 272.835 221.529 258.262 221.53 257.852C221.531 257.737 221.448 257.644 221.346 257.644H221.345C221.255 257.644 221.18 257.715 221.163 257.81C220.948 258.453 213.781 272.276 209.803 279.096L209.723 279.234L209.825 279.353C209.875 279.411 214.815 285.162 216.455 287.268C216.492 287.315 216.543 287.34 216.595 287.34Z" fill="black"/>
<path d="M198.76 289.997H198.76C198.863 289.996 198.946 289.903 198.945 289.789C198.854 246.977 199.9 232.099 199.91 231.953C199.919 231.839 199.843 231.739 199.741 231.73C199.641 231.723 199.55 231.806 199.541 231.92C199.531 232.065 198.483 246.955 198.575 289.79C198.575 289.904 198.658 289.997 198.76 289.997Z" fill="black"/>
<path d="M179.678 288.041H179.682C179.784 288.038 179.865 287.943 179.863 287.829C179.501 269.084 182.444 228.548 182.474 228.141C182.482 228.027 182.406 227.926 182.304 227.917C182.196 227.909 182.113 227.993 182.105 228.107C182.075 228.515 179.13 269.072 179.492 287.838C179.494 287.951 179.577 288.041 179.678 288.041Z" fill="black"/>
<path d="M229.408 263.859C228.276 257.427 230.756 253.364 232.609 251.222C233.248 253.278 233.706 255.351 233.899 257.419C234.158 260.194 232.824 263.864 230.776 267.694C230.177 266.741 229.696 265.49 229.408 263.859Z" fill="#FEC786"/>
<path d="M214.66 226.188C214.621 226.188 214.583 226.168 214.559 226.132C213.344 224.317 211.358 223.58 211.338 223.573C211.272 223.549 211.236 223.469 211.257 223.395C211.279 223.322 211.35 223.281 211.416 223.305C211.5 223.335 213.496 224.075 214.76 225.962C214.802 226.025 214.791 226.113 214.735 226.159C214.712 226.179 214.686 226.188 214.66 226.188Z" fill="#21111D"/>
<path d="M214.423 227.492C214.384 227.492 214.346 227.473 214.322 227.436C213.106 225.622 211.121 224.884 211.101 224.877C211.035 224.853 210.999 224.774 211.02 224.7C211.041 224.626 211.112 224.585 211.178 224.609C211.263 224.64 213.259 225.38 214.523 227.267C214.565 227.329 214.554 227.417 214.498 227.464C214.475 227.483 214.449 227.492 214.423 227.492Z" fill="#21111D"/>
<path d="M209.308 373.208C209.409 373.208 209.492 373.117 209.493 373.004L209.818 348.624C209.82 348.509 209.738 348.415 209.636 348.414H209.633C209.532 348.414 209.449 348.504 209.448 348.618L209.122 372.998C209.121 373.112 209.202 373.206 209.305 373.208H209.308Z" fill="black"/>
<path d="M189.219 372.578C189.316 372.578 189.398 372.493 189.404 372.383L190.624 348.633C190.63 348.519 190.552 348.421 190.45 348.414C190.347 348.402 190.26 348.495 190.254 348.609L189.034 372.359C189.028 372.473 189.106 372.571 189.208 372.578C189.211 372.578 189.215 372.578 189.219 372.578Z" fill="black"/>
<path d="M130.267 142.683L138.956 136.269L241.24 138.561L250.074 147.571C250.074 147.571 249.048 157.777 248.484 157.922C247.919 158.067 129.163 157.293 129.2 155.248C129.236 153.204 130.267 142.683 130.267 142.683Z" fill="#5EC5DD"/>
<g opacity="0.5">
<path d="M141.153 148.326C141.142 149.044 140.75 149.655 140.196 149.92C139.998 150.016 139.777 150.068 139.546 150.064C139.317 150.059 139.1 149.999 138.903 149.895C138.357 149.61 137.983 148.983 137.995 148.265C138.01 147.288 138.731 146.511 139.601 146.528C140.474 146.545 141.168 147.35 141.153 148.326Z" fill="white"/>
<path d="M146.039 148.422C146.027 149.14 145.636 149.75 145.082 150.015C144.884 150.112 144.663 150.164 144.432 150.159C144.201 150.154 143.981 150.094 143.787 149.99C143.241 149.703 142.869 149.078 142.88 148.36C142.896 147.383 143.615 146.606 144.487 146.623C145.359 146.64 146.054 147.445 146.039 148.422Z" fill="white"/>
<path d="M150.924 148.517C150.913 149.235 150.522 149.845 149.968 150.11C149.77 150.207 149.549 150.259 149.318 150.254C149.087 150.25 148.867 150.189 148.673 150.085C148.127 149.799 147.755 149.173 147.766 148.455C147.782 147.478 148.5 146.701 149.373 146.718C150.245 146.735 150.94 147.54 150.924 148.517Z" fill="white"/>
</g>
<path d="M242.695 388.315C242.633 392.254 239.731 395.39 236.215 395.322L134.548 393.337C131.03 393.268 128.227 390.021 128.288 386.082L132.014 146.912C132.082 142.516 135.32 139.018 139.244 139.095L239.438 141.051C243.362 141.128 246.489 144.75 246.42 149.145L242.695 388.315ZM239.73 135.751L139.117 133.787C132.643 133.66 127.302 139.433 127.189 146.683L123.425 388.315C123.312 395.565 128.471 401.542 134.944 401.669L235.557 403.633C242.033 403.76 247.372 397.987 247.485 390.737L251.249 149.106C251.362 141.856 246.206 135.878 239.73 135.751Z" fill="#49263E"/>
<path opacity="0.3" d="M245.425 213.046L130.057 272.553L130.588 234.449L246.015 175.14L245.425 213.046Z" fill="white"/>
<path opacity="0.3" d="M244.119 295.497L128.703 359.416L129.279 320.438L244.735 257.332L244.119 295.497Z" fill="white"/>
<path d="M163.359 452.738L163.07 452.573L135.578 437.052C135.576 437.052 135.576 437.052 135.574 437.049L117.25 426.706C117.25 426.706 129.386 425.007 137.307 410.962C138.782 408.354 140.11 405.32 141.187 401.791C141.95 399.287 142.591 396.532 143.063 393.505L143.065 393.502C143.478 390.882 143.764 388.057 143.907 385.012C144.125 380.334 144.115 375.897 143.93 371.713C143.798 368.734 143.574 365.882 143.283 363.161C142.932 359.885 142.479 356.8 141.957 353.914C140.516 345.933 138.552 339.465 136.764 334.657C134.326 328.102 132.218 324.635 132.218 324.635C132.218 324.635 134.781 314.413 137.387 301.632C137.601 300.588 137.814 299.529 138.023 298.459C140.862 284.101 143.503 267.435 142.666 258.443C141.777 248.851 136.335 239.553 130.622 236.25C129.009 235.316 127.373 234.862 125.812 235.013C123.704 235.217 121.731 236.526 120.135 239.264C119.898 239.667 119.668 240.105 119.45 240.572C119.163 241.186 118.89 241.852 118.639 242.574C118.39 243.281 118.158 244.037 117.944 244.852C117.944 244.852 117.551 248.471 116.747 253.619C116.699 253.922 116.649 254.23 116.6 254.543C116.574 254.7 116.55 254.859 116.524 255.016C116.522 255.024 116.522 255.032 116.522 255.037C115.874 259.004 115.009 263.692 113.911 268.283C113.911 268.288 113.908 268.291 113.908 268.296C113.82 268.662 113.73 269.029 113.64 269.395C112.431 274.277 110.956 278.969 109.213 282.463C103.277 294.36 89.3596 325.604 86.1581 339.837C82.959 354.065 84.8586 416.744 84.8586 416.744L80.8867 500.134H164.42V483.214L163.291 453.147L163.359 452.738Z" fill="#FE9F73"/>
<path d="M249.24 303.688L249.077 312.629C249.077 312.629 236.103 322.719 237.081 339.145C238.059 355.571 247.17 359.412 247.17 359.412C247.17 359.412 265.537 340.366 266.572 332.65C267.606 324.933 269.77 311.468 249.24 303.688Z" fill="#FE9F73"/>
<path d="M249.527 356.893C249.527 356.893 256.536 351.414 264.432 337.925C263.624 337.104 262.021 336.207 260.996 335.622C257.85 333.827 255.606 334.155 253.373 336.398L244.765 346.099C244.765 346.099 242.995 348.664 245.315 352.532C246.206 354.019 249.527 356.893 249.527 356.893Z" fill="#F78A5E"/>
<path d="M247.269 360.045L258.326 348.001C264.344 341.307 266.515 334.765 267.278 330.456C268.11 325.756 267.51 322.673 267.484 322.544L266.559 322.778C266.583 322.896 268.799 334.853 257.661 347.244L247.075 358.775C243.058 356.584 240.975 352.268 240.954 352.224C240.887 352.093 235.096 340.62 238.361 329.79C241.642 318.904 251.9 311.243 252.003 311.167L251.482 310.28C251.049 310.598 240.85 318.212 237.462 329.45C234.058 340.742 239.874 352.253 240.124 352.737C240.209 352.919 242.463 357.606 246.974 359.895L247.269 360.045Z" fill="black"/>
<path d="M248.02 364.577L247.892 371.564C247.892 371.564 237.754 379.448 238.519 392.283C239.283 405.119 246.402 408.12 246.402 408.12C246.402 408.12 260.755 393.238 261.563 387.208C262.371 381.178 264.062 370.656 248.02 364.577Z" fill="#FE9F73"/>
<path d="M248.244 406.152C248.244 406.152 253.721 401.871 259.891 391.33C259.26 390.689 258.007 389.988 257.207 389.531C254.748 388.128 252.995 388.384 251.25 390.137L244.523 397.717C244.523 397.717 243.14 399.722 244.953 402.745C245.649 403.906 248.244 406.152 248.244 406.152Z" fill="#F78A5E"/>
<path d="M246.48 408.615L255.12 399.204C264.133 389.177 262.356 379.71 262.277 379.312L261.553 379.494C261.572 379.586 263.304 388.93 254.601 398.612L246.328 407.623C243.181 405.907 241.561 402.538 241.545 402.504C241.493 402.401 236.967 393.436 239.519 384.973C242.083 376.467 250.099 370.48 250.179 370.421L249.772 369.728C249.434 369.976 241.464 375.926 238.816 384.708C236.157 393.531 240.702 402.526 240.897 402.904C240.963 403.046 242.725 406.709 246.25 408.498L246.48 408.615Z" fill="black"/>
<path d="M137.945 409.725C137.945 409.725 127.043 429.555 135.574 437.051C144.105 444.546 111.423 440.838 111.601 439.794C111.778 438.751 94.6353 403.216 100.492 402.84C106.349 402.464 125.061 398.878 128.225 404.415C131.389 409.952 137.945 409.725 137.945 409.725Z" fill="#FE9F73"/>
<path d="M250.271 250.763L250.107 259.705C250.107 259.705 237.134 269.794 238.112 286.22C239.09 302.647 248.201 306.487 248.201 306.487C248.201 306.487 266.568 287.441 267.602 279.725C268.637 272.008 270.801 258.543 250.271 250.763Z" fill="#FE9F73"/>
<path d="M250.558 303.968C250.558 303.968 257.566 298.489 265.462 285C264.655 284.179 263.052 283.282 262.027 282.697C258.881 280.902 256.637 281.23 254.404 283.473L245.796 293.174C245.796 293.174 244.026 295.739 246.345 299.607C247.237 301.094 250.558 303.968 250.558 303.968Z" fill="#F78A5E"/>
<path d="M163.826 452.735L162.877 452.762L163.774 492.295L164.723 492.268L163.826 452.735Z" fill="black"/>
<path d="M160.654 453.815C177.963 449.222 195.344 437.089 204.168 427.76C211.982 419.5 215.833 412.97 215.871 412.905L215.078 412.323C215.04 412.387 211.243 418.821 203.517 426.988C194.781 436.223 177.574 448.234 160.435 452.781L160.654 453.815Z" fill="black"/>
<path d="M128.849 244.172C128.406 241.036 121.755 239.253 119.716 239.239C118.4 239.23 115.157 267.23 113.912 268.28C113.912 268.28 113.667 268.588 116.906 269.39C120.475 270.273 123.249 269.094 123.249 269.094C123.249 269.094 129.292 247.307 128.849 244.172Z" fill="#F78A5E"/>
<path d="M248.302 307.117L259.357 295.076C265.375 288.382 267.546 281.84 268.309 277.531C269.141 272.831 268.541 269.748 268.515 269.619L267.59 269.853C267.614 269.971 269.83 281.928 258.692 294.319L248.104 305.852C244.476 303.889 241.997 299.321 241.972 299.274C241.918 299.167 236.126 287.694 239.391 276.865C242.673 265.979 252.931 258.317 253.034 258.242L252.512 257.354C252.08 257.673 241.881 265.287 238.493 276.525C235.088 287.817 240.905 299.328 241.154 299.812C241.27 300.029 243.945 304.965 248.009 306.972L248.302 307.117Z" fill="black"/>
<path d="M250.371 260.087L251.725 161.188L250.777 161.166L249.423 260.066L250.371 260.087Z" fill="black"/>
<path d="M269.1 209.201C269.458 208.813 277.803 199.617 273.715 191.945C269.674 184.362 252.19 185.024 251.448 185.056L251.484 186.117C251.659 186.11 269.147 185.445 272.9 192.489C276.604 199.44 268.522 208.349 268.44 208.438L269.1 209.201Z" fill="black"/>
<path d="M104.901 412.444C104.746 412.525 104.558 412.516 104.407 412.401C99.3103 408.521 95.6251 398.333 95.4708 397.901C95.3682 397.614 95.4937 397.29 95.7493 397.173C96.0058 397.058 96.2968 397.197 96.3995 397.485C96.4361 397.587 100.126 407.788 104.969 411.474C105.198 411.648 105.257 411.997 105.102 412.252C105.05 412.339 104.98 412.403 104.901 412.444Z" fill="#000100"/>
<path d="M111.806 412.682C111.685 412.746 111.541 412.755 111.408 412.696C105.683 410.139 100.122 401.08 99.8879 400.696C99.7324 400.44 99.7913 400.092 100.019 399.918C100.248 399.743 100.559 399.81 100.714 400.065C100.77 400.157 106.339 409.226 111.778 411.655C112.035 411.77 112.16 412.096 112.057 412.383C112.009 412.521 111.917 412.624 111.806 412.682Z" fill="#000100"/>
<path d="M117.308 427.232C117.567 427.196 123.732 426.278 130.203 420.606C133.998 417.279 137.097 413 139.414 407.887C142.3 401.517 143.971 393.83 144.381 385.04C145.308 365.215 142.065 349.779 139.181 340.322C136.387 331.156 133.372 325.659 132.733 324.547C133.747 320.477 144.752 275.735 143.139 258.387C142.636 252.978 140.717 247.455 137.735 242.837C134.822 238.326 131.254 235.331 127.944 234.62C125.356 234.063 121.71 234.602 119.029 240.326C118.437 241.591 117.919 243.064 117.49 244.703L117.475 244.788C117.461 244.915 116.05 257.703 113.184 269.251C111.824 274.74 110.348 279.098 108.798 282.205C103.348 293.13 88.9621 325.191 85.699 339.707C82.5201 353.846 84.3067 414.201 84.3842 416.763L85.3324 416.727C85.3133 416.101 83.4726 353.96 86.6191 339.966C89.8607 325.548 104.195 293.612 109.626 282.723C111.213 279.542 112.718 275.106 114.098 269.536C116.898 258.251 118.318 245.802 118.412 244.961C118.821 243.405 119.312 242.012 119.87 240.819C121.778 236.746 124.508 234.963 127.765 235.663C134.339 237.076 141.217 247.96 142.195 258.497C143.832 276.092 131.883 324.01 131.762 324.492L131.702 324.73L131.827 324.934C131.86 324.989 135.209 330.563 138.297 340.709C141.147 350.07 144.351 365.351 143.434 384.984C142.523 404.524 135.418 414.686 129.618 419.77C123.352 425.263 117.252 426.169 117.191 426.178L117.308 427.232Z" fill="black"/>
</svg>
