<svg width="429" height="444" viewBox="0 0 429 444" fill="none" xmlns="http://www.w3.org/2000/svg">
<path opacity="0.7" d="M34.9308 138.086C34.9308 138.086 7.05378 210.074 46.2278 282.589C85.4018 355.105 166.107 393.391 230.697 426.137C295.287 458.883 362.358 442.936 394.231 389.299C426.104 335.662 382.386 297.371 382.334 220.881C382.283 144.391 393.781 124.139 352.371 59.5169C310.961 -5.10606 209.312 -19.4081 132.471 28.5209C55.6308 76.4499 34.9308 138.086 34.9308 138.086Z" fill="white"/>
<path d="M52.8229 424.222C52.8229 424.222 -36.5841 301.829 18.8009 207.76C74.1859 113.691 184.233 178.251 205.178 90.4619C226.123 2.67292 302.597 -11.7231 375.117 98.0609C447.637 207.845 430.292 360.51 391.887 424.222H52.8229Z" fill="#92E3A9"/>
<path opacity="0.7" d="M52.8229 424.222C52.8229 424.222 -36.5841 301.829 18.8009 207.76C74.1859 113.691 184.233 178.251 205.178 90.4619C226.123 2.67292 302.597 -11.7231 375.117 98.0609C447.637 207.845 430.292 360.51 391.887 424.222H52.8229Z" fill="white"/>
<path d="M6.31909 424.222H427.681" stroke="#263238" stroke-miterlimit="10" stroke-linecap="round" stroke-linejoin="round"/>
<path d="M91.062 310.114V423.639" stroke="#263238" stroke-miterlimit="10" stroke-linecap="round" stroke-linejoin="round"/>
<path d="M91.062 295.872V305.199" stroke="#263238" stroke-miterlimit="10" stroke-linecap="round" stroke-linejoin="round"/>
<path d="M352.262 423.895V272.795H91.062V290.597" stroke="#263238" stroke-miterlimit="10" stroke-linecap="round" stroke-linejoin="round"/>
<path d="M325.572 281.662H341.468V416.461" stroke="#263238" stroke-miterlimit="10" stroke-linecap="round" stroke-linejoin="round"/>
<path d="M101.856 423.639V281.662H316.341" stroke="#263238" stroke-miterlimit="10" stroke-linecap="round" stroke-linejoin="round"/>
<path d="M109.472 264.397H114.523" stroke="#263238" stroke-miterlimit="10" stroke-linecap="round" stroke-linejoin="round"/>
<path d="M121.77 264.397H356.816V272.736H86.5071V264.397H106.252" stroke="#263238" stroke-miterlimit="10" stroke-linecap="round" stroke-linejoin="round"/>
<path d="M397.952 260.276L395.471 276.374" stroke="#263238" stroke-miterlimit="10" stroke-linecap="round" stroke-linejoin="round"/>
<path d="M382.742 194.231H394.744C401.782 194.231 407.164 200.506 406.092 207.462L399.309 251.468" stroke="#263238" stroke-miterlimit="10" stroke-linecap="round" stroke-linejoin="round"/>
<path d="M370.541 194.231H379.309" stroke="#263238" stroke-miterlimit="10" stroke-linecap="round" stroke-linejoin="round"/>
<path d="M319.158 260.2L327.826 203.963C328.689 198.363 333.508 194.23 339.174 194.23H364.286" stroke="#263238" stroke-miterlimit="10" stroke-linecap="round" stroke-linejoin="round"/>
<path d="M311.326 311.011L315.232 285.669" stroke="#263238" stroke-miterlimit="10" stroke-linecap="round" stroke-linejoin="round"/>
<path d="M355.721 343.347H367.664C373.588 343.347 378.965 341.005 382.919 337.196" stroke="#263238" stroke-miterlimit="10" stroke-linecap="round" stroke-linejoin="round"/>
<path d="M289.912 343.347H331.524" stroke="#263238" stroke-miterlimit="10" stroke-linecap="round" stroke-linejoin="round"/>
<path d="M272.714 339.591C276.224 341.962 280.456 343.347 285.011 343.347" stroke="#263238" stroke-miterlimit="10" stroke-linecap="round" stroke-linejoin="round"/>
<path d="M337.978 311.011H271.216C266.688 311.011 263.017 314.682 263.017 319.21V321.353C263.017 326.51 264.792 331.252 267.764 335.003" stroke="#263238" stroke-miterlimit="10" stroke-linecap="round" stroke-linejoin="round"/>
<path d="M389.057 316.124C387.838 313.125 384.895 311.011 381.459 311.011H369.56" stroke="#263238" stroke-miterlimit="10" stroke-linecap="round" stroke-linejoin="round"/>
<path d="M338.123 349.392H309.552L303.552 343.347" stroke="#263238" stroke-miterlimit="10" stroke-linecap="round" stroke-linejoin="round"/>
<path d="M333.094 371.307H319.58C318.577 371.307 317.764 370.494 317.764 369.491V349.392H334.909V369.491C334.91 370.494 334.097 371.307 333.094 371.307Z" stroke="#263238" stroke-miterlimit="10" stroke-linecap="round" stroke-linejoin="round"/>
<path d="M331.7 371.307H320.974V396H331.7V371.307Z" stroke="#263238" stroke-miterlimit="10" stroke-linecap="round" stroke-linejoin="round"/>
<path d="M277.186 411.201C295.053 399.303 320.974 396 320.974 396" stroke="#263238" stroke-miterlimit="10" stroke-linecap="round" stroke-linejoin="round"/>
<path d="M338.081 407.651C320 405 302 409 285.033 413.38" stroke="#263238" stroke-miterlimit="10" stroke-linecap="round" stroke-linejoin="round"/>
<path d="M367.642 413.38C363.518 412.322 359.359 411.393 355.189 410.536" stroke="#263238" stroke-miterlimit="10" stroke-linecap="round" stroke-linejoin="round"/>
<path d="M355.721 401.809C362.625 404.175 369.397 407.15 375.489 411.201" stroke="#263238" stroke-miterlimit="10" stroke-linecap="round" stroke-linejoin="round"/>
<path d="M331.7 396C333.958 396.305 336.202 396.715 338.435 397.165" stroke="#263238" stroke-miterlimit="10" stroke-linecap="round" stroke-linejoin="round"/>
<path d="M279.286 424.652C283 424.652 286.011 421.641 286.011 417.927C286.011 414.213 283 411.202 279.286 411.202C275.572 411.202 272.561 414.213 272.561 417.927C272.561 421.641 275.572 424.652 279.286 424.652Z" stroke="#263238" stroke-miterlimit="10" stroke-linecap="round" stroke-linejoin="round"/>
<path d="M374.286 424.652C378 424.652 381.011 421.641 381.011 417.927C381.011 414.213 378 411.202 374.286 411.202C370.572 411.202 367.561 414.213 367.561 417.927C367.561 421.641 370.572 424.652 374.286 424.652Z" stroke="#263238" stroke-miterlimit="10" stroke-linecap="round" stroke-linejoin="round"/>
<path d="M366.132 329.628L371.409 293.895C371.915 290.471 374.621 287.791 378.05 287.32L402.578 283.95C404.462 283.691 405.865 282.081 405.865 280.18C405.865 278.078 404.161 276.374 402.059 276.374H398.967L374.668 280.116C368.718 281.032 364.087 285.767 363.304 291.737L358.22 330.5C358.032 331.934 359.148 333.205 360.594 333.205" stroke="#263238" stroke-miterlimit="10" stroke-linecap="round" stroke-linejoin="round"/>
<path d="M402.577 283.949L396.197 317.89C397.959 317.89 399.387 319.318 399.387 321.08V327.562C399.387 332.032 395.764 335.655 391.294 335.655H361.468" stroke="#263238" stroke-miterlimit="10" stroke-linecap="round" stroke-linejoin="round"/>
<path d="M398.35 284.53L391.714 317.168H374.286" stroke="#263238" stroke-miterlimit="10" stroke-linecap="round" stroke-linejoin="round"/>
<path d="M271.305 291.736L269.518 305.357" stroke="#263238" stroke-miterlimit="10" stroke-linecap="round" stroke-linejoin="round"/>
<path d="M277.515 306.717L279.408 293.895C279.914 290.471 282.62 287.791 286.049 287.32L310.577 283.95" stroke="#263238" stroke-miterlimit="10" stroke-linecap="round" stroke-linejoin="round"/>
<path d="M234.7 68.4449H33.6189V424.223H234.7V68.4449Z" fill="white" stroke="#263238" stroke-miterlimit="10" stroke-linecap="round" stroke-linejoin="round"/>
<path d="M223.218 283.374H45.011" stroke="#263238" stroke-miterlimit="10"/>
<path d="M45.011 209.743H223.218" stroke="#263238" stroke-miterlimit="10"/>
<path d="M103.033 112.945H45.011V198.506H103.033V112.945Z" fill="#92E3A9" stroke="#263238" stroke-miterlimit="10" stroke-linecap="round" stroke-linejoin="round"/>
<path d="M98.22 198.505V170.842C92.518 168.448 83.055 166.285 73.328 166.388C62.863 166.499 53.586 168.409 48.571 170.595V198.505H98.22Z" fill="#92E3A9" stroke="#263238" stroke-miterlimit="10" stroke-linecap="round" stroke-linejoin="round"/>
<path d="M70.321 198.505H77.026L75.408 177.926L77.801 172.791C77.801 172.791 73.927 171.406 70.942 172.791L72.466 177.926L70.321 198.505Z" fill="#263238"/>
<path d="M81.2861 163.107L85.7431 166.385L80.2201 179.714L74.0221 172.791L67.1651 179.714L61.0281 166.385L65.4841 163.107H81.2861Z" fill="#92E3A9" stroke="#263238" stroke-miterlimit="10" stroke-linecap="round" stroke-linejoin="round"/>
<path d="M82.586 164.731C82.586 164.731 77.798 171.752 74.022 171.85C71.347 171.92 64.48 165.283 64.48 165.283C66.338 163.615 66.451 160.528 66.178 158.1C65.958 156.117 65.483 154.574 65.483 154.574H81.286C80.324 157.732 80.36 160 80.734 161.579C81.286 163.9 82.586 164.731 82.586 164.731Z" fill="white" stroke="#263238" stroke-miterlimit="10" stroke-linecap="round" stroke-linejoin="round"/>
<path d="M80.7339 161.578C69.3119 164.57 67.0449 158.046 67.0449 158.046L66.1779 158.099C65.9579 156.116 65.4829 154.573 65.4829 154.573H81.2859C80.3249 157.732 80.3599 159.999 80.7339 161.578Z" fill="#263238"/>
<path d="M85.685 143.27C85.685 143.27 93.275 119.029 65.484 125.61C65.484 125.61 63.21 124.427 61.825 124.972C60.44 125.517 59.093 135.303 61.448 144.353L85.685 143.27Z" fill="#263238"/>
<path d="M84.7271 143.478C84.7271 143.478 86.0001 142.095 86.6261 142.55C87.2511 143.005 87.9901 144.293 87.6491 145.468C87.3081 146.643 85.8301 148.689 85.7161 149.883C85.6021 151.077 84.8361 152.429 83.9971 151.639C83.1581 150.849 84.7271 143.478 84.7271 143.478Z" fill="white" stroke="#263238" stroke-miterlimit="10" stroke-linecap="round" stroke-linejoin="round"/>
<path d="M62.0441 143.478C62.0441 143.478 60.7711 142.095 60.1461 142.55C59.5211 143.005 58.7821 144.293 59.1231 145.468C59.4641 146.643 60.9421 148.689 61.0561 149.883C61.1701 151.077 61.9361 152.429 62.7751 151.639C63.6131 150.849 62.0441 143.478 62.0441 143.478Z" fill="white" stroke="#263238" stroke-miterlimit="10" stroke-linecap="round" stroke-linejoin="round"/>
<path d="M73.1172 127.492C89.1242 127.492 85.3182 148.811 82.3732 155.655C81.3392 158.059 75.9782 161.213 73.3862 161.213C70.9762 161.213 65.4592 157.443 64.4812 155.185C61.5012 148.307 57.8602 127.492 73.1172 127.492Z" fill="white" stroke="#263238" stroke-miterlimit="10" stroke-linecap="round" stroke-linejoin="round"/>
<path d="M75.8301 140.655C75.8301 140.655 79.9991 139.366 81.2871 141.943" stroke="#263238" stroke-miterlimit="10" stroke-linecap="round" stroke-linejoin="round"/>
<path d="M78.916 144.16C78.916 144.652 78.666 145.051 78.358 145.051C78.05 145.051 77.8 144.652 77.8 144.16C77.8 143.668 78.05 143.269 78.358 143.269C78.666 143.27 78.916 143.668 78.916 144.16Z" fill="#263238"/>
<path d="M70.9411 140.655C70.9411 140.655 66.7721 139.366 65.4841 141.943" stroke="#263238" stroke-miterlimit="10" stroke-linecap="round" stroke-linejoin="round"/>
<path d="M67.8552 144.16C67.8552 144.652 68.1052 145.051 68.4132 145.051C68.7212 145.051 68.9712 144.652 68.9712 144.16C68.9712 143.668 68.7212 143.269 68.4132 143.269C68.1052 143.27 67.8552 143.668 67.8552 144.16Z" fill="#263238"/>
<path d="M64.3949 133.903C63.5419 134.989 64.3949 138.343 64.6219 139.707C64.8489 141.071 62.7459 142.019 63.0299 145.467L62.2169 146.657C62.2169 146.657 59.9589 141.108 60.5269 136.333C61.0949 131.558 64.1099 129.702 64.1099 129.702C64.1099 129.702 65.4839 125.578 73.5389 125.609C82.2199 125.642 83.0959 130.341 83.0959 130.341C83.0959 130.341 88.9819 134.266 84.6279 147.056L83.6829 145.466C83.6829 145.466 84.1419 142.889 82.5839 140.615C81.8259 139.508 83.0389 136.181 82.7549 134.476C82.4709 132.773 65.2469 132.817 64.3949 133.903Z" fill="#263238"/>
<path d="M74.3381 143.27C74.3381 143.27 74.5791 148.192 75.2841 149.575C75.9891 150.958 73.5231 151.193 72.4661 150.371" stroke="#263238" stroke-miterlimit="10" stroke-linecap="round" stroke-linejoin="round"/>
<path d="M69.8811 152.999C69.8811 152.999 70.2731 154.442 71.3691 154.912C72.4651 155.382 75.7921 155.186 76.4181 154.795C77.0441 154.404 77.3571 153.125 77.3571 153.125" fill="white"/>
<path d="M69.8811 152.999C69.8811 152.999 70.2731 154.442 71.3691 154.912C72.4651 155.382 75.7921 155.186 76.4181 154.795C77.0441 154.404 77.3571 153.125 77.3571 153.125" stroke="#263238" stroke-miterlimit="10" stroke-linecap="round" stroke-linejoin="round"/>
<path d="M69.5291 152.916C69.5291 152.916 72.8411 153.855 77.8001 152.916" stroke="#263238" stroke-miterlimit="10" stroke-linecap="round" stroke-linejoin="round"/>
<path d="M57.185 168.044L45.011 171.411V198.497H72.682L57.185 168.044Z" fill="#999999" stroke="#263238" stroke-miterlimit="10" stroke-linecap="round" stroke-linejoin="round"/>
<path d="M103.033 172.176L87.735 167.339L74.948 198.497H103.033V172.176Z" fill="#999999" stroke="#263238" stroke-miterlimit="10" stroke-linecap="round" stroke-linejoin="round"/>
<path d="M80.3109 198.505L89.3189 188.022L83.7499 182.681L92.2859 177.926L89.3479 168.111L85.7429 166.385L74.7749 198.505H80.3109Z" fill="#BFBFBF" stroke="#263238" stroke-miterlimit="10" stroke-linecap="round" stroke-linejoin="round"/>
<path d="M58.0661 189.101L67.0391 198.505H73.0201L61.0281 166.385L57.1851 168.044L54.3081 177.163L63.0211 184.066L58.0661 189.101Z" fill="#BFBFBF" stroke="#263238" stroke-miterlimit="10" stroke-linecap="round" stroke-linejoin="round"/>
<path d="M101.276 81.6189V83.4099C101.276 85.6149 100.213 86.8149 98.0479 86.8149H97.0249V91.9919H94.8599V78.2129H98.0479C100.213 78.2139 101.276 79.4149 101.276 81.6189ZM97.0239 80.1829V84.8479H98.0469C98.7359 84.8479 99.1099 84.5329 99.1099 83.5489V81.4819C99.1099 80.4979 98.7359 80.1829 98.0469 80.1829H97.0239Z" fill="#263238"/>
<path d="M106.809 91.9929C106.691 91.6389 106.612 91.4219 106.612 90.2999V88.1349C106.612 86.8549 106.179 86.3829 105.195 86.3829H104.447V91.9929H102.282V78.2139H105.549C107.793 78.2139 108.757 79.2569 108.757 81.3829V82.4649C108.757 83.8819 108.304 84.7879 107.34 85.2399V85.2789C108.423 85.7319 108.777 86.7559 108.777 88.1929V90.3179C108.777 90.9879 108.797 91.4799 109.013 91.9909H106.809V91.9929ZM104.447 80.1829V84.4149H105.293C106.1 84.4149 106.592 84.0609 106.592 82.9579V81.5999C106.592 80.6159 106.257 80.1829 105.489 80.1829H104.447Z" fill="#263238"/>
<path d="M110.02 81.5209C110.02 79.3159 111.181 78.0569 113.307 78.0569C115.433 78.0569 116.594 79.3169 116.594 81.5209V88.6849C116.594 90.8899 115.433 92.1499 113.307 92.1499C111.181 92.1499 110.02 90.8899 110.02 88.6849V81.5209ZM112.186 88.8239C112.186 89.8079 112.619 90.1819 113.308 90.1819C113.997 90.1819 114.43 89.8079 114.43 88.8239V81.3839C114.43 80.3999 113.997 80.0259 113.308 80.0259C112.619 80.0259 112.186 80.3999 112.186 81.3839V88.8239Z" fill="#263238"/>
<path d="M120.16 84.3349H122.955V86.3039H120.16V91.9919H117.994V78.2129H123.722V80.1819H120.159V84.3349H120.16Z" fill="#263238"/>
<path d="M124.768 78.2139H126.933V91.9929H124.768V78.2139Z" fill="#263238"/>
<path d="M128.509 78.2139H130.674V90.0249H134.237V91.9929H128.509V78.2139Z" fill="#263238"/>
<path d="M137.348 84.0209H140.32V85.9899H137.348V90.0249H141.088V91.9929H135.183V78.2139H141.088V80.1829H137.348V84.0209Z" fill="#263238"/>
<path d="M145.48 78.2139H148.905C151.07 78.2139 152.133 79.4149 152.133 81.6189V88.5869C152.133 90.7919 151.07 91.9919 148.905 91.9919H145.48V78.2139ZM147.646 80.1829V90.0249H148.866C149.555 90.0249 149.969 89.6709 149.969 88.6859V81.5219C149.969 80.5379 149.555 80.1839 148.866 80.1839L147.646 80.1829Z" fill="#263238"/>
<path d="M160.502 91.9929H158.317L157.943 89.4929H155.286L154.912 91.9929H152.924L155.129 78.2139H158.298L160.502 91.9929ZM155.561 87.6229H157.647L156.624 80.6549H156.585L155.561 87.6229Z" fill="#263238"/>
<path d="M160.13 78.2139H166.823V80.1829H164.559V91.9929H162.394V80.1829H160.13V78.2139Z" fill="#263238"/>
<path d="M174.029 91.9929H171.844L171.47 89.4929H168.813L168.439 91.9929H166.451L168.656 78.2139H171.825L174.029 91.9929ZM169.088 87.6229H171.174L170.151 80.6549H170.112L169.088 87.6229Z" fill="#263238"/>
<path d="M45.0559 102.7H223.263" stroke="#263238" stroke-miterlimit="10" stroke-linecap="round" stroke-linejoin="round"/>
<path d="M114.755 117.326H158.314C159.306 117.326 160.109 116.522 160.109 115.531C160.109 114.539 159.305 113.736 158.314 113.736H114.755C113.764 113.736 112.96 114.54 112.96 115.531C112.96 116.522 113.763 117.326 114.755 117.326Z" fill="#263238"/>
<path d="M174.776 126.082H114.755C113.764 126.082 112.96 126.886 112.96 127.877C112.96 128.868 113.764 129.672 114.755 129.672H174.776C175.768 129.672 176.571 128.868 176.571 127.877C176.571 126.886 175.768 126.082 174.776 126.082Z" fill="#263238"/>
<path d="M141.852 138.429H114.755C113.764 138.429 112.96 139.233 112.96 140.224C112.96 141.215 113.764 142.019 114.755 142.019H141.852C142.843 142.019 143.647 141.215 143.647 140.224C143.647 139.233 142.843 138.429 141.852 138.429Z" fill="#263238"/>
<path d="M174.776 150.776H114.755C113.764 150.776 112.96 151.58 112.96 152.571C112.96 153.562 113.764 154.366 114.755 154.366H174.776C175.768 154.366 176.571 153.562 176.571 152.571C176.571 151.579 175.768 150.776 174.776 150.776Z" fill="#263238"/>
<path d="M150.083 163.122H114.755C113.764 163.122 112.96 163.926 112.96 164.917C112.96 165.909 113.764 166.712 114.755 166.712H150.083C151.075 166.712 151.878 165.908 151.878 164.917C151.878 163.926 151.074 163.122 150.083 163.122Z" fill="#263238"/>
<path d="M132.419 177.266H112.96V196.725H132.419V177.266Z" fill="#BFBFBF" stroke="#263238" stroke-miterlimit="10" stroke-linecap="round" stroke-linejoin="round"/>
<path d="M162.419 177.266H142.96V196.725H162.419V177.266Z" fill="#BFBFBF" stroke="#263238" stroke-miterlimit="10" stroke-linecap="round" stroke-linejoin="round"/>
<path d="M192.418 177.266H172.959V196.725H192.418V177.266Z" fill="#BFBFBF" stroke="#263238" stroke-miterlimit="10" stroke-linecap="round" stroke-linejoin="round"/>
<path d="M74.925 257.659C84.5143 257.659 92.288 249.885 92.288 240.296C92.288 230.707 84.5143 222.933 74.925 222.933C65.3357 222.933 57.562 230.707 57.562 240.296C57.562 249.885 65.3357 257.659 74.925 257.659Z" stroke="#263238" stroke-width="5" stroke-miterlimit="10"/>
<path d="M92.288 240.296C92.288 249.885 84.514 257.659 74.925 257.659C65.336 257.659 57.562 249.885 57.562 240.296C57.562 230.707 65.336 222.933 74.925 222.933" stroke="#92E3A9" stroke-width="5" stroke-miterlimit="10" stroke-linecap="round" stroke-linejoin="round"/>
<path d="M88.4731 267.474H61.3761C60.3851 267.474 59.5811 268.278 59.5811 269.269C59.5811 270.26 60.3851 271.064 61.3761 271.064H88.4731C89.4651 271.064 90.2681 270.26 90.2681 269.269C90.2681 268.278 89.4651 267.474 88.4731 267.474Z" fill="#263238"/>
<path d="M132.182 257.659C141.771 257.659 149.545 249.885 149.545 240.296C149.545 230.707 141.771 222.933 132.182 222.933C122.593 222.933 114.819 230.707 114.819 240.296C114.819 249.885 122.593 257.659 132.182 257.659Z" stroke="#263238" stroke-width="5" stroke-miterlimit="10"/>
<path d="M144.46 252.573C141.318 255.715 136.977 257.659 132.182 257.659C122.593 257.659 114.819 249.885 114.819 240.296C114.819 230.707 122.593 222.933 132.182 222.933" stroke="#92E3A9" stroke-width="5" stroke-miterlimit="10" stroke-linecap="round" stroke-linejoin="round"/>
<path d="M145.731 267.474H118.634C117.643 267.474 116.839 268.278 116.839 269.269C116.839 270.26 117.643 271.064 118.634 271.064H145.731C146.723 271.064 147.526 270.26 147.526 269.269C147.526 268.278 146.722 267.474 145.731 267.474Z" fill="#263238"/>
<path d="M189.439 257.659C199.028 257.659 206.802 249.885 206.802 240.296C206.802 230.707 199.028 222.933 189.439 222.933C179.85 222.933 172.076 230.707 172.076 240.296C172.076 249.885 179.85 257.659 189.439 257.659Z" stroke="#263238" stroke-width="5" stroke-miterlimit="10"/>
<path d="M189.439 257.659C179.85 257.659 172.076 249.885 172.076 240.296C172.076 230.707 179.85 222.933 189.439 222.933" stroke="#92E3A9" stroke-width="5" stroke-miterlimit="10" stroke-linecap="round" stroke-linejoin="round"/>
<path d="M202.988 267.474H175.891C174.9 267.474 174.096 268.278 174.096 269.269C174.096 270.26 174.9 271.064 175.891 271.064H202.988C203.979 271.064 204.783 270.26 204.783 269.269C204.783 268.278 203.979 267.474 202.988 267.474Z" fill="#263238"/>
<path d="M78.5579 294.37H45.0559V327.872H78.5579V294.37Z" fill="#BFBFBF" stroke="#263238" stroke-miterlimit="10" stroke-linecap="round" stroke-linejoin="round"/>
<path d="M88.755 297.96H192.314C193.306 297.96 194.109 297.156 194.109 296.165C194.109 295.174 193.305 294.37 192.314 294.37H88.755C87.764 294.37 86.96 295.174 86.96 296.165C86.959 297.157 87.763 297.96 88.755 297.96Z" fill="#263238"/>
<path d="M208.776 306.717H88.755C87.764 306.717 86.96 307.521 86.96 308.512C86.96 309.503 87.764 310.307 88.755 310.307H208.776C209.768 310.307 210.571 309.503 210.571 308.512C210.571 307.52 209.768 306.717 208.776 306.717Z" fill="#263238"/>
<path d="M205.852 319.063H88.755C87.764 319.063 86.96 319.867 86.96 320.858C86.96 321.849 87.764 322.653 88.755 322.653H205.852C206.843 322.653 207.647 321.849 207.647 320.858C207.647 319.867 206.843 319.063 205.852 319.063Z" fill="#263238"/>
<path d="M208.776 331.41H88.755C87.764 331.41 86.96 332.214 86.96 333.205C86.96 334.196 87.764 335 88.755 335H208.776C209.768 335 210.571 334.196 210.571 333.205C210.571 332.214 209.768 331.41 208.776 331.41Z" fill="#263238"/>
<path d="M114.083 343.757H88.755C87.764 343.757 86.96 344.561 86.96 345.552C86.96 346.543 87.764 347.347 88.755 347.347H114.083C115.075 347.347 115.878 346.543 115.878 345.552C115.878 344.56 115.074 343.757 114.083 343.757Z" fill="#263238"/>
<path d="M78.5579 359.37H45.0559V392.872H78.5579V359.37Z" fill="#BFBFBF" stroke="#263238" stroke-miterlimit="10" stroke-linecap="round" stroke-linejoin="round"/>
<path d="M88.755 362.96H192.314C193.306 362.96 194.109 362.156 194.109 361.165C194.109 360.174 193.305 359.37 192.314 359.37H88.755C87.764 359.37 86.96 360.174 86.96 361.165C86.959 362.157 87.763 362.96 88.755 362.96Z" fill="#263238"/>
<path d="M208.776 371.717H88.755C87.764 371.717 86.96 372.521 86.96 373.512C86.96 374.503 87.764 375.307 88.755 375.307H208.776C209.768 375.307 210.571 374.503 210.571 373.512C210.571 372.52 209.768 371.717 208.776 371.717Z" fill="#263238"/>
<path d="M205.852 384.063H88.755C87.764 384.063 86.96 384.867 86.96 385.858C86.96 386.849 87.764 387.653 88.755 387.653H205.852C206.843 387.653 207.647 386.849 207.647 385.858C207.647 384.867 206.843 384.063 205.852 384.063Z" fill="#263238"/>
<path d="M208.776 396.41H88.755C87.764 396.41 86.96 397.214 86.96 398.205C86.96 399.196 87.764 400 88.755 400H208.776C209.768 400 210.571 399.196 210.571 398.205C210.571 397.214 209.768 396.41 208.776 396.41Z" fill="#263238"/>
<path d="M114.083 408.757H88.755C87.764 408.757 86.96 409.561 86.96 410.552C86.96 411.543 87.764 412.347 88.755 412.347H114.083C115.075 412.347 115.878 411.543 115.878 410.552C115.878 409.56 115.074 408.757 114.083 408.757Z" fill="#263238"/>
<path d="M247.725 70.353L256.187 82.744L248.325 88.742L241.282 78.254" fill="white"/>
<path d="M247.725 70.353L256.187 82.744L248.325 88.742L241.282 78.254" stroke="#263238" stroke-miterlimit="10" stroke-linecap="round" stroke-linejoin="round"/>
<path d="M258.521 83.228L252.013 74.407L242.479 81.593L247.199 90.357L258.521 83.228Z" fill="#92E3A9" stroke="#263238" stroke-miterlimit="10" stroke-linecap="round" stroke-linejoin="round"/>
<path d="M313.94 128.61L313.72 157.88C313.72 157.88 310.17 156.12 305.09 153.48C295.94 148.71 281.84 141.1 274.72 135.85C272.81 134.44 271.4 133.2 270.72 132.23C266.11 125.64 243.39 86.76 243.39 86.76L255.56 77.99L277.56 110.45L282.96 118.41L283.46 118.58L313.94 128.61Z" fill="#999999"/>
<mask id="mask0_91_748" style="mask-type:luminance" maskUnits="userSpaceOnUse" x="243" y="77" width="71" height="81">
<path d="M313.94 128.61L313.72 157.88C313.72 157.88 310.17 156.12 305.09 153.48C295.94 148.71 281.84 141.1 274.72 135.85C272.81 134.44 271.4 133.2 270.72 132.23C266.11 125.64 243.39 86.76 243.39 86.76L255.56 77.99L277.56 110.45L282.96 118.41L283.46 118.58L313.94 128.61Z" fill="white"/>
</mask>
<g mask="url(#mask0_91_748)">
<path opacity="0.3" d="M309.03 140.22L305.09 153.48C295.94 148.71 281.84 141.1 274.72 135.85C288.67 138.51 309.03 140.22 309.03 140.22Z" fill="black" fill-opacity="0.7"/>
<path opacity="0.3" d="M283.46 118.58C279.14 119.73 277.8 122.58 277.8 122.58C275.76 117.27 276.41 113.2 277.56 110.45L282.96 118.41L283.46 118.58Z" fill="black" fill-opacity="0.7"/>
</g>
<path d="M313.94 128.61L313.72 157.88C313.72 157.88 310.17 156.12 305.09 153.48C295.94 148.71 281.84 141.1 274.72 135.85C272.81 134.44 271.4 133.2 270.72 132.23C266.11 125.64 243.39 86.76 243.39 86.76L255.56 77.99L277.56 110.45L282.96 118.41L283.46 118.58L313.94 128.61Z" stroke="#263238" stroke-miterlimit="10" stroke-linecap="round" stroke-linejoin="round"/>
<path d="M248.204 72.709C248.516 72.114 248.729 71.326 248.799 70.429C248.874 69.471 248.79 68.389 248.502 67.265C248.251 66.283 247.847 65.267 247.251 64.267C246.768 63.46 246.35 62.543 245.999 61.618C245.762 61.004 245.555 60.38 245.373 59.792C244.754 57.749 244.471 56.069 244.471 56.069C244.471 56.069 242.514 55.404 242.256 57.343C242.188 57.84 242.234 58.384 242.324 58.937C242.481 59.844 242.767 60.768 242.944 61.516C243.082 62.102 243.146 62.578 243.021 62.849C242.941 63.017 242.85 63.176 242.742 63.311C242.742 63.311 242.732 63.321 242.723 63.359C242.684 63.414 242.641 63.466 242.599 63.518C242.343 63.823 242.021 64.066 241.683 64.201C241.522 64.266 241.361 64.305 241.195 64.313C241.165 64.324 241.111 64.332 241.06 64.324C240.941 64.317 240.819 64.307 240.693 64.28C240.131 64.184 239.494 63.93 238.827 63.582L238.823 63.579C238.001 63.151 237.142 62.575 236.332 61.974L236.329 61.971C236.035 61.745 235.74 61.52 235.467 61.293C234.646 60.634 233.933 59.986 233.442 59.495C232.989 59.04 232.491 58.555 231.977 58.095C231.487 57.644 230.984 57.221 230.496 56.851C229.07 55.779 227.778 55.235 227.327 56.332C226.917 57.323 227.41 57.763 228.558 58.823C228.958 59.195 229.434 59.639 229.982 60.204C230.736 60.99 231.614 62.006 232.598 63.399C232.601 63.402 232.601 63.402 232.601 63.402C232.706 63.542 232.809 63.691 232.915 63.844L232.497 64.418C232.568 64.531 232.312 64.454 231.834 64.226C231.831 64.223 231.831 64.223 231.831 64.223C231.058 63.855 229.706 63.089 228.228 62.106C227.7 61.758 227.151 61.376 226.611 60.978C226.123 60.622 225.639 60.249 225.174 59.869C222.859 57.981 222.319 60.154 222.707 61.109C222.929 61.669 223.895 62.425 224.992 63.232C225.525 63.624 226.085 64.029 226.607 64.424C226.867 64.624 227.116 64.82 227.348 65.014C228.315 65.811 229.327 66.623 230.027 67.187C230.124 67.266 230.214 67.338 230.297 67.403L230.061 68.314C229.914 68.281 229.771 68.244 229.635 68.207C229.632 68.204 229.632 68.204 229.628 68.2C228.082 67.799 226.918 67.349 226.005 66.934C225.209 66.57 224.607 66.23 224.125 65.986C223.217 65.516 222.729 65.357 222.154 65.895C221.513 66.495 222.136 67.447 223.135 68.301C223.923 68.974 224.949 69.583 225.788 69.909L225.792 69.912C225.98 69.985 226.158 70.041 226.322 70.084C227.011 70.262 227.836 70.68 228.88 71.298C229.035 71.392 229.201 71.496 229.369 71.596L229.542 72.333C229.263 72.313 228.995 72.284 228.743 72.25C228.74 72.247 228.736 72.25 228.736 72.25C227.753 72.131 226.929 71.957 226.236 71.79L226.232 71.787C225.379 71.58 224.723 71.388 224.217 71.337C223.704 71.28 223.347 71.371 223.093 71.737C222.702 72.317 223.316 72.964 224.242 73.491C224.779 73.795 225.416 74.055 226.018 74.235C226.544 74.39 227.038 74.488 227.421 74.501C227.987 74.523 228.978 74.8 230.024 75.151C230.366 75.27 230.719 75.393 231.061 75.519C232.303 75.969 233.441 76.44 233.832 76.605C233.928 76.643 233.979 76.665 233.979 76.665C234.804 77.201 235.517 77.632 236.157 77.988C238.118 79.073 239.381 79.411 241.084 79.591C241.723 79.661 242.477 79.32 243.257 78.744" fill="white"/>
<path d="M248.204 72.709C248.516 72.114 248.729 71.326 248.799 70.429C248.874 69.471 248.79 68.389 248.502 67.265C248.251 66.283 247.847 65.267 247.251 64.267C246.768 63.46 246.35 62.543 245.999 61.618C245.762 61.004 245.555 60.38 245.373 59.792C244.754 57.749 244.471 56.069 244.471 56.069C244.471 56.069 242.514 55.404 242.256 57.343C242.188 57.84 242.234 58.384 242.324 58.937C242.481 59.844 242.767 60.768 242.944 61.516C243.082 62.102 243.146 62.578 243.021 62.849C242.941 63.017 242.85 63.176 242.742 63.311C242.742 63.311 242.732 63.321 242.723 63.359C242.684 63.414 242.641 63.466 242.599 63.518C242.343 63.823 242.021 64.066 241.683 64.201C241.522 64.266 241.361 64.305 241.195 64.313C241.165 64.324 241.111 64.332 241.06 64.324C240.941 64.317 240.819 64.307 240.693 64.28C240.131 64.184 239.494 63.93 238.827 63.582L238.823 63.579C238.001 63.151 237.142 62.575 236.332 61.974L236.329 61.971C236.035 61.745 235.74 61.52 235.467 61.293C234.646 60.634 233.933 59.986 233.442 59.495C232.989 59.04 232.491 58.555 231.977 58.095C231.487 57.644 230.984 57.221 230.496 56.851C229.07 55.779 227.778 55.235 227.327 56.332C226.917 57.323 227.41 57.763 228.558 58.823C228.958 59.195 229.434 59.639 229.982 60.204C230.736 60.99 231.614 62.006 232.598 63.399C232.601 63.402 232.601 63.402 232.601 63.402C232.706 63.542 232.809 63.691 232.915 63.844L232.497 64.418C232.568 64.531 232.312 64.454 231.834 64.226C231.831 64.223 231.831 64.223 231.831 64.223C231.058 63.855 229.706 63.089 228.228 62.106C227.7 61.758 227.151 61.376 226.611 60.978C226.123 60.622 225.639 60.249 225.174 59.869C222.859 57.981 222.319 60.154 222.707 61.109C222.929 61.669 223.895 62.425 224.992 63.232C225.525 63.624 226.085 64.029 226.607 64.424C226.867 64.624 227.116 64.82 227.348 65.014C228.315 65.811 229.327 66.623 230.027 67.187C230.124 67.266 230.214 67.338 230.297 67.403L230.061 68.314C229.914 68.281 229.771 68.244 229.635 68.207C229.632 68.204 229.632 68.204 229.628 68.2C228.082 67.799 226.918 67.349 226.005 66.934C225.209 66.57 224.607 66.23 224.125 65.986C223.217 65.516 222.729 65.357 222.154 65.895C221.513 66.495 222.136 67.447 223.135 68.301C223.923 68.974 224.949 69.583 225.788 69.909L225.792 69.912C225.98 69.985 226.158 70.041 226.322 70.084C227.011 70.262 227.836 70.68 228.88 71.298C229.035 71.392 229.201 71.496 229.369 71.596L229.542 72.333C229.263 72.313 228.995 72.284 228.743 72.25C228.74 72.247 228.736 72.25 228.736 72.25C227.753 72.131 226.929 71.957 226.236 71.79L226.232 71.787C225.379 71.58 224.723 71.388 224.217 71.337C223.704 71.28 223.347 71.371 223.093 71.737C222.702 72.317 223.316 72.964 224.242 73.491C224.779 73.795 225.416 74.055 226.018 74.235C226.544 74.39 227.038 74.488 227.421 74.501C227.987 74.523 228.978 74.8 230.024 75.151C230.366 75.27 230.719 75.393 231.061 75.519C232.303 75.969 233.441 76.44 233.832 76.605C233.928 76.643 233.979 76.665 233.979 76.665C234.804 77.201 235.517 77.632 236.157 77.988C238.118 79.073 239.381 79.411 241.084 79.591C241.723 79.661 242.477 79.32 243.257 78.744" stroke="#263238" stroke-miterlimit="10" stroke-linecap="round" stroke-linejoin="round"/>
<path d="M241.057 64.324C241.057 64.324 238.369 67.617 240.593 70.78" stroke="#263238" stroke-miterlimit="10" stroke-linecap="round" stroke-linejoin="round"/>
<path d="M290.904 139.195C290.904 139.195 294.312 145.513 303.154 151.063" stroke="#263238" stroke-miterlimit="10" stroke-linecap="round" stroke-linejoin="round"/>
<path d="M282.964 118.408C282.964 118.408 275.996 118.926 278.163 125.75" stroke="#263238" stroke-miterlimit="10" stroke-linecap="round" stroke-linejoin="round"/>
<path d="M401.435 394.868C401.435 394.868 382.198 411.276 372.169 413.942C362.14 416.608 365.006 424.16 365.006 424.16H388.407L398.436 422.004V424.223H404.644C404.644 424.223 410.157 421.387 408.795 407.222C408.71 406.354 401.435 394.868 401.435 394.868Z" fill="#263238"/>
<path d="M193.435 399.868C193.435 399.868 177.198 411.276 167.169 413.942C157.14 416.608 160.006 424.16 160.006 424.16H183.407L193.436 422.004V424.223H199.644C199.644 424.223 205.157 421.387 203.795 407.222C203.712 406.355 203.602 405.446 203.465 404.493C201.076 387.954 193.435 399.868 193.435 399.868Z" fill="#263238"/>
<path d="M387.55 407.8C387.55 407.8 327.27 359.07 323.83 352.74C320.38 346.41 313.56 288.45 313.56 288.45C313.56 288.45 313.56 288.45 313.55 288.46C312.67 289.08 256.17 329.19 253.55 333.08C253.37 333.35 253 333.93 252.46 334.79C244.98 346.64 205.53 410.8 205.53 410.8C194.45 411.21 188.12 403.38 188.12 403.38L228.76 315.79L288.32 257.55C288.32 257.55 288.32 257.55 288.33 257.55L289.22 256.67L294.9 233.96L345.99 227.75C345.99 227.75 350.39 243.96 352.74 256.67C352.82 257.12 352.87 257.94 352.89 259.09C353.15 273.35 349.07 337.34 351.19 342.71C353.47 348.52 402.1 394.15 402.1 394.15C402.63 404.48 387.55 407.8 387.55 407.8Z" fill="#757575"/>
<mask id="mask1_91_748" style="mask-type:luminance" maskUnits="userSpaceOnUse" x="188" y="227" width="215" height="184">
<path d="M387.55 407.8C387.55 407.8 327.27 359.07 323.83 352.74C320.38 346.41 313.56 288.45 313.56 288.45C313.56 288.45 313.56 288.45 313.55 288.46C312.67 289.08 256.17 329.19 253.55 333.08C253.37 333.35 253 333.93 252.46 334.79C244.98 346.64 205.53 410.8 205.53 410.8C194.45 411.21 188.12 403.38 188.12 403.38L228.76 315.79L288.32 257.55C288.32 257.55 288.32 257.55 288.33 257.55L289.22 256.67L294.9 233.96L345.99 227.75C345.99 227.75 350.39 243.96 352.74 256.67C352.82 257.12 352.87 257.94 352.89 259.09C353.15 273.35 349.07 337.34 351.19 342.71C353.47 348.52 402.1 394.15 402.1 394.15C402.63 404.48 387.55 407.8 387.55 407.8Z" fill="white"/>
</mask>
<g mask="url(#mask1_91_748)">
<path opacity="0.3" d="M313.56 288.45C313.56 288.45 313.56 288.45 313.55 288.46C312.67 289.08 256.17 329.19 253.55 333.08C253.37 333.35 253 333.93 252.46 334.79C250.28 320.4 290.9 289.93 290.9 289.93L282.66 285.67L298.88 283.28C293.26 280.68 295.12 273.59 295.12 273.59L313.56 288.45Z" fill="black" fill-opacity="0.7"/>
<path opacity="0.3" d="M316.91 265.27L319.59 269.27C303.71 265.76 293.78 260.91 288.33 257.55L289.22 256.67L294.9 233.96L345.99 227.75C345.99 227.75 350.39 243.96 352.74 256.67C352.82 257.12 352.87 257.94 352.89 259.09C339.37 264.35 316.91 265.27 316.91 265.27Z" fill="black" fill-opacity="0.7"/>
</g>
<path d="M387.55 407.8C387.55 407.8 327.27 359.07 323.83 352.74C320.38 346.41 313.56 288.45 313.56 288.45C313.56 288.45 313.56 288.45 313.55 288.46C312.67 289.08 256.17 329.19 253.55 333.08C253.37 333.35 253 333.93 252.46 334.79C244.98 346.64 205.53 410.8 205.53 410.8C194.45 411.21 188.12 403.38 188.12 403.38L228.76 315.79L288.32 257.55C288.32 257.55 288.32 257.55 288.33 257.55L289.22 256.67L294.9 233.96L345.99 227.75C345.99 227.75 350.39 243.96 352.74 256.67C352.82 257.12 352.87 257.94 352.89 259.09C353.15 273.35 349.07 337.34 351.19 342.71C353.47 348.52 402.1 394.15 402.1 394.15C402.63 404.48 387.55 407.8 387.55 407.8Z" stroke="#263238" stroke-miterlimit="10" stroke-linecap="round" stroke-linejoin="round"/>
<path d="M358.4 183.21C355.54 199.3 344.06 218.93 344.06 218.93L346.76 227.34L353.97 249.83L314.56 261.57L307.39 248.1L300.78 260.59L287.36 255.21L288.46 249.55L291 236.45C290.94 235.71 290.89 234.93 290.83 234.13C289.18 209.79 289.35 159.84 312.08 128.12C312.08 128.12 345.82 132.82 358.17 170.55C359.32 174.07 359.23 178.49 358.4 183.21Z" fill="#999999"/>
<mask id="mask2_91_748" style="mask-type:luminance" maskUnits="userSpaceOnUse" x="287" y="128" width="73" height="134">
<path d="M358.4 183.21C355.54 199.3 344.06 218.93 344.06 218.93L346.76 227.34L353.97 249.83L314.56 261.57L307.39 248.1L300.78 260.59L287.36 255.21L288.46 249.55L291 236.45C290.94 235.71 290.89 234.93 290.83 234.13C289.18 209.79 289.35 159.84 312.08 128.12C312.08 128.12 345.82 132.82 358.17 170.55C359.32 174.07 359.23 178.49 358.4 183.21Z" fill="white"/>
</mask>
<g mask="url(#mask2_91_748)">
<path opacity="0.3" d="M344.06 218.93L346.76 227.34C340.04 233.55 331.94 241.06 331.17 242C330.18 243.21 302.55 247.45 288.46 249.55L291 236.45C290.94 235.71 290.89 234.93 290.83 234.13L348 187L358.4 183.21C355.54 199.3 344.06 218.93 344.06 218.93Z" fill="black" fill-opacity="0.7"/>
</g>
<path d="M358.4 183.21C355.54 199.3 344.06 218.93 344.06 218.93L346.76 227.34L353.97 249.83L314.56 261.57L307.39 248.1L300.78 260.59L287.36 255.21L288.46 249.55L291 236.45C290.94 235.71 290.89 234.93 290.83 234.13C289.18 209.79 289.35 159.84 312.08 128.12C312.08 128.12 345.82 132.82 358.17 170.55C359.32 174.07 359.23 178.49 358.4 183.21Z" stroke="#263238" stroke-miterlimit="10" stroke-linecap="round" stroke-linejoin="round"/>
<path d="M304.693 192.497C304.693 192.497 360.009 147.676 339.592 140.636C321.201 134.294 297.703 148.556 304.693 192.497Z" fill="#92E3A9" stroke="#263238" stroke-miterlimit="10" stroke-linecap="round" stroke-linejoin="round"/>
<path d="M324.514 156.652L316.912 159.938C316.912 159.938 310.903 174.062 309.495 190.819L303.628 198.231L301.985 190.819C301.985 190.819 304.847 168.386 314.563 159.234L316.912 150.317L326.085 145.624L324.514 156.652Z" fill="#263238"/>
<path d="M305.271 189.663C305.271 189.663 348.92 159.116 338.853 138.66C338.853 138.66 350.796 138.347 345.751 167.681L331.172 171.926L335.239 180.082C335.239 180.082 318.818 183.405 303.629 198.231L297.704 163.341L301.987 160.173L299.472 154.814C299.472 154.814 314.565 137.997 329.038 139.415C329.038 139.415 311.844 146.562 307.385 160.173C302.924 173.783 305.271 189.663 305.271 189.663Z" fill="#BFBFBF" stroke="#263238" stroke-miterlimit="10" stroke-linecap="round" stroke-linejoin="round"/>
<path d="M330.282 137.634C330.282 137.634 316.868 141.681 310.884 154.901L318.094 152.232L318.819 154.464L322.428 155.948V163.34C322.428 163.34 343.078 153.985 343.123 146.407C343.134 144.257 337.963 134.164 330.282 137.634Z" fill="#92E3A9" stroke="#263238" stroke-miterlimit="10" stroke-linecap="round" stroke-linejoin="round"/>
<path d="M343.42 126.27C338.18 134.68 341.65 144.97 341.65 144.97C341.65 144.97 326.02 156.63 321.1 153.39C321.1 153.39 321.39 149.15 320.87 143.34C320.64 140.75 320.25 137.84 319.59 134.86C319.59 134.86 321.25 133.89 323.7 132.53C331.51 128.19 347.42 119.87 343.42 126.27Z" fill="white" stroke="#263238" stroke-miterlimit="10" stroke-linecap="round" stroke-linejoin="round"/>
<path d="M242.224 265.97C242.709 265.588 243.191 265.097 243.586 264.609C243.929 264.181 244.207 263.761 244.365 263.411C244.6 262.895 245.232 262.084 245.954 261.249C246.194 260.978 246.441 260.698 246.688 260.429C247.576 259.45 248.442 258.576 248.744 258.277C248.816 258.203 248.856 258.164 248.856 258.164C249.665 257.604 250.334 257.108 250.906 256.65C252.653 255.246 253.445 254.206 254.257 252.699C255.337 250.714 252.258 245.487 250.589 243.502C250.157 242.987 249.508 242.492 248.705 242.087C247.847 241.654 246.814 241.322 245.665 241.162C244.661 241.021 243.568 241.01 242.416 241.183C241.486 241.324 240.479 241.363 239.49 241.337C238.832 241.324 238.176 241.278 237.563 241.224C235.438 241.022 233.776 240.647 233.776 240.647C233.776 240.647 232.419 242.206 234.115 243.18C234.549 243.431 235.07 243.595 235.616 243.722C236.515 243.921 237.478 244.006 238.237 244.126C238.832 244.22 239.296 244.342 239.5 244.56C239.625 244.698 239.738 244.842 239.822 244.993C239.822 244.993 239.828 245.006 239.859 245.029C239.895 245.086 239.927 245.145 239.959 245.205C240.144 245.558 240.247 245.947 240.243 246.312C240.243 246.486 240.217 246.65 240.161 246.806C240.16 246.838 240.147 246.891 240.119 246.935C240.068 247.042 240.012 247.151 239.939 247.258C239.637 247.741 239.161 248.235 238.586 248.72L238.582 248.722C237.874 249.32 237.015 249.897 236.152 250.418L236.148 250.42C235.828 250.607 235.507 250.793 235.194 250.961C234.273 251.471 233.404 251.885 232.763 252.153C232.17 252.4 231.533 252.677 230.912 252.978C230.309 253.261 229.727 253.565 229.2 253.877C227.667 254.789 226.674 255.779 227.518 256.612C228.279 257.367 228.874 257.078 230.289 256.418C230.785 256.189 231.377 255.917 232.106 255.624C233.119 255.225 234.392 254.797 236.054 254.415C236.058 254.413 236.058 254.413 236.058 254.413C236.227 254.368 236.404 254.33 236.586 254.29L236.959 254.894C237.091 254.871 236.922 255.079 236.53 255.434C236.526 255.436 236.526 255.436 236.526 255.436C235.892 256.011 234.671 256.972 233.201 257.967C232.679 258.324 232.118 258.687 231.544 259.036C231.03 259.352 230.501 259.659 229.973 259.945C227.348 261.372 229.154 262.696 230.185 262.698C230.787 262.705 231.853 262.097 233.016 261.389C233.581 261.045 234.168 260.68 234.732 260.347C235.015 260.182 235.291 260.026 235.559 259.884C236.663 259.291 237.799 258.663 238.585 258.229C238.695 258.169 238.795 258.113 238.888 258.061L239.642 258.625C239.556 258.748 239.467 258.867 239.381 258.979C239.377 258.981 239.377 258.981 239.372 258.983C238.414 260.261 237.557 261.169 236.827 261.856C236.188 262.455 235.646 262.883 235.237 263.236C234.458 263.898 234.125 264.29 234.405 265.025C234.718 265.846 235.835 265.631 237.003 265.029C237.924 264.555 238.877 263.836 239.497 263.183L239.501 263.181C239.64 263.034 239.759 262.891 239.861 262.756C240.287 262.186 240.986 261.581 241.954 260.849C242.1 260.741 242.259 260.627 242.416 260.509L243.164 260.629C243.04 260.879 242.911 261.116 242.784 261.337C242.78 261.339 242.782 261.343 242.782 261.343C242.3 262.207 241.826 262.904 241.409 263.482L241.405 263.484C240.89 264.195 240.464 264.729 240.225 265.178C239.978 265.631 239.927 265.996 240.169 266.37C240.554 266.95 241.385 266.627 242.224 265.97Z" fill="white" stroke="#263238" stroke-miterlimit="10" stroke-linecap="round" stroke-linejoin="round"/>
<path d="M248.163 243.402L262.369 238.569L266.04 247.751L254.049 251.726" fill="white"/>
<path d="M248.163 243.402L262.369 238.569L266.04 247.751L254.049 251.726" stroke="#263238" stroke-miterlimit="10" stroke-linecap="round" stroke-linejoin="round"/>
<path d="M263.46 236.45L253.218 240.357L257.586 251.467L267.295 249.268L263.46 236.45Z" fill="#92E3A9" stroke="#263238" stroke-miterlimit="10" stroke-linecap="round" stroke-linejoin="round"/>
<path d="M356.895 171.926C356.895 171.926 350.152 169.201 341.522 174.047C336.236 177.014 309.912 218.141 310.884 216.263L256.919 237.35L262.454 252.823C262.454 252.823 319.176 238.454 323.767 234.959C328.358 231.464 352.441 205.998 357.866 184.571" fill="#999999"/>
<path d="M356.895 171.926C356.895 171.926 350.152 169.201 341.522 174.047C336.236 177.014 309.912 218.141 310.884 216.263L256.919 237.35L262.454 252.823C262.454 252.823 319.176 238.454 323.767 234.959C328.358 231.464 352.441 205.998 357.866 184.571" stroke="#263238" stroke-miterlimit="10" stroke-linecap="round" stroke-linejoin="round"/>
<path d="M298.879 276.374C298.879 276.374 315.172 285.341 323.773 293.517" stroke="#263238" stroke-miterlimit="10" stroke-linecap="round" stroke-linejoin="round"/>
<path d="M344.115 254.003C343.978 254.22 343.451 263.036 348.725 266.672" stroke="#263238" stroke-miterlimit="10" stroke-linecap="round" stroke-linejoin="round"/>
<path d="M348.725 251.726C348.725 251.726 351.626 253.429 349.78 279.275C347.934 305.121 346.993 341.517 346.993 341.517C346.993 341.517 347.844 344.946 350.394 347.583C352.944 350.22 394.087 390.366 394.087 390.366" stroke="#263238" stroke-miterlimit="10" stroke-linecap="round" stroke-linejoin="round"/>
<path d="M311.326 284.945C311.326 284.945 298.002 287.45 287.364 285.868" stroke="#263238" stroke-miterlimit="10" stroke-linecap="round" stroke-linejoin="round"/>
<path d="M307.392 286.392C307.392 286.392 254.836 329.912 244.286 333.604" stroke="#263238" stroke-miterlimit="10" stroke-linecap="round" stroke-linejoin="round"/>
<path d="M248.163 331.654L212.901 391.626" stroke="#263238" stroke-miterlimit="10" stroke-linecap="round" stroke-linejoin="round"/>
<path d="M311.011 254.901C311.011 254.901 308.783 267.67 307.392 269.78C306 271.89 309.202 279.274 309.202 279.274" stroke="#263238" stroke-miterlimit="10" stroke-linecap="round" stroke-linejoin="round"/>
<path d="M307.392 254.901C307.392 254.901 305.737 262.659 305.209 264.505C304.682 266.351 307.392 267.087 307.392 267.087" stroke="#263238" stroke-miterlimit="10" stroke-linecap="round" stroke-linejoin="round"/>
<path d="M301.985 201.209C301.985 201.209 300.197 212.286 300.725 217.561Z" fill="#BFBFBF"/>
<path d="M301.985 201.209C301.985 201.209 300.197 212.286 300.725 217.561" stroke="#263238" stroke-miterlimit="10" stroke-linecap="round" stroke-linejoin="round"/>
<path d="M348.725 196.725C348.725 196.725 339.463 203.582 331.171 203.318" stroke="#263238" stroke-miterlimit="10" stroke-linecap="round" stroke-linejoin="round"/>
<path d="M310.883 216.263C310.883 216.263 314.638 219.143 316.912 217.56" stroke="#263238" stroke-miterlimit="10" stroke-linecap="round" stroke-linejoin="round"/>
<path d="M344.058 218.933C344.058 218.933 338.967 221.781 337.912 224.682" stroke="#263238" stroke-miterlimit="10" stroke-linecap="round" stroke-linejoin="round"/>
<path d="M335.24 134.42C335.24 134.42 328.86 141.15 320.87 143.34C320.64 140.75 320.25 137.84 319.59 134.86C319.59 134.86 321.25 133.89 323.7 132.53L335.24 134.42Z" fill="#263238"/>
<path d="M337.301 135.918C330.849 139.502 323.544 140.763 316.805 137.633C314.423 136.527 313.265 122.184 316.805 109.508C322.522 89.0391 339.069 88.3571 352.398 100.532C359.445 106.968 355.12 119.768 346.291 128.924" fill="white"/>
<path d="M337.301 135.918C330.849 139.502 323.544 140.763 316.805 137.633C314.423 136.527 313.265 122.184 316.805 109.508C322.522 89.0391 339.069 88.3571 352.398 100.532C359.445 106.968 355.12 119.768 346.291 128.924" stroke="#263238" stroke-miterlimit="10" stroke-linecap="round" stroke-linejoin="round"/>
<path d="M327.105 110.775C327.105 110.775 332.644 109.988 335.239 115.96" stroke="#263238" stroke-miterlimit="10" stroke-linecap="round" stroke-linejoin="round"/>
<path d="M321.097 108.201C321.097 108.201 320.24 105.717 318.093 105.671" stroke="#263238" stroke-miterlimit="10" stroke-linecap="round" stroke-linejoin="round"/>
<path d="M317.83 122.577C317.83 122.577 315.276 119.933 316.078 118.429C316.905 116.878 317.69 117.821 319.595 116.489C321.578 115.102 321.714 113.029 321.714 113.029" fill="white"/>
<path d="M317.83 122.577C317.83 122.577 315.276 119.933 316.078 118.429C316.905 116.878 317.69 117.821 319.595 116.489C321.578 115.102 321.714 113.029 321.714 113.029" stroke="#263238" stroke-miterlimit="10" stroke-linecap="round" stroke-linejoin="round"/>
<path d="M329.71 118.281C329.451 118.943 328.939 119.362 328.567 119.216C328.195 119.07 328.102 118.416 328.361 117.753C328.62 117.091 329.132 116.672 329.504 116.818C329.877 116.964 329.969 117.619 329.71 118.281Z" fill="#263238"/>
<path d="M320.269 113.615C320.01 114.277 319.498 114.696 319.126 114.55C318.753 114.404 318.661 113.749 318.92 113.087C319.179 112.425 319.691 112.006 320.063 112.152C320.436 112.298 320.528 112.952 320.269 113.615Z" fill="#263238"/>
<path d="M316.912 125.742C316.912 125.742 322.169 128.156 326.085 128.21C326.085 128.21 324.1 132.448 320.667 132.072C317.234 131.696 317.985 126.976 317.985 126.976" stroke="#263238" stroke-miterlimit="10" stroke-linecap="round" stroke-linejoin="round"/>
<path d="M341.266 104.016C341.266 104.016 335.631 99.4881 323.241 97.4071C323.241 97.4071 323.296 89.8551 326.085 87.1191C328.874 84.3831 331.171 90.0161 331.171 90.0161C331.171 90.0161 338.208 88.0851 350.6 96.6141C362.992 105.143 357.072 124.875 341.364 133.275L341.266 129.927C341.266 129.927 341.427 123.007 338.852 121.72C338.852 121.72 340.783 116.731 338.691 113.03C336.599 109.327 341.266 104.016 341.266 104.016Z" fill="#263238"/>
<path d="M338.852 124.133C338.852 124.133 343.358 118.661 347.059 120.593C350.76 122.524 342.553 134.265 338.852 132.096" fill="white"/>
<path d="M338.852 124.133C338.852 124.133 343.358 118.661 347.059 120.593C350.76 122.524 342.553 134.265 338.852 132.096" stroke="#263238" stroke-miterlimit="10" stroke-linecap="round" stroke-linejoin="round"/>
</svg>
