<svg width="121" height="201" viewBox="0 0 121 201" fill="none" xmlns="http://www.w3.org/2000/svg">
<path d="M6.48091 46.4549C6.31791 47.0749 5.1879 50.5209 5.8379 51.2799C6.4889 52.0389 11.1199 53.1159 11.1199 53.1159C11.1199 53.1159 22.3579 77.2889 26.1069 81.2929C28.6009 83.9569 32.4039 84.4219 35.4399 80.9369C36.6019 79.6049 37.6469 77.6989 38.4679 75.1199C39.6139 71.5339 40.3729 68.8929 40.8769 67.0109C41.6899 63.9829 41.8449 62.8749 41.8449 62.8749L33.5579 60.0709L32.4429 63.2699L30.9089 67.6919L29.6229 71.3709C29.6229 71.3709 16.6579 50.8699 16.3559 49.7619C16.0539 48.6539 16.6189 42.0939 15.2559 41.5829C13.8849 41.0639 13.2269 45.8189 13.2269 45.8189C13.2269 45.8189 2.07391 41.1559 0.385907 41.1869C-1.30309 41.2199 6.65191 45.8359 6.48091 46.4549Z" fill="#F4D7D7"/>
<path d="M30.9087 67.692C33.6117 70.356 35.4167 76.808 35.4397 80.936C36.6017 79.604 37.6467 77.698 38.4677 75.119C39.6137 71.533 40.3727 68.892 40.8767 67.01L32.4427 63.269L30.9087 67.692Z" fill="url(#paint0_linear_88_285)"/>
<path d="M82.9499 189.359C84.2019 191.534 97.5829 198.258 97.9129 200.828H77.6769L77.1499 191.27L82.9499 189.359Z" fill="url(#paint1_linear_88_285)"/>
<path d="M34.881 189.359C33.629 191.534 20.248 198.258 19.918 200.828H40.154L40.681 191.27L34.881 189.359Z" fill="url(#paint2_linear_88_285)"/>
<path d="M30.9462 189.36C31.2092 190.413 41.8822 193.186 42.9432 191.072C43.4462 190.065 45.5302 174.916 47.5752 159.402C49.7982 142.471 51.9672 125.091 51.9672 125.091L60.8662 153.763C60.8662 153.763 63.6392 163.917 74.9772 193.186C81.4362 193.186 86.9742 188.438 87.3692 187.78C87.7642 187.122 81.2352 156.536 77.0842 140.914C74.9932 133.045 73.4282 122.883 72.3902 114.751C71.6542 109.012 71.1902 104.272 70.9802 102.049C70.9342 101.592 70.9032 101.244 70.8872 101.011C70.8642 100.787 70.8562 100.67 70.8562 100.67L66.7592 99.679L51.2462 95.907H44.7872C44.7872 95.907 36.3452 96.023 35.1522 100.67C35.1132 100.825 35.0672 101.08 35.0202 101.413C34.9662 101.823 34.9042 102.366 34.8422 103.024C33.4862 117.478 30.6982 188.392 30.9462 189.36Z" fill="url(#paint3_linear_88_285)"/>
<path opacity="0.25" d="M34.8418 103.025C37.0258 104.636 40.3018 103.397 48.4728 103.01C59.6178 102.483 58.3628 104.001 70.1198 104.791L70.8868 101.011C70.8638 100.787 70.8558 100.67 70.8558 100.67L66.7588 99.679L51.2458 95.907H44.7868C44.7868 95.907 36.3448 96.023 35.1518 100.67C35.1128 100.825 35.0668 101.08 35.0198 101.413C34.9648 101.825 34.9038 102.367 34.8418 103.025Z" fill="black"/>
<path opacity="0.25" d="M64.7221 102.615C64.9231 103.211 66.7671 103.537 66.7671 103.537C66.7671 103.537 65.0481 109.137 65.8531 110.19C66.5961 111.158 69.5091 115.379 72.3901 114.752C71.6541 109.013 71.1901 104.273 70.9801 102.05C71.6771 101.856 72.0951 101.508 72.1421 100.966C72.2271 99.959 72.1811 98.79 72.0721 97.512C72.0411 97.132 72.0021 96.738 71.9561 96.335C69.9271 97.443 69.6641 97.001 67.4951 98.992C67.2241 99.24 66.9841 99.464 66.7591 99.681C65.5351 100.843 64.9471 101.54 64.7611 102.035C64.6761 102.266 64.6681 102.444 64.7221 102.615Z" fill="black"/>
<path d="M47.551 140.449C47.799 147.745 47.721 154.429 47.574 159.401C49.797 142.47 51.966 125.09 51.966 125.09C51.966 125.09 48.078 111.838 47.551 112.101C47.025 112.374 47.04 125.292 47.551 140.449Z" fill="url(#paint4_linear_88_285)"/>
<path d="M75.8618 68.637C75.8618 68.637 75.8848 68.684 75.9388 68.784C76.2638 69.442 77.6588 72.238 79.3078 75.569C80.3998 77.776 81.5928 80.208 82.6688 82.408C85.5888 88.403 89.3378 89.673 92.7068 87.349C96.0758 85.025 106.276 59.211 106.276 59.211C106.276 59.211 120.357 52.744 120.357 51.869C120.326 51.009 115.942 52.729 115.942 52.729C115.942 52.729 116.391 49.654 115.532 49.67C114.665 49.678 113.766 52.807 113.247 52.915C112.72 53.031 106.114 54.247 106.114 54.247C106.114 54.247 106.37 53.263 106.509 52.365C106.648 51.467 106.726 48.198 105.378 50.444C104.03 52.69 101.931 56.508 101.931 56.508L89.8178 74.786L87.5948 68.768L86.2238 65.05L76.6428 68.365L75.8618 68.637Z" fill="#F4D7D7"/>
<path d="M75.939 68.784C76.264 69.442 77.659 72.238 79.308 75.569C82.174 73.594 86.372 70.535 87.595 68.769L86.224 65.051L76.643 68.366L75.939 68.784Z" fill="url(#paint5_linear_88_285)"/>
<path d="M33.4551 67.8239C36.0031 69.4039 37.8311 70.6659 37.8311 70.6659C37.8311 70.6659 37.6221 72.3779 37.3121 74.9879C37.1731 76.1499 37.0181 77.4899 36.8471 78.9379C36.7231 80.0449 36.5841 81.2069 36.4521 82.4079C36.3051 83.7009 36.1581 85.0339 36.0111 86.3659C35.8871 87.5359 35.7631 88.6969 35.6471 89.8279C35.5001 91.2069 35.3681 92.5469 35.2521 93.7859C34.8881 97.7279 34.6871 100.718 34.8651 101.167C34.9041 101.26 34.9581 101.337 35.0201 101.415C36.0581 102.569 40.7051 101.988 48.4111 100.966C52.9501 100.37 59.6411 101.493 64.7611 102.035C64.7921 102.035 64.8311 102.043 64.8621 102.043C65.4581 102.097 66.0241 102.151 66.5741 102.19C67.0081 102.229 67.4262 102.252 67.8212 102.267C69.1382 102.321 70.2221 102.275 70.9811 102.05C71.6781 101.856 72.0961 101.508 72.1431 100.966C72.2281 99.9589 72.1821 98.7899 72.0731 97.5119C72.0421 97.1319 72.0031 96.7379 71.9571 96.3349C71.8801 95.5139 71.7791 94.6539 71.6781 93.7869C71.5231 92.4779 71.3841 91.1379 71.3061 89.8289C71.2591 89.0079 71.2362 88.203 71.2522 87.42C71.2602 87.118 71.2681 86.7619 71.2831 86.3669C71.3141 85.3139 71.3681 83.9429 71.4221 82.4089C71.4691 81.3169 71.5151 80.1469 71.5691 78.9389C71.5921 78.3579 71.6231 77.7619 71.6461 77.1729C71.6771 76.4449 71.7082 75.709 71.7392 74.989C71.9712 69.947 72.1881 65.424 72.1881 65.424C72.1881 65.424 76.5871 73.084 76.9821 73.084C77.5161 72.976 78.0511 72.8279 78.5771 72.6659C82.1321 71.5269 85.5401 69.243 87.3831 67.67C88.3121 66.872 88.8471 66.2599 88.8001 66.0669C88.6531 65.4239 85.8801 59.4909 83.4561 54.6429C81.0401 49.8019 78.2201 45.4959 76.3931 44.1789C75.0691 43.2189 69.4921 40.9419 66.5411 39.7639C65.4261 39.3229 64.4421 38.9739 64.4421 38.9739L61.5611 39.6629L50.6171 38.1219C50.6171 38.1219 49.3081 38.3539 48.1001 38.6329C45.4901 39.2219 41.2071 40.283 40.1691 41.049C38.6511 42.172 34.4691 52.6199 30.0151 65.7709C31.2321 66.4599 32.4101 67.1729 33.4551 67.8239Z" fill="url(#paint6_linear_88_285)"/>
<path d="M68.0601 60.168C68.1531 60.602 70.4841 71.112 71.6461 78.942C71.9021 73.102 72.188 67.193 72.188 67.193L68.0601 60.168Z" fill="url(#paint7_linear_88_285)"/>
<path opacity="0.25" d="M35.252 93.785H71.677C71.522 92.476 71.3829 91.136 71.3049 89.827H35.646C35.5 91.206 35.368 92.546 35.252 93.785Z" fill="white"/>
<path opacity="0.25" d="M36.0107 86.365H71.2818C71.3128 85.312 71.3667 83.941 71.4207 82.407H36.4517C36.3047 83.701 36.1577 85.033 36.0107 86.365Z" fill="white"/>
<path opacity="0.25" d="M36.8481 78.938H71.5691C71.5921 78.357 71.6231 77.761 71.6461 77.172C71.6771 76.444 71.7082 75.708 71.7392 74.988H37.3121C37.1731 76.15 37.0181 77.49 36.8481 78.938Z" fill="white"/>
<path d="M48.1011 38.632C48.5271 42.443 50.3161 46.323 55.8381 46.517C63.8161 46.803 65.9691 42.273 66.5421 39.763C65.4271 39.322 64.4441 38.973 64.4441 38.973L61.5611 39.663L50.6191 38.121C50.6191 38.121 49.3091 38.353 48.1011 38.632Z" fill="url(#paint8_linear_88_285)"/>
<path d="M33.4551 67.8239C36.0031 69.4039 37.8311 70.6659 37.8311 70.6659C39.4571 54.8119 41.3631 49.9559 41.4791 49.6689C41.2471 50.1109 35.8101 60.3489 33.4551 67.8239Z" fill="url(#paint9_linear_88_285)"/>
<path d="M50.6201 38.15C50.6201 38.15 51.4381 43.726 57.3301 43.851C63.2221 43.976 64.4451 38.96 64.4451 38.96L63.6721 38.651L61.4701 37.775C61.4701 37.775 61.3451 36.722 61.2931 35.219C61.2491 33.856 61.2561 32.125 61.4701 30.468L52.8161 31.845C53.1031 32.802 53.1841 34.033 53.1841 35.145C53.1841 36.729 53.0071 38.084 53.0071 38.084L51.5711 38.121L50.6201 38.15Z" fill="#F4D7D7"/>
<path d="M52.8149 31.845C53.1019 32.802 53.1829 34.033 53.1829 35.145C54.9329 36.969 59.2339 37.399 61.3849 36.877C61.3409 35.514 61.2549 32.126 61.4689 30.468L52.8149 31.845Z" fill="url(#paint10_linear_88_285)"/>
<path d="M45.199 14.359C49.574 16.944 57.47 19.154 57.47 19.154L62.162 22.159L62.317 22.255L65.138 23.154H67.532C69.322 19.39 70.868 16.054 67.112 14.691C67.281 14.419 67.436 14.139 67.569 13.859C69.477 10.007 68.475 5.46299 62.737 4.62999C56.58 3.73099 50.231 2.41998 48.92 1.14598C47.601 -0.121023 47.034 3.73097 48.073 5.47697C45.296 3.78297 43.278 2.27999 42.52 4.39399C41.767 6.50799 40.832 11.774 45.199 14.359Z" fill="#30354A"/>
<path d="M49.793 14.548C42.224 11.724 42.929 5.20801 42.929 5.20801C42.929 5.20801 40.782 12.025 47.411 15.3" fill="#242837"/>
<path d="M62.1611 22.159L62.3161 22.255L65.1371 23.154H67.5311C69.3211 19.39 70.8671 16.054 67.1111 14.691C67.2511 14.426 67.3691 14.168 67.4721 13.918C68.8791 10.368 66.5291 8.01096 66.4191 7.90796C66.5151 8.17996 67.7301 11.723 66.1171 14.559C66.0291 14.596 65.9401 14.625 65.8591 14.647C66.3601 12.894 66.3231 9.96998 65.6531 9.25598C65.7121 11.171 65.0641 13.381 64.4231 14.957C64.2761 14.972 64.1951 14.972 64.1951 14.972L62.1921 21.019L62.1611 22.159Z" fill="#242837"/>
<path d="M67.1108 14.691C67.2798 14.419 67.4348 14.139 67.5678 13.859C67.5388 13.881 67.5018 13.896 67.4718 13.918C67.3688 14.168 67.2508 14.426 67.1108 14.691Z" fill="#242837"/>
<path d="M45.1989 20.5679C45.5749 22.4459 45.5159 23.5139 45.4859 25.5769C45.4489 27.6469 47.5109 34.8279 54.6119 34.9229C61.7199 35.0109 64.1939 28.0219 64.7619 25.5469C64.7619 25.5469 65.5719 27.271 67.4209 26.519C69.2699 25.768 69.8959 21.223 67.5459 20.502C65.1969 19.78 65.5719 22.292 64.7909 22.225C64.4669 22.203 64.2089 21.5919 64.0179 20.7959C64.0179 20.7889 64.0179 20.789 64.0109 20.781C63.7389 19.654 63.5979 18.1589 63.5979 17.4299C63.5979 16.1779 64.1949 14.9699 64.1949 14.9699C64.1509 14.9769 64.1069 14.985 64.0619 14.992C60.3129 15.677 51.9089 14.263 49.1839 14.204C46.4219 14.138 45.1989 14.359 45.1989 14.359C45.1989 14.359 45.1839 14.558 45.1619 14.889C45.0739 16.098 44.9049 19.0879 45.1989 20.5679Z" fill="#F4D7D7"/>
<path d="M56.8981 22.8119C56.8981 22.8119 55.7611 21.5899 54.3931 22.5549" stroke="#30354A" stroke-width="0.3873" stroke-miterlimit="10" stroke-linecap="round" stroke-linejoin="round"/>
<path d="M49.1681 22.8119C49.1681 22.8119 48.0311 21.5899 46.6631 22.5549" stroke="#30354A" stroke-width="0.3873" stroke-miterlimit="10" stroke-linecap="round" stroke-linejoin="round"/>
<path d="M66.5698 22.8919C66.7108 22.2669 67.9108 22.4659 67.6308 23.8719C67.3508 25.2789 66.1818 24.6079 66.5698 22.8919Z" fill="url(#paint11_linear_88_285)"/>
<path d="M67.2339 21.85C66.3249 22.634 66.1679 24.592 66.7799 25.188" stroke="#C66D8C" stroke-width="0.3683" stroke-miterlimit="10" stroke-linecap="round" stroke-linejoin="round"/>
<path d="M51.7202 21.318C51.5322 23.7 51.2191 24.828 51.2191 24.828C51.2191 24.828 49.7461 24.17 49.7151 25.768C49.6841 27.366 52.0341 26.74 52.0341 26.74" stroke="#C66D8C" stroke-width="0.3683" stroke-miterlimit="10" stroke-linecap="round" stroke-linejoin="round"/>
<path d="M57.4442 19.3079C57.4442 19.3079 56.1652 18.1479 54.6152 18.9949" stroke="#30354A" stroke-width="0.6525" stroke-miterlimit="10" stroke-linecap="round" stroke-linejoin="round"/>
<path d="M46.3262 19.2289C46.3262 19.2289 47.6682 18.1419 49.1682 19.0739" stroke="#30354A" stroke-width="0.6525" stroke-miterlimit="10" stroke-linecap="round" stroke-linejoin="round"/>
<path d="M50.8701 29.385C50.9071 29.613 50.9661 29.827 51.0541 30.026C51.2451 30.505 51.5621 30.917 51.9531 31.212C52.0121 31.271 52.0861 31.315 52.1521 31.359C52.6971 31.727 53.3671 31.889 54.0521 31.771C54.9211 31.624 55.6281 31.079 56.0111 30.335C56.1441 30.092 56.2321 29.827 56.2831 29.547C56.3201 29.392 56.3351 29.223 56.3351 29.061C56.3501 28.877 56.3351 28.693 56.3051 28.501L50.8701 29.385Z" fill="#8B2968"/>
<path d="M52.1519 31.359C52.6969 31.727 53.3669 31.8889 54.0519 31.7709C55.2079 31.5799 56.0699 30.6739 56.2839 29.5469C55.9079 29.5249 55.5029 29.5399 55.0829 29.6059C53.5959 29.8339 52.4319 30.571 52.1519 31.359Z" fill="#D63D80"/>
<path d="M45.1621 14.8899C50.0161 13.6309 60.1361 17.4379 62.2201 16.7609C62.2641 18.0279 63.2001 18.4989 64.0101 20.7829C63.7381 19.6559 63.5971 18.1609 63.5971 17.4319C63.5971 16.1799 64.1941 14.9719 64.1941 14.9719C64.1501 14.9789 64.1061 14.9869 64.0611 14.9939C60.3121 15.6789 51.9081 14.2649 49.1831 14.2059C46.4211 14.1399 45.1981 14.3609 45.1981 14.3609C45.1981 14.3609 45.1841 14.5579 45.1621 14.8899Z" fill="url(#paint12_linear_88_285)"/>
<path d="M50.6201 38.15C50.6201 38.15 51.4381 43.726 57.3301 43.851C63.2221 43.976 64.4451 38.96 64.4451 38.96L63.6721 38.651C62.4571 40.964 61.5291 43.217 56.2851 42.695C52.6461 42.327 51.7481 39.83 51.5711 38.121L50.6201 38.15Z" fill="url(#paint13_linear_88_285)"/>
<path d="M89.8181 74.7889C89.8181 74.7889 88.0591 75.8249 87.9111 77.7029" stroke="#C66D8C" stroke-width="0.3683" stroke-miterlimit="10" stroke-linecap="round" stroke-linejoin="round"/>
<path d="M29.625 71.3719C30.878 73.5499 30.977 75.6919 30.977 75.6919" stroke="#C66D8C" stroke-width="0.3683" stroke-miterlimit="10" stroke-linecap="round" stroke-linejoin="round"/>
<path d="M6.48079 46.455C9.87479 46.755 11.5058 47.348 11.5058 48.288C11.5058 49.228 8.99379 48.609 8.99379 48.609C8.99379 48.609 11.1848 49.548 11.1608 50.191C11.1358 50.834 8.99379 50.438 8.99379 50.438C8.99379 50.438 11.4298 50.942 10.8388 51.921C10.2478 52.9 6.17979 51.89 5.71579 51.041C5.25179 50.192 6.17679 46.897 6.48079 46.455Z" fill="url(#paint14_linear_88_285)"/>
<defs>
<linearGradient id="paint0_linear_88_285" x1="48.536" y1="85.1629" x2="-38.2439" y2="-8.40529" gradientUnits="userSpaceOnUse">
<stop stop-color="#EEBDCA"/>
<stop offset="1" stop-color="#C66D8C"/>
</linearGradient>
<linearGradient id="paint1_linear_88_285" x1="77.9306" y1="163.002" x2="85.0495" y2="190.291" gradientUnits="userSpaceOnUse">
<stop stop-color="#65587A"/>
<stop offset="1" stop-color="#4F4367"/>
</linearGradient>
<linearGradient id="paint2_linear_88_285" x1="39.9006" y1="163.002" x2="32.7817" y2="190.291" gradientUnits="userSpaceOnUse">
<stop stop-color="#65587A"/>
<stop offset="1" stop-color="#4F4367"/>
</linearGradient>
<linearGradient id="paint3_linear_88_285" x1="54.4142" y1="152.339" x2="-7.28293" y2="23.8031" gradientUnits="userSpaceOnUse">
<stop stop-color="#65587A"/>
<stop offset="1" stop-color="#4F4367"/>
</linearGradient>
<linearGradient id="paint4_linear_88_285" x1="60.0642" y1="172.679" x2="42.465" y2="120.078" gradientUnits="userSpaceOnUse">
<stop stop-color="#65587A"/>
<stop offset="1" stop-color="#4F4367"/>
</linearGradient>
<linearGradient id="paint5_linear_88_285" x1="88.742" y1="76.7529" x2="41.9747" y2="26.3274" gradientUnits="userSpaceOnUse">
<stop stop-color="#EEBDCA"/>
<stop offset="1" stop-color="#C66D8C"/>
</linearGradient>
<linearGradient id="paint6_linear_88_285" x1="58.8917" y1="13.5329" x2="60.0793" y2="133.47" gradientUnits="userSpaceOnUse">
<stop stop-color="#CAB4FB"/>
<stop offset="1" stop-color="#6E38EA"/>
</linearGradient>
<linearGradient id="paint7_linear_88_285" x1="64.0973" y1="15.9935" x2="73.0618" y2="86.919" gradientUnits="userSpaceOnUse">
<stop stop-color="#CAB4FB"/>
<stop offset="1" stop-color="#6E38EA"/>
</linearGradient>
<linearGradient id="paint8_linear_88_285" x1="61.1655" y1="2.78389" x2="53.6187" y2="74.2802" gradientUnits="userSpaceOnUse">
<stop stop-color="#CAB4FB"/>
<stop offset="1" stop-color="#6E38EA"/>
</linearGradient>
<linearGradient id="paint9_linear_88_285" x1="45.6481" y1="20.0414" x2="33.5854" y2="79.3654" gradientUnits="userSpaceOnUse">
<stop stop-color="#CAB4FB"/>
<stop offset="1" stop-color="#6E38EA"/>
</linearGradient>
<linearGradient id="paint10_linear_88_285" x1="65.8014" y1="51.1892" x2="41.096" y2="-2.39711" gradientUnits="userSpaceOnUse">
<stop stop-color="#EEBDCA"/>
<stop offset="1" stop-color="#C66D8C"/>
</linearGradient>
<linearGradient id="paint11_linear_88_285" x1="59.7985" y1="19.4008" x2="78.6978" y2="30.308" gradientUnits="userSpaceOnUse">
<stop offset="1.4e-07" stop-color="#F4D7D7"/>
<stop offset="1" stop-color="#C66D8C"/>
</linearGradient>
<linearGradient id="paint12_linear_88_285" x1="53.3894" y1="23.1031" x2="59.4071" y2="-4.28988" gradientUnits="userSpaceOnUse">
<stop stop-color="#EEBDCA"/>
<stop offset="1" stop-color="#C66D8C"/>
</linearGradient>
<linearGradient id="paint13_linear_88_285" x1="61.0898" y1="35.0323" x2="37.9597" y2="61.1086" gradientUnits="userSpaceOnUse">
<stop stop-color="#EEBDCA"/>
<stop offset="1" stop-color="#C66D8C"/>
</linearGradient>
<linearGradient id="paint14_linear_88_285" x1="1.99839" y1="44.5941" x2="37.5928" y2="70.9603" gradientUnits="userSpaceOnUse">
<stop stop-color="#EEBDCA"/>
<stop offset="1" stop-color="#C66D8C"/>
</linearGradient>
</defs>
</svg>
