<svg width="257" height="234" viewBox="0 0 257 234" fill="none" xmlns="http://www.w3.org/2000/svg">
<path d="M182.509 3.43719V229.94C182.509 231.804 181.085 233.252 179.309 233.252H78.862C78.0597 233.252 77.363 232.937 76.8534 232.403C76.3213 231.86 75.9988 231.089 75.9988 230.216V3.16139C75.9988 1.68228 77.0406 0.38501 78.45 0.38501H106.977C107.78 0.38501 108.514 0.935855 108.814 1.73041L109.999 4.7826C110.299 5.56952 111.026 6.1196 111.835 6.1196H146.741C147.55 6.1196 148.278 5.59244 148.577 4.80628L149.761 1.73882C150.061 0.94426 150.788 0.385773 151.598 0.385773H179.713C181.265 0.385009 182.509 1.8007 182.509 3.43719Z" fill="#407BFF"/>
<path opacity="0.6" d="M89.2424 9.50806H90.7268V7.4315H89.2424V9.50806Z" fill="white"/>
<path opacity="0.6" d="M86.8237 9.50818H88.3081V6.73868H86.8237V9.50818Z" fill="white"/>
<path opacity="0.6" d="M84.405 9.50842H85.8894V6.04674H84.405V9.50842Z" fill="white"/>
<path opacity="0.6" d="M81.9863 9.50861H83.4707V5.35397H81.9863V9.50861Z" fill="white"/>
<path opacity="0.6" d="M168.91 6.67407H168.031V8.75063H168.91V6.67407Z" fill="white"/>
<path opacity="0.6" d="M169.515 9.50812L176.524 9.50812V5.91579L169.515 5.91579V9.50812Z" fill="white"/>
<g opacity="0.1">
<path d="M123.917 6.11559L93.2548 126.648V126.655L92.9134 128.009V128.016L92.3601 130.188V130.195L92.0121 131.548L76.002 194.487V118.314L106.002 0.383301H106.978C107.784 0.383301 108.514 0.934909 108.815 1.73023L109.996 4.78242C110.297 5.57086 111.027 6.11483 111.833 6.11483L123.917 6.11559Z" fill="white"/>
<path d="M182.51 67.6711V143.844L163.386 219.021L162.923 220.848L159.768 233.251H140.392L143.546 220.855L144.051 218.864L146.584 208.904L147.089 206.912L148.106 202.928L148.612 200.936L149.622 196.952L150.127 194.96L166.07 132.301V132.294L166.807 129.399V129.392L182.51 67.6711Z" fill="white"/>
<path d="M134.417 6.11557L103.946 125.895L103.762 126.612L102.096 133.176L101.912 133.892L76.8539 232.406C76.3211 231.861 76.0007 231.087 76.0007 230.213V218.627L97.5553 133.892L97.7395 133.175L99.4052 126.611L99.5894 125.895L130.061 6.11481L134.417 6.11557Z" fill="white"/>
</g>
<path opacity="0.3" d="M182.509 15.1491H75.9988V223.222H182.509V15.1491Z" fill="white"/>
<path d="M162.014 106.582C164.063 106.582 165.724 104.839 165.724 102.689V41.2237C165.724 39.073 164.063 37.3303 162.014 37.3303C159.966 37.3303 158.304 39.073 158.304 41.2237V102.689C158.304 104.839 159.965 106.582 162.014 106.582Z" fill="#407BFF"/>
<path opacity="0.3" d="M162.014 105.054C160.771 105.054 159.76 103.993 159.76 102.689V41.2237C159.76 39.9195 160.771 38.8583 162.014 38.8583C163.257 38.8583 164.268 39.9195 164.268 41.2237V102.689C164.267 103.993 163.257 105.054 162.014 105.054Z" fill="black"/>
<path d="M167.329 48.1838C167.805 45.1063 165.814 42.2065 162.881 41.7071C159.949 41.2076 157.186 43.2975 156.71 46.3751C156.234 49.4526 158.225 52.3523 161.158 52.8518C164.09 53.3513 166.853 51.2613 167.329 48.1838Z" fill="#407BFF"/>
<path d="M140.174 106.582C142.223 106.582 143.884 104.839 143.884 102.689V41.2237C143.884 39.073 142.223 37.3303 140.174 37.3303C138.125 37.3303 136.464 39.073 136.464 41.2237V102.689C136.464 104.839 138.125 106.582 140.174 106.582Z" fill="#407BFF"/>
<path opacity="0.3" d="M140.174 105.054C138.931 105.054 137.92 103.993 137.92 102.689V41.2237C137.92 39.9195 138.931 38.8583 140.174 38.8583C141.417 38.8583 142.428 39.9195 142.428 41.2237V102.689C142.427 103.993 141.417 105.054 140.174 105.054Z" fill="black"/>
<path d="M145.489 94.0249C145.965 90.9474 143.974 88.0476 141.041 87.5482C138.109 87.0487 135.346 89.1387 134.87 92.2162C134.394 95.2937 136.385 98.1935 139.318 98.6929C142.25 99.1924 145.013 97.1025 145.489 94.0249Z" fill="#407BFF"/>
<path d="M118.333 106.582C120.382 106.582 122.043 104.839 122.043 102.689V41.2237C122.043 39.073 120.382 37.3303 118.333 37.3303C116.285 37.3303 114.624 39.073 114.624 41.2237V102.689C114.624 104.839 116.285 106.582 118.333 106.582Z" fill="#407BFF"/>
<path opacity="0.3" d="M118.334 105.054C117.091 105.054 116.08 103.993 116.08 102.689V41.2237C116.08 39.9195 117.091 38.8583 118.334 38.8583C119.577 38.8583 120.588 39.9195 120.588 41.2237V102.689C120.587 103.993 119.577 105.054 118.334 105.054Z" fill="black"/>
<path d="M123.649 63.4654C124.125 60.3879 122.133 57.4881 119.201 56.9887C116.268 56.4892 113.505 58.5792 113.029 61.6567C112.553 64.7342 114.545 67.634 117.477 68.1334C120.41 68.6329 123.173 66.543 123.649 63.4654Z" fill="#407BFF"/>
<path d="M96.4933 106.582C98.5419 106.582 100.203 104.839 100.203 102.689V41.2237C100.203 39.073 98.5419 37.3303 96.4933 37.3303C94.4447 37.3303 92.7834 39.073 92.7834 41.2237V102.689C92.7842 104.839 94.4447 106.582 96.4933 106.582Z" fill="#407BFF"/>
<path opacity="0.3" d="M96.4941 105.054C95.2514 105.054 94.2402 103.993 94.2402 102.689V41.2237C94.2402 39.9195 95.2514 38.8583 96.4941 38.8583C97.7368 38.8583 98.748 39.9195 98.748 41.2237V102.689C98.7473 103.993 97.7368 105.054 96.4941 105.054Z" fill="black"/>
<path d="M101.808 86.3861C102.284 83.3086 100.293 80.4089 97.3604 79.9094C94.4279 79.4099 91.6648 81.4999 91.1889 84.5774C90.713 87.6549 92.7044 90.5547 95.6369 91.0541C98.5695 91.5536 101.333 89.4637 101.808 86.3861Z" fill="#407BFF"/>
<path opacity="0.6" d="M167.329 48.1838C167.805 45.1063 165.814 42.2065 162.881 41.7071C159.949 41.2076 157.186 43.2975 156.71 46.3751C156.234 49.4526 158.225 52.3523 161.158 52.8518C164.09 53.3513 166.853 51.2613 167.329 48.1838Z" fill="white"/>
<path opacity="0.6" d="M162.014 51.3971C159.851 51.3971 158.091 49.5505 158.091 47.2799C158.091 45.0101 159.85 43.1627 162.014 43.1627C164.178 43.1627 165.937 45.0101 165.937 47.2799C165.936 49.5505 164.177 51.3971 162.014 51.3971Z" fill="white"/>
<path opacity="0.6" d="M145.489 94.0249C145.965 90.9474 143.974 88.0476 141.041 87.5482C138.109 87.0487 135.346 89.1387 134.87 92.2162C134.394 95.2937 136.385 98.1935 139.318 98.6929C142.25 99.1924 145.013 97.1025 145.489 94.0249Z" fill="white"/>
<path opacity="0.6" d="M140.174 97.2371C138.011 97.2371 136.251 95.3905 136.251 93.1199C136.251 90.8493 138.011 89.0027 140.174 89.0027C142.338 89.0027 144.097 90.8493 144.097 93.1199C144.097 95.3905 142.337 97.2371 140.174 97.2371Z" fill="white"/>
<path opacity="0.6" d="M123.649 63.4654C124.125 60.3879 122.133 57.4881 119.201 56.9887C116.268 56.4892 113.505 58.5792 113.029 61.6567C112.553 64.7342 114.545 67.634 117.477 68.1334C120.41 68.6329 123.173 66.543 123.649 63.4654Z" fill="white"/>
<path opacity="0.6" d="M118.334 66.6771C116.171 66.6771 114.411 64.8305 114.411 62.5599C114.411 60.29 116.17 58.4427 118.334 58.4427C120.497 58.4427 122.257 60.29 122.257 62.5599C122.257 64.8305 120.497 66.6771 118.334 66.6771Z" fill="white"/>
<path opacity="0.6" d="M101.808 86.3861C102.284 83.3086 100.293 80.4089 97.3604 79.9094C94.4279 79.4099 91.6648 81.4999 91.1889 84.5774C90.713 87.6549 92.7044 90.5547 95.6369 91.0541C98.5695 91.5536 101.333 89.4637 101.808 86.3861Z" fill="white"/>
<path opacity="0.6" d="M96.494 89.5971C94.3311 89.5971 92.5708 87.7505 92.5708 85.4799C92.5708 83.21 94.3304 81.3627 96.494 81.3627C98.6569 81.3627 100.417 83.21 100.417 85.4799C100.416 87.7505 98.6569 89.5971 96.494 89.5971Z" fill="white"/>
<path d="M175.357 215.056H83.1507C82.0449 215.056 81.1479 214.115 81.1479 212.954V122.577C81.1479 121.416 82.0449 120.475 83.1507 120.475H175.358C176.464 120.475 177.36 121.416 177.36 122.577V212.954C177.36 214.115 176.464 215.056 175.357 215.056Z" fill="#407BFF"/>
<path opacity="0.3" d="M175.357 215.056H83.1507C82.0449 215.056 81.1479 214.115 81.1479 212.954V122.577C81.1479 121.416 82.0449 120.475 83.1507 120.475H175.358C176.464 120.475 177.36 121.416 177.36 122.577V212.954C177.36 214.115 176.464 215.056 175.357 215.056Z" fill="black"/>
<path opacity="0.6" d="M120.573 181.781V189.911L124.562 190.305C125.101 193.03 126.13 195.565 127.538 197.815L124.975 201.063L130.453 206.813L133.549 204.124C135.693 205.601 138.107 206.681 140.704 207.246L141.08 211.433H148.827L149.203 207.246C151.8 206.681 154.214 205.601 156.359 204.124L159.455 206.813L164.933 201.063L162.37 197.815C163.777 195.565 164.806 193.031 165.345 190.305L169.334 189.911V181.781L165.345 181.386C164.807 178.661 163.777 176.127 162.37 173.876L164.933 170.628L159.455 164.879L156.36 167.568C154.215 166.091 151.801 165.011 149.204 164.445L148.828 160.259H141.081L140.705 164.445C138.108 165.011 135.693 166.09 133.549 167.568L130.454 164.879L124.976 170.628L127.538 173.876C126.131 176.127 125.101 178.66 124.563 181.386L120.573 181.781ZM144.953 174.839C150.746 174.839 155.442 179.767 155.442 185.846C155.442 191.925 150.746 196.853 144.953 196.853C139.162 196.853 134.466 191.925 134.466 185.846C134.466 179.767 139.162 174.839 144.953 174.839Z" fill="white"/>
<path opacity="0.4" d="M89.1726 158.433V164.804L92.2986 165.113C92.7209 167.249 93.5275 169.234 94.6304 170.998L92.6226 173.543L96.9149 178.048L99.3406 175.941C101.021 177.099 102.913 177.945 104.948 178.388L105.242 181.669H111.313L111.607 178.388C113.642 177.945 115.534 177.099 117.214 175.941L119.639 178.048L123.932 173.543L121.925 170.998C123.028 169.234 123.834 167.249 124.256 165.113L127.382 164.804V158.433L124.256 158.124C123.834 155.989 123.028 154.003 121.925 152.239L123.932 149.694L119.639 145.189L117.214 147.296C115.534 146.139 113.642 145.293 111.607 144.85L111.313 141.569H105.242L104.948 144.85C102.913 145.293 101.02 146.139 99.3399 147.296L96.9149 145.189L92.6226 149.694L94.6304 152.239C93.5275 154.003 92.7209 155.988 92.2986 158.124L89.1726 158.433ZM108.278 152.994C112.817 152.994 116.497 156.855 116.497 161.619C116.497 166.382 112.817 170.244 108.278 170.244C103.739 170.244 100.06 166.383 100.06 161.619C100.06 156.855 103.739 152.994 108.278 152.994Z" fill="white"/>
<path opacity="0.2" d="M123.032 138.763V144.115L125.658 144.374C126.012 146.168 126.689 147.836 127.615 149.317L125.929 151.455L129.534 155.239L131.571 153.469C132.983 154.441 134.572 155.152 136.282 155.523L136.529 158.279H141.628L141.876 155.523C143.585 155.151 145.174 154.44 146.586 153.468L148.623 155.238L152.228 151.454L150.542 149.317C151.468 147.835 152.145 146.167 152.499 144.374L155.125 144.114L155.124 138.762L152.499 138.503C152.145 136.709 151.467 135.041 150.541 133.56L152.228 131.422L148.622 127.638L146.585 129.408C145.173 128.437 143.584 127.725 141.875 127.353L141.627 124.598H136.528L136.281 127.353C134.572 127.725 132.982 128.437 131.571 129.408L129.534 127.638L125.928 131.422L127.615 133.56C126.689 135.041 126.011 136.709 125.656 138.503L123.032 138.763ZM139.079 134.195C142.891 134.195 145.981 137.438 145.981 141.439C145.981 145.44 142.891 148.683 139.079 148.683C135.267 148.683 132.176 145.439 132.176 141.439C132.176 137.438 135.267 134.195 139.079 134.195Z" fill="white"/>
<path opacity="0.6" d="M114.125 159.975L109.845 155.482L103.997 157.126L102.43 163.263L106.711 167.755L112.558 166.111L114.125 159.975Z" fill="white"/>
<path opacity="0.8" d="M145.899 178.038L138.982 181.083L138.037 188.891L144.008 193.655L150.925 190.609L151.87 182.801L145.899 178.038Z" fill="white"/>
<path opacity="0.4" d="M143.378 144.044V138.834L139.079 136.229L134.78 138.834V144.044L139.079 146.649L143.378 144.044Z" fill="white"/>
<path d="M243.348 94.5348L251.092 101.137C251.092 101.137 252.987 101.178 253.581 101.834C254.176 102.49 256.463 107.368 256.138 108.034C255.813 108.699 251.991 110.014 251.185 109.227C250.38 108.44 248.98 103.927 249.007 103.445L239.11 96.4784L243.348 94.5348Z" fill="#B97964"/>
<path d="M247.641 97.4372L245.909 101.402C245.909 101.402 235.258 96.169 232.95 93.1206C232.361 92.3337 231.545 91.0807 230.664 89.6521C229.216 87.2913 227.578 84.4492 226.442 82.4552C225.598 80.9654 225.03 79.9493 225.03 79.9493L231.058 69.9714C232.375 71.0334 236.408 88.0859 237.129 89.0027C237.85 89.9195 247.641 97.4372 247.641 97.4372Z" fill="#263238"/>
<path opacity="0.2" d="M230.665 89.6521C229.216 87.2913 227.578 84.4492 226.442 82.4552L229.245 75.1972C229.245 75.1972 230.766 83.5248 230.665 89.6521Z" fill="black"/>
<path d="M181.566 56.6694L173.399 50.5765C173.399 50.5765 172.428 48.8697 171.59 48.6512C170.752 48.4335 165.582 48.7612 165.192 49.387C164.802 50.0127 165.604 54.1482 166.654 54.4943C167.704 54.8404 172.133 53.8831 172.519 53.6195L180.814 59.633L181.566 56.6694Z" fill="#B97964"/>
<path d="M246.011 227.609L241.441 228.456L239.567 221.916L237.856 215.915L243.126 213.984L244.656 221.197L246.011 227.609Z" fill="#B97964"/>
<path opacity="0.2" d="M244.681 221.345L239.589 222.049L237.867 215.981L243.132 214.017L244.681 221.345Z" fill="black"/>
<path d="M215.501 227.731H210.861L210.099 221.196L209.409 215.097L214.918 214.219L215.23 221.385L215.501 227.731Z" fill="#B97964"/>
<path opacity="0.2" d="M215.23 221.813L210.099 221.577L209.409 215.287L214.918 214.313L215.23 221.813Z" fill="black"/>
<path d="M245.111 216.099L237.599 217.489C230.017 197.667 224.625 181.121 220.817 167.391C218.765 159.981 217.14 153.393 215.912 147.547L216.228 169.126V217.798H208.653C190.094 125.354 203.247 103.863 203.247 103.863L225.448 99.9684C226.292 103.446 226.931 109.127 227.308 113.051L228.309 120.777L236.989 167.818L245.111 216.099Z" fill="#407BFF"/>
<path d="M236.42 216.515L245.739 213.273L245.613 217.433L237.906 220.013L236.42 216.515Z" fill="#407BFF"/>
<path opacity="0.6" d="M236.42 216.515L245.739 213.273L245.613 217.433L237.906 220.013L236.42 216.515Z" fill="white"/>
<path d="M207.657 216.967L217.371 215.475L216.558 219.549L208.541 220.683L207.657 216.967Z" fill="#407BFF"/>
<path opacity="0.6" d="M207.657 216.967L217.371 215.475L216.558 219.549L208.541 220.683L207.657 216.967Z" fill="white"/>
<path opacity="0.2" d="M221.839 171.02C221.489 169.789 221.116 168.579 220.786 167.391C218.927 160.666 217.684 154.617 216.228 149.189V149.175L215.47 139.181C215.47 139.181 220.218 128.2 218.442 120.475C218.607 120.914 221.749 129.331 220.515 137.741C220.515 137.741 219.918 152.918 221.839 171.02Z" fill="black"/>
<path d="M222.478 59.9409C222.417 59.9837 222.349 60.0249 222.284 60.0524C221.384 60.5544 220.366 61.0135 219.259 61.1243C216.161 61.4421 214.16 60.7293 212.998 59.118C212.991 59.1173 212.991 59.1173 212.991 59.1173C211.379 56.7191 211.38 52.8601 212.213 48.3197C212.589 46.2362 213.101 44.4492 213.828 43.1038C213.837 43.0901 213.844 43.0374 213.852 43.0244C213.886 42.9709 213.917 42.8937 213.951 42.8403C215.021 40.9677 216.547 39.8691 218.799 39.6246C219.577 39.5421 220.447 39.5551 221.415 39.6727C229.93 40.7408 229.627 55.7328 222.478 59.9409Z" fill="#B97964"/>
<path opacity="0.2" d="M222.284 60.0517C221.384 60.5536 220.381 60.8882 219.274 60.9983C216.177 61.3161 214.189 60.4994 213.028 58.8667C214.462 59.4114 216.433 59.811 218.481 59.1394C219.772 58.7215 221.088 59.2059 222.284 60.0517Z" fill="black"/>
<path d="M222.922 67.3593C223.686 69.856 220.636 71.219 220.636 71.219C215.272 69.442 214.047 66.6671 214.047 66.6671C218.122 63.8739 216.257 57.3524 216.257 57.3524L217.173 57.7138L223.425 58.341C223.425 58.341 222.044 61.9433 221.891 62.7478C221.892 62.7547 221.885 62.7631 221.886 62.7699C221.113 66.9742 222.922 67.3593 222.922 67.3593Z" fill="#B97964"/>
<path d="M213.832 43.0435C213.832 43.0435 212.587 49.2387 217.905 52.6981C217.905 52.6981 219.526 59.5314 223.087 60.1112C227.942 60.902 233.137 54.2147 232.368 46.5762C231.372 36.6709 217.601 33.9954 213.832 43.0435Z" fill="#263238"/>
<path d="M215.266 50.51C215.389 49.5336 216.341 47.9965 217.759 48.4167C219.227 48.8514 219.576 52.8364 215.79 53.1993C215.247 53.2513 215.009 52.5469 215.266 50.51Z" fill="#B97964"/>
<path d="M210.37 226.808H215.549C215.77 226.808 215.961 226.97 216.009 227.197L217.073 232.237C217.164 232.688 216.889 233.131 216.459 233.227C216.402 233.24 216.343 233.246 216.284 233.245C214.165 233.209 213.993 233.072 211.332 233.072C209.692 233.072 204.746 233.253 202.482 233.253C200.218 233.253 199.923 230.906 200.849 230.69C205.006 229.739 208.135 228.421 209.466 227.168C209.711 226.93 210.035 226.801 210.37 226.808Z" fill="#263238"/>
<path d="M208.587 227.802C208.22 227.832 207.854 227.731 207.551 227.514C207.348 227.339 207.247 227.066 207.283 226.794C207.28 226.634 207.366 226.487 207.503 226.419C208.1 226.096 209.843 227.219 210.035 227.349C210.08 227.373 210.105 227.426 210.096 227.478C210.09 227.533 210.052 227.579 210 227.594C209.537 227.717 209.063 227.787 208.587 227.802ZM207.784 226.628C207.727 226.623 207.669 226.636 207.619 226.664C207.585 226.664 207.543 226.714 207.537 226.822C207.515 227.002 207.579 227.184 207.709 227.305C208.314 227.593 209 227.629 209.63 227.406C209.067 227.025 208.44 226.761 207.784 226.628Z" fill="#407BFF"/>
<path d="M209.965 227.6H209.904C209.348 227.283 208.271 226.038 208.381 225.44C208.42 225.235 208.592 225.086 208.792 225.087C208.988 225.06 209.185 225.123 209.334 225.26C209.959 225.792 210.089 227.42 210.096 227.499C210.097 227.548 210.073 227.595 210.034 227.621C210.009 227.622 209.986 227.614 209.965 227.6ZM208.881 225.303H208.82C208.655 225.303 208.641 225.403 208.635 225.439C208.566 225.807 209.252 226.75 209.807 227.189C209.772 226.544 209.549 225.926 209.17 225.418C209.09 225.345 208.988 225.303 208.881 225.303Z" fill="#407BFF"/>
<path d="M241.264 226.808H246.443C246.663 226.808 246.854 226.97 246.902 227.197L247.965 232.237C248.056 232.688 247.781 233.131 247.352 233.227C247.294 233.24 247.235 233.246 247.176 233.245C245.056 233.209 244.886 233.072 242.224 233.072C240.584 233.072 235.638 233.253 233.373 233.253C231.109 233.253 230.815 230.906 231.741 230.69C235.898 229.739 239.027 228.421 240.358 227.168C240.605 226.93 240.929 226.801 241.264 226.808Z" fill="#263238"/>
<path d="M239.48 227.802C239.113 227.832 238.747 227.731 238.444 227.514C238.242 227.339 238.14 227.066 238.176 226.794C238.172 226.634 238.258 226.487 238.396 226.419C238.993 226.096 240.736 227.219 240.928 227.349C240.973 227.373 240.998 227.426 240.99 227.478C240.983 227.533 240.945 227.579 240.894 227.594C240.431 227.717 239.957 227.787 239.48 227.802ZM238.677 226.628C238.62 226.623 238.563 226.636 238.512 226.664C238.478 226.664 238.437 226.714 238.43 226.822C238.408 227.002 238.472 227.184 238.602 227.305C239.207 227.593 239.893 227.629 240.523 227.406C239.96 227.025 239.334 226.761 238.677 226.628Z" fill="#407BFF"/>
<path d="M240.859 227.6H240.797C240.241 227.283 239.164 226.038 239.274 225.44C239.313 225.235 239.486 225.086 239.685 225.087C239.881 225.06 240.078 225.123 240.228 225.26C240.852 225.792 240.983 227.42 240.989 227.499C240.99 227.548 240.967 227.595 240.927 227.621C240.902 227.622 240.878 227.614 240.859 227.6ZM239.775 225.303H239.713C239.548 225.303 239.535 225.403 239.527 225.439C239.459 225.807 240.145 226.75 240.701 227.189C240.664 226.544 240.442 225.926 240.063 225.418C239.983 225.345 239.881 225.303 239.775 225.303Z" fill="#407BFF"/>
<path d="M203.246 103.95C203.246 103.95 199.01 76.8681 206.29 64.725C206.29 64.725 220.829 63.7769 231.058 69.9722C231.058 69.9722 226.831 82.0304 226.202 103.95L203.246 103.95Z" fill="#263238"/>
<path opacity="0.2" d="M201.92 83.2238C201.607 79.549 202.62 76.0116 202.795 72.8945C205.466 70.5567 207.58 67.1683 207.58 67.1683C207.58 67.1683 208.904 78.1401 201.92 83.2238Z" fill="black"/>
<path d="M208.091 64.6731C208.091 64.6731 193.683 62.9006 191.516 61.9471C190.159 61.3497 179.568 54.0871 179.568 54.0871L177.085 57.9674C177.085 57.9674 187.921 67.1507 189.752 68.2058C194.049 70.6819 203.704 74.175 203.704 74.175C203.704 74.175 209.537 69.9195 208.091 64.6731Z" fill="#263238"/>
<path d="M229.245 41.692C229.245 41.692 234.187 37.2807 239.094 40.0548C244.002 42.8288 238.287 53.5172 239.72 56.7925C241.154 60.0677 244.264 59.8255 240.34 61.9816C236.415 64.1376 240.216 65.9223 240.216 65.9223C240.216 65.9223 236.704 67.1722 236.415 64.1376C236.126 61.103 234.861 58.5924 233.724 58.0729C232.588 57.5534 235.651 51.7928 234.588 48.9439C233.525 46.0949 230.443 46.3371 230.443 46.3371L229.245 41.692Z" fill="#263238"/>
<path d="M221.414 39.672C221.414 39.672 215.18 35.5731 212.245 38.487C207.715 42.9847 214.172 49.4481 221.01 52.5117L221.414 39.672Z" fill="#263238"/>
<path d="M89.2584 122.481L38.195 62.8135C40.0048 58.6222 39.6496 53.5507 36.9589 49.691C33.9734 45.408 29.1191 43.6539 24.6062 44.5317C23.9306 44.6631 23.643 45.5104 24.1017 46.0467L30.7993 53.8731C31.0606 54.1787 31.1473 54.6081 31.0257 54.9985L29.5748 59.6635C29.4532 60.0539 29.1424 60.3473 28.7594 60.4321L24.1839 61.4467C23.801 61.5315 23.4035 61.3955 23.1422 61.0899L16.4439 53.2635C15.9845 52.7264 15.1509 52.938 14.9544 53.6294C13.7539 57.8459 14.6042 62.595 17.6108 66.1086C21.0288 70.1028 26.2558 71.3558 30.8182 69.7605L81.8816 129.428C80.071 133.619 80.427 138.691 83.1177 142.551C86.1033 146.834 90.9583 148.588 95.4704 147.71C96.146 147.579 96.4336 146.731 95.9749 146.195L89.2773 138.368C89.016 138.063 88.9294 137.634 89.0509 137.243L90.5018 132.577C90.6234 132.187 90.9343 131.894 91.3172 131.809L95.8927 130.795C96.2756 130.71 96.6731 130.846 96.9344 131.152L103.633 138.978C104.092 139.515 104.926 139.304 105.122 138.612C106.323 134.396 105.472 129.647 102.466 126.133C99.0471 122.14 93.8201 120.886 89.2584 122.481Z" fill="#407BFF"/>
<path opacity="0.7" d="M89.2584 122.481L38.195 62.8135C40.0048 58.6222 39.6496 53.5507 36.9589 49.691C33.9734 45.408 29.1191 43.6539 24.6062 44.5317C23.9306 44.6631 23.643 45.5104 24.1017 46.0467L30.7993 53.8731C31.0606 54.1787 31.1473 54.6081 31.0257 54.9985L29.5748 59.6635C29.4532 60.0539 29.1424 60.3473 28.7594 60.4321L24.1839 61.4467C23.801 61.5315 23.4035 61.3955 23.1422 61.0899L16.4439 53.2635C15.9845 52.7264 15.1509 52.938 14.9544 53.6294C13.7539 57.8459 14.6042 62.595 17.6108 66.1086C21.0288 70.1028 26.2558 71.3558 30.8182 69.7605L81.8816 129.428C80.071 133.619 80.427 138.691 83.1177 142.551C86.1033 146.834 90.9583 148.588 95.4704 147.71C96.146 147.579 96.4336 146.731 95.9749 146.195L89.2773 138.368C89.016 138.063 88.9294 137.634 89.0509 137.243L90.5018 132.577C90.6234 132.187 90.9343 131.894 91.3172 131.809L95.8927 130.795C96.2756 130.71 96.6731 130.846 96.9344 131.152L103.633 138.978C104.092 139.515 104.926 139.304 105.122 138.612C106.323 134.396 105.472 129.647 102.466 126.133C99.0471 122.14 93.8201 120.886 89.2584 122.481Z" fill="white"/>
<path d="M31.5681 52.1672C31.5681 52.1672 16.4104 54.2544 14.4426 57.0919C12.4748 59.9302 12.3656 62.5629 21.3295 65.2621L23.9532 63.2574C23.9532 63.2574 20.2367 61.7661 20.6735 60.8485C21.1111 59.9309 31.5681 60.2747 31.5681 60.2747V52.1672Z" fill="#E4897B"/>
<path d="M37.264 51.9639L35.1528 59.6956L31.6075 60.2609L24.1819 61.4451L23.9635 58.328L23.5339 52.1702C23.5339 52.1702 30.8285 50.6269 37.264 51.9639Z" fill="#407BFF"/>
<path opacity="0.2" d="M33.522 55.2338L31.6074 60.2609L24.1818 61.4451L23.9634 58.328C27.7344 55.2491 33.522 55.2338 33.522 55.2338Z" fill="black"/>
<path d="M32.0625 227.563L37.9666 228.212L38.2651 224.621L39.0731 214.85L33.1691 214.193L32.2736 224.988L32.0625 227.563Z" fill="#E4897B"/>
<path d="M2.59302 226.776H8.3151L8.36606 225.416L8.37334 225.248L8.66453 216.538L8.67182 216.362L8.7883 213.024H3.05894L2.59302 226.776Z" fill="#E4897B"/>
<path opacity="0.2" d="M33.1689 214.193L32.2734 224.988L38.2649 224.621L39.073 214.85L33.1689 214.193Z" fill="black"/>
<path opacity="0.2" d="M2.62939 226.012H2.63667L8.36603 225.248H8.37331L8.67179 216.844H8.66451L2.92787 217.325L2.63667 225.748L2.62939 226.012Z" fill="black"/>
<path d="M9.10859 226.414H2.15619C1.92177 226.416 1.71939 226.587 1.66843 226.827L0.540029 232.175C0.443205 232.654 0.735131 233.124 1.19159 233.225C1.25274 233.239 1.31535 233.245 1.37723 233.244C3.62675 233.206 5.26475 233.061 8.08939 233.061C9.82931 233.061 15.0782 233.252 17.4806 233.252C19.883 233.252 20.196 230.761 19.2132 230.532C14.8016 229.524 11.4819 228.125 10.0695 226.796C9.80747 226.544 9.46385 226.407 9.10859 226.414Z" fill="#263238"/>
<path d="M38.5925 226.223H31.6401C31.4057 226.225 31.2033 226.396 31.1523 226.636L30.0239 231.984C29.9271 232.463 30.219 232.933 30.6755 233.034C30.7366 233.048 30.7992 233.054 30.8611 233.053C33.1106 233.015 34.7486 232.87 37.5733 232.87C39.3132 232.87 44.5621 233.061 46.9645 233.061C49.3669 233.061 49.6799 230.57 48.6971 230.341C44.2854 229.333 40.9658 227.935 39.5534 226.605C39.2914 226.353 38.9477 226.216 38.5925 226.223Z" fill="#263238"/>
<path d="M39.6153 223.72H31.2215C31.2215 223.72 28.8133 147.561 19.7351 121.952C20.8475 169.574 10.1532 224.484 10.1532 224.484H1.86125C1.86125 224.484 5.65049 181.492 5.65049 162.692C5.65049 129.375 -3.05639 113.103 5.42117 91.5475H35.7933C43.2306 138.571 46.0945 171.768 39.6153 223.72Z" fill="#263238"/>
<path d="M40.5566 221.237L40.1468 223.72H30.2278V221.428L40.5566 221.237Z" fill="#407BFF"/>
<path d="M11.1054 222.192L10.1532 224.484H1.83579L1.28979 222.192H11.1054Z" fill="#407BFF"/>
<path d="M61.955 54.7594C61.7322 54.9496 61.5065 55.1292 61.2743 55.2881C59.8882 56.263 58.3026 56.7198 56.7534 56.6992C56.3464 56.6961 55.9395 56.6595 55.5398 56.5922C53.4294 56.2293 51.506 54.9726 50.395 52.9495C49.935 52.1297 49.6081 51.1678 49.4683 50.0906C48.8888 45.8565 50.9403 43.0855 54.0511 38.1118C54.7055 37.03 55.5871 36.1201 56.6362 35.4707C60.3097 33.1619 65.0715 34.424 67.2657 38.2761C70.3772 43.6539 65.975 51.2297 61.955 54.7594Z" fill="#E4897B"/>
<path opacity="0.2" d="M56.7534 56.6992C56.3464 56.6961 55.9395 56.6594 55.5398 56.5922C53.4293 56.2293 51.5059 54.9725 50.395 52.9495C51.3662 52.2764 52.3512 51.9616 52.3512 51.9616C52.3512 51.9616 55.3789 53.6355 56.7534 56.6992Z" fill="black"/>
<path d="M43.2307 55.7725C43.9624 59.6505 50.0084 63.129 50.0084 63.129C50.0084 63.129 54.1289 64.8091 54.2024 63.126C52.4319 61.2068 52.1524 59.4588 52.6416 57.8804C52.9277 56.962 53.478 56.1056 54.1449 55.3026C54.4907 54.8771 54.8758 54.4729 55.2682 54.084L52.207 43.5347C50.6381 47.7069 47.2056 54.955 43.2307 55.7725Z" fill="#E4897B"/>
<path d="M69.7896 39.0019C69.1708 35.3752 67.4243 35.2109 67.4243 35.2109C67.2561 32.3215 60.7624 29.403 56.5167 30.3389C52.271 31.2748 49.3706 35.2201 48.208 38.8414C46.5147 44.1161 47.5361 50.6643 47.5361 50.6643C47.5375 50.6651 47.539 50.6666 47.539 50.6666C50.9759 53.4132 54.5605 53.9213 55.6496 51.8844C56.7387 49.8476 59.4265 49.1486 59.4265 49.1486C61.0623 50.6414 63.654 49.1615 63.654 49.1615C63.654 49.1615 66.5907 48.0965 67.0945 45.0864C67.5976 42.0777 70.3108 42.0586 69.7896 39.0019Z" fill="#263238"/>
<path d="M59.2912 47.4365C58.8296 48.6864 58.8354 49.8721 59.3079 50.7339C59.9427 51.8669 61.5181 50.97 62.3975 49.4313C63.1685 48.0614 63.8055 45.7832 62.6472 45.2484C61.4883 44.7136 59.875 45.9016 59.2912 47.4365Z" fill="#E4897B"/>
<path d="M60.0381 30.3076C66.4234 28.3074 71.5616 39.3067 71.309 45.1376C71.1037 49.8736 66.3637 49.2991 66.3637 49.2991C66.3637 49.2991 68.9794 49.1165 68.7275 45.7885C68.7275 45.7885 67.594 49.8614 65.0533 47.1897C62.5133 44.518 65.5221 38.1462 65.5221 38.1462L60.0381 30.3076Z" fill="#263238"/>
<path opacity="0.2" d="M19.0349 153.087C17.9138 141.207 15.8244 131.099 15.8244 131.099C7.22673 119.761 11.9223 109.294 11.9223 109.294C13.0726 116.575 19.7338 121.954 19.7338 121.954C19.974 132.199 19.6682 142.781 19.0349 153.087Z" fill="black"/>
<path d="M43.2163 54.0291C43.2163 54.0291 45.0633 52.5935 48.4717 54.709C51.8802 56.8245 53.0028 60.8722 53.0028 60.8722L43.2163 54.0291Z" fill="#407BFF"/>
<path d="M39.0732 106.583C39.0732 106.583 39.0732 87.9942 57.5921 65.4951C57.5921 65.4951 49.2761 53.3124 37.2641 51.9609C37.2641 51.9609 15.0885 59.95 3.00879 93.9748L39.0732 106.583Z" fill="#407BFF"/>
<path opacity="0.6" d="M57.5899 65.4944C55.6316 67.8781 53.8771 70.2159 52.3119 72.4927C49.2179 76.9926 46.8446 81.2557 45.0319 85.1369C39.0768 97.8651 39.0768 106.582 39.0768 106.582L3.01172 93.9764C15.0892 59.9478 37.2641 51.964 37.2641 51.964C49.2761 53.3163 57.5899 65.4944 57.5899 65.4944Z" fill="white"/>
<path d="M39.2953 103.916C39.2152 104.542 39.1642 105.062 39.1351 105.475L3.49951 92.6317C3.67423 92.1504 3.85623 91.6767 4.03823 91.2106L39.2953 103.916Z" fill="#407BFF"/>
<path d="M39.9213 100.134C39.8121 100.677 39.7102 101.181 39.6302 101.654C27.2833 96.6503 13.2256 91.0654 5.26855 88.1775C5.46511 87.7038 5.66895 87.2454 5.87279 86.787C14.7471 89.9958 30.1079 96.1537 39.9213 100.134Z" fill="#407BFF"/>
<path d="M40.8606 96.2988C40.715 96.8107 40.5839 97.3073 40.4602 97.781C30.6613 93.3345 15.8902 86.8023 7.2561 83.8074C7.48178 83.3414 7.70746 82.8906 7.93314 82.4399C16.7274 85.5112 31.1709 91.8906 40.8606 96.2988Z" fill="#407BFF"/>
<path d="M42.0761 92.3795C41.9087 92.8838 41.7412 93.3727 41.5884 93.8464C32.0224 89.0027 18.2996 82.3788 9.46899 79.552C9.71651 79.0936 9.97131 78.6428 10.2261 78.2073C19.2096 81.1258 32.634 87.5969 42.0761 92.3795Z" fill="#407BFF"/>
<path d="M43.5833 88.4297C43.3794 88.911 43.1902 89.3847 43.0154 89.8583C33.8645 84.7243 21.1609 78.1233 11.9153 75.4111C12.1992 74.9603 12.4904 74.5096 12.7816 74.0741C22.151 76.9085 34.5706 83.3567 43.5833 88.4297Z" fill="#407BFF"/>
<path d="M45.3596 84.434C45.1339 84.9076 44.9155 85.3813 44.7044 85.8474C36.0994 80.5223 24.3932 74.0359 14.6453 71.3772C14.9656 70.9264 15.2859 70.491 15.6135 70.0555C25.4342 72.8517 36.8857 79.1853 45.3596 84.434Z" fill="#407BFF"/>
<path d="M47.4053 80.4459C47.1505 80.9119 46.9102 81.3703 46.67 81.8211C38.6838 76.412 27.9022 70.1166 17.7029 67.4273C18.0669 66.9842 18.4309 66.5564 18.8094 66.1362C29.016 68.9553 39.5502 75.1055 47.4053 80.4459Z" fill="#407BFF"/>
<path d="M49.6765 76.5418C49.4072 76.9697 49.1524 77.3975 48.8976 77.8254C41.5593 72.4086 31.644 66.3501 21.1389 63.592C21.5539 63.1642 21.9616 62.7517 22.3692 62.3544C32.7287 65.2576 42.4402 71.2091 49.6765 76.5418Z" fill="#407BFF"/>
<path d="M52.21 72.6378C51.9261 73.058 51.6495 73.4705 51.3728 73.8755C44.7116 68.5351 35.6262 62.744 25.0483 59.8713C25.5288 59.4588 25.9947 59.0615 26.4534 58.6871C36.7837 61.7049 45.6507 67.3814 52.21 72.6378Z" fill="#407BFF"/>
<path d="M54.9837 68.7949C54.6779 69.1998 54.3794 69.5971 54.0882 70.002C48.1186 64.8221 39.8777 59.3289 29.5474 56.3264C30.1079 55.9291 30.6466 55.57 31.1635 55.2339C41.1298 58.3586 49.116 63.7219 54.9837 68.7949Z" fill="#407BFF"/>
<path d="M57.59 65.4944C57.3935 65.7312 57.2042 65.9681 57.0149 66.2049C51.7879 61.3077 44.5006 56.2041 34.8691 53.0641C35.7646 52.5981 36.4416 52.3001 36.842 52.132C44.5515 54.8748 50.725 58.8399 55.5152 62.8815C55.5152 62.8815 55.5225 62.8815 55.5225 62.8891C56.862 64.4248 57.59 65.4944 57.59 65.4944Z" fill="#407BFF"/>
<path opacity="0.2" d="M52.3118 72.4926C49.2178 76.9925 46.8446 81.2557 45.0318 85.1368C44.7989 75.3423 51.7586 70.002 51.7586 70.002L52.3118 72.4926Z" fill="black"/>
<path d="M57.592 71.2419V94.7922L66.2807 111.197L69.8567 115.375C69.8567 115.375 65.6808 118.083 64.5284 116.343C63.3767 114.604 62.2243 111.197 62.2243 111.197C62.2243 111.197 53.5924 99.0301 52.2405 96.1208C50.8886 93.2115 50.3958 75.6403 50.3958 75.6403L57.592 71.2419Z" fill="#E4897B"/>
<path d="M57.5918 65.4951C58.9597 69.4687 58.9488 83.0083 58.9488 83.0083L49.2489 83.8991L48.4714 78.5511C48.4714 78.5511 48.542 73.7035 51.8079 68.9148C54.0283 65.6578 57.5918 65.4951 57.5918 65.4951Z" fill="#407BFF"/>
</svg>
