<svg width="510" height="266" viewBox="0 0 510 266" fill="none" xmlns="http://www.w3.org/2000/svg">
<path d="M141.155 29.068C140.986 32.28 136.807 36.558 138.102 39.503C140.484 44.925 139.116 51.408 136.025 56.459C132.934 61.511 128.327 65.42 123.8 69.238C124.031 61.345 123.34 53.426 121.746 45.692C121.247 43.27 120.433 40.568 118.218 39.469C115.352 38.048 111.709 40.103 108.772 38.835C105.641 37.482 105.007 33.204 102.368 31.044C99.9809 29.091 96.4669 29.298 93.5429 30.281C90.6189 31.264 87.9199 32.906 84.9099 33.577C81.8999 34.249 78.2689 33.648 76.6019 31.053C75.5729 29.451 76.3149 30.43 75.3319 28.799C75.3319 28.799 69.4599 29 67.4439 22.171C67.4439 22.171 64.6839 14.584 70.7859 11.228C70.7859 11.228 72.1749 -2.48498 85.9739 3.68502C89.9359 5.45602 94.6269 -0.25799 98.4959 1.70801C101.715 3.34401 102.674 7.81702 105.892 9.45502C109.586 11.335 113.89 8.54402 118.031 8.36502C123.341 8.13602 128.281 13.107 128.019 18.415C128.019 18.415 128.67 15.676 133.156 16.883C137.643 18.091 141.485 22.811 141.155 29.068Z" fill="#263238"/>
<path d="M135.311 51.1501C135.348 49.6031 135.152 48.0181 134.467 46.6301C133.89 45.4611 131.725 42.8001 129.336 42.6411L129.688 28.5081C129.745 25.5911 127.562 23.1161 124.661 22.8091L96.9468 19.8781C87.3978 18.8681 78.9448 26.0211 78.3408 35.6051C77.6698 46.2521 77.2708 59.2781 78.5318 67.2221C81.0688 83.1961 93.3128 85.2291 93.3128 85.2291L93.0138 96.3881C92.5438 108.28 101.443 115.438 110.626 115.438C119.923 115.438 128.285 107.513 128.016 95.7401L128.911 59.7721C130.417 59.6561 131.915 58.9201 132.958 57.8001C134.595 56.0411 135.253 53.5541 135.311 51.1501Z" fill="#D7AB9C"/>
<path d="M84.5349 44.2721C84.4969 45.3541 85.3809 46.2781 86.5099 46.3391C87.6369 46.3991 88.5839 45.5741 88.6219 44.4921C88.6599 43.4101 87.7759 42.4841 86.6489 42.4241C85.5199 42.3631 84.5729 43.1901 84.5349 44.2721Z" fill="#263238"/>
<path d="M81.1648 42.3801C81.4188 42.6471 82.9708 41.4981 85.1758 41.5041C87.3778 41.4781 88.9959 42.6121 89.2349 42.3421C89.3519 42.2231 89.0939 41.7401 88.3889 41.2271C87.6959 40.7161 86.5128 40.2201 85.1398 40.2251C83.7668 40.2331 82.6118 40.7381 81.9478 41.2561C81.2698 41.7771 81.0398 42.2601 81.1648 42.3801Z" fill="#263238"/>
<path d="M105.815 44.6832C105.777 45.7652 106.661 46.6892 107.79 46.7502C108.917 46.8102 109.864 45.9852 109.902 44.9032C109.94 43.8212 109.056 42.8952 107.928 42.8352C106.8 42.7742 105.853 43.6022 105.815 44.6832Z" fill="#263238"/>
<path d="M102.835 42.7912C103.09 43.0582 104.643 41.9102 106.846 41.9162C109.048 41.8902 110.666 43.0242 110.905 42.7542C111.022 42.6352 110.766 42.1532 110.059 41.6402C109.366 41.1292 108.183 40.6332 106.81 40.6382C105.437 40.6462 104.282 41.1512 103.617 41.6692C102.942 42.1892 102.711 42.6722 102.835 42.7912Z" fill="#263238"/>
<path d="M94.8349 59.1412C94.8449 59.0162 93.4749 58.7792 91.2539 58.4952C90.6909 58.4372 90.1579 58.3252 90.0629 57.9412C89.9299 57.5342 90.1659 56.9272 90.4389 56.2722C90.9679 54.9102 91.5219 53.4822 92.1039 51.9862C94.4159 45.8832 96.0889 40.8642 95.8429 40.7732C95.5959 40.6822 93.5219 45.5552 91.2109 51.6582C90.6549 53.1632 90.1219 54.5972 89.6159 55.9702C89.4029 56.6102 89.0369 57.3352 89.3239 58.1792C89.4759 58.6002 89.8889 58.9052 90.2499 59.0022C90.6109 59.1122 90.9279 59.1182 91.2059 59.1352C93.4399 59.2562 94.8259 59.2662 94.8349 59.1412Z" fill="#263238"/>
<path d="M93.3119 85.228C93.3119 85.228 104.059 85.921 114.706 79.521C114.706 79.521 109.171 91.54 93.1829 90.046L93.3119 85.228Z" fill="#B38E82"/>
<path d="M101.844 38.932C102.061 39.531 104.263 39.247 106.849 39.559C109.442 39.819 111.528 40.576 111.871 40.038C112.024 39.781 111.661 39.217 110.817 38.636C109.981 38.057 108.647 37.506 107.095 37.333C105.542 37.163 104.121 37.41 103.179 37.793C102.228 38.176 101.75 38.647 101.844 38.932Z" fill="#263238"/>
<path d="M80.8079 37.25C81.1959 37.751 82.7149 37.231 84.5409 37.207C86.3659 37.118 87.9139 37.543 88.2699 37.02C88.4259 36.766 88.1829 36.264 87.5069 35.79C86.8419 35.318 85.7279 34.932 84.4719 34.969C83.2179 35.009 82.1299 35.463 81.4949 35.976C80.8489 36.49 80.6369 37.006 80.8079 37.25Z" fill="#263238"/>
<path d="M95.3159 71.6151C95.2739 71.5671 95.4699 71.3001 95.9169 71.0211C96.3589 70.7421 97.0709 70.4901 97.8809 70.4851C98.6919 70.4831 99.4049 70.7281 99.8499 71.0031C100.3 71.2781 100.497 71.5431 100.456 71.5921C100.369 71.7161 99.3479 70.9791 97.8829 71.0061C96.4179 70.9931 95.4039 71.7381 95.3159 71.6151Z" fill="#B38E82"/>
<path d="M127.874 55.4011C127.856 55.3111 128.533 55.2371 129.387 54.6631C130.222 54.1161 131.231 52.9301 131.238 51.3751C131.265 49.8241 130.4 48.5421 129.584 47.9701C128.757 47.3521 128.058 47.4561 128.058 47.3791C128.011 47.3181 128.796 47.0541 129.788 47.6631C130.75 48.2141 131.79 49.6241 131.76 51.3831C131.753 52.2501 131.449 53.0611 131.023 53.6671C130.597 54.2791 130.067 54.7091 129.581 54.9761C128.593 55.5171 127.868 55.4521 127.874 55.4011Z" fill="#B38E82"/>
<path d="M75.3318 16.0661C72.7508 22.9671 78.8808 27.9741 83.6578 29.0881C90.3358 30.6461 97.4438 26.4301 102.01 28.2241C105.417 29.5631 108.638 32.1981 112.26 31.6661C114.02 31.4071 115.758 30.3951 117.475 30.8611C119.663 31.4561 120.553 34.1221 120.502 36.3901C120.439 39.1901 119.495 41.9671 119.849 44.7451C120.203 47.5231 122.684 50.3961 125.387 49.6611C128.016 48.9461 129.705 46.3611 129.929 43.6461C130.246 39.8011 129.546 35.2161 129.734 31.3621C129.9 27.9611 129.909 24.2201 127.745 21.5921C125.572 18.9531 121.88 18.2501 118.494 17.7851C104.204 15.8241 89.7498 15.0631 75.3338 15.5141" fill="#263238"/>
<path d="M66.9188 17.54C66.9188 17.54 66.8078 17.304 66.7768 16.819C66.7448 16.341 66.7938 15.595 67.1968 14.754C67.5958 13.931 68.3538 12.9711 69.6068 12.4621C70.2268 12.2091 70.9718 12.1331 71.7118 12.2251C72.4548 12.3021 73.2098 12.4971 73.9968 12.5421C74.7808 12.5991 75.5928 12.4071 76.3558 12.0161C77.1248 11.6321 77.8308 11.048 78.5478 10.429C79.2648 9.80705 79.9938 9.12704 80.8368 8.51904C81.6828 7.92104 82.6858 7.42605 83.7798 7.23305C85.9738 6.80105 88.3378 7.34104 90.4658 8.37004C92.6108 9.42804 94.4908 11.019 96.3908 12.599C98.2928 14.167 100.167 15.7391 102.297 16.5851C103.355 16.9991 104.472 17.206 105.546 17.08C106.623 16.959 107.638 16.562 108.587 16.093C110.471 15.139 112.247 13.9961 114.151 13.5291C116.026 13.0271 117.892 12.975 119.506 13.36C121.128 13.726 122.46 14.538 123.396 15.452C124.339 16.372 124.916 17.373 125.246 18.231C125.566 19.097 125.655 19.818 125.654 20.299C125.672 20.54 125.636 20.724 125.632 20.846C125.62 20.969 125.61 21.031 125.601 21.03C125.519 21.042 125.733 19.984 125.058 18.305C124.709 17.483 124.124 16.53 123.196 15.662C122.27 14.798 120.989 14.048 119.425 13.718C117.87 13.371 116.073 13.441 114.265 13.944C112.43 14.412 110.73 15.526 108.799 16.521C107.831 17.006 106.765 17.4351 105.6 17.5721C104.433 17.7141 103.225 17.492 102.11 17.058C99.8638 16.17 97.9638 14.567 96.0558 12.997C94.1548 11.414 92.3018 9.84804 90.2398 8.82504C88.1878 7.82504 85.9248 7.30705 83.8688 7.70105C81.7748 8.04505 80.2678 9.51605 78.8278 10.7531C78.0958 11.3711 77.3608 11.969 76.5338 12.372C75.7168 12.781 74.8118 12.981 73.9708 12.907C73.1338 12.846 72.3838 12.637 71.6708 12.552C70.9588 12.453 70.2908 12.511 69.7088 12.732C68.5358 13.177 67.7838 14.067 67.3758 14.843C66.9628 15.635 66.8808 16.347 66.8788 16.814C66.8788 17.288 66.9518 17.534 66.9188 17.54Z" fill="#455A64"/>
<path d="M74.6499 28.6581C74.6499 28.6581 74.4179 28.7741 73.9509 28.7051C73.4999 28.6331 72.8049 28.3211 72.3319 27.5421C71.8599 26.7681 71.7469 25.6221 71.9539 24.4001C72.1459 23.1701 72.6579 21.8011 73.5869 20.5261C74.5109 19.2571 75.9019 18.1031 77.6559 17.4671C79.3929 16.8251 81.4859 16.6801 83.4899 17.3201C85.4959 17.9531 87.3069 19.2091 89.1019 20.5041C90.8979 21.7871 92.7669 23.1711 94.9849 23.8031C97.1979 24.4551 99.5279 24.1221 101.592 23.4391C103.675 22.7461 105.551 21.7251 107.317 20.7101C109.086 19.6991 110.778 18.7221 112.464 18.0021C114.148 17.2871 115.815 16.7981 117.393 16.7271C120.553 16.5731 123.023 17.7931 124.243 19.0301C124.879 19.6411 125.202 20.254 125.421 20.652C125.594 21.078 125.675 21.3021 125.659 21.3081C125.593 21.3501 125.355 20.3541 124.104 19.1761C122.881 18.0221 120.466 16.8991 117.415 17.0941C115.903 17.1841 114.278 17.6801 112.636 18.3981C110.988 19.1211 109.321 20.1011 107.556 21.1261C105.795 22.1531 103.89 23.2051 101.753 23.9231C99.6369 24.6321 97.1909 24.9941 94.8439 24.3041C92.5009 23.6331 90.5959 22.2031 88.8039 20.9171C87.0149 19.6161 85.2529 18.391 83.3469 17.777C81.4509 17.158 79.4669 17.2781 77.8029 17.8721C76.1259 18.4611 74.7899 19.5401 73.8819 20.7451C72.9719 21.9551 72.4529 23.2641 72.2399 24.4481C72.0129 25.6301 72.0959 26.7081 72.5069 27.4401C72.9159 28.1731 73.5509 28.5011 73.9709 28.6011C74.4059 28.7001 74.6479 28.6301 74.6499 28.6581Z" fill="#455A64"/>
<path d="M135.888 55.3101C135.848 55.2771 136.255 54.8351 136.777 53.9071C137.296 52.9891 137.888 51.5201 137.973 49.6291C138.009 48.6891 137.925 47.6461 137.595 46.5921C137.283 45.5341 136.7 44.4921 135.991 43.4511C135.292 42.4031 134.462 41.3521 133.731 40.1511C133.017 38.9631 132.358 37.5461 132.424 35.9871C132.45 34.4211 133.179 33.0761 133.757 31.8431C134.361 30.6081 134.869 29.3881 134.878 28.1581C134.938 25.6781 133.523 23.5921 131.926 22.6681C130.302 21.7031 128.669 21.6821 127.642 21.8271C126.591 21.9821 126.056 22.2741 126.036 22.2241C126.028 22.2081 126.157 22.1331 126.414 22.0051C126.677 21.8951 127.07 21.7301 127.608 21.6281C128.657 21.4181 130.363 21.3711 132.112 22.3511C133.839 23.2971 135.393 25.4941 135.358 28.1691C135.36 29.5091 134.816 30.8251 134.218 32.0641C133.637 33.3101 132.962 34.5951 132.945 36.0041C132.882 37.4131 133.48 38.7321 134.169 39.8911C134.871 41.0591 135.69 42.1141 136.391 43.1881C137.1 44.2521 137.699 45.3501 138.009 46.4731C138.337 47.5861 138.402 48.6771 138.341 49.6521C138.204 51.6151 137.536 53.1061 136.952 54.0141C136.666 54.4761 136.397 54.8051 136.204 55.0131C136.009 55.2181 135.901 55.3221 135.888 55.3101Z" fill="#455A64"/>
<path d="M97.4408 41.919C97.4408 41.91 97.4438 41.901 97.4508 41.892L97.4628 41.879L97.4707 41.8719L97.4748 41.869L97.4768 41.867L97.4778 41.866V41.972C97.4648 41.981 97.4478 41.9889 97.4288 41.9969L97.4138 42.003L97.4058 42.006L97.4017 42.007L97.4008 41.827L97.4038 41.826L97.4388 41.8139V42.021C97.1588 42.113 96.5118 42.1779 95.7588 42.1779C94.7468 42.1779 93.9268 42.061 93.9268 41.918C93.9268 41.774 94.7468 41.658 95.7588 41.658C96.5118 41.658 97.1578 41.722 97.4388 41.815V42.022L97.4038 42.0099L97.4017 42.009L97.4008 41.8289L97.4058 41.83L97.4138 41.8329L97.4288 41.839C97.4478 41.847 97.4638 41.856 97.4768 41.864L97.4778 41.97L97.4768 41.9689L97.4748 41.9669L97.4707 41.964L97.4628 41.957L97.4508 41.944C97.4438 41.937 97.4408 41.928 97.4408 41.919Z" fill="#263238"/>
<path d="M129.792 44.183C129.782 44.326 126.962 44.242 123.494 43.993C120.025 43.745 117.222 43.427 117.233 43.284C117.243 43.141 120.063 43.226 123.532 43.474C126.999 43.722 129.802 44.04 129.792 44.183Z" fill="#263238"/>
<path d="M104.025 58.5861C104.08 58.5751 104.258 59.1941 104.099 60.2031C103.951 61.1941 103.375 62.5821 102.148 63.5911C100.917 64.5951 99.4417 64.8851 98.4407 64.8341C97.4207 64.7901 96.8487 64.4941 96.8707 64.4421C96.8917 64.3591 97.4857 64.5181 98.4367 64.4661C99.3767 64.4221 100.705 64.0951 101.818 63.1881C102.927 62.2771 103.51 61.0401 103.739 60.1271C103.979 59.2031 103.939 58.5901 104.025 58.5861Z" fill="#263238"/>
<path d="M64.389 130.384C64.398 130.384 64.407 130.492 64.416 130.704C64.423 130.944 64.431 131.254 64.442 131.644C64.454 132.505 64.47 133.715 64.491 135.257C64.509 138.43 64.534 142.961 64.565 148.546C64.6 159.77 64.22 175.275 63.35 192.375C62.42 209.46 61.5779 224.924 60.9669 236.158C60.6879 241.735 60.461 246.259 60.302 249.428C60.223 250.968 60.161 252.176 60.117 253.036C60.092 253.425 60.071 253.734 60.056 253.974C60.039 254.185 60.026 254.293 60.017 254.293C60.008 254.293 60.003 254.184 60.002 253.972C60.004 253.732 60.008 253.422 60.011 253.032C60.032 252.172 60.061 250.962 60.098 249.42C60.186 246.283 60.349 241.746 60.597 236.141C61.07 224.929 61.974 209.452 62.828 192.351C63.697 175.256 64.135 159.764 64.195 148.547C64.233 142.963 64.2649 138.432 64.2859 135.259C64.3069 133.717 64.323 132.507 64.335 131.646C64.346 131.256 64.3539 130.946 64.3609 130.706C64.3709 130.493 64.38 130.384 64.389 130.384Z" fill="#263238"/>
<path d="M160.988 113.157C155.607 106.948 145.096 106.036 140.438 109.406C135.78 112.776 133.188 118.504 132.72 124.234C132.253 129.964 133.713 135.706 135.902 141.022C139.409 149.543 144.6 156.437 152.351 165.216L172.328 191.444L133.777 229.082L149.752 254.291L182.521 227.891L209.621 199.166" fill="#08A8B1"/>
<path d="M21.611 193.999C21.585 193.951 22.332 193.467 23.686 192.997C25.033 192.525 27.011 192.139 29.204 192.254C31.397 192.377 33.322 192.974 34.61 193.589C35.905 194.202 36.596 194.764 36.564 194.81C36.518 194.885 35.764 194.44 34.465 193.928C33.17 193.413 31.298 192.894 29.176 192.774C27.054 192.663 25.137 192.977 23.794 193.349C22.447 193.717 21.648 194.079 21.611 193.999Z" fill="#263238"/>
<path d="M166.193 119.05L166.174 119.087C152.717 101.25 138.238 102.719 130.857 102.508V94.676C125.406 94.676 117.96 99.588 114.107 103.102L110.304 108.328C108.289 102.541 103.705 97.961 97.8599 96.122C94.3329 95.012 91.4849 94.677 91.4849 94.677V101.683C73.4109 102.187 63.7399 107.129 51.6629 121.111C51.0379 121.835 49.8099 123.062 48.4029 124.451L12.6559 166.422C5.35491 174.5 -1.29509 185.622 0.226913 196.404C1.94191 208.556 9.02792 216.562 22.5949 225.729L60.1959 250.101L60.0159 254.291H149.75C149.75 254.291 210.6 209.403 212.091 192.774C213.271 179.637 192.312 151.793 166.193 119.05ZM61.7339 214.362L35.4209 194.727L63.8429 165.321L61.7339 214.362ZM147.887 215.922L147.181 201.387L150.947 163.221C158.445 171.823 172.328 188.886 172.328 191.444L147.887 215.922Z" fill="#08A8B1"/>
<path d="M130.857 102.508C130.887 102.528 130.643 102.951 130.177 103.699C129.704 104.442 129.011 105.513 128.104 106.803C126.299 109.384 123.642 112.866 120.232 116.28C119.383 117.143 118.517 117.949 117.678 118.721L117.259 119.107L117.251 118.536C117.225 116.595 116.737 114.796 116.036 113.313C115.335 111.823 114.426 110.65 113.569 109.781C112.713 108.907 111.918 108.291 111.275 108.161C110.623 108.033 110.323 108.385 110.303 108.327C110.278 108.348 110.549 107.906 111.304 107.985C112.035 108.075 112.898 108.691 113.799 109.543C114.711 110.403 115.683 111.591 116.436 113.119C117.189 114.64 117.72 116.503 117.76 118.529L117.333 118.344C118.162 117.572 119.018 116.77 119.861 115.913C123.244 112.525 125.927 109.105 127.803 106.587C128.687 105.383 129.427 104.375 130.007 103.585C130.527 102.872 130.827 102.488 130.857 102.508Z" fill="#263238"/>
<path d="M91.4859 101.682C91.5149 101.661 91.7939 101.992 92.2739 102.608C92.8089 103.317 93.4749 104.199 94.2649 105.245C95.9269 107.485 98.1939 110.599 100.672 114.058C101.225 114.833 101.766 115.591 102.287 116.32L101.837 116.386C102.422 114.689 103.024 113.075 103.857 111.761C104.669 110.436 105.734 109.466 106.75 108.916C107.766 108.352 108.711 108.186 109.342 108.189C109.979 108.191 110.311 108.308 110.306 108.328C110.3 108.37 109.96 108.317 109.351 108.37C108.746 108.423 107.863 108.631 106.918 109.206C105.97 109.772 104.997 110.707 104.24 111.996C103.465 113.274 102.895 114.853 102.321 116.553L102.162 117.024L101.871 116.619C101.348 115.891 100.804 115.134 100.249 114.361C97.7709 110.902 95.5519 107.754 93.9659 105.459C93.2299 104.375 92.6089 103.461 92.1099 102.726C91.6799 102.073 91.4569 101.703 91.4859 101.682Z" fill="#263238"/>
<g opacity="0.1">
<path d="M110.304 108.327C113.306 111.391 114.773 116.351 114.214 120.604C114.022 122.063 113.854 124.006 115.223 124.548C116.172 124.924 117.195 124.272 117.99 123.632C123.808 118.951 128.643 113.054 132.093 106.431C132.378 105.884 132.661 105.298 132.613 104.683C132.566 104.069 132.053 103.447 131.44 103.514C131.008 103.561 130.682 103.912 130.398 104.24C126.241 109.037 121.639 114.026 117.482 118.823C117.64 116.039 116.821 113.466 115.17 111.433C113.521 109.4 111.717 107.36 110.304 108.327Z" fill="black"/>
</g>
<path d="M148.667 252.62C148.655 252.628 148.549 252.484 148.355 252.201C148.141 251.879 147.865 251.462 147.52 250.942C146.778 249.79 145.744 248.182 144.454 246.178C141.837 242.041 138.189 236.275 133.942 229.561L133.837 229.395L133.976 229.256C136.881 226.359 140.053 223.196 143.355 219.903C151.311 212.029 158.51 204.904 163.765 199.702C166.366 197.162 168.484 195.095 169.992 193.623C170.708 192.939 171.278 192.395 171.704 191.989C172.099 191.619 172.313 191.432 172.326 191.444C172.339 191.457 172.15 191.669 171.778 192.063C171.37 192.487 170.823 193.054 170.135 193.766C168.655 195.266 166.577 197.374 164.025 199.962C158.798 205.191 151.636 212.354 143.723 220.27C140.413 223.556 137.235 226.712 134.323 229.602L134.358 229.298C138.541 236.052 142.134 241.853 144.711 246.015C145.95 248.051 146.944 249.684 147.657 250.855C147.974 251.393 148.228 251.823 148.425 252.156C148.597 252.454 148.68 252.613 148.667 252.62Z" fill="#263238"/>
<path d="M137.638 112.649C137.644 112.655 137.595 112.722 137.492 112.845C137.367 112.99 137.215 113.167 137.028 113.384C136.598 113.838 136.025 114.558 135.309 115.499C133.944 117.402 132.147 120.444 131.484 124.627C130.8 128.786 131.46 133.949 133.708 139.062C134.825 141.609 136.24 144.219 138.108 146.59C140.044 148.953 142.042 151.409 144.053 153.952C152.116 164.118 159.056 173.59 164.146 180.392C166.666 183.77 168.714 186.516 170.162 188.457C170.848 189.385 171.391 190.119 171.789 190.656C171.955 190.89 172.091 191.08 172.202 191.236C172.293 191.369 172.336 191.439 172.328 191.445C172.321 191.45 172.264 191.391 172.159 191.269C172.037 191.122 171.888 190.941 171.705 190.721C171.288 190.198 170.719 189.484 170 188.581C168.533 186.712 166.426 183.995 163.851 180.615C158.685 173.868 151.699 164.433 143.645 154.277C141.636 151.736 139.643 149.281 137.71 146.911C135.799 144.473 134.389 141.844 133.266 139.252C131.012 134.061 130.376 128.796 131.12 124.569C131.842 120.317 133.72 117.26 135.145 115.38C135.893 114.449 136.494 113.747 136.95 113.314C137.153 113.111 137.318 112.945 137.453 112.809C137.569 112.696 137.631 112.642 137.638 112.649Z" fill="#263238"/>
<path d="M171.369 125.564C171.386 125.611 170.819 125.797 169.879 126.296C168.944 126.799 167.656 127.667 166.328 129.029C164.991 130.382 163.641 132.217 162.326 134.372C160.994 136.518 159.664 138.988 157.861 141.335C156.085 143.703 153.81 145.538 151.476 146.616C149.15 147.725 146.831 148.174 144.901 148.258C142.962 148.349 141.398 148.095 140.354 147.833C139.827 147.716 139.432 147.571 139.165 147.477C138.898 147.382 138.761 147.323 138.767 147.306C138.787 147.164 141.063 148.141 144.88 147.89C146.767 147.762 149.02 147.285 151.269 146.183C153.531 145.106 155.706 143.336 157.45 141.016C159.218 138.716 160.558 136.264 161.92 134.117C163.268 131.959 164.673 130.112 166.069 128.767C167.457 127.411 168.809 126.569 169.788 126.114C170.281 125.891 170.672 125.738 170.947 125.663C171.218 125.581 171.363 125.547 171.369 125.564Z" fill="#FAFAFA"/>
<path d="M147.521 213.493C147.518 213.501 147.438 213.489 147.284 213.458C147.101 213.417 146.879 213.366 146.607 213.305C146.313 213.223 145.94 213.168 145.5 213.102C145.063 213.019 144.552 212.974 143.975 212.934C141.676 212.745 138.297 213.032 134.324 214.174C132.339 214.745 130.201 215.506 127.98 216.494C125.76 217.477 123.459 218.712 120.97 219.881C118.481 221.042 115.812 222.204 112.886 222.942C111.427 223.311 109.906 223.575 108.346 223.663C106.787 223.735 105.189 223.637 103.616 223.318C100.463 222.673 97.597 221.322 95.028 219.78C92.448 218.237 90.136 216.496 87.928 214.871C83.553 211.588 79.378 208.854 75.405 207.689C73.438 207.078 71.573 206.832 69.941 206.794C68.305 206.773 66.901 206.986 65.789 207.281C63.551 207.875 62.504 208.693 62.469 208.617C62.464 208.609 62.529 208.562 62.661 208.477C62.821 208.378 63.016 208.257 63.254 208.109C63.795 207.824 64.607 207.402 65.735 207.086C66.855 206.757 68.28 206.51 69.944 206.503C71.604 206.514 73.504 206.738 75.511 207.336C79.57 208.478 83.818 211.22 88.213 214.484C90.431 216.101 92.736 217.823 95.29 219.342C97.833 220.861 100.65 222.18 103.72 222.808C105.251 223.117 106.8 223.213 108.32 223.146C109.841 223.062 111.328 222.808 112.762 222.448C115.636 221.731 118.284 220.592 120.767 219.448C123.25 218.296 125.556 217.077 127.808 216.1C130.054 215.121 132.217 214.374 134.226 213.821C138.247 212.714 141.673 212.48 143.993 212.734C146.322 212.967 147.521 213.493 147.521 213.493Z" fill="#FAFAFA"/>
<path d="M48.672 204.614C48.69 204.612 48.718 204.73 48.755 204.958C48.79 205.186 48.846 205.522 48.872 205.96C48.94 206.832 48.973 208.114 48.711 209.673C48.461 211.225 47.846 213.065 46.632 214.789C45.438 216.542 43.549 217.969 41.504 219.185C39.452 220.413 37.434 221.438 35.783 222.637C34.132 223.832 32.769 225.098 31.921 226.37C31.053 227.636 30.78 228.883 30.768 229.734C30.762 230.591 30.898 231.063 30.844 231.074C30.827 231.078 30.786 230.965 30.724 230.741C30.651 230.519 30.598 230.179 30.566 229.737C30.513 228.856 30.745 227.517 31.613 226.17C32.459 224.815 33.835 223.489 35.502 222.25C37.177 221.002 39.209 219.954 41.237 218.74C43.265 217.532 45.08 216.175 46.244 214.51C47.43 212.871 48.061 211.113 48.351 209.607C48.652 208.096 48.677 206.835 48.671 205.97C48.663 205.1 48.627 204.618 48.672 204.614Z" fill="#FAFAFA"/>
<path d="M199.578 163.221C199.614 163.357 197.117 163.371 193.646 165.075C191.928 165.921 190.011 167.238 188.316 169.119C187.476 170.063 186.696 171.147 186.058 172.361C185.4 173.565 184.945 174.938 184.301 176.294C183.679 177.657 182.785 178.91 181.665 179.81C180.561 180.727 179.318 181.363 178.089 181.795C175.616 182.667 173.226 182.736 171.288 182.64C169.337 182.537 167.782 182.274 166.712 182.095C165.642 181.908 165.055 181.78 165.06 181.746C165.065 181.71 165.664 181.77 166.741 181.895C167.818 182.012 169.375 182.218 171.303 182.272C173.221 182.32 175.55 182.21 177.928 181.343C180.296 180.515 182.684 178.785 183.832 176.07C184.459 174.753 184.921 173.369 185.608 172.122C186.274 170.869 187.087 169.758 187.961 168.796C189.725 166.879 191.712 165.563 193.487 164.743C195.264 163.911 196.819 163.534 197.894 163.363C198.431 163.264 198.855 163.239 199.141 163.221C199.426 163.204 199.577 163.203 199.578 163.221Z" fill="#FAFAFA"/>
<path d="M149.881 171.662C149.883 171.671 149.805 171.694 149.652 171.73C149.468 171.77 149.243 171.818 148.969 171.878C148.368 172.01 147.476 172.17 146.322 172.352C144.015 172.705 140.643 173.105 136.455 173.05C132.284 172.975 127.251 172.451 122.005 170.603C119.379 169.698 116.764 168.381 114.147 166.915C111.52 165.471 108.824 163.914 105.849 162.865C104.364 162.344 102.846 161.979 101.327 161.84C99.8078 161.757 98.2938 161.774 96.8388 162.064C93.9188 162.578 91.2448 163.718 88.8048 164.957C83.9518 167.53 79.8658 170.391 76.1838 172.379C72.5328 174.422 69.2958 175.582 66.9838 175.968C65.8398 176.241 64.9228 176.23 64.3088 176.265C64.0278 176.275 63.7988 176.283 63.6098 176.289C63.4528 176.292 63.3718 176.289 63.3718 176.28C63.3718 176.271 63.4518 176.256 63.6088 176.236C63.7958 176.215 64.0238 176.19 64.3028 176.16C64.9118 176.091 65.8168 176.07 66.9438 175.769C69.2208 175.325 72.3978 174.129 76.0048 172.056C79.6438 170.039 83.6978 167.151 88.5828 164.531C91.0418 163.268 93.7538 162.097 96.7508 161.561C98.2428 161.261 99.8068 161.238 101.374 161.324C102.942 161.465 104.505 161.841 106.021 162.373C109.059 163.446 111.773 165.02 114.393 166.468C117.006 167.939 119.575 169.243 122.164 170.15C127.336 172.001 132.318 172.56 136.461 172.681C140.62 172.782 143.983 172.441 146.292 172.15C147.447 172 148.343 171.872 148.949 171.774C149.227 171.735 149.454 171.703 149.641 171.677C149.799 171.658 149.88 171.653 149.881 171.662Z" fill="#FAFAFA"/>
<path d="M52.1269 177.442C52.0539 177.437 52.3679 176.866 52.0749 175.901C51.7879 174.955 50.6719 173.807 48.9309 173.331C48.0639 173.072 47.0719 172.924 46.0049 172.679C44.9489 172.437 43.7669 172.049 42.8019 171.207C41.8329 170.386 41.1079 169.246 40.5839 168.005C40.0569 166.756 39.7459 165.398 39.4349 164.032C39.1259 162.664 38.8039 161.347 38.2949 160.148C37.7899 158.948 37.1459 157.86 36.4219 156.909C34.9779 154.994 33.2019 153.671 31.5949 152.841C29.9829 151.996 28.5389 151.616 27.5399 151.419C26.5389 151.216 25.9679 151.176 25.9719 151.125C25.9729 151.107 26.1159 151.104 26.3879 151.114C26.6589 151.128 27.0629 151.132 27.5739 151.22C28.5969 151.358 30.0859 151.689 31.7609 152.513C33.4309 153.322 35.2879 154.655 36.8019 156.617C37.5609 157.592 38.2359 158.713 38.7649 159.951C39.2999 161.191 39.6339 162.549 39.9429 163.917C40.2539 165.285 40.5569 166.612 41.0549 167.809C41.5509 169.002 42.2289 170.078 43.1159 170.844C43.9919 171.626 45.0749 172.004 46.1079 172.26C47.1449 172.518 48.1479 172.689 49.0399 172.98C50.8599 173.527 52.0209 174.8 52.2699 175.844C52.4039 176.364 52.3549 176.788 52.2859 177.054C52.2079 177.319 52.1409 177.448 52.1269 177.442Z" fill="#FAFAFA"/>
<path d="M131.106 126.152C131.072 126.226 130.156 125.459 128.167 124.96C127.176 124.739 125.911 124.64 124.486 124.907C123.057 125.144 121.491 125.72 119.822 126.475C118.15 127.232 116.388 128.209 114.466 129.221C112.543 130.22 110.438 131.273 108.039 131.888C105.643 132.517 102.993 132.569 100.348 132.14C97.701 131.688 95.06 130.771 92.509 129.547C87.401 127.057 83.153 123.715 79.049 121.118C74.977 118.471 70.995 116.545 67.401 115.788C63.823 114.955 60.793 115.209 58.811 115.687C56.819 116.178 55.807 116.741 55.782 116.679C55.782 116.679 56.758 116.048 58.762 115.49C60.753 114.944 63.836 114.629 67.479 115.428C71.138 116.15 75.201 118.074 79.307 120.713C83.447 123.303 87.699 126.625 92.735 129.078C95.253 130.285 97.847 131.188 100.434 131.637C103.019 132.063 105.592 132.021 107.923 131.423C110.261 130.839 112.346 129.817 114.269 128.838C116.191 127.846 117.974 126.882 119.673 126.139C121.368 125.398 122.969 124.835 124.44 124.619C125.906 124.373 127.21 124.505 128.217 124.763C129.231 125.025 129.945 125.422 130.423 125.68C130.882 125.975 131.116 126.137 131.106 126.152Z" fill="#FAFAFA"/>
<path d="M125.462 253.114C126.473 253.62 125.352 253.063 128.244 254.499L144.286 254.468L147.521 251.833L135.828 232.604C134.403 233.226 128.116 234.209 126.093 234.924C124.343 235.543 122.496 235.843 120.639 235.841C118.678 235.838 116.154 235.741 114.468 235.334C114.329 235.285 114.155 235.244 114.034 235.19C113.743 235.06 113.455 235.02 113.173 235.016C111.438 234.862 110.064 236.672 111.035 238.105C112.03 239.573 116.742 241.442 122.783 241.271C122.879 241.272 122.968 241.283 123.064 241.283C128.371 241.276 123.504 245.725 120.359 248.36C119.25 249.289 118.622 250.718 118.84 252.148C118.924 252.698 119.129 253.189 119.548 253.452C120.89 254.291 125.462 253.114 125.462 253.114Z" fill="#D7AB9C"/>
<path d="M60.1708 250.72C60.1618 250.719 60.1578 250.624 60.1588 250.437C60.1628 250.22 60.1688 249.948 60.1748 249.608C60.2018 248.841 60.2398 247.776 60.2878 246.423C60.4058 243.618 60.5739 239.627 60.7809 234.712C61.1949 224.79 61.7628 211.148 62.3918 196.078C62.9808 180.985 63.4328 167.32 63.6738 157.428C63.7778 152.51 63.8618 148.518 63.9208 145.712C63.9498 144.359 63.9728 143.293 63.9888 142.526C64.0018 142.186 64.0118 141.914 64.0198 141.697C64.0298 141.51 64.0388 141.415 64.0478 141.415C64.0568 141.415 64.0648 141.511 64.0728 141.697C64.0788 141.913 64.0848 142.186 64.0938 142.526C64.1008 143.293 64.1108 144.359 64.1238 145.713C64.1508 148.481 64.1058 152.486 64.0428 157.435C63.8958 167.333 63.5018 181.003 62.9128 196.098C62.3278 211.188 61.6718 224.846 61.1498 234.73C60.8738 239.642 60.6488 243.63 60.4918 246.433C60.4018 247.784 60.3319 248.848 60.2809 249.613C60.2529 249.952 60.2308 250.224 60.2128 250.439C60.1928 250.625 60.1798 250.72 60.1708 250.72Z" fill="#263238"/>
<path d="M103.699 252.62C103.69 252.621 103.674 252.495 103.651 252.249C103.629 251.977 103.6 251.616 103.562 251.157C103.494 250.166 103.396 248.755 103.272 246.953C103.148 245.127 102.997 242.893 102.915 240.295C102.832 237.697 102.651 234.741 102.629 231.468C102.578 228.196 102.492 224.612 102.539 220.764C102.554 218.84 102.54 216.85 102.581 214.801C102.627 212.752 102.674 210.643 102.723 208.48C102.975 199.831 103.423 190.327 104.119 180.368C105.523 160.442 107.303 142.452 108.443 129.42C109.005 122.925 109.461 117.66 109.779 113.985C109.935 112.186 110.057 110.778 110.143 109.788C110.188 109.33 110.224 108.969 110.251 108.697C110.278 108.452 110.297 108.326 110.306 108.327C110.315 108.328 110.314 108.454 110.305 108.701C110.291 108.973 110.272 109.335 110.249 109.795C110.186 110.787 110.097 112.197 109.982 113.999C109.749 117.65 109.34 122.929 108.811 129.45C107.765 142.493 106.043 160.488 104.64 180.403C103.945 190.357 103.482 199.853 103.204 208.494C103.148 210.654 103.093 212.761 103.04 214.809C102.991 216.856 102.996 218.845 102.972 220.767C102.907 224.612 102.972 228.192 102.999 231.462C102.998 234.732 103.153 237.687 103.208 240.284C103.262 242.882 103.384 245.116 103.476 246.942C103.559 248.746 103.623 250.158 103.668 251.15C103.684 251.61 103.696 251.973 103.705 252.245C103.709 252.493 103.708 252.62 103.699 252.62Z" fill="#263238"/>
<path d="M111.058 154.105C111.009 154.055 111.574 153.817 112.19 154.355C112.467 154.61 112.748 155.051 112.68 155.617C112.621 156.195 112.07 156.677 111.469 156.765C110.871 156.877 110.194 156.6 109.95 156.073C109.702 155.56 109.824 155.051 110.003 154.72C110.411 154.011 111.021 154.053 110.992 154.116C111.019 154.193 110.561 154.295 110.336 154.878C110.231 155.154 110.195 155.54 110.373 155.846C110.538 156.155 110.952 156.322 111.383 156.251C111.813 156.178 112.151 155.886 112.207 155.54C112.276 155.193 112.117 154.839 111.928 154.612C111.523 154.134 111.057 154.187 111.058 154.105Z" fill="#263238"/>
<path d="M108.253 198.989C108.205 198.939 108.769 198.701 109.385 199.239C109.662 199.494 109.943 199.935 109.875 200.501C109.816 201.079 109.265 201.561 108.664 201.649C108.066 201.761 107.389 201.485 107.145 200.957C106.896 200.444 107.019 199.935 107.198 199.604C107.606 198.895 108.216 198.937 108.187 199C108.214 199.077 107.756 199.179 107.531 199.762C107.426 200.038 107.39 200.424 107.568 200.73C107.732 201.039 108.147 201.206 108.578 201.135C109.008 201.062 109.346 200.77 109.402 200.424C109.471 200.077 109.312 199.723 109.123 199.496C108.719 199.018 108.253 199.071 108.253 198.989Z" fill="#263238"/>
<path d="M179.983 229.846C179.978 229.877 179.498 229.833 178.639 229.677C177.786 229.498 176.554 229.175 175.117 228.548C172.265 227.323 168.53 224.704 166.114 220.505C164.887 218.423 164.262 216.204 163.623 214.27C162.997 212.323 162.288 210.63 161.407 209.375C160.548 208.106 159.59 207.291 158.87 206.833C158.143 206.379 157.683 206.228 157.699 206.183C157.705 206.166 157.823 206.192 158.044 206.258C158.265 206.326 158.583 206.452 158.972 206.659C159.745 207.075 160.781 207.88 161.707 209.163C162.656 210.43 163.424 212.169 164.077 214.117C164.747 216.062 165.374 218.229 166.564 220.245C168.912 224.326 172.507 226.925 175.269 228.214C178.064 229.52 180.01 229.736 179.983 229.846Z" fill="#FAFAFA"/>
<path d="M496.813 165.114L461.529 123.506L461.448 123.591C460.055 122.216 458.841 121.003 458.222 120.287C445.995 106.131 436.286 101.328 417.584 101.025L381.225 101.814C374.465 102.367 359.125 99.4759 344.934 118.285L344.916 118.248C319.075 150.642 298.34 178.189 299.506 191.186C300.982 207.637 363.725 254.543 363.725 254.543L449.959 254.467L449.781 247.901L486.981 223.789C500.404 214.719 507.413 206.799 509.11 194.776C510.615 184.11 504.036 173.107 496.813 165.114ZM338.846 189.871C338.846 187.34 352.45 171.389 359.868 162.879L363.724 199.708L363.025 214.088L338.846 189.871ZM448.26 212.543L446.173 164.025L474.292 193.117L448.26 212.543Z" fill="#9F79CF"/>
<path d="M417.952 233.303L354.204 264.804C352.511 265.641 350.46 264.946 349.623 263.253L329.019 221.558C328.182 219.865 328.877 217.814 330.57 216.977L394.318 185.476C396.011 184.639 398.062 185.334 398.899 187.027L419.503 228.722C420.339 230.415 419.645 232.466 417.952 233.303Z" fill="#E0E0E0"/>
<path d="M373.957 221.192C375.815 220.053 378.245 220.636 379.383 222.494C380.521 224.352 379.939 226.782 378.081 227.92C376.223 229.059 373.794 228.476 372.655 226.618C371.516 224.76 372.099 222.33 373.957 221.192Z" fill="white"/>
<path d="M445.633 129.462C445.642 129.462 445.651 129.569 445.66 129.779C445.667 130.017 445.675 130.323 445.686 130.709C445.698 131.561 445.714 132.759 445.735 134.284C445.757 137.424 445.788 141.906 445.826 147.43C445.885 158.528 446.319 173.854 447.179 190.767C448.024 207.686 448.918 222.998 449.385 234.09C449.631 239.635 449.791 244.125 449.878 247.228C449.914 248.753 449.943 249.949 449.964 250.802C449.968 251.187 449.971 251.494 449.973 251.732C449.972 251.942 449.967 252.049 449.958 252.049C449.949 252.049 449.936 251.942 449.919 251.733C449.903 251.496 449.883 251.19 449.858 250.805C449.814 249.954 449.753 248.758 449.675 247.236C449.518 244.101 449.293 239.625 449.016 234.108C448.411 222.994 447.578 207.695 446.657 190.792C445.797 173.875 445.421 158.535 445.456 147.431C445.487 141.907 445.512 137.424 445.53 134.284C445.551 132.759 445.567 131.562 445.579 130.709C445.59 130.324 445.598 130.017 445.605 129.779C445.615 129.569 445.624 129.462 445.633 129.462Z" fill="#263238"/>
<path d="M355.838 107.706C360.44 104.363 365.787 105.374 370.395 108.708C375.004 112.042 377.568 117.709 378.03 123.378C378.492 129.047 377.047 134.727 374.882 139.987C371.412 148.418 366.276 155.238 358.609 163.923L338.845 189.871L376.985 227.108L361.18 252.048L329.235 226.345C318.332 217.132 309.05 207.71 302.234 197.97" fill="#9F79CF"/>
<path d="M302.236 197.969C302.236 197.969 302.321 198.066 302.473 198.267C302.633 198.482 302.854 198.78 303.142 199.168C303.73 199.964 304.607 201.139 305.801 202.627C308.169 205.617 311.818 209.852 316.834 214.825C319.342 217.31 322.191 219.978 325.37 222.779C328.525 225.607 332.128 228.426 335.931 231.479C343.537 237.584 352.076 244.437 361.328 251.863L360.98 251.921C365.886 244.168 371.214 235.75 376.769 226.971L376.806 227.29C370.451 221.088 363.869 214.664 357.128 208.086C350.808 201.914 344.628 195.878 338.665 190.054L338.503 189.896L338.64 189.716C345.616 180.569 352.254 171.866 358.42 163.781L358.425 163.774L358.431 163.768C362.295 159.397 365.892 155.083 368.874 150.655C371.871 146.24 374.151 141.666 375.744 137.165C377.334 132.669 378.129 128.182 377.898 124.043C377.688 119.906 376.397 116.186 374.526 113.299C372.653 110.39 370.14 108.428 367.745 107.222C365.345 105.992 363.004 105.621 361.155 105.762C359.296 105.925 357.947 106.505 357.103 106.961C356.251 107.417 355.853 107.732 355.836 107.707C355.836 107.707 355.933 107.627 356.136 107.486C356.342 107.35 356.632 107.117 357.066 106.894C357.904 106.413 359.258 105.802 361.142 105.613C363.016 105.445 365.401 105.8 367.842 107.026C370.274 108.224 372.843 110.201 374.762 113.144C376.679 116.063 378.006 119.829 378.238 124.024C378.49 128.217 377.701 132.758 376.114 137.294C374.525 141.833 372.241 146.449 369.236 150.898C366.247 155.359 362.647 159.696 358.785 164.08L358.796 164.067C352.64 172.16 346.013 180.871 339.048 190.027L339.023 189.689C344.988 195.511 351.17 201.544 357.492 207.715C364.23 214.296 370.809 220.722 377.162 226.927L377.31 227.072L377.199 227.247C371.633 236.019 366.295 244.43 361.379 252.177L361.237 252.401L361.031 252.235C351.796 244.786 343.272 237.91 335.68 231.787C331.889 228.723 328.292 225.888 325.142 223.039C321.97 220.22 319.13 217.534 316.632 215.03C311.636 210.02 308.014 205.747 305.681 202.724C304.504 201.219 303.646 200.028 303.078 199.217C302.803 198.819 302.592 198.514 302.439 198.294C302.299 198.081 302.236 197.969 302.236 197.969Z" fill="#263238"/>
<path d="M487.956 192.398C487.919 192.476 487.182 192.152 485.954 191.781C484.728 191.415 482.981 191.052 481.038 191.148C479.095 191.253 477.395 191.796 476.215 192.29C475.034 192.789 474.336 193.191 474.291 193.118C474.259 193.07 474.89 192.554 476.061 191.955C477.227 191.363 478.983 190.737 481.01 190.628C483.037 190.528 484.847 190.967 486.07 191.432C487.299 191.903 487.982 192.347 487.956 192.398Z" fill="#263238"/>
<path d="M384.811 250.883C383.81 251.383 380.733 252.912 377.872 254.332C374.431 256.04 370.309 255.579 367.33 253.153L362.987 249.616L374.984 230.745C376.394 231.36 382.185 232.18 384.187 232.886C385.918 233.498 387.745 233.796 389.582 233.793C391.522 233.79 394.019 233.694 395.687 233.291C395.824 233.242 395.997 233.202 396.117 233.149C396.405 233.02 396.69 232.981 396.968 232.977C398.685 232.825 400.044 234.616 399.083 236.033C398.099 237.485 393.437 239.335 387.46 239.165C387.365 239.166 387.278 239.177 387.182 239.177C381.931 239.17 386.747 243.572 389.858 246.178C390.955 247.097 391.576 248.511 391.36 249.925C391.277 250.469 391.074 250.955 390.659 251.215C389.334 252.047 384.811 250.883 384.811 250.883Z" fill="#D2A697"/>
<path d="M400.868 118.403C391.67 118.403 383.398 110.563 383.477 98.8849L381.822 32.3699L382.009 32.3999C381.952 29.5149 384.113 27.0649 386.982 26.7619L414.4 23.8619C423.847 22.8629 432.21 29.9399 432.807 39.4209C433.471 49.9549 433.866 62.8409 432.618 70.7009C430.108 86.5049 417.995 88.5159 417.995 88.5159L418.291 99.5559C418.757 111.321 409.953 118.403 400.868 118.403Z" fill="#D2A697"/>
<path d="M426.68 47.996C426.718 49.066 425.843 49.981 424.726 50.041C423.611 50.101 422.675 49.284 422.637 48.214C422.599 47.144 423.474 46.228 424.589 46.168C425.705 46.107 426.642 46.926 426.68 47.996Z" fill="#263238"/>
<path d="M430.013 46.124C429.762 46.388 428.226 45.252 426.045 45.258C423.866 45.232 422.266 46.354 422.029 46.087C421.913 45.969 422.169 45.492 422.866 44.984C423.552 44.479 424.722 43.987 426.081 43.993C427.44 44.001 428.582 44.501 429.239 45.013C429.909 45.527 430.136 46.006 430.013 46.124Z" fill="#263238"/>
<path d="M405.626 48.403C405.664 49.473 404.789 50.388 403.672 50.448C402.557 50.508 401.621 49.691 401.583 48.621C401.545 47.551 402.42 46.635 403.536 46.575C404.652 46.514 405.589 47.332 405.626 48.403Z" fill="#263238"/>
<path d="M408.574 46.531C408.322 46.795 406.785 45.659 404.605 45.665C402.427 45.639 400.826 46.762 400.589 46.494C400.473 46.376 400.726 45.899 401.426 45.391C402.112 44.885 403.282 44.394 404.64 44.4C405.999 44.408 407.141 44.908 407.799 45.419C408.468 45.935 408.697 46.413 408.574 46.531Z" fill="#263238"/>
<path d="M416.489 62.706C416.479 62.582 417.835 62.3479 420.032 62.0669C420.589 62.0089 421.116 61.899 421.21 61.519C421.341 61.116 421.108 60.516 420.838 59.868C420.314 58.52 419.766 57.108 419.191 55.627C416.904 49.589 415.248 44.624 415.492 44.534C415.736 44.444 417.788 49.265 420.075 55.303C420.625 56.792 421.152 58.211 421.653 59.569C421.864 60.202 422.226 60.92 421.942 61.755C421.792 62.171 421.383 62.473 421.026 62.569C420.669 62.678 420.356 62.684 420.08 62.7C417.869 62.82 416.498 62.83 416.489 62.706Z" fill="#263238"/>
<path d="M417.996 88.5149C417.996 88.5149 407.364 89.1999 396.83 82.8689C396.83 82.8689 402.306 94.7599 418.124 93.2809L417.996 88.5149Z" fill="#A3877D"/>
<path d="M409.555 42.7119C409.34 43.3049 407.162 43.0239 404.604 43.3319C402.039 43.5889 399.975 44.3379 399.636 43.8059C399.485 43.5509 399.844 42.9939 400.679 42.4189C401.506 41.8459 402.825 41.3009 404.362 41.1299C405.898 40.9619 407.305 41.2059 408.236 41.5849C409.175 41.9649 409.648 42.4309 409.555 42.7119Z" fill="#263238"/>
<path d="M429.211 39.812C428.827 40.307 427.325 39.793 425.518 39.769C423.712 39.681 422.181 40.102 421.829 39.584C421.675 39.332 421.915 38.836 422.584 38.367C423.242 37.9 424.344 37.518 425.586 37.555C426.827 37.594 427.903 38.043 428.531 38.551C429.17 39.06 429.38 39.57 429.211 39.812Z" fill="#263238"/>
<path d="M382.014 47.484C384.699 47.002 386.85 47.83 387.606 50.451C388.744 54.398 387.968 56.351 388.162 59.072C389.492 58.673 390.821 58.274 392.151 57.874C391.159 48.763 393.422 42.02 392.43 32.908C397.987 34.706 405.627 31.274 408 25.511C412.649 29.036 419.406 29.511 424.503 26.671C425.972 29.458 429.331 30.399 431.293 29.847C434.326 28.995 437.47 24.732 438.339 21.704C439.904 16.253 439.14 8.43398 434.721 4.87998C430.302 1.32598 421.438 2.17898 417.996 6.68498C416.637 8.46398 416.478 11.757 414.285 12.207C412.341 12.606 410.569 11.164 408.79 10.284C403.238 7.53998 395.574 11.185 394.201 17.224C389.56 14.457 383.943 12.649 378.75 14.141C373.557 15.633 369.422 21.383 371.187 26.49C371.925 28.624 373.566 30.466 373.747 32.717C374.096 37.068 368.883 41.007 370.547 45.042C371.478 47.3 374.209 48.302 375.441 50.41C376.821 52.771 375.966 55.743 376.078 58.475C376.266 63.036 378.596 69.786 382.972 71.082" fill="#263238"/>
<path d="M382.411 47.4309C380.785 47.5869 380.01 48.6559 379.391 49.8429C378.772 51.0289 378.572 52.3949 378.575 53.7339C378.579 55.8129 379.099 57.9759 380.483 59.5279C381.866 61.0799 384.239 61.8489 386.12 60.9639" fill="#D2A697"/>
<path d="M385.141 57.5289C385.162 57.5789 384.552 57.8019 383.623 57.4679C383.17 57.3019 382.658 56.9809 382.254 56.4669C381.85 55.9539 381.575 55.2639 381.522 54.5199C381.464 53.7769 381.625 53.0559 381.932 52.4859C382.235 51.9139 382.655 51.4939 383.052 51.2229C383.865 50.6759 384.505 50.7139 384.5 50.7699C384.521 50.8529 383.944 50.9529 383.275 51.5159C382.609 52.0539 381.92 53.1569 382.042 54.4799C382.118 55.8079 382.985 56.7819 383.769 57.1289C384.551 57.5109 385.14 57.4409 385.141 57.5289Z" fill="#A3877D"/>
<path d="M409.545 70.432C411.496 71.804 415.325 71.077 416.745 69.049C413.7 67.389 410.881 65.313 408.392 62.896C408.392 62.896 405.552 67.624 409.545 70.432Z" fill="#FAFAFA"/>
<path d="M416.014 75.047C415.926 75.17 414.922 74.434 413.473 74.447C412.024 74.421 411.014 75.148 410.927 75.024C410.886 74.976 411.081 74.712 411.526 74.44C411.966 74.167 412.673 73.924 413.475 73.926C414.277 73.931 414.981 74.18 415.419 74.457C415.862 74.734 416.055 74.999 416.014 75.047Z" fill="#602C1A"/>
<path d="M426.668 139.082C431.093 132.917 435.937 123.913 438.158 119.677C442.289 111.796 441.594 111.395 440.603 111.045C437.938 110.104 432.815 124.62 432.127 120.817C431.441 117.014 440.435 103.844 437.611 102.975C433.934 101.845 428.845 117.146 428.319 118.407C427.809 119.632 425.973 118.904 426.508 117.793C427.276 116.196 434.935 99.2061 431.332 98.0611C429.335 97.4261 428.614 101.165 428.614 101.165C428.614 101.165 422.607 117.62 420.923 117.022C419.213 116.415 422.419 106.627 423.729 103.408C425.024 100.228 424.055 98.2801 422.185 98.8391C420.91 99.2211 416.664 108.977 415.441 112.192C414.218 115.406 411.018 124.289 409.075 118.538C409.044 118.447 409.006 118.368 408.974 118.278C407.215 112.563 403.966 108.743 402.274 108.277C400.623 107.823 399.364 109.685 400.06 111.262C400.154 111.524 400.283 111.782 400.497 112.013C400.586 112.109 400.679 112.26 400.77 112.374C401.687 113.824 402.58 116.158 403.206 117.994C403.799 119.733 404.104 121.558 404.081 123.395C404.054 125.517 405.131 131.72 405.002 133.253" fill="#FFAD9D"/>
<path d="M404.028 131.043L379.84 179.012C379.84 179.012 366.161 139.437 358.783 123.696C355.965 117.684 350.334 113.538 344.919 110.778V110.67C344.541 110.514 344.165 110.371 343.788 110.22C337.744 107.33 332.242 106.156 331.603 106.026C306.079 98.7221 282.037 101.272 254.206 111.006C254.206 111.006 239.757 114.893 232.754 133.742C226.445 150.725 219.382 176.717 218.171 181.337C209.496 210.518 221.882 226.771 239.107 224.769C246.209 223.651 252.249 217.812 254.921 215.49L264.031 206.927L264.231 213.558L254.043 254.501L358.783 254.283L339.884 205.788L344.076 183.558L351.265 200.643C355.839 211.514 366.371 218.686 378.162 218.959C390.176 219.237 401.192 212.303 406.136 201.349L430.634 139.688L404.028 131.043Z" fill="#407BFF"/>
<path d="M277.873 190.839C277.901 190.861 277.565 191.34 276.932 192.187C276.295 193.031 275.352 194.237 274.142 195.689C271.734 198.604 268.258 202.509 264.226 206.635C260.192 210.762 256.355 214.315 253.48 216.772C252.047 218.005 250.858 218.97 250.019 219.613C249.18 220.258 248.707 220.6 248.684 220.572C248.662 220.544 249.093 220.148 249.89 219.456C250.688 218.766 251.838 217.76 253.236 216.495C256.042 213.973 259.827 210.388 263.853 206.27C267.876 202.153 271.386 198.297 273.861 195.449C275.105 194.03 276.089 192.863 276.773 192.059C277.454 191.253 277.845 190.817 277.873 190.839Z" fill="#263238"/>
<path d="M340.176 204.235C340.158 204.231 340.179 204.039 340.235 203.675C340.306 203.255 340.395 202.73 340.503 202.088C340.772 200.643 341.139 198.674 341.587 196.272C342.51 191.364 343.769 184.581 344.775 177.033C345.024 175.145 345.253 173.3 345.452 171.516C345.666 169.725 345.828 168.026 345.738 166.387C345.591 163.111 344.974 160.192 344.45 157.759C343.91 155.325 343.412 153.364 343.139 151.99C342.999 151.304 342.916 150.765 342.877 150.397C342.849 150.027 342.844 149.834 342.862 149.833C342.88 149.832 342.921 150.022 342.981 150.382C343.053 150.741 343.166 151.269 343.336 151.945C343.668 153.299 344.22 155.243 344.808 157.676C345.379 160.108 346.04 163.035 346.217 166.365C346.322 168.029 346.165 169.794 345.958 171.571C345.766 173.36 345.54 175.209 345.29 177.101C344.282 184.666 342.964 191.451 341.947 196.342C341.433 198.731 341.011 200.689 340.701 202.127C340.554 202.761 340.433 203.28 340.337 203.695C340.249 204.052 340.194 204.238 340.176 204.235Z" fill="#263238"/>
<path d="M377.678 190.736C377.537 190.71 377.909 188.078 378.509 184.86C379.11 181.64 379.711 179.052 379.853 179.078C379.994 179.104 379.622 181.735 379.021 184.955C378.421 188.174 377.819 190.762 377.678 190.736Z" fill="#263238"/>
<path d="M381.371 192.155C381.228 192.171 380.76 189.151 380.326 185.409C379.892 181.666 379.656 178.619 379.799 178.603C379.942 178.586 380.41 181.606 380.844 185.349C381.278 189.091 381.514 192.139 381.371 192.155Z" fill="#263238"/>
<path d="M304.11 254.281C303.966 254.281 303.85 238.204 303.85 218.377C303.85 198.543 303.967 182.47 304.11 182.47C304.254 182.47 304.37 198.543 304.37 218.377C304.371 238.205 304.254 254.281 304.11 254.281Z" fill="#263238"/>
<g opacity="0.2">
<path d="M343.413 152.728C348.316 162.139 352.592 171.504 352.979 182.109C353.28 190.362 349.976 197.239 353.386 204.761C353.223 204.894 350.308 198.412 349.022 195.369C346.374 189.106 344.041 183.52 344.041 183.52C344.041 183.52 345.862 169.384 346.012 166.976C346.164 164.57 343.413 152.728 343.413 152.728Z" fill="black"/>
</g>
<g opacity="0.2">
<path d="M221.882 200.541C221.886 205.259 218.946 189.681 221.694 185.846C223.615 183.164 226.924 181.876 230.121 181.063C233.319 180.25 236.671 179.743 239.512 178.066C243.179 175.901 245.495 172.098 248.078 168.712C250.66 165.326 254.069 150.957 258.317 150.654V171.626C248.324 177.916 237.752 184.238 226.7 189.359C226.7 189.359 221.875 193.156 221.882 200.541Z" fill="black"/>
</g>
<g opacity="0.2">
<path d="M264.031 206.926C270.876 203.08 275.878 197.964 283.617 196.598C291.07 195.282 298.736 196.64 306.284 196.084C305.868 192.269 305.451 188.454 305.035 184.638L283.456 184.396L264.031 206.926Z" fill="black"/>
</g>
<path d="M258.317 150.396C258.461 150.396 258.577 155.07 258.577 160.834C258.577 166.6 258.46 171.273 258.317 171.273C258.173 171.273 258.057 166.6 258.057 160.834C258.056 155.07 258.173 150.396 258.317 150.396Z" fill="#263238"/>
<path d="M221.856 200.427C221.796 200.431 221.678 199.724 221.743 198.571C221.805 197.422 222.103 195.83 222.8 194.204C223.503 192.58 224.455 191.27 225.248 190.436C226.041 189.597 226.636 189.198 226.675 189.244C226.8 189.358 224.619 191.237 223.279 194.411C221.892 197.563 222.025 200.439 221.856 200.427Z" fill="#263238"/>
<path d="M226.167 189.563C226.183 189.598 226.743 189.391 227.743 188.987C228.745 188.586 230.176 187.965 231.928 187.163C235.433 185.56 240.195 183.168 245.262 180.202C250.328 177.23 254.728 174.252 257.824 171.987C259.373 170.855 260.606 169.914 261.439 169.24C262.274 168.569 262.724 168.184 262.7 168.154C262.676 168.124 262.179 168.451 261.304 169.069C260.342 169.742 259.092 170.617 257.587 171.67C254.438 173.849 250.017 176.764 244.969 179.727C239.919 182.683 235.204 185.121 231.752 186.811C230.092 187.613 228.713 188.279 227.652 188.791C226.681 189.254 226.151 189.528 226.167 189.563Z" fill="#263238"/>
<path d="M357.568 60.8161C355.853 58.5651 353.121 56.8551 352.603 54.0731C351.915 50.3811 355.563 46.9211 354.927 43.2201C354.491 40.6881 352.156 38.9141 349.782 37.9311C347.408 36.9481 344.813 36.4761 342.6 35.1721C339.942 33.6071 338.062 30.9541 336.872 28.1081C336.541 27.3161 336.266 26.5041 336.018 25.6841C335.748 23.9201 335.427 22.1351 334.808 20.4891C334.725 20.0481 334.64 19.6071 334.559 19.1661L334.668 20.1351C334.329 19.3051 333.915 18.5111 333.371 17.7861C331.543 15.3481 327.88 13.9901 325.362 15.7051L326.557 14.8971C323.609 7.56309 316.561 2.03909 308.734 0.931091C307.234 0.718091 305.717 0.673092 304.21 0.776092C298.823 0.499092 291.031 2.07209 287.742 4.15709C283.542 6.81909 279.239 10.4751 277.136 14.9811C276 17.4141 275.235 20.2171 273.094 21.8371C270.234 24.0001 266.218 23.1621 262.655 23.5641C256.77 24.2281 251.673 28.7411 249.654 34.3091C247.635 39.8761 248.491 46.2601 251.29 51.4791C251.909 52.6331 252.64 53.9601 252.151 55.1751C251.772 56.1161 250.785 56.6331 249.905 57.1391C247.584 58.4731 245.455 60.3501 244.457 62.8341C243.459 65.3181 243.84 68.4711 245.858 70.2301C247.494 71.6571 249.922 71.8691 251.966 71.1051C251.384 72.6181 251.033 74.2061 251.029 75.8291C251.02 79.3591 252.807 82.9901 255.937 84.6221C259.067 86.2541 263.451 85.3921 265.294 82.3801C265.265 86.7951 267.819 91.1331 271.693 93.2501C275.567 95.3671 280.597 95.1721 284.297 92.7631C285.781 91.7971 287.302 90.4401 289.051 90.7201C290.762 90.9931 291.787 92.6931 292.989 93.9411C296.192 97.2671 301.648 97.6561 305.858 95.7591C310.068 93.8611 313.169 90.0941 315.402 86.0521C316.945 88.3661 319.866 89.6771 322.62 89.2921C325.374 88.9071 327.824 86.8441 328.672 84.1961C332.38 88.9421 339.747 90.3291 344.927 87.2561C348.452 85.1651 350.645 81.1941 350.937 77.1281C354.231 76.6111 357.247 74.4281 358.678 71.4061C360.274 68.0321 359.83 63.7841 357.568 60.8161ZM257.009 63.9081C257.011 63.8881 257.016 63.8691 257.019 63.8491C257.019 63.8491 257.06 63.8311 257.124 63.8041C257.087 63.8401 257.047 63.8731 257.009 63.9081Z" fill="#263238"/>
<path d="M320.444 89.0432C320.444 89.0432 333.248 86.9172 335.901 70.2122C337.22 61.9042 336.803 48.2822 336.101 37.1482C335.47 27.1262 326.63 19.6452 316.644 20.7022L287.662 23.7672C284.628 24.0882 282.345 26.6772 282.405 29.7272L285.451 102.308C283.34 102.76 278.549 103.805 276.203 104.484C276.203 104.484 298.624 154.589 304.111 154.008C309.598 153.427 331.541 106.013 331.541 106.013C331.541 106.013 326.873 104.523 319.922 103.165C319.805 95.4902 320.444 89.0432 320.444 89.0432Z" fill="#FFAD9D"/>
<path d="M329.623 46.2132C329.663 47.3442 328.738 48.3112 327.557 48.3752C326.378 48.4382 325.389 47.5752 325.349 46.4432C325.309 45.3122 326.234 44.3442 327.413 44.2802C328.593 44.2162 329.583 45.0812 329.623 46.2132Z" fill="#263238"/>
<path d="M333.146 44.2342C332.88 44.5132 331.257 43.3122 328.952 43.3182C326.649 43.2912 324.957 44.4772 324.707 44.1952C324.584 44.0702 324.855 43.5662 325.591 43.0302C326.316 42.4962 327.553 41.9762 328.989 41.9822C330.425 41.9902 331.633 42.5192 332.327 43.0602C333.037 43.6042 333.277 44.1092 333.146 44.2342Z" fill="#263238"/>
<path d="M307.369 46.643C307.409 47.774 306.484 48.741 305.303 48.804C304.124 48.867 303.135 48.0041 303.095 46.8721C303.055 45.7411 303.98 44.772 305.159 44.709C306.339 44.646 307.329 45.512 307.369 46.643Z" fill="#263238"/>
<path d="M310.485 44.6641C310.219 44.9431 308.594 43.7421 306.29 43.7491C303.987 43.7221 302.295 44.9081 302.045 44.6251C301.922 44.5001 302.19 43.9961 302.93 43.4601C303.655 42.9261 304.892 42.4071 306.328 42.4121C307.764 42.4201 308.972 42.9491 309.667 43.4901C310.373 44.0341 310.615 44.5391 310.485 44.6641Z" fill="#263238"/>
<path d="M318.851 61.7621C318.84 61.6311 320.273 61.3831 322.596 61.0861C323.185 61.0251 323.742 60.9081 323.841 60.5071C323.98 60.0811 323.733 59.4471 323.448 58.7621C322.895 57.3371 322.315 55.8441 321.707 54.2791C319.289 47.8971 317.539 42.6481 317.797 42.5531C318.055 42.4581 320.224 47.5541 322.641 53.9371C323.223 55.5111 323.779 57.0111 324.309 58.4471C324.532 59.1161 324.915 59.8751 324.614 60.7571C324.456 61.1971 324.023 61.5161 323.646 61.6181C323.269 61.7331 322.938 61.7391 322.646 61.7571C320.31 61.8821 318.86 61.8931 318.851 61.7621Z" fill="#263238"/>
<path d="M320.444 89.0432C320.444 89.0432 309.206 89.7682 298.071 83.0752C298.071 83.0752 303.499 94.5512 320.219 92.9872L320.444 89.0432Z" fill="#ED9482"/>
<path d="M312.359 65.3693C312.888 65.0473 313.438 64.7173 314.053 64.6413C314.668 64.5653 315.369 64.8143 315.623 65.3793C315.709 65.5703 315.742 65.7873 315.864 65.9573C316.197 66.4173 316.909 66.2533 317.454 66.4123C318.311 66.6613 318.666 67.7893 318.339 68.6193C318.012 69.4493 317.208 69.9983 316.384 70.3393C315.258 70.8043 314.011 70.9753 312.801 70.8303C311.957 70.7293 311.069 70.4323 310.586 69.7333C310.008 68.8983 310.196 67.7163 310.762 66.8733C311.328 66.0313 312.201 65.4523 313.05 64.8963" fill="#ED9482"/>
<path d="M312.066 63.3572C312.441 63.3352 312.446 65.8382 314.588 67.6142C316.726 69.3962 319.394 69.1152 319.413 69.4652C319.448 69.6222 318.819 69.9512 317.693 69.9822C316.588 70.0202 314.976 69.6652 313.665 68.5792C312.358 67.4902 311.796 66.0372 311.711 65.0102C311.616 63.9622 311.895 63.3422 312.066 63.3572Z" fill="#263238"/>
<path d="M311.521 40.6281C311.294 41.2551 308.992 40.9581 306.287 41.2841C303.575 41.5561 301.394 42.3481 301.035 41.7851C300.875 41.5161 301.255 40.9261 302.137 40.3191C303.011 39.7131 304.406 39.1371 306.03 38.9561C307.654 38.7791 309.141 39.0361 310.125 39.4371C311.119 39.8381 311.619 40.3301 311.521 40.6281Z" fill="#263238"/>
<path d="M332.298 39.0242C331.892 39.5472 330.304 39.0042 328.394 38.9792C326.485 38.8862 324.867 39.3312 324.495 38.7832C324.332 38.5172 324.586 37.9932 325.293 37.4972C325.989 37.0032 327.154 36.5992 328.466 36.6392C329.778 36.6812 330.915 37.1552 331.579 37.6922C332.256 38.2302 332.477 38.7692 332.298 39.0242Z" fill="#263238"/>
<path d="M326.327 18.2232C325.085 24.1242 321.378 29.4652 316.284 32.6922C311.19 35.9192 304.777 36.9902 298.912 35.5932C298.033 42.9192 293.009 49.6052 286.217 52.4872C290.828 60.7922 292.744 70.5652 291.611 79.9962C291.125 84.0432 289.947 88.2722 286.912 90.9932C282.275 95.1492 274.448 94.1412 269.988 89.7972C265.715 85.6362 264.204 79.1072 265.413 73.2662C266.621 67.4252 270.287 62.2832 274.9 58.5002C271.042 57.8392 267.676 54.8612 266.548 51.1132C265.42 47.3652 266.585 43.0242 269.438 40.3442C270.756 39.1062 272.409 38.1832 273.4 36.6722C274.336 35.2452 274.558 33.4822 275.129 31.8742C276.623 27.6652 280.387 24.7492 283.966 22.0762C286.997 19.8132 290.32 17.4482 294.102 17.4582C296.12 17.4632 298.125 18.1602 300.124 17.8902C302.874 17.5182 305.018 15.4342 307.297 13.8512C310.508 11.6202 314.482 10.2472 318.345 10.8532C322.208 11.4582 325.821 14.3472 326.551 18.1892" fill="#263238"/>
<path d="M324.839 19.874C324.248 23.099 325.881 26.4091 328.257 28.6691C330.633 30.9291 333.674 32.334 336.654 33.7C335.482 30.557 334.287 27.373 332.331 24.649C330.374 21.925 327.53 19.669 324.213 19.165" fill="#263238"/>
<path d="M251.357 58.3901C251.357 58.3901 251.196 58.042 251.268 57.343C251.333 56.658 251.737 55.62 252.766 54.761C253.785 53.876 255.462 53.4351 257.325 53.5151C259.197 53.5421 261.273 54.1351 263.562 53.9971C265.826 53.8641 268.242 52.5161 269.644 50.2331C270.367 49.1031 270.703 47.737 270.782 46.304C270.877 44.869 270.75 43.3691 270.83 41.8081C270.892 40.2601 271.275 38.5861 272.291 37.2411C273.278 35.8821 274.734 34.9091 276.292 34.2351C279.44 32.8121 283.032 32.7871 286.474 32.1441C288.201 31.8221 289.881 31.3221 291.328 30.4441C292.782 29.5761 293.953 28.3401 294.943 27.0231C296.894 24.3411 298.201 21.3471 299.992 18.8001C301.744 16.2131 304.126 14.2821 306.6 13.0481C309.079 11.8021 311.662 11.2301 314.014 11.1901C316.371 11.1561 318.489 11.6001 320.234 12.2501C321.991 12.8821 323.379 13.7221 324.443 14.4801C326.561 16.0361 327.39 17.2551 327.39 17.2551C327.383 17.2611 327.315 17.2011 327.19 17.0781C327.044 16.9331 326.863 16.7521 326.639 16.5291C326.142 16.0611 325.395 15.3801 324.327 14.6461C322.227 13.2051 318.674 11.4521 314.024 11.5581C311.725 11.6201 309.207 12.2011 306.796 13.4341C304.388 14.6581 302.087 16.5411 300.388 19.0741C298.639 21.5761 297.346 24.5711 295.355 27.3261C294.342 28.6801 293.125 29.9741 291.597 30.8881C290.076 31.8131 288.33 32.3281 286.572 32.6561C283.056 33.3061 279.53 33.3321 276.497 34.7031C274.992 35.3491 273.613 36.2741 272.693 37.5361C271.747 38.7851 271.38 40.3251 271.311 41.8341C271.225 43.3491 271.345 44.8551 271.24 46.3331C271.154 47.8041 270.785 49.2731 270.013 50.4581C268.518 52.8551 265.968 54.2441 263.588 54.3621C261.203 54.4771 259.146 53.853 257.316 53.804C255.494 53.7 253.885 54.099 252.896 54.917C251.89 55.717 251.47 56.698 251.374 57.356C251.269 58.028 251.393 58.3871 251.357 58.3901Z" fill="#FAFAFA"/>
<path d="M276.202 135.582L277.256 162.224L279.943 187.722L308.268 186.514L306.231 136.156L276.202 135.582Z" fill="#263238"/>
<path d="M272.04 135.489L273.097 162.224L275.784 187.722L304.11 186.514L302.07 136.076L272.04 135.489Z" fill="#455A64"/>
<path d="M269.384 190.839C276.972 190.696 287.085 189.191 291.807 188.437C300.594 187.033 300.499 186.236 300.187 185.232C299.347 182.534 284.65 187.112 287.286 184.286C289.923 181.461 305.857 180.788 304.863 178.007C303.569 174.384 288.263 179.461 286.938 179.794C285.652 180.118 285.136 178.211 286.347 177.975C288.087 177.635 306.282 173.607 305.044 170.035C304.358 168.054 300.931 169.714 300.931 169.714C300.931 169.714 284.152 174.745 283.624 173.038C283.088 171.305 292.848 168.017 296.212 167.142C299.535 166.278 300.516 164.335 298.949 163.171C297.881 162.378 287.522 164.812 284.215 165.756C280.908 166.699 271.876 169.449 275.322 164.451C275.376 164.372 275.417 164.294 275.47 164.215C278.997 159.386 280.114 154.497 279.475 152.863C278.852 151.269 276.606 151.373 275.758 152.874C275.604 153.106 275.475 153.363 275.418 153.673C275.394 153.802 275.329 153.967 275.292 154.108C274.679 155.71 273.343 157.822 272.246 159.422C271.207 160.937 269.927 162.274 268.442 163.354C266.726 164.602 262.399 169.176 261.094 169.989" fill="#FFAD9D"/>
<path d="M262.887 168.475L277.873 190.839L253.182 216.022L254.018 175.178L262.887 168.475Z" fill="#407BFF"/>
<path d="M263.438 254.468L246.456 205.132L254.321 157.787C256.611 145.023 257.889 133.762 254.46 127.355C245.293 110.229 234.225 108.694 219.101 104.763C215.982 103.952 192.253 103.153 189.643 103.793C169.055 106.101 155.869 117.016 148.672 134.754L140.826 166.345L130.06 199.384C128.013 203.42 124.649 206.208 120.568 207.108L79.0039 221.28L79.3499 229.412L79.0039 240.381L134.296 230.003C145.385 227.922 156.652 223.834 159.826 213.137L165.781 195.525C168.693 202.982 171.856 209.818 171.856 209.818L167.816 254.25L263.438 254.468Z" fill="#455A64"/>
<path d="M249.198 166.811L233.397 219.637C230.949 227.822 224.561 234.236 216.386 236.719L150.628 254.245L141.915 231.54L201.354 209.445L215.943 156.537C215.943 156.537 219.311 126.965 246.06 128.484" fill="#455A64"/>
<path d="M246.06 128.483C246.06 128.483 245.789 128.494 245.262 128.491C244.735 128.511 243.949 128.428 242.922 128.516C240.877 128.587 237.791 128.878 234.134 130.312C232.315 131.029 230.364 132.042 228.462 133.487C226.558 134.926 224.714 136.787 223.054 139.032C219.767 143.533 217.177 149.579 216.121 156.556L216.118 156.574L216.115 156.583C212.075 171.296 207.126 189.323 201.584 209.507L201.552 209.624L201.437 209.667C183.198 216.454 163.12 223.925 142.006 231.782L142.158 231.445C142.647 232.721 143.177 234.099 143.707 235.482C146.16 241.877 148.58 248.183 150.869 254.15L150.561 253.993C170.771 248.617 189.832 243.547 207.058 238.965C209.211 238.393 211.336 237.829 213.43 237.272C214.474 236.988 215.524 236.732 216.542 236.43C217.548 236.11 218.53 235.735 219.481 235.306C223.281 233.578 226.509 230.955 228.912 227.88C230.113 226.34 231.111 224.689 231.903 222.983C232.708 221.279 233.241 219.512 233.758 217.761C234.807 214.273 235.813 210.93 236.772 207.744C240.616 195.012 243.705 184.778 245.838 177.712C246.91 174.198 247.741 171.475 248.308 169.614C248.592 168.702 248.809 168.003 248.96 167.518C249.109 167.047 249.198 166.81 249.198 166.81C249.198 166.81 249.141 167.057 249.008 167.532C248.868 168.02 248.666 168.723 248.402 169.641C247.855 171.508 247.053 174.24 246.019 177.765C243.922 184.842 240.884 195.091 237.105 207.842C236.156 211.031 235.161 214.377 234.123 217.869C233.615 219.61 233.075 221.418 232.262 223.149C231.462 224.884 230.452 226.564 229.235 228.132C226.8 231.263 223.525 233.937 219.662 235.703C218.696 236.141 217.697 236.526 216.668 236.854C215.64 237.16 214.598 237.417 213.552 237.703C211.458 238.263 209.334 238.831 207.182 239.407C189.958 244.006 170.9 249.096 150.693 254.492L150.468 254.552L150.385 254.335C148.095 248.368 145.674 242.063 143.22 235.668C142.689 234.285 142.16 232.906 141.671 231.631L141.577 231.385L141.824 231.293C162.943 223.451 183.027 215.993 201.27 209.219L201.123 209.379C206.709 189.207 211.698 171.191 215.77 156.487L215.765 156.514C216.858 149.456 219.486 143.399 222.826 138.864C224.512 136.605 226.385 134.736 228.316 133.295C230.246 131.848 232.222 130.838 234.061 130.129C237.759 128.712 240.863 128.452 242.916 128.414C243.947 128.342 244.734 128.442 245.262 128.439C245.791 128.461 246.06 128.483 246.06 128.483Z" fill="#263238"/>
<path d="M204.628 197.569C204.628 197.605 204.35 197.624 203.842 197.628C203.334 197.649 202.598 197.565 201.707 197.383C199.93 197.008 197.54 195.971 195.467 194.092C193.384 192.228 192.045 190.017 191.408 188.317C191.231 187.897 191.11 187.504 191.021 187.153C190.919 186.807 190.844 186.506 190.815 186.252C190.737 185.75 190.711 185.473 190.746 185.467C190.843 185.448 191.023 186.554 191.747 188.175C192.453 189.796 193.797 191.9 195.813 193.704C197.82 195.522 200.089 196.569 201.793 197.025C203.508 197.479 204.632 197.463 204.628 197.569Z" fill="#263238"/>
<path d="M165.583 157.385C165.616 157.399 165.415 157.952 165.026 158.94C164.644 159.931 164.06 161.352 163.396 163.127C162.099 166.662 160.271 171.668 160.079 177.432C160 180.303 160.402 183.036 161.168 185.403C161.912 187.779 162.923 189.8 163.876 191.428C164.838 193.053 165.739 194.295 166.374 195.142C167.008 195.991 167.381 196.446 167.348 196.474C167.335 196.486 167.226 196.385 167.033 196.183C166.838 195.981 166.558 195.677 166.216 195.269C165.529 194.456 164.575 193.238 163.561 191.619C162.557 189.997 161.495 187.963 160.711 185.549C159.905 183.145 159.477 180.344 159.559 177.418C159.757 171.537 161.666 166.506 163.053 162.993C163.763 161.228 164.4 159.827 164.839 158.86C165.287 157.897 165.551 157.371 165.583 157.385Z" fill="#263238"/>
<path d="M207.139 216.486C206.984 216.538 206.459 214.382 204.717 212.394C203.006 210.378 200.951 209.542 201.026 209.396C201.048 209.338 201.591 209.463 202.388 209.874C203.183 210.281 204.211 211.013 205.112 212.054C206.009 213.097 206.582 214.221 206.867 215.068C207.156 215.917 207.199 216.473 207.139 216.486Z" fill="#263238"/>
<path d="M143.127 234.701C143.127 234.701 124.316 236.378 124.581 248.597L148.005 247.413L143.127 234.701Z" fill="#FFC9BF"/>
<path d="M173.454 29.932C171.731 38.248 170.091 46.58 168.531 54.928C166.554 65.513 164.728 76.569 167.719 86.913C169.36 92.588 172.378 97.751 175.366 102.847C177.047 105.713 178.888 108.733 181.867 110.205C185.916 112.205 191.044 110.624 194.265 107.459C197.485 104.293 199.134 99.871 200.244 95.494C202.412 86.951 202.888 78.079 203.226 69.272C203.567 60.384 203.758 51.322 201.278 42.781C198.798 34.239 193.209 26.157 184.963 22.823" fill="#263238"/>
<path d="M174.807 23.2489C177.149 21.4189 180.068 20.3379 183.037 20.1999C185.435 15.3379 191.127 13.1149 196.449 12.0799C204.287 10.5549 203.436 10.3399 210.743 13.5579C218.05 16.7759 228.408 25.8819 229.725 33.7579C230.949 41.0779 233.114 46.9329 236.292 53.6409C238.257 57.7879 242.193 60.6779 244.505 64.6419C247.017 68.9499 247.379 74.4439 245.454 79.0439C243.568 83.5489 239.582 87.5269 239.958 92.3969C240.176 95.2189 240.074 97.2469 241.19 99.8479C244.983 108.69 243.212 120.476 235.054 125.576C226.896 130.675 215.131 128.897 208.845 121.614C203.386 115.289 202.327 106.268 202.87 97.9299C203.413 89.5929 205.305 81.3049 204.76 72.9679" fill="#263238"/>
<path d="M184.147 254.237L184.035 251.36L141.628 246.888L123.048 193.477L43.478 191.68L67.55 254.237C106.893 254.542 145.768 254.549 184.147 254.237Z" fill="#263238"/>
<path d="M87.6301 223.819C88.7761 225.811 91.3201 226.498 93.3131 225.352C95.3051 224.206 95.9921 221.662 94.8461 219.669C93.7001 217.676 91.1561 216.99 89.1631 218.136C87.1701 219.282 86.4831 221.826 87.6301 223.819Z" fill="white"/>
<path d="M203.46 125.425C212.999 125.425 221.579 117.293 221.303 105.213L223.02 36.227C223.079 33.235 220.838 30.694 217.862 30.38L189.425 27.372C179.627 26.336 170.953 33.675 170.334 43.509C169.646 54.434 169.236 67.799 170.531 75.951C173.134 92.342 185.697 94.428 185.697 94.428L185.39 105.878C184.907 118.08 194.038 125.425 203.46 125.425Z" fill="#FFC9BF"/>
<path d="M176.69 52.402C176.651 53.512 177.558 54.461 178.717 54.523C179.873 54.585 180.845 53.738 180.884 52.628C180.923 51.518 180.016 50.568 178.859 50.506C177.701 50.443 176.73 51.292 176.69 52.402Z" fill="#263238"/>
<path d="M173.233 50.461C173.494 50.735 175.086 49.557 177.348 49.563C179.608 49.537 181.268 50.7 181.513 50.423C181.634 50.301 181.368 49.806 180.645 49.279C179.934 48.755 178.72 48.245 177.311 48.251C175.902 48.259 174.717 48.778 174.035 49.308C173.341 49.842 173.105 50.338 173.233 50.461Z" fill="#263238"/>
<path d="M198.526 52.8238C198.487 53.9338 199.394 54.8828 200.553 54.9448C201.71 55.0068 202.681 54.1598 202.72 53.0498C202.759 51.9398 201.852 50.9899 200.695 50.9279C199.536 50.8649 198.565 51.7138 198.526 52.8238Z" fill="#263238"/>
<path d="M195.468 50.8829C195.729 51.1569 197.324 49.9789 199.584 49.9849C201.843 49.9589 203.504 51.1219 203.749 50.8449C203.869 50.7229 203.607 50.2279 202.881 49.7019C202.17 49.1779 200.956 48.6679 199.547 48.6739C198.138 48.6819 196.953 49.2009 196.271 49.7309C195.578 50.2639 195.341 50.7599 195.468 50.8829Z" fill="#263238"/>
<path d="M187.259 67.6591C187.269 67.5301 185.863 67.2881 183.585 66.9961C183.008 66.9361 182.461 66.8221 182.363 66.4271C182.227 66.0101 182.469 65.3871 182.749 64.7151C183.292 63.3171 183.86 61.852 184.457 60.317C186.829 54.055 188.546 48.9051 188.293 48.8121C188.04 48.7191 185.912 53.719 183.54 59.981C182.969 61.525 182.423 62.9971 181.903 64.4061C181.684 65.0621 181.308 65.8071 181.603 66.6731C181.758 67.1051 182.183 67.4181 182.553 67.5181C182.923 67.6311 183.248 67.637 183.534 67.654C185.828 67.777 187.251 67.7871 187.259 67.6591Z" fill="#263238"/>
<path d="M185.697 94.427C185.697 94.427 196.724 95.138 207.649 88.571C207.649 88.571 202.323 99.831 185.918 98.297L185.697 94.427Z" fill="#A07A6E"/>
<path d="M188.216 73.1099C189.03 72.0339 190.455 71.4439 191.87 71.5959C192.852 71.7009 193.844 72.1749 194.44 72.9739C195.037 73.7729 195.161 74.9079 194.619 75.6699C194.008 76.5279 192.733 76.7259 191.653 76.4199C190.573 76.1129 189.644 75.4019 188.762 74.6939C188.518 74.4979 188.269 74.2939 188.116 74.0249C187.964 73.7569 187.931 73.4059 188.119 73.1829" fill="#A07A6E"/>
<path d="M193.916 69.2229C193.548 69.2019 193.544 71.6569 191.442 73.3999C189.344 75.1489 186.727 74.8729 186.708 75.2159C186.674 75.3699 187.291 75.6929 188.395 75.7229C189.479 75.7599 191.061 75.4119 192.347 74.3459C193.629 73.2769 194.18 71.8509 194.264 70.8439C194.358 69.8169 194.084 69.2089 193.916 69.2229Z" fill="#263238"/>
<path d="M194.451 46.922C194.674 47.537 196.933 47.245 199.586 47.565C202.247 47.832 204.387 48.608 204.739 48.057C204.896 47.793 204.523 47.2149 203.658 46.6189C202.8 46.0239 201.432 45.459 199.839 45.282C198.246 45.108 196.787 45.361 195.82 45.754C194.845 46.147 194.355 46.63 194.451 46.922Z" fill="#263238"/>
<path d="M174.065 43.9139C174.463 44.4279 176.021 43.8939 177.895 43.8699C179.768 43.7789 181.355 44.2149 181.721 43.6779C181.881 43.4169 181.631 42.9019 180.938 42.4159C180.255 41.9309 179.112 41.5349 177.824 41.5739C176.537 41.6149 175.421 42.0809 174.769 42.6069C174.107 43.1339 173.889 43.6629 174.065 43.9139Z" fill="#263238"/>
<path d="M170.672 40.7829C176.837 37.2029 182.854 33.8889 186.707 27.8899C188.84 33.9009 193.001 36.8729 198.518 40.0749C204.035 43.2769 210.21 45.1349 216.321 46.9659C213.228 49.9649 212.819 54.8169 213.532 59.0659C214.245 63.3149 215.874 67.4089 216.139 71.7089C216.494 77.4519 214.394 83.0819 214.261 88.8349C214.079 96.7189 217.565 104.168 220.974 111.28L235.781 102.654L233.649 64.1979L233.827 36.9869L210.744 15.5349L181.497 18.7329L170.672 40.7829Z" fill="#263238"/>
<path d="M167.379 121.626C174.89 129.225 174.095 142.755 182.35 149.537C187.412 153.696 194.802 154.09 201.007 151.989C207.212 149.887 212.443 145.639 217.229 141.165C222.015 136.691 226.547 131.872 231.999 128.239C237.295 124.709 246.348 122.537 247.628 116.302C248.566 111.736 243.775 106.25 242.871 101.676C241.437 94.4189 249.288 88.8059 250.599 81.5269C253.218 66.9839 245.54 49.9039 237.544 37.4769C229.548 25.0499 225.051 11.1489 204.774 9.97291C186.621 9.16191 174.256 17.8709 168.224 30.4659C165.199 36.7819 164.487 43.9229 163.899 50.9019C162.527 67.2039 161.77 84.4759 169.302 98.9979C170.862 102.006 172.723 105.817 170.621 108.476C168.698 110.91 164.345 110.807 163.132 113.662C161.874 116.623 165.117 119.337 167.379 121.626ZM189.973 25.0109C192.403 24.9089 199.607 25.0089 207.649 35.7199C212.459 42.1259 212.455 52.5149 212.346 61.5649C212.265 68.2949 212.346 85.3229 212.346 85.3229C212.346 85.3229 213.414 106.827 206.103 108.734C197.137 111.073 189.275 109.463 182.565 103.072C175.856 96.6809 172.006 87.7119 170.481 78.5719C168.956 69.4319 168.087 60.1139 169.286 50.9249C169.995 45.4879 171.752 39.5599 174.784 34.9909C180.857 25.8369 189.973 25.0109 189.973 25.0109Z" fill="#E8505B"/>
<g opacity="0.3">
<path d="M246.06 109.266C240.05 112.531 235.914 117.378 231.025 122.161C226.136 126.944 220.692 131.571 214.071 133.285C207.45 135 199.402 132.959 196.092 126.975C214.862 130.165 236.65 115.177 243.061 97.25C243.061 97.25 242.355 99.803 242.96 102.007C243.565 104.211 246.06 109.266 246.06 109.266Z" fill="black"/>
</g>
<g opacity="0.3">
<path d="M171.432 104.324C172.648 109.052 176.147 113.575 180.5 115.785C181.491 116.288 182.551 116.709 183.363 117.468C184.174 118.227 184.684 119.451 184.235 120.468C183.73 121.612 182.212 122.002 181.013 121.647C179.814 121.293 178.866 120.394 177.967 119.526C174.7 116.369 171.326 113.175 170.406 108.725C170.406 108.725 171.378 107.549 171.492 106.497C171.603 105.469 171.432 104.324 171.432 104.324Z" fill="black"/>
</g>
<path d="M241.571 100.8C241.587 100.809 241.49 101.009 241.29 101.384C241.083 101.754 240.806 102.318 240.377 103C239.56 104.39 238.269 106.34 236.502 108.622C234.727 110.895 232.467 113.501 229.652 116.088C226.833 118.657 223.465 121.252 219.454 123.158C217.425 124.07 215.383 124.742 213.386 125.328C211.389 125.91 209.423 126.342 207.533 126.633C203.755 127.251 200.281 127.258 197.404 127.01C194.525 126.728 192.234 126.204 190.693 125.726C189.912 125.52 189.332 125.275 188.931 125.141C188.533 124.995 188.327 124.91 188.333 124.893C188.349 124.846 189.194 125.129 190.748 125.531C192.297 125.946 194.581 126.411 197.436 126.643C200.289 126.841 203.723 126.797 207.458 126.159C209.326 125.858 211.269 125.422 213.246 124.838C215.218 124.253 217.257 123.575 219.237 122.686C223.176 120.815 226.519 118.262 229.331 115.734C232.139 113.189 234.414 110.625 236.215 108.394C238.008 106.154 239.34 104.245 240.207 102.893C240.66 102.229 240.965 101.684 241.201 101.332C241.428 100.975 241.556 100.792 241.571 100.8Z" fill="#263238"/>
<path d="M195.544 119.346C195.551 119.376 195.131 119.506 194.352 119.657C193.574 119.81 192.428 119.95 191.005 119.958C188.178 119.991 184.149 119.298 180.386 117.042C176.623 114.784 174.115 111.555 172.812 109.046C172.149 107.787 171.733 106.71 171.502 105.952C171.268 105.194 171.186 104.763 171.215 104.754C171.315 104.719 171.746 106.432 173.135 108.868C174.498 111.29 176.99 114.397 180.654 116.596C184.318 118.792 188.232 119.528 191.01 119.59C193.813 119.667 195.529 119.241 195.544 119.346Z" fill="#263238"/>
<path d="M191.645 144.13C191.642 144.112 191.844 144.061 192.228 143.98C192.611 143.891 193.184 143.807 193.91 143.633C195.368 143.326 197.461 142.795 199.981 141.94C205.032 140.267 211.691 136.978 218.251 132.174C224.817 127.372 230.155 122.255 234.001 118.562C235.879 116.738 237.415 115.244 238.536 114.156C239.043 113.672 239.455 113.28 239.781 112.969C240.07 112.702 240.227 112.567 240.24 112.58C240.253 112.593 240.12 112.752 239.855 113.043C239.548 113.371 239.158 113.787 238.679 114.299C237.649 115.381 236.147 116.935 234.258 118.825C230.475 122.588 225.162 127.765 218.557 132.596C211.958 137.43 205.212 140.697 200.097 142.291C197.544 143.106 195.425 143.586 193.949 143.833C193.215 143.977 192.634 144.029 192.245 144.085C191.854 144.132 191.648 144.148 191.645 144.13Z" fill="#263238"/>
</svg>
