<svg width="293" height="506" viewBox="0 0 293 506" fill="none" xmlns="http://www.w3.org/2000/svg">
<path opacity="0.1" d="M140.682 505.491C201.276 505.491 250.397 499.783 250.397 492.742C250.397 485.701 201.276 479.994 140.682 479.994C80.0887 479.994 30.9678 485.701 30.9678 492.742C30.9678 499.783 80.0887 505.491 140.682 505.491Z" fill="#32324C"/>
<path opacity="0.1" d="M292.234 343.359C282.956 448.106 110.396 490.555 25.209 408.301C7.81281 391.503 3.65047 350.994 8.15652 329.628C26.3247 243.508 83.9893 234.709 40.937 180.233C-2.11527 125.759 -6.11386 26.8655 112.744 27.6373C231.602 28.4091 154.981 173.907 236.857 214.602C274.305 233.215 297.066 288.807 292.234 343.359Z" fill="#32324C"/>
<path opacity="0.1" d="M247.184 191.055C240.024 193.019 232.036 191.145 227.193 186.653C219.459 179.477 207.117 164.984 210.792 148.119C216.04 124.026 255.905 143.259 259.041 170.34C260.609 183.879 254.093 189.16 247.184 191.055Z" fill="#32324C"/>
<path opacity="0.1" d="M204.731 127.695C200.959 126.754 198.445 124.026 198.323 120.989C198.127 116.137 199.08 107.142 207.628 101.084C219.84 92.4319 228.26 110.116 218.26 122.051C213.259 128.019 208.37 128.602 204.731 127.695Z" fill="#32324C"/>
<path opacity="0.1" d="M8.91406 245.428C4.98206 245.025 1.86525 242.692 1.02487 239.722C-0.315795 234.978 -1.50709 225.999 5.46794 218.855C15.4302 208.651 27.8957 224.874 20.8846 238C17.3791 244.562 12.7093 245.815 8.91406 245.428Z" fill="#32324C"/>
<path d="M194.816 113.474C189.355 97.8032 165.304 86.5251 139.577 87.8951C121.659 88.8488 101.672 92.0766 87.7686 100.604C56.4871 119.791 67.5075 213.329 98.4867 224.104C129.466 234.879 177.368 234.835 191.464 219.862C202.75 207.871 208.189 151.841 194.816 113.474Z" fill="#162D47"/>
<path d="M189.183 130.623C184.148 109.056 144.833 96.0211 114.488 106.253C109.303 108.001 104.799 110.224 101.509 113.046C82.9489 128.969 83.3016 198.681 109.246 211.512C129.647 221.602 152.37 221.432 172.199 212.002C182.03 207.327 188.168 200.296 189.52 192.584C193.293 171.042 193.767 150.254 189.183 130.623Z" fill="#151A31"/>
<path d="M99.5229 88.0477C99.5229 88.0477 93.7355 60.2268 137.114 59.9181C180.492 59.6094 175.917 87.258 175.917 87.258C175.917 87.258 143.703 97.9889 99.5229 88.0477Z" fill="#02C6CB"/>
<path d="M86.6291 261.593C86.5571 243.912 92.2689 232.046 92.2689 232.046C129.352 230.215 187.67 232.046 187.67 232.046C187.751 232.219 187.83 232.39 187.909 232.559C187.909 232.559 193.902 248.702 190.394 261.593C154.317 278.708 119.55 277.578 86.6291 261.593Z" fill="#2C2C2C"/>
<path d="M191.092 258.249C191.092 258.249 199.066 341.463 198.131 362.237L205.285 471.31L181.596 470.233C176.455 420.261 167.648 395.189 167.909 362.953L147.625 265.931C147.621 265.931 167.34 258.612 191.092 258.249Z" fill="#2C2C2C"/>
<path d="M180.736 469.331C181.405 462.161 189.764 458.255 198.299 460.047C206.642 461.797 207.646 472.458 207.646 472.458C207.646 472.458 217.833 479.392 220.059 491.684C220.115 491.957 220.171 492.228 220.209 492.515C220.545 494.793 218.469 496.87 215.532 497.242C200.734 499.12 186.368 499.263 172.487 497.328C169.568 496.927 167.549 494.85 167.923 492.572C167.941 492.486 167.941 492.399 167.961 492.314C168.897 486.884 170.82 476.919 179.501 473.223L180.736 469.331Z" fill="#02C6CB"/>
<path d="M184.036 477.59L183.288 476.279C183.806 476.106 196.09 472.073 205.04 476.548L204.02 477.746C195.906 473.688 184.155 477.55 184.036 477.59Z" fill="white"/>
<path d="M185.577 477.407C185.386 478.283 184.304 478.875 183.16 478.729C182.015 478.582 181.243 477.754 181.434 476.878C181.625 476.001 182.706 475.41 183.851 475.556C184.994 475.702 185.768 476.53 185.577 477.407Z" fill="white"/>
<path d="M206.689 477.019C206.498 477.896 205.417 478.487 204.272 478.341C203.128 478.195 202.356 477.367 202.547 476.49C202.737 475.614 203.819 475.022 204.963 475.168C206.106 475.315 206.88 476.143 206.689 477.019Z" fill="white"/>
<path d="M184.251 473.552L183.502 472.243C184.02 472.069 196.304 468.036 205.255 472.511L204.235 473.709C196.12 469.65 184.369 473.512 184.251 473.552Z" fill="white"/>
<path d="M185.789 473.367C185.598 474.244 184.517 474.835 183.372 474.689C182.228 474.543 181.456 473.715 181.647 472.838C181.837 471.961 182.919 471.37 184.063 471.516C185.208 471.664 185.98 472.492 185.789 473.367Z" fill="white"/>
<path d="M206.901 472.981C206.711 473.858 205.629 474.449 204.485 474.303C203.34 474.157 202.568 473.329 202.759 472.452C202.95 471.576 204.031 470.984 205.176 471.13C206.32 471.276 207.092 472.105 206.901 472.981Z" fill="white"/>
<path d="M184.036 481.615L183.288 480.305C183.806 480.132 196.09 476.099 205.04 480.574L204.02 481.772C195.906 477.713 184.155 481.575 184.036 481.615Z" fill="white"/>
<path d="M185.577 481.431C185.386 482.308 184.304 482.899 183.16 482.753C182.015 482.607 181.243 481.779 181.434 480.902C181.625 480.025 182.706 479.434 183.851 479.58C184.994 479.726 185.768 480.555 185.577 481.431Z" fill="white"/>
<path d="M206.689 481.044C206.498 481.921 205.417 482.512 204.272 482.366C203.128 482.22 202.356 481.391 202.547 480.515C202.737 479.638 203.819 479.047 204.963 479.193C206.106 479.339 206.88 480.167 206.689 481.044Z" fill="white"/>
<path d="M199.507 464.668C199.507 464.668 193.194 462.996 187.815 465.026C187.322 465.893 187.263 467.154 187.812 468.322C187.812 468.322 195.069 467.426 199.66 468.114C199.66 468.114 200.524 466.128 199.507 464.668Z" fill="white"/>
<path d="M215.532 497.242C200.734 499.119 186.368 499.263 172.487 497.328C169.568 496.927 167.549 494.85 167.923 492.571C167.941 492.486 167.941 492.399 167.961 492.314C176.622 494.176 196.844 497.2 220.059 491.684C220.115 491.957 220.171 492.228 220.209 492.515C220.545 494.792 218.469 496.87 215.532 497.242Z" fill="#08A8B1"/>
<path d="M165.845 268.512C165.077 271.799 167.933 274.94 172.225 275.527C176.515 276.115 180.616 273.928 181.384 270.641C182.153 267.355 179.297 264.213 175.005 263.626C170.715 263.039 166.614 265.226 165.845 268.512Z" stroke="white" stroke-width="0.75" stroke-miterlimit="10"/>
<path d="M171.956 269.35C171.793 270.051 172.403 270.721 173.319 270.846C174.234 270.972 175.109 270.505 175.275 269.803C175.44 269.101 174.828 268.432 173.912 268.306C172.996 268.181 172.12 268.648 171.956 269.35Z" fill="white"/>
<path d="M177.56 361.495C176.792 364.781 179.647 367.922 183.939 368.51C188.229 369.099 192.331 366.912 193.099 363.625C193.867 360.338 191.012 357.197 186.72 356.609C182.43 356.022 178.328 358.21 177.56 361.495Z" stroke="white" stroke-width="0.75" stroke-miterlimit="10"/>
<path d="M183.671 362.333C183.507 363.035 184.117 363.706 185.033 363.831C185.949 363.957 186.824 363.49 186.989 362.788C187.153 362.087 186.543 361.415 185.627 361.29C184.711 361.164 183.835 361.632 183.671 362.333Z" fill="white"/>
<path d="M183.77 449.178C183.002 452.464 185.857 455.606 190.149 456.193C194.439 456.782 198.541 454.595 199.309 451.307C200.077 448.022 197.222 444.879 192.93 444.292C188.638 443.705 184.537 445.892 183.77 449.178Z" stroke="white" stroke-width="0.75" stroke-miterlimit="10"/>
<path d="M189.88 450.016C189.716 450.717 190.326 451.387 191.242 451.514C192.158 451.639 193.032 451.172 193.198 450.471C193.362 449.769 192.752 449.099 191.836 448.973C190.92 448.849 190.045 449.314 189.88 450.016Z" fill="white"/>
<path d="M173.615 269.577L185.33 362.56L191.857 450.243" stroke="white" stroke-width="0.75" stroke-miterlimit="10"/>
<path d="M86.7477 258.249C86.7477 258.249 78.7739 341.463 79.7097 362.237L72.5547 471.31L96.2439 470.233C101.385 420.261 110.192 395.189 109.931 362.953L130.216 265.931C130.219 265.931 110.5 258.612 86.7477 258.249Z" fill="#2C2C2C"/>
<path d="M97.1059 469.331C96.4365 462.161 88.0776 458.255 79.5423 460.047C71.1997 461.797 70.1955 472.458 70.1955 472.458C70.1955 472.458 60.0083 479.392 57.7823 491.684C57.7265 491.957 57.6707 492.229 57.6329 492.515C57.2964 494.794 59.3731 496.871 62.3099 497.243C77.1076 499.12 91.4733 499.263 105.355 497.328C108.274 496.927 110.293 494.85 109.919 492.572C109.901 492.486 109.901 492.4 109.881 492.314C108.945 486.884 107.021 476.919 98.3404 473.223L97.1059 469.331Z" fill="#02C6CB"/>
<path d="M93.8036 477.59L94.5522 476.279C94.0339 476.106 81.7502 472.073 72.7993 476.548L73.8197 477.746C81.9338 473.688 93.6848 477.55 93.8036 477.59Z" fill="white"/>
<path d="M92.2628 477.407C92.4535 478.283 93.5351 478.875 94.6796 478.729C95.8241 478.582 96.5961 477.754 96.4053 476.878C96.2146 476.001 95.1331 475.41 93.9885 475.556C92.8458 475.702 92.072 476.53 92.2628 477.407Z" fill="white"/>
<path d="M71.1505 477.019C71.3412 477.896 72.4228 478.487 73.5673 478.341C74.7118 478.195 75.4838 477.367 75.293 476.49C75.1023 475.614 74.0208 475.022 72.8762 475.168C71.7335 475.315 70.9597 476.143 71.1505 477.019Z" fill="white"/>
<path d="M93.5892 473.552L94.3378 472.243C93.8196 472.069 81.5359 468.036 72.585 472.511L73.6053 473.709C81.7194 469.65 93.4705 473.512 93.5892 473.552Z" fill="white"/>
<path d="M92.0509 473.367C92.2417 474.244 93.3232 474.835 94.4677 474.689C95.6122 474.543 96.3842 473.715 96.1935 472.838C96.0027 471.961 94.9212 471.37 93.7767 471.516C92.6322 471.664 91.8602 472.492 92.0509 473.367Z" fill="white"/>
<path d="M70.9391 472.981C71.1299 473.858 72.2114 474.449 73.3559 474.303C74.5004 474.157 75.2724 473.329 75.0816 472.452C74.8909 471.576 73.8094 470.984 72.6649 471.13C71.5204 471.276 70.7484 472.105 70.9391 472.981Z" fill="white"/>
<path d="M93.8036 481.615L94.5522 480.305C94.0339 480.132 81.7502 476.099 72.7993 480.574L73.8197 481.772C81.9338 477.713 93.6848 481.575 93.8036 481.615Z" fill="white"/>
<path d="M92.2628 481.431C92.4535 482.308 93.5351 482.899 94.6796 482.753C95.8241 482.607 96.5961 481.779 96.4053 480.902C96.2146 480.025 95.1331 479.434 93.9885 479.58C92.8458 479.726 92.072 480.555 92.2628 481.431Z" fill="white"/>
<path d="M71.1505 481.044C71.3412 481.921 72.4228 482.512 73.5673 482.366C74.7118 482.22 75.4838 481.391 75.293 480.515C75.1023 479.638 74.0208 479.047 72.8762 479.193C71.7335 479.339 70.9597 480.167 71.1505 481.044Z" fill="white"/>
<path d="M78.3327 464.668C78.3327 464.668 84.6455 462.996 90.0243 465.026C90.5174 465.893 90.5768 467.154 90.0279 468.322C90.0279 468.322 82.7704 467.426 78.1797 468.114C78.1797 468.114 77.3159 466.128 78.3327 464.668Z" fill="white"/>
<path d="M62.308 497.242C77.1056 499.119 91.4714 499.263 105.353 497.328C108.272 496.927 110.291 494.85 109.917 492.571C109.899 492.486 109.899 492.399 109.879 492.314C101.218 494.176 80.9962 497.2 57.7803 491.684C57.7245 491.957 57.6687 492.228 57.631 492.515C57.2944 494.792 59.3711 496.87 62.308 497.242Z" fill="#08A8B1"/>
<path d="M111.995 268.512C112.763 271.799 109.908 274.94 105.616 275.527C101.326 276.115 97.2226 273.928 96.456 270.641C95.6876 267.355 98.5435 264.213 102.835 263.626C107.125 263.039 111.227 265.226 111.995 268.512Z" stroke="white" stroke-width="0.75" stroke-miterlimit="10"/>
<path d="M105.884 269.35C106.048 270.051 105.438 270.721 104.522 270.846C103.606 270.972 102.731 270.505 102.566 269.803C102.402 269.101 103.012 268.432 103.928 268.306C104.844 268.181 105.72 268.648 105.884 269.35Z" fill="white"/>
<path d="M100.28 361.495C101.049 364.781 98.1927 367.922 93.9008 368.51C89.6107 369.099 85.5095 366.912 84.7411 363.625C83.9727 360.338 86.8286 357.197 91.1205 356.609C95.4106 356.022 99.5118 358.21 100.28 361.495Z" stroke="white" stroke-width="0.75" stroke-miterlimit="10"/>
<path d="M94.1691 362.333C94.3329 363.035 93.7229 363.706 92.8069 363.831C91.8909 363.957 91.0146 363.49 90.8508 362.788C90.687 362.087 91.2971 361.415 92.213 361.29C93.129 361.164 94.0054 361.632 94.1691 362.333Z" fill="white"/>
<path d="M94.0722 449.178C94.8406 452.464 91.9847 455.606 87.6928 456.193C83.4009 456.782 79.2997 454.595 78.5331 451.307C77.7647 448.022 80.6206 444.879 84.9125 444.292C89.2026 443.705 93.3038 445.892 94.0722 449.178Z" stroke="white" stroke-width="0.75" stroke-miterlimit="10"/>
<path d="M87.9611 450.016C88.1249 450.717 87.5149 451.387 86.5989 451.514C85.6829 451.639 84.8083 451.172 84.6428 450.471C84.479 449.769 85.0891 449.099 86.005 448.973C86.921 448.849 87.7974 449.314 87.9611 450.016Z" fill="white"/>
<path d="M104.225 269.577L92.5117 362.56L85.9829 450.243" stroke="white" stroke-width="0.75" stroke-miterlimit="10"/>
<path d="M192.313 239.125C173.833 246.529 157.69 250.531 139.638 250.432C121.587 250.531 106.063 246.529 87.583 239.125L91.9145 170.156L91.4502 89.7087L126.14 82.575C130.565 81.664 135.102 81.2215 139.637 81.2078C144.173 81.2215 148.71 81.664 153.133 82.575L187.825 89.7087L187.361 170.156L192.313 239.125Z" fill="#02C6CB"/>
<path d="M126.098 157.972C125.738 157.972 125.44 157.755 125.425 157.476C124.524 139.977 124.265 103.808 124.263 103.444C124.261 103.159 124.561 102.926 124.934 102.925H124.938C125.308 102.925 125.611 103.155 125.612 103.439C125.614 103.802 125.873 139.953 126.773 157.435C126.787 157.72 126.498 157.96 126.125 157.971C126.116 157.972 126.107 157.972 126.098 157.972Z" fill="white"/>
<path d="M155.228 157.972C155.219 157.972 155.21 157.972 155.201 157.972C154.828 157.961 154.538 157.721 154.553 157.436C155.453 139.953 155.712 103.802 155.713 103.44C155.715 103.156 156.018 102.926 156.388 102.926H156.392C156.764 102.927 157.065 103.16 157.063 103.445C157.061 103.809 156.802 139.977 155.901 157.477C155.886 157.754 155.587 157.972 155.228 157.972Z" fill="white"/>
<path d="M129.997 97.9299C129.984 97.9299 129.973 97.9299 129.963 97.9285C117.013 97.453 110.002 88.6957 109.71 88.3222C109.513 88.07 109.619 87.742 109.948 87.5904C110.281 87.4388 110.707 87.5215 110.905 87.7723C110.974 87.8591 117.839 96.4138 130.031 96.8617C130.414 96.8755 130.711 97.1263 130.693 97.4199C130.673 97.708 130.366 97.9299 129.997 97.9299Z" fill="#08A8B1"/>
<path d="M150.324 97.9299C150.336 97.9299 150.347 97.9299 150.358 97.9285C163.307 97.453 170.318 88.6957 170.61 88.3222C170.808 88.07 170.702 87.742 170.372 87.5904C170.039 87.4388 169.613 87.5215 169.415 87.7723C169.347 87.8591 162.481 96.4138 150.289 96.8617C149.906 96.8755 149.609 97.1263 149.627 97.4199C149.645 97.708 149.953 97.9299 150.324 97.9299Z" fill="#08A8B1"/>
<path d="M109.93 201.876L108.294 227.616C108.294 227.616 123.988 231.425 139.948 231.425C155.908 231.425 171.602 227.763 171.602 227.763L169.918 202.948C169.918 202.948 135.543 208.396 109.93 201.876Z" fill="#08A8B1"/>
<path d="M57.6833 239.047C57.6833 239.047 59.7474 244.292 62.0346 248.103C64.3201 251.914 62.7508 254.856 64.1239 258.298C65.497 261.739 60.1217 261.484 59.0834 257.875C58.0468 254.265 58.4895 252.557 57.507 252.439C56.5244 252.322 53.7189 261.12 53.314 263.647C52.9091 266.171 53.5858 272.499 52.3477 273.483C51.1096 274.467 48.1386 270.911 49.0797 264.327C50.0209 257.744 49.3299 257.884 49.3299 257.884C49.3299 257.884 48.5183 260.439 47.6653 263.188C46.8123 265.937 46.8051 269.286 46.9671 271.162C47.1272 273.039 44.6276 273.971 43.8898 272.963C43.152 271.956 41.9805 265.408 42.9739 262.847C43.9672 260.288 45.1765 255.894 45.1765 255.894C45.1765 255.894 41.8887 261.785 41.3273 263.303C40.764 264.822 41.7034 270.625 39.9704 271.683C39.256 272.12 36.9616 271.537 37.3485 263.273C37.3485 263.273 38.1385 259.239 39.274 256.74C39.274 256.74 37.5087 258.605 36.6467 261.112C35.8891 263.317 35.468 265.633 35.216 267.868C34.9641 270.104 32.4357 269.807 32.4321 265.866C32.4285 261.924 33.2941 257.578 34.741 255.479C36.1878 253.382 38.2987 241.11 42.5816 236.61L57.6833 239.047Z" fill="#FFAF82"/>
<path d="M106.132 107.586C106.132 107.586 93.8091 151.277 83.4851 166.392C83.4851 166.392 77.8076 187.654 58.0774 239.847C58.0774 239.847 47.7696 242.987 41.7573 236.993C41.7573 236.993 51.2895 179.615 57.0408 161.268C57.0408 161.268 82.8175 97.8789 91.4607 89.7046C91.4607 89.7046 104.772 93.8476 106.132 107.586Z" fill="#02C6CB"/>
<path d="M94.7214 109.486C99.0805 109.486 102.614 106.78 102.614 103.441C102.614 100.103 99.0805 97.3965 94.7214 97.3965C90.3623 97.3965 86.8286 100.103 86.8286 103.441C86.8286 106.78 90.3623 109.486 94.7214 109.486Z" stroke="white" stroke-width="0.75" stroke-miterlimit="10"/>
<path d="M96.4059 103.441C96.4059 104.154 95.6518 104.731 94.7215 104.731C93.7911 104.731 93.0371 104.154 93.0371 103.441C93.0371 102.729 93.7911 102.151 94.7215 102.151C95.6518 102.15 96.4059 102.729 96.4059 103.441Z" fill="white"/>
<path d="M72.2385 169.545C76.5976 169.545 80.1313 166.839 80.1313 163.5C80.1313 160.162 76.5976 157.456 72.2385 157.456C67.8794 157.456 64.3457 160.162 64.3457 163.5C64.3457 166.839 67.8794 169.545 72.2385 169.545Z" stroke="white" stroke-width="0.75" stroke-miterlimit="10"/>
<path d="M73.9225 163.5C73.9225 164.213 73.1684 164.79 72.2381 164.79C71.3077 164.79 70.5537 164.213 70.5537 163.5C70.5537 162.788 71.3077 162.21 72.2381 162.21C73.1684 162.209 73.9225 162.788 73.9225 163.5Z" fill="white"/>
<path d="M56.2812 246.687C56.2812 250.026 52.7469 252.732 48.3884 252.732C44.0299 252.732 40.4956 250.026 40.4956 246.687C40.4956 243.349 44.0299 240.643 48.3884 240.643C52.7469 240.641 56.2812 243.348 56.2812 246.687Z" stroke="white" stroke-width="0.75" stroke-miterlimit="10"/>
<path d="M50.0728 246.687C50.0728 247.4 49.3188 247.978 48.3885 247.978C47.4581 247.978 46.7041 247.4 46.7041 246.687C46.7041 245.975 47.4581 245.397 48.3885 245.397C49.3188 245.396 50.0728 245.975 50.0728 246.687Z" fill="white"/>
<path d="M94.7215 103.441L72.238 163.5L48.3887 246.688" stroke="white" stroke-width="0.75" stroke-miterlimit="10"/>
<path d="M222.066 239.047C222.066 239.047 220.002 244.292 217.715 248.103C215.43 251.914 216.999 254.856 215.626 258.298C214.253 261.739 219.628 261.484 220.666 257.875C221.703 254.265 221.26 252.557 222.243 252.439C223.225 252.322 226.033 261.12 226.436 263.647C226.841 266.171 226.164 272.499 227.402 273.483C228.64 274.467 231.611 270.911 230.67 264.327C229.729 257.744 230.42 257.884 230.42 257.884C230.42 257.884 231.231 260.439 232.084 263.188C232.937 265.937 232.945 269.286 232.783 271.162C232.622 273.039 235.122 273.971 235.86 272.963C236.598 271.956 237.769 265.408 236.776 262.847C235.782 260.288 234.573 255.894 234.573 255.894C234.573 255.894 237.861 261.785 238.422 263.303C238.986 264.822 238.046 270.625 239.779 271.683C240.494 272.12 242.788 271.537 242.401 263.273C242.401 263.273 241.611 259.239 240.476 256.74C240.476 256.74 242.241 258.605 243.103 261.112C243.861 263.317 244.282 265.633 244.534 267.868C244.786 270.104 247.314 269.807 247.318 265.866C247.321 261.924 246.456 257.578 245.009 255.479C243.562 253.382 241.451 241.11 237.168 236.61L222.066 239.047Z" fill="#FFAF82"/>
<path d="M173.616 107.586C173.616 107.586 185.939 151.277 196.263 166.392C196.263 166.392 201.941 187.654 221.671 239.847C221.671 239.847 231.979 242.987 237.991 236.993C237.991 236.993 228.459 179.615 222.707 161.268C222.707 161.268 196.472 97.8801 187.827 89.7058C187.827 89.7058 174.976 93.8474 173.616 107.586Z" fill="#02C6CB"/>
<path d="M185.028 109.486C189.387 109.486 192.921 106.78 192.921 103.441C192.921 100.103 189.387 97.3965 185.028 97.3965C180.669 97.3965 177.135 100.103 177.135 103.441C177.135 106.78 180.669 109.486 185.028 109.486Z" stroke="white" stroke-width="0.75" stroke-miterlimit="10"/>
<path d="M183.342 103.441C183.342 104.154 184.096 104.731 185.026 104.731C185.957 104.731 186.711 104.154 186.711 103.441C186.711 102.729 185.957 102.151 185.026 102.151C184.096 102.15 183.342 102.729 183.342 103.441Z" fill="white"/>
<path d="M207.51 169.545C211.869 169.545 215.403 166.839 215.403 163.5C215.403 160.162 211.869 157.456 207.51 157.456C203.151 157.456 199.617 160.162 199.617 163.5C199.617 166.839 203.151 169.545 207.51 169.545Z" stroke="white" stroke-width="0.75" stroke-miterlimit="10"/>
<path d="M205.825 163.5C205.825 164.213 206.579 164.79 207.51 164.79C208.44 164.79 209.194 164.213 209.194 163.5C209.194 162.788 208.44 162.21 207.51 162.21C206.579 162.209 205.825 162.788 205.825 163.5Z" fill="white"/>
<path d="M223.466 246.687C223.466 250.026 227.001 252.732 231.359 252.732C235.718 252.732 239.252 250.026 239.252 246.687C239.252 243.349 235.718 240.643 231.359 240.643C227.001 240.641 223.466 243.348 223.466 246.687Z" stroke="white" stroke-width="0.75" stroke-miterlimit="10"/>
<path d="M229.675 246.687C229.675 247.4 230.429 247.978 231.359 247.978C232.29 247.978 233.044 247.4 233.044 246.687C233.044 245.975 232.29 245.397 231.359 245.397C230.429 245.396 229.675 245.975 229.675 246.687Z" fill="white"/>
<path d="M185.028 103.441L207.51 163.5L231.359 246.687" stroke="white" stroke-width="0.75" stroke-miterlimit="10"/>
<path d="M153.649 71.0709L153.185 77.7511L152.604 86.1225C152.604 86.1225 150.433 89.2731 140.638 89.2731C130.838 89.2731 128.835 87.119 128.835 87.119L128.439 83.4046L127.122 71.0681H153.649V71.0709Z" fill="#FFAF82"/>
<path d="M153.649 71.071L153.185 77.7512C149.098 80.0942 139.427 84.7002 128.439 83.4061L127.122 71.0696L153.649 71.071Z" fill="#F88968"/>
<path d="M110.388 40.6894C110.388 40.6894 102.884 35.0662 96.8916 38.7364C89.8122 43.0709 97.2173 58.6725 109.776 57.02L110.388 40.6894Z" fill="#FFA378"/>
<path d="M106.01 53.1391C105.387 53.1226 104.867 52.7518 104.817 52.2653C104.01 44.5886 98.1402 43.2558 97.8901 43.2035C97.2333 43.0643 96.841 42.5433 97.0173 42.0389C97.1955 41.5344 97.8613 41.2312 98.5235 41.3635C98.8421 41.4269 106.337 43.0174 107.293 52.1123C107.349 52.6361 106.837 53.095 106.154 53.1364C106.105 53.1391 106.058 53.1405 106.01 53.1391Z" fill="#F88968"/>
<path d="M98.9922 49.2249C98.6989 49.2166 98.4091 49.1298 98.1806 48.9644C97.6839 48.6019 97.6623 48.001 98.1356 47.6206C98.2418 47.5338 100.792 45.5326 104.832 46.3265C105.496 46.456 105.897 46.9756 105.726 47.4842C105.557 47.9927 104.879 48.2987 104.214 48.1691C101.558 47.6482 99.9514 48.9189 99.9352 48.9313C99.6814 49.1353 99.3341 49.2345 98.9922 49.2249Z" fill="#F88968"/>
<path d="M167.736 40.6894C167.736 40.6894 175.24 35.0662 181.235 38.7364C188.314 43.0709 180.909 58.6725 168.35 57.02L167.736 40.6894Z" fill="#FFA378"/>
<path d="M172.116 53.1391C172.739 53.1226 173.259 52.7518 173.309 52.2653C174.116 44.5886 179.986 43.2558 180.236 43.2035C180.893 43.0643 181.285 42.5433 181.109 42.0389C180.931 41.5344 180.265 41.2312 179.602 41.3635C179.284 41.4269 171.789 43.0174 170.833 52.1123C170.777 52.6361 171.289 53.095 171.972 53.1364C172.021 53.1391 172.068 53.1405 172.116 53.1391Z" fill="#F88968"/>
<path d="M179.135 49.2249C179.428 49.2166 179.718 49.1298 179.946 48.9644C180.443 48.6019 180.464 48.001 179.991 47.6206C179.885 47.5338 177.335 45.5326 173.295 46.3265C172.631 46.456 172.23 46.9756 172.401 47.4842C172.572 47.9927 173.248 48.2987 173.912 48.1691C176.568 47.6482 178.175 48.9189 178.192 48.9313C178.445 49.1353 178.793 49.2345 179.135 49.2249Z" fill="#F88968"/>
<path d="M139.438 77.6286C113.509 77.6286 105.504 54.0416 103.118 36.7738C100.917 20.8525 117.059 6.82074 137.963 6.63744C138.24 6.63468 138.52 6.6333 138.801 6.6333C139.15 6.6333 139.496 6.63468 139.84 6.63882C160.488 6.84968 176.57 20.501 174.787 36.2569C172.807 53.7508 165.357 77.6286 139.438 77.6286Z" fill="#FFAF82"/>
<path d="M105.765 42.1308C104.887 36.283 107.324 29.6248 109.447 27.8951C113.921 24.2538 114.077 18.0849 114.077 18.0849C130.14 25.0642 159.82 17.9581 159.82 17.9581C159.323 22.5269 167.277 25.0642 169.098 29.2912C169.878 31.0953 172.996 36.0556 172.359 41.3314L174.056 41.4279C181.15 22.3725 167.276 15.2926 167.276 15.2926C167.276 15.2926 171.976 12.7635 164.134 6.63318C155.535 -0.0870618 136.984 -2.26466 122.537 3.1118C106.985 8.90036 105.841 17.6769 105.841 17.6769C105.841 17.6769 99.2888 19.2701 99.3392 26.5499C99.3608 29.6689 102.11 36.8067 104.149 42.7703L105.765 42.1308Z" fill="#32324C"/>
<path d="M128.303 39.573C128.303 41.5577 127.149 43.1674 125.726 43.1674C124.302 43.1674 123.147 41.559 123.147 39.5744C123.147 37.5897 124.3 35.98 125.724 35.98C127.147 35.9786 128.301 37.5884 128.303 39.573Z" fill="#32324C"/>
<path d="M114.657 31.8907C114.657 31.8907 117.137 27.9861 121.9 27.0076C126.311 26.1021 129.462 26.9732 131.04 27.6319C131.729 27.92 132.026 28.5554 131.753 29.119C131.429 29.7861 130.436 30.099 129.593 29.7985C126.923 28.8475 121.047 27.6251 114.657 31.8907Z" fill="#32324C"/>
<path d="M151.501 39.573C151.501 41.5577 152.654 43.1674 154.078 43.1674C155.501 43.1674 156.657 41.559 156.657 39.5744C156.657 37.5897 155.503 35.98 154.08 35.98C152.656 35.9786 151.501 37.5884 151.501 39.573Z" fill="#32324C"/>
<path d="M164.782 31.8907C164.782 31.8907 162.302 27.9861 157.54 27.0076C153.13 26.1021 149.979 26.9732 148.401 27.6319C147.711 27.92 147.414 28.5554 147.688 29.119C148.012 29.7861 149.005 30.099 149.847 29.7985C152.516 28.8475 158.393 27.6251 164.782 31.8907Z" fill="#32324C"/>
<path d="M139.498 52.8398C139.087 52.8095 138.7 52.6372 138.468 52.3478C138.071 51.8558 138.27 51.2108 138.913 50.9076L142.814 49.0635L139.751 48.2007C139.242 48.0574 138.891 47.6963 138.859 47.2815L138.332 40.5447C138.287 39.9672 138.861 39.471 139.615 39.4366C140.367 39.3966 141.016 39.8418 141.061 40.4193L141.535 46.4724L146.395 47.841C146.887 47.9802 147.23 48.3206 147.282 48.7189C147.335 49.1173 147.085 49.5032 146.64 49.714L140.349 52.6882C140.084 52.8137 139.786 52.8619 139.498 52.8398Z" fill="#F88968"/>
<path d="M145.276 61.5806C140.225 62.3565 133.583 62.3069 127.106 59.0529C126.478 58.7373 126.303 58.0936 126.715 57.6126C127.128 57.1316 127.968 56.9979 128.596 57.3136C139.956 63.0194 152.346 57.439 152.469 57.3811C153.111 57.0834 153.946 57.2433 154.333 57.7353C154.72 58.2273 154.513 58.8668 153.871 59.1631C153.592 59.2913 150.187 60.8267 145.276 61.5806Z" fill="#F88968"/>
<path d="M125.945 48.8417C119.845 48.9354 114.781 45.21 114.659 40.5378C114.536 35.8643 119.4 31.9873 125.503 31.8936C131.603 31.7999 136.667 35.5252 136.789 40.1988C136.912 44.871 132.048 48.7479 125.945 48.8417ZM125.539 33.2883C120.442 33.3669 116.379 36.6057 116.481 40.5089C116.584 44.412 120.813 47.5241 125.909 47.4469C131.006 47.3683 135.069 44.1295 134.966 40.2263C134.866 36.3232 130.635 33.2112 125.539 33.2883Z" fill="#32324C"/>
<path d="M154.763 48.4006C148.661 48.4944 143.599 44.769 143.476 40.0954C143.354 35.4219 148.218 31.5449 154.32 31.4512C160.421 31.3575 165.485 35.0828 165.607 39.7564C165.728 44.4286 160.864 48.3069 154.763 48.4006ZM154.356 32.8473C149.26 32.9259 145.197 36.1647 145.299 40.0679C145.402 43.971 149.631 47.0831 154.727 47.0045C159.823 46.9259 163.887 43.6871 163.784 39.784C163.682 35.8808 159.453 32.7688 154.356 32.8473Z" fill="#32324C"/>
<path d="M102.918 37.1101L102.954 38.509L115.859 39.0768L115.963 37.6835L102.918 37.1101Z" fill="#32324C"/>
<path d="M174.542 37.2261L164.133 37.6836L164.238 39.077L174.542 38.6236V37.2261Z" fill="#32324C"/>
<path d="M136.266 39.5731L135.181 38.4513C136.915 37.4631 141.207 36.1648 145.028 38.3148L143.948 39.4394C140.272 37.3707 136.428 39.4822 136.266 39.5731Z" fill="#32324C"/>
<path d="M140.644 67.0976C138.37 67.1389 135.758 66.7806 133.113 65.5747C132.661 65.3679 132.512 64.92 132.782 64.5727C133.052 64.2267 133.637 64.1124 134.09 64.3191C140.448 67.2189 146.631 64.4569 146.89 64.337C147.34 64.1303 147.927 64.2419 148.199 64.5878C148.469 64.9338 148.325 65.3803 147.875 65.5884C147.682 65.678 144.699 67.0232 140.644 67.0976Z" fill="#F88968"/>
<path d="M91.4626 89.706C91.4626 89.706 103.397 96.5089 103.235 116.952C103.073 137.395 91.4626 165.82 91.4626 165.82C89.8754 171.591 89.2851 182.71 91.1081 187.251C91.1081 187.251 112.235 157.727 114.659 134.511C117.633 106.021 114.659 96.1065 99.5245 88.048C99.5245 88.048 95.4737 86.5457 91.4626 89.706Z" fill="#162D47"/>
<path d="M187.43 89.7059C187.43 89.7059 175.496 96.5089 175.658 116.952C175.82 137.395 187.43 165.82 187.43 165.82C189.017 171.591 190.41 182.71 188.587 187.251C188.587 187.251 166.658 157.727 164.234 134.511C161.26 106.021 161.997 95.5676 177.131 87.5091C177.131 87.5091 183.419 86.5457 187.43 89.7059Z" fill="#162D47"/>
</svg>
