<svg width="1250" height="1266" viewBox="0 0 1250 1266" fill="none" xmlns="http://www.w3.org/2000/svg">
<path d="M1250 634.649C1250 973.558 970.178 1266 625 1266C279.822 1266 0 973.558 0 634.649C0 295.74 279.822 0 625 0C970.178 0 1250 295.74 1250 634.649Z" fill="#E5EFF0" fill-opacity="0.5"/>
<path d="M1168.93 636.206C1168.93 948.45 925.407 1201.57 625 1201.57C324.593 1201.57 81.0645 948.45 81.0645 636.206C81.0645 323.963 324.593 70.8394 625 70.8394C925.407 70.8394 1168.93 323.963 1168.93 636.206Z" fill="#57B0B2"/>
<ellipse cx="625.501" cy="626.861" rx="438.351" ry="427.27" fill="#139A9D"/>
<path fill-rule="evenodd" clip-rule="evenodd" d="M803.355 864.891C746.997 914.501 674.539 945.44 628.003 945.44C581.466 945.44 509.009 914.501 452.651 864.891C378.243 799.393 334.049 707.711 334.049 593.546V451.303C334.059 414.173 361.871 383.438 397.331 381.105L409.843 380.134C446.033 376.899 478.679 370.222 507.793 360.154C538.07 349.683 564.501 335.555 587.213 317.76C611.368 298.901 644.637 298.901 668.823 317.784C691.505 335.555 717.936 349.683 748.212 360.154C780.586 371.349 817.321 378.35 858.417 381.086C894.134 383.438 921.946 414.173 921.957 451.31V593.546C921.957 707.711 877.763 799.393 803.355 864.891ZM481.909 829.115C530.511 871.897 592.862 898.521 628.003 898.521C663.143 898.521 725.494 871.897 774.097 829.115C838.731 772.22 876.733 693.382 876.733 593.546V451.317C876.733 438.94 867.459 428.695 855.537 427.91C810.698 424.924 770.15 417.198 733.911 404.665C699.093 392.624 668.279 376.154 641.599 355.25C633.548 348.963 622.458 348.963 614.437 355.226C587.726 376.154 556.912 392.624 522.094 404.665C489.461 415.951 453.333 423.339 413.473 426.901L400.452 427.912C388.547 428.695 379.273 438.94 379.273 451.31V593.546C379.273 693.382 417.275 772.22 481.909 829.115Z" fill="white"/>
<path d="M755.952 520.56C764.627 528.436 766.106 541.67 759.814 551.329L758.079 553.664L599.796 741.34C590.963 751.813 575.548 751.932 566.521 742.203L564.689 739.968L496.854 646.129C489.361 635.764 491.386 621.06 501.376 613.286C510.598 606.11 523.384 607.348 531.19 615.733L533.033 617.978L584.135 688.662L724.044 522.767C731.635 513.766 744.391 512.232 753.701 518.76L755.952 520.56Z" fill="white"/>
</svg>
